<svg width="256" height="71" viewBox="0 0 256 71" fill="none" xmlns="http://www.w3.org/2000/svg">
<path fill-rule="evenodd" clip-rule="evenodd" d="M6.84277 0H0V55.2577H6.84277V0ZM90.3641 14.3079C83.4047 14.3079 77.9806 17.8453 75.115 22.5955C72.8634 26.3351 72.0447 30.58 72.0447 35.3302C72.0447 40.9901 73.6822 46.2456 77.0595 50.0862C80.1298 53.7247 84.7352 56.0493 90.4664 56.0493C94.2531 56.0493 97.8351 54.9375 100.701 53.0172C103.976 50.7937 106.33 47.1553 106.944 43.2136H100.291C99.7796 45.336 99.0632 46.4478 97.9375 47.5595C96.3 49.2777 93.639 50.1873 90.4664 50.1873C87.3961 50.1873 84.9399 49.1766 83.0977 47.3574C80.6415 44.9317 79.2087 40.9901 79.2087 37.3516H107.762L107.865 33.3088C107.967 27.9522 106.023 22.7977 102.748 19.2603C99.6773 16.2282 95.5836 14.3079 90.3641 14.3079ZM79.3094 31.6917C79.5141 25.8297 83.0961 19.9677 90.3624 19.9677C93.9444 19.9677 96.6054 21.3827 98.3452 23.6062C99.9827 25.7287 100.801 28.7607 100.801 31.6917H79.3094ZM131.128 14.7114C126.649 14.7114 121.458 16.9293 119.117 20.861L117.896 15.7195H112.705V70.7641H119.423V50.7021C121.56 54.3314 126.751 56.3477 131.026 56.3477C135.708 56.3477 139.373 54.7346 142.019 52.3151C146.09 48.4841 148.126 42.2337 148.126 35.3783C148.126 28.8254 146.192 22.7765 142.324 18.9456C139.881 16.3244 136.014 14.7114 131.128 14.7114ZM130.011 50.8074C127.059 50.8074 125.125 49.5976 123.497 48.1862C120.138 45.2626 119.018 40.5243 119.018 35.5844C119.018 30.6445 120.138 25.8054 123.497 22.9826C125.125 21.5712 127.059 20.3614 130.011 20.3614C138.968 20.3614 141.309 28.3258 141.309 35.5844C141.309 42.843 138.968 50.8074 130.011 50.8074ZM156.027 22.5955C158.893 17.8453 164.317 14.3079 171.276 14.3079C176.496 14.3079 180.589 16.2282 183.66 19.2603C186.935 22.7977 188.879 27.9522 188.777 33.3088L188.674 37.3516H160.121C160.121 40.9901 161.554 44.9317 164.01 47.3574C165.852 49.1766 168.308 50.1873 171.378 50.1873C174.551 50.1873 177.212 49.2777 178.849 47.5595C179.975 46.4478 180.692 45.336 181.203 43.2136H187.856C187.242 47.1553 184.888 50.7937 181.613 53.0172C178.747 54.9375 175.165 56.0493 171.378 56.0493C165.647 56.0493 161.042 53.7247 157.972 50.0862C154.594 46.2456 152.957 40.9901 152.957 35.3302C152.957 30.58 153.775 26.3351 156.027 22.5955ZM171.274 19.9677C164.008 19.9677 160.426 25.8297 160.221 31.6917H181.713C181.713 28.7607 180.894 25.7287 179.257 23.6062C177.517 21.3827 174.856 19.9677 171.274 19.9677ZM211.524 14.3095C204.565 14.3095 199.141 17.8469 196.275 22.5971C194.023 26.3366 193.205 30.5815 193.205 35.3318C193.205 40.9916 194.842 46.2472 198.219 50.0878C201.29 53.7263 205.895 56.0509 211.626 56.0509C215.413 56.0509 218.995 54.9391 221.861 53.0188C225.136 50.7953 227.49 47.1568 228.104 43.2151H221.451C220.94 45.3376 220.223 46.4493 219.097 47.5611C217.46 49.2793 214.799 50.1889 211.626 50.1889C208.556 50.1889 206.1 49.1782 204.258 47.3589C201.801 44.9333 200.369 40.9916 200.369 37.3531H228.922L229.025 33.3104C229.127 27.9537 227.183 22.7992 223.908 19.2618C220.837 16.2298 216.744 14.3095 211.524 14.3095ZM200.47 31.6917C200.675 25.8297 204.257 19.9677 211.523 19.9677C215.105 19.9677 217.766 21.3827 219.506 23.6062C221.143 25.7286 221.962 28.7607 221.962 31.6917H200.47ZM256 20.5613L254.47 15.7059L240.289 20.6624L239.065 15.5036H233.862V55.2573H240.595V27.0352L256 20.5613ZM13.6855 15.5036H20.5282V55.2573H13.6855V15.5036ZM21.3338 0H13.686V7.55321H21.3338V0Z" fill="black"/>
<path fill-rule="evenodd" clip-rule="evenodd" d="M52.0325 14.5691H43.7073V22.8943H52.0325V14.5691ZM52.0325 47.8699H43.7073V56.1951H52.0325V47.8699ZM60.3577 14.5691H68.6829V22.8943H60.3577V14.5691ZM35.3821 14.5691H27.0569V22.8943H35.3821V14.5691ZM52.0325 31.2195H60.3577V39.5447H52.0325V31.2195ZM43.7073 31.2195H35.3821V39.5447H43.7073V31.2195Z" fill="url(#paint0_linear)"/>
<defs>
<linearGradient id="paint0_linear" x1="27.0575" y1="35.3594" x2="68.6829" y2="35.3596" gradientUnits="userSpaceOnUse">
<stop stop-color="#00A55F"/>
<stop offset="1" stop-color="#4CF1AC"/>
</linearGradient>
</defs>
</svg>
