<svg width="640" height="177" viewBox="0 0 640 177" fill="none" xmlns="http://www.w3.org/2000/svg">
<path fill-rule="evenodd" clip-rule="evenodd" d="M17.1069 0H0V138.144H17.1069V0ZM225.91 35.7698C208.512 35.7698 194.952 44.6133 187.788 56.4889C182.159 65.8378 180.112 76.45 180.112 88.3256C180.112 102.475 184.206 115.614 192.649 125.216C200.325 134.312 211.838 140.123 226.166 140.123C235.633 140.123 244.588 137.344 251.752 132.543C259.939 126.984 265.824 117.888 267.359 108.034H250.729C249.449 113.34 247.658 116.12 244.844 118.899C240.75 123.194 234.098 125.468 226.166 125.468C218.49 125.468 212.35 122.942 207.744 118.394C201.604 112.329 198.022 102.475 198.022 93.3791H269.406L269.662 83.2722C269.918 69.8806 265.057 56.9943 256.869 48.1508C249.193 40.5706 238.959 35.7698 225.91 35.7698ZM198.274 79.2293C198.785 64.5744 207.74 49.9194 225.906 49.9194C234.861 49.9194 241.514 53.4568 245.863 59.0156C249.957 64.3217 252.004 71.9019 252.004 79.2293H198.274ZM327.82 36.7785C316.624 36.7785 303.646 42.3232 297.793 52.1526L294.74 39.2988H281.762V176.91H298.557V126.755C303.9 135.829 316.878 140.869 327.566 140.869C339.271 140.869 348.432 136.837 355.048 130.788C365.226 121.21 370.316 105.584 370.316 88.4458C370.316 72.0635 365.481 56.9413 355.811 47.364C349.704 40.811 340.034 36.7785 327.82 36.7785ZM325.028 127.019C317.648 127.019 312.814 123.994 308.742 120.466C300.345 113.157 297.546 101.311 297.546 88.9613C297.546 76.6115 300.345 64.5138 308.742 57.4568C312.814 53.9283 317.648 50.9038 325.028 50.9038C347.421 50.9038 353.273 70.8147 353.273 88.9613C353.273 107.108 347.421 127.019 325.028 127.019ZM390.068 56.4889C397.232 44.6133 410.792 35.7698 428.191 35.7698C441.239 35.7698 451.474 40.5706 459.149 48.1508C467.337 56.9943 472.198 69.8806 471.942 83.2722L471.686 93.3791H400.302C400.302 102.475 403.884 112.329 410.025 118.394C414.63 122.942 420.771 125.468 428.446 125.468C436.378 125.468 443.03 123.194 447.124 118.899C449.938 116.12 451.729 113.34 453.009 108.034H469.64C468.104 117.888 462.22 126.984 454.032 132.543C446.868 137.344 437.913 140.123 428.446 140.123C414.118 140.123 402.605 134.312 394.929 125.216C386.486 115.614 382.392 102.475 382.392 88.3256C382.392 76.45 384.439 65.8378 390.068 56.4889ZM428.185 49.9194C410.019 49.9194 401.064 64.5744 400.553 79.2293H454.283C454.283 71.9019 452.236 64.3217 448.142 59.0156C443.793 53.4568 437.14 49.9194 428.185 49.9194ZM528.81 35.7736C511.412 35.7736 497.852 44.6172 490.688 56.4927C485.059 65.8416 483.012 76.4538 483.012 88.3294C483.012 102.479 487.106 115.618 495.549 125.22C503.225 134.316 514.738 140.127 529.066 140.127C538.533 140.127 547.488 137.348 554.652 132.547C562.84 126.988 568.724 117.892 570.259 108.038H553.629C552.349 113.344 550.558 116.123 547.744 118.903C543.65 123.198 536.998 125.472 529.066 125.472C521.391 125.472 515.25 122.946 510.645 118.397C504.504 112.333 500.922 102.479 500.922 93.3829H572.306L572.562 83.276C572.818 69.8844 567.957 56.9981 559.769 48.1546C552.094 40.5744 541.859 35.7736 528.81 35.7736ZM501.175 79.2292C501.687 64.5743 510.642 49.9193 528.808 49.9193C537.763 49.9193 544.415 53.4567 548.765 59.0155C552.858 64.3216 554.905 71.9018 554.905 79.2292H501.175ZM640 51.4032L636.175 39.2647L600.723 51.6561L597.662 38.7589H584.654V138.143H601.488V67.5879L640 51.4032ZM34.2137 38.7589H51.3206V138.143H34.2137V38.7589ZM53.3346 0H34.2151V18.883H53.3346V0Z" fill="black"/>
<path fill-rule="evenodd" clip-rule="evenodd" d="M88.4553 36.4227H67.6423V57.2357H88.4553V36.4227ZM130.081 36.4228H109.268V57.2358H130.081V36.4228ZM130.081 119.675H109.268V140.488H130.081V119.675ZM150.894 36.4228H171.707V57.2358H150.894V36.4228ZM130.081 78.0488H150.894V98.8618H130.081V78.0488ZM109.268 78.0488H88.4553V98.8618H109.268V78.0488Z" fill="url(#paint0_linear)"/>
<defs>
<linearGradient id="paint0_linear" x1="67.6438" y1="88.3984" x2="171.707" y2="88.399" gradientUnits="userSpaceOnUse">
<stop stop-color="#00A55F"/>
<stop offset="1" stop-color="#4CF1AC"/>
</linearGradient>
</defs>
</svg>
