<svg width="64" height="68" viewBox="0 0 64 68" fill="none" xmlns="http://www.w3.org/2000/svg">
<path d="M52 40V28H64V40H52Z" fill="url(#paint0_linear)"/>
<path d="M26 26V14L38 14V26H26Z" fill="url(#paint1_linear)"/>
<path d="M26 54V42H38V54H26Z" fill="url(#paint2_linear)"/>
<path d="M5.24537e-07 68L0 56H12L12 68H5.24537e-07Z" fill="url(#paint3_linear)"/>
<path d="M5.24537e-07 40L0 28H12L12 40H5.24537e-07Z" fill="url(#paint4_linear)"/>
<path d="M5.24537e-07 12L0 5.24537e-07L12 0L12 12L5.24537e-07 12Z" fill="url(#paint5_linear)"/>
<defs>
<linearGradient id="paint0_linear" x1="31.9651" y1="67.9989" x2="31.9654" y2="-1.1023e-05" gradientUnits="userSpaceOnUse">
<stop stop-color="#00A660"/>
<stop offset="1" stop-color="#00EB88"/>
</linearGradient>
<linearGradient id="paint1_linear" x1="31.9651" y1="67.9989" x2="31.9654" y2="-1.1023e-05" gradientUnits="userSpaceOnUse">
<stop stop-color="#00A660"/>
<stop offset="1" stop-color="#00EB88"/>
</linearGradient>
<linearGradient id="paint2_linear" x1="31.9651" y1="67.9989" x2="31.9654" y2="-1.1023e-05" gradientUnits="userSpaceOnUse">
<stop stop-color="#00A660"/>
<stop offset="1" stop-color="#00EB88"/>
</linearGradient>
<linearGradient id="paint3_linear" x1="31.9651" y1="67.9989" x2="31.9654" y2="-1.1023e-05" gradientUnits="userSpaceOnUse">
<stop stop-color="#00A660"/>
<stop offset="1" stop-color="#00EB88"/>
</linearGradient>
<linearGradient id="paint4_linear" x1="31.9651" y1="67.9989" x2="31.9654" y2="-1.1023e-05" gradientUnits="userSpaceOnUse">
<stop stop-color="#00A660"/>
<stop offset="1" stop-color="#00EB88"/>
</linearGradient>
<linearGradient id="paint5_linear" x1="31.9651" y1="67.9989" x2="31.9654" y2="-1.1023e-05" gradientUnits="userSpaceOnUse">
<stop stop-color="#00A660"/>
<stop offset="1" stop-color="#00EB88"/>
</linearGradient>
</defs>
</svg>
