<svg
    width="365"
    height="60"
    viewBox="0 0 365 60"
    fill="none"
    xmlns="http://www.w3.org/2000/svg">
    <title>Demuxed</title>
    <path
      d="M0 9.83594H15.1463C18.3741 9.83594 21.1054 10.3278 23.8367 11.3114C26.568 12.295 28.8027 13.7704 30.5408 15.4917C32.5272 17.213 34.017 19.4261 35.0102 21.8851C36.0034 24.3442 36.5 27.0491 36.5 29.754C36.5 32.4589 36.0034 35.1638 35.0102 37.6228C34.017 40.0819 32.5272 42.295 30.5408 44.0163C28.5544 45.7376 26.3197 47.213 23.8367 48.1966C21.1054 49.1802 18.3741 49.672 15.1463 49.672H0V9.83594ZM15.1463 43.7704C17.381 43.7704 19.119 43.5245 20.8571 42.7868C22.5952 42.0491 24.085 41.0655 25.3265 40.0819C26.568 38.8523 27.5612 37.3769 28.0578 35.6556C28.8027 33.9343 29.051 32.213 29.051 30.2458C29.051 28.2786 28.8027 26.5573 28.0578 24.836C27.3129 23.1146 26.3197 21.6392 25.3265 20.4097C24.085 18.9343 22.5952 17.9507 20.8571 17.4589C19.119 16.7212 17.1327 16.2294 15.1463 16.2294H6.95238V43.5245L15.1463 43.7704Z"
      fill="white"
    />
    <path
      d="M56.8606 9.83594H86.9049V16.2294H64.0613V26.5573H84.4219V32.9507H64.0613V43.7704H87.1532V50.1638H56.8606V9.83594Z"
      fill="white"
    />
    <path
      d="M107.265 9.83594H114.963L127.378 28.7704L139.793 9.83594H147.49V49.9179H140.537V21.3933L127.874 40.3278H127.626L114.218 21.3933V50.1638H107.265V9.83594Z"
      fill="white"
    />
    <path
      d="M185.48 50.6556C182.748 50.6556 180.514 50.1638 178.279 49.4261C176.044 48.6884 174.306 47.4589 172.816 45.9835C171.327 44.5081 170.085 42.5409 169.34 40.5737C168.595 38.3606 168.099 35.9015 168.099 32.9507V9.83594H175.051V32.7048C175.051 36.3933 176.044 39.3442 177.782 41.3114C179.52 43.2786 182.003 44.2622 185.231 44.2622C188.459 44.2622 190.942 43.2786 192.68 41.5573C194.418 39.5901 195.412 36.8851 195.412 33.1966V9.83594H202.364V32.7048C202.364 35.6556 201.867 38.3606 201.122 40.5737C200.378 42.7868 199.136 44.754 197.646 46.2294C196.156 47.7048 194.418 48.9343 192.184 49.672C190.694 50.4097 188.211 50.6556 185.48 50.6556Z"
      fill="white"
    />
    <path
      d="M250.286 9.83594H258.48L229.429 50.1638H221.235L250.286 9.83594Z"
      fill="white"
    />
    <path
      d="M224.214 0H214.034L231.912 25.082L236.878 18.4426L224.214 0Z"
      fill="#9DBF84"
    />
    <path
      d="M248.299 33.9346L243.333 40.8199L256.99 60.0002H266.922L248.299 33.9346Z"
      fill="#9DBF84"
    />
    <path
      d="M278.095 9.83594H307.891V16.2294H285.048V26.5573H305.408V32.9507H285.048V43.7704H308.139V50.1638H278.095V9.83594Z"
      fill="white"
    />
    <path
      d="M328.5 9.83594H343.646C346.874 9.83594 349.605 10.3278 352.337 11.3114C355.068 12.295 357.303 13.7704 359.041 15.4917C361.027 17.213 362.517 19.4261 363.51 21.8851C364.503 24.3442 365 27.0491 365 29.754C365 32.4589 364.503 35.1638 363.51 37.6228C362.517 40.0819 361.027 42.295 359.041 44.0163C357.054 45.7376 354.82 47.213 352.337 48.1966C349.605 49.1802 346.874 49.672 343.646 49.672H328.5V9.83594ZM343.398 43.7704C345.633 43.7704 347.371 43.5245 349.109 42.7868C350.847 42.0491 352.337 41.0655 353.578 40.0819C354.82 38.8523 355.813 37.3769 356.309 35.6556C357.054 33.9343 357.303 32.213 357.303 30.2458C357.303 28.2786 357.054 26.5573 356.309 24.836C355.565 23.1146 354.571 21.6392 353.578 20.4097C352.337 19.1802 350.847 18.1966 349.109 17.4589C347.371 16.7212 345.384 16.4753 343.398 16.4753H335.452V43.7704H343.398Z"
      fill="white"
    />
  </svg>