<svg width="291" height="307" viewBox="0 0 291 307" fill="none" xmlns="http://www.w3.org/2000/svg">
<path d="M-119.651 230.924L-119.651 230.924C-123.024 230.427 -127.176 227.965 -131.555 223.932C-135.92 219.913 -140.454 214.386 -144.594 207.861C-157.551 187.435 -160.882 167.977 -161.713 158.205C-163.28 139.754 -159.333 123.315 -149.996 109.322C-138.869 92.6473 -120.241 79.9216 -94.5626 71.5363C-56.7663 59.1944 -31.6613 39.3 -20.0688 12.3515C-11.9055 -6.62314 -11.9415 -26.0291 -14.2745 -41.2763C-16.5374 -56.0652 -20.9657 -66.9725 -22.2086 -69.8364C-21.8042 -70.4477 -21.0334 -71.3528 -19.8673 -71.7278L-19.8669 -71.7279C-18.6638 -72.1158 -17.1868 -71.899 -15.4278 -70.9546C-14.3253 -68.5615 -8.99313 -56.4445 -6.2503 -40.2699C-1.16556 -10.2777 -8.73871 10.3949 -15.963 22.4427C-27.7659 42.1243 -40.1073 54.2062 -51.6159 62.1143C-63.1279 70.0247 -73.8254 73.7731 -82.3872 76.7719L-82.3873 76.7719L-82.478 76.8037C-83.8533 77.2858 -85.1672 77.7463 -86.4067 78.1992C-129.829 94.0498 -143.054 122.864 -146.474 144.272C-154.316 193.377 -118.705 220.298 -114.614 223.212L-114.613 223.212C-109.002 227.205 -95.9004 233.331 -70.6655 230.253C-41.0721 226.642 -3.76687 211.64 40.1981 185.719C46.3234 182.107 52.0341 178.475 57.2684 174.865C57.5213 174.776 57.7539 174.619 57.9364 174.402C60.5623 172.577 63.0646 170.76 65.4381 168.951C65.6795 168.851 65.8992 168.688 66.0688 168.469C90.628 149.595 102.221 131.17 100.138 113.703C99.0499 104.576 94.3687 97.3143 89.4467 92.1101C84.5296 86.9109 79.3378 83.7282 77.1486 82.7606C74.9603 81.7931 69.8116 80.5638 63.7428 80.4916C57.6667 80.4192 50.5961 81.5054 44.602 85.2406C36.4063 90.3473 32.0454 99.1456 31.5596 111.267C30.6575 133.768 40.9818 152.7 62.148 167.55C60.4068 168.852 58.5969 170.158 56.7212 171.469C41.5845 160.423 31.4215 147.853 26.5191 134.657C21.5891 121.387 21.9655 107.451 27.9984 93.7249C34.701 78.4763 47.4418 70.1332 62.9673 70.7594C81.3112 71.4987 98.3725 84.2268 104.438 101.708L104.91 101.545L104.438 101.708C106.68 108.168 108.322 118 104.819 130.148C101.314 142.299 92.6494 156.811 74.2004 172.608C67.4043 178.428 59.5023 184.19 50.7127 189.734C-14.9189 231.124 -57.6371 240.147 -81.8636 240.455C-94.9348 240.621 -104.174 238.337 -110.145 236.012C-113.132 234.849 -115.303 233.675 -116.729 232.79C-117.442 232.348 -117.969 231.978 -118.319 231.717C-118.494 231.587 -118.624 231.484 -118.711 231.414C-118.788 231.351 -118.83 231.315 -118.839 231.308C-119.066 231.103 -119.348 230.97 -119.651 230.924Z" fill="#95F58C" stroke="black"/>
<path d="M281.349 214.65L281.703 214.296L281.349 214.65C285.077 218.377 287.845 221.804 289.798 224.51L283.41 227.906C281.748 225.685 273.363 215.18 257.256 206.272C240.937 197.245 213.359 188.361 174.573 197.169C141.957 204.574 102.111 197.991 70.0458 179.986C71.9169 178.527 73.7274 177.061 75.4668 175.59C84.216 180.155 94.2847 184.195 105.412 187.599C129.058 194.831 151.477 191.306 173.038 187.915L173.086 187.907L173.008 187.413L173.086 187.907C194.91 184.473 215.39 181.26 236.8 188.243L236.955 187.768L236.8 188.243C259.06 195.502 273.316 206.616 281.349 214.65Z" fill="#95F58C" stroke="black"/>
</svg>
