<svg width="670" height="691" viewBox="0 0 670 691" fill="none" xmlns="http://www.w3.org/2000/svg">
<path fill-rule="evenodd" clip-rule="evenodd" d="M130.006 110.906C126.51 114.043 122.444 118.409 118.667 124.219C114.884 130.038 114.567 134.913 114.567 139.027C114.567 139.899 114.609 140.756 114.676 141.561L101.909 159.315C101.339 159.087 100.681 159.334 100.409 159.896C100.198 160.33 100.278 160.83 100.569 161.179L99.0359 163.31L98.6055 76.132L127.671 42.6016L130.006 110.906Z" fill="#FFCA71"/>
<path fill-rule="evenodd" clip-rule="evenodd" d="M99.1858 76.3408L99.607 161.527L99.8791 161.149C99.6623 160.675 99.6592 160.12 99.8929 159.638C100.222 158.958 100.949 158.582 101.668 158.661L114.087 141.391C114.024 140.573 113.993 139.778 113.993 139.023C113.993 134.826 114.317 129.85 118.187 123.899C121.412 118.935 125.192 114.481 129.423 110.652L127.146 44.0845L99.1858 76.3408ZM98.4724 165.084L98.0312 75.9125L98.1727 75.7477L128.199 41.1094L130.594 111.152L130.393 111.332C126.156 115.134 122.374 119.575 119.152 124.53C115.455 130.216 115.146 134.991 115.146 139.023C115.146 139.81 115.181 140.647 115.253 141.508L115.27 141.722L102.117 160.014L101.701 159.847C101.404 159.733 101.067 159.861 100.931 160.143C100.826 160.359 100.858 160.618 101.012 160.801L101.301 161.146L98.4724 165.084Z" fill="black"/>
<path fill-rule="evenodd" clip-rule="evenodd" d="M126.12 40.7656L96.9006 74.4748L53.7305 72.3857L85.1234 41.3403L126.12 40.7656Z" fill="#FFCA71"/>
<path fill-rule="evenodd" clip-rule="evenodd" d="M55.0662 71.8736L96.6452 73.8858L124.836 41.3629L85.3585 41.9175L55.0662 71.8736ZM97.1479 75.0659L52.3867 72.9012L84.8788 40.7682L127.396 40.1719L97.1479 75.0659Z" fill="black"/>
<path fill-rule="evenodd" clip-rule="evenodd" d="M33.618 42.0639L81.6966 41.3906L50.5112 72.231L2.32031 69.8984L33.618 42.0639Z" fill="#FFCA71"/>
<path fill-rule="evenodd" clip-rule="evenodd" d="M3.75588 69.3956L50.2804 71.6465L80.2667 41.9925L33.8345 42.6442L3.75588 69.3956ZM50.7308 72.8252L0.875 70.4125L33.3902 41.4948L83.1184 40.7969L50.7308 72.8252Z" fill="black"/>
<path fill-rule="evenodd" clip-rule="evenodd" d="M41.8695 170.354L6.11062 172.713L0.613281 72.2031L49.5621 74.5712C49.599 74.6251 49.6389 74.6759 49.685 74.7252C49.9172 74.961 50.2231 75.0781 50.529 75.0781C50.8303 75.0781 51.1316 74.9641 51.3622 74.7345L51.436 74.6636L96.2387 76.8299L96.6784 165.866L78.8382 167.112C72.3232 160.836 70.3231 155.586 70.1525 155.113C69.9849 154.431 68.2955 147.606 66.2739 140.74C61.8327 125.644 60.1801 125.053 59.2916 124.735C57.0594 123.936 55.5529 124.415 54.6812 124.957C54.3569 125.159 54.0632 125.402 53.7958 125.686L53.5652 119.773L59.1348 119.588C59.5836 119.572 59.9864 119.303 60.174 118.894C60.3615 118.485 60.3016 118.004 60.0202 117.653L46.9441 101.386C46.7165 101.102 46.3722 100.945 46.0094 100.942C45.6466 100.947 45.3038 101.118 45.0824 101.404L32.0078 118.349C31.7311 118.708 31.6819 119.193 31.8802 119.602C32.08 120.007 32.4936 120.266 32.9455 120.266H39.2653L39.8771 130.893C39.8956 131.209 40.037 131.502 40.2722 131.713C40.4905 131.907 40.7719 132.014 41.0609 132.014C41.0839 132.014 41.107 132.014 41.13 132.012L52.0479 131.38C52.2539 137.884 55.9941 158.084 57.2593 164.059C57.6328 165.824 58.1724 167.578 58.7843 169.237L42.3553 170.322C42.1908 170.299 42.0278 170.309 41.8695 170.354Z" fill="#FFCA71"/>
<path fill-rule="evenodd" clip-rule="evenodd" d="M1.22061 72.8016L6.65184 172.088L41.7758 169.771C41.9926 169.72 42.2124 169.709 42.4338 169.74L57.9803 168.702C57.4285 167.121 56.9949 165.597 56.6921 164.169C55.5391 158.718 51.8927 139.18 51.4961 131.982L41.1593 132.58C40.6059 132.527 40.2093 132.422 39.8865 132.136C39.536 131.822 39.3269 131.389 39.2992 130.919L38.7181 120.833H32.9425C32.2754 120.833 31.6543 120.445 31.3607 119.844C31.067 119.246 31.1408 118.516 31.5482 117.986L44.6229 101.041C44.958 100.61 45.4591 100.36 46.0018 100.356C46.5537 100.359 47.0564 100.599 47.3915 101.015L60.4661 117.28C60.8874 117.806 60.9765 118.513 60.6952 119.125C60.4154 119.738 59.8251 120.132 59.1533 120.154L54.1617 120.322L54.3247 124.488C54.3416 124.477 54.3585 124.466 54.3754 124.455C55.3547 123.848 57.038 123.306 59.4823 124.183C60.6045 124.582 62.3001 125.189 66.8259 140.567C68.8413 147.417 70.5262 154.213 70.7106 154.965C70.7721 155.128 72.6891 160.317 79.052 166.509L96.0959 165.318L95.6624 77.3713L51.6406 75.2421C50.8719 75.8522 49.885 75.7397 49.2793 75.128L1.22061 72.8016ZM5.56498 173.318L0 71.5859L49.8665 73.9987L50.0295 74.2267C50.3831 74.6227 50.7243 74.5441 50.9549 74.3146L51.1348 74.1374L51.4622 74.0758L96.8092 76.2697L97.255 166.395L78.6215 167.699L78.437 167.521C71.8482 161.174 69.819 155.883 69.6084 155.3C69.4055 154.492 67.7283 147.72 65.7191 140.893C61.3609 126.079 59.7728 125.512 59.0949 125.271C57.0795 124.548 55.7451 124.962 54.9826 125.438C54.709 125.608 54.4492 125.822 54.2125 126.073L53.2716 127.073L52.9642 119.205L59.1133 118.998C59.347 118.991 59.5499 118.857 59.6468 118.644C59.7436 118.431 59.7144 118.188 59.5684 118.006L46.4937 101.739C46.2739 101.466 45.7758 101.437 45.536 101.748L32.4614 118.693C32.3199 118.875 32.2938 119.128 32.3953 119.336C32.4983 119.544 32.7119 119.678 32.9425 119.678H39.8065L40.4507 130.851C40.4583 131.011 40.5337 131.165 40.6536 131.272C40.7658 131.372 40.9088 131.427 41.0594 131.427L52.6029 130.76L52.6229 131.353C52.8304 137.932 56.6383 158.343 57.8205 163.928C58.1587 165.522 58.6629 167.236 59.3224 169.028L59.5899 169.754L42.3892 170.888C42.1878 170.872 42.1032 170.879 42.0202 170.902L41.9034 170.92L5.56498 173.318Z" fill="black"/>
<path fill-rule="evenodd" clip-rule="evenodd" d="M264.813 144.624C267.833 123.743 261.972 109.915 261.722 109.337C261.648 109.168 261.539 109.027 261.408 108.915C260.635 107.471 260.008 106.003 259.358 104.467C259.456 104.293 259.516 104.094 259.514 103.881C259.513 103.327 259.132 102.868 258.621 102.737C258.6 102.687 258.578 102.638 258.557 102.589C258.294 101.986 257.596 101.711 256.995 101.974C256.7 102.103 256.484 102.341 256.372 102.616C253.164 102.365 248.847 101.481 248.417 99.4688C247.663 95.9375 250.494 92.8869 250.52 92.8576L250.521 92.8561C252.114 93.118 253.86 93.2536 255.734 93.2536C257.676 93.2536 259.756 93.1072 261.934 92.8176C261.436 98.1253 262.984 103.325 266.32 107.493C268.926 110.747 272.572 113.189 276.591 114.366C276.701 114.4 276.813 114.415 276.923 114.415C277.436 114.415 277.91 114.078 278.062 113.56C278.245 112.93 277.885 112.269 277.256 112.086C273.7 111.041 270.475 108.883 268.171 106.006C265.164 102.25 263.796 97.5444 264.32 92.759C264.844 87.972 267.196 83.6766 270.943 80.6629C275.279 77.1763 280.876 75.9021 286.297 77.1701C286.935 77.318 287.573 76.922 287.722 76.2826C287.871 75.6432 287.475 75.0039 286.837 74.856C280.7 73.4201 274.366 74.8621 269.458 78.8094C265.782 81.7645 263.296 85.8119 262.311 90.3647C255.785 91.3138 247.88 91.1336 244.497 87.855C243.59 86.9752 243.194 85.9999 243.325 84.9538C243.662 82.2545 247.882 79.6799 250.799 78.2825C251.016 78.5167 251.324 78.6631 251.663 78.6631C251.677 78.6631 251.693 78.6631 251.706 78.6615C252.361 78.64 252.873 78.0868 252.849 77.432C252.849 77.4135 252.849 77.3951 252.847 77.3781C253.318 77.0838 253.531 76.4876 253.325 75.9483C253.224 75.6818 253.035 75.4784 252.807 75.3459C252.806 75.1872 252.803 75.0254 252.803 74.8667C252.803 56.3551 259.996 38.9512 273.055 25.8613C279.759 19.1454 287.596 13.9794 296.134 10.5406C296.564 10.7686 297.109 10.7193 297.49 10.3695C297.716 10.1615 297.945 9.95815 298.176 9.75478C305.691 7.00306 313.71 5.5625 321.951 5.5625C333.798 5.5625 345.486 8.61775 355.752 14.3923C365.704 19.9928 374.208 28.0615 380.339 37.7218C380.344 37.7295 380.35 37.7341 380.354 37.7402C380.896 40.6969 381.18 43.7398 381.18 46.8505C381.18 53.6435 379.853 60.2346 377.235 66.4375C377.232 66.4452 377.231 66.4529 377.228 66.4591C376.694 66.2973 376.154 66.151 375.612 66.0231L370.27 64.1557C370.247 64.148 370.222 64.1403 370.199 64.1342C361.784 61.7769 352.696 63.6365 345.89 69.1076C340.237 73.6542 336.689 80.1344 335.899 87.3542C335.109 94.5755 337.172 101.67 341.709 107.337C344.391 110.69 347.716 113.286 351.592 115.058C351.615 115.067 351.638 115.078 351.662 115.087L359.973 118.255C360.113 118.307 360.254 118.333 360.394 118.333C360.511 118.333 360.626 118.315 360.737 118.281C362.394 118.851 364.107 119.264 365.847 119.501C367.051 119.666 368.253 119.748 369.449 119.748C371.41 119.748 373.354 119.526 375.252 119.096C369.332 126.28 361.955 132.257 353.719 136.509C343.879 141.592 333.19 144.168 321.951 144.168C320.451 144.168 318.941 144.117 317.442 144.02C317.452 143.515 317.14 143.04 316.635 142.872C316.013 142.666 315.342 143.005 315.136 143.629L315.027 143.958C314.625 144.119 314.322 144.49 314.279 144.952C314.256 145.222 314.325 145.474 314.457 145.686L311.667 154.143C308.603 155.574 289.966 163.798 270.381 161.647C266.146 161.182 263.069 160.285 261.265 159.013C262.784 154.729 264.045 149.93 264.813 144.624Z" fill="#E8F2DC"/>
<path fill-rule="evenodd" clip-rule="evenodd" d="M259.989 104.473C260.534 105.759 260.798 106.412 261.525 107.779C261.687 107.938 262.165 108.901 262.252 109.106C262.506 109.688 268.432 123.644 265.385 144.705C264.692 149.503 263.541 154.235 261.962 158.777C263.728 159.863 266.646 160.655 270.446 161.072C289.35 163.145 307.238 155.549 311.2 153.723L313.836 145.733C313.727 145.468 313.682 145.186 313.707 144.899C313.759 144.331 314.077 143.836 314.557 143.548L314.592 143.445C314.74 142.998 315.052 142.635 315.473 142.422C315.894 142.209 316.371 142.177 316.818 142.323C317.369 142.507 317.778 142.938 317.942 143.471C319.304 143.55 320.651 143.59 321.953 143.59C333.1 143.59 343.699 141.034 353.456 135.994C361.091 132.051 368.079 126.531 373.756 119.974C371.109 120.407 368.419 120.436 365.772 120.072C364.07 119.841 362.367 119.439 360.711 118.881C360.394 118.938 360.071 118.908 359.772 118.794L351.46 115.626C347.396 113.772 344.001 111.119 341.261 107.697C336.629 101.912 334.522 94.6645 335.329 87.2907C336.136 79.9168 339.759 73.2995 345.532 68.6573C352.483 63.0661 361.759 61.1695 370.356 63.576L375.804 65.4757C376.15 65.5558 376.52 65.6529 376.897 65.7577C379.36 59.7535 380.607 53.3966 380.607 46.8501C380.607 43.8704 380.339 40.8798 379.809 37.954C373.713 28.3908 365.306 20.4284 355.47 14.8942C345.292 9.16739 333.701 6.13988 321.953 6.13988C313.877 6.13988 305.98 7.52497 298.478 10.2582L297.88 10.7944C297.405 11.2304 296.732 11.3644 296.133 11.1626C287.648 14.6168 280.022 19.6981 273.465 26.2677C260.514 39.2497 253.381 56.5088 253.381 74.8648L253.382 75.0467C253.599 75.2346 253.763 75.4703 253.866 75.7415C254.128 76.424 253.936 77.1898 253.411 77.6705L250.726 78.9616C246.669 80.9537 244.126 83.2078 243.9 85.0243C243.791 85.8902 244.118 86.6806 244.899 87.4386C248.058 90.5 255.647 90.6987 261.839 89.8483C262.916 85.2831 265.421 81.3173 269.099 78.3576C274.148 74.2994 280.661 72.8172 286.969 74.2902C287.428 74.3965 287.817 74.6769 288.066 75.079C288.314 75.4796 288.392 75.9526 288.286 76.4117C288.065 77.3608 287.113 77.9555 286.169 77.7321C280.916 76.5057 275.502 77.7367 271.307 81.1124C267.679 84.029 265.402 88.1889 264.895 92.8218C264.389 97.4516 265.713 102.006 268.623 105.642C270.853 108.428 273.979 110.52 277.421 111.529C277.873 111.662 278.245 111.962 278.471 112.377C278.697 112.789 278.749 113.267 278.617 113.722C278.351 114.634 277.321 115.187 276.428 114.919C272.302 113.708 268.552 111.198 265.873 107.853C262.601 103.767 260.993 98.6873 261.308 93.4782C257.416 93.9466 253.831 93.945 250.752 93.4751C250.169 94.1961 248.407 96.6505 248.984 99.3468C249.25 100.593 252.075 101.65 256.057 102.009C256.057 102.009 257.745 101.533 259.05 102.276C260.355 103.02 259.989 104.473 259.989 104.473ZM277.095 162.584C274.866 162.584 272.603 162.473 270.32 162.22C265.992 161.746 262.836 160.824 260.936 159.482L260.578 159.23L260.726 158.817C262.357 154.216 263.541 149.414 264.245 144.54C267.244 123.801 261.444 110.138 261.195 109.566C261.161 109.486 261.107 109.414 261.033 109.351L260.904 109.189C260.086 107.667 259.419 106.086 258.83 104.691L258.718 104.43L258.859 104.181C258.913 104.083 258.941 103.984 258.941 103.883C258.939 103.607 258.75 103.365 258.481 103.296L258.206 103.226L258.094 102.966L258.558 102.587L258.031 102.818C257.896 102.51 257.537 102.37 257.227 102.504C257.082 102.567 256.969 102.684 256.909 102.833L256.75 103.223L256.329 103.192C253.974 103.007 248.432 102.286 247.856 99.5886C247.038 95.763 250.072 92.4936 250.103 92.4597L250.314 92.2379L250.617 92.2857C253.834 92.8157 257.676 92.8002 261.862 92.244L262.58 92.1485L262.512 92.8711C262.026 98.0279 263.539 103.092 266.772 107.13C269.305 110.292 272.849 112.665 276.753 113.811C277.069 113.906 277.419 113.711 277.51 113.396C277.556 113.239 277.539 113.074 277.461 112.931C277.382 112.786 277.253 112.683 277.096 112.638C273.43 111.563 270.102 109.335 267.723 106.366C264.62 102.488 263.208 97.6335 263.75 92.6939C264.289 87.7544 266.717 83.3218 270.584 80.2111C275.061 76.6135 280.837 75.2978 286.431 76.6058C286.758 76.6844 287.086 76.478 287.162 76.1498C287.199 75.9911 287.173 75.8262 287.087 75.6876C287.001 75.5505 286.866 75.4534 286.707 75.4164C280.744 74.0236 274.592 75.4241 269.822 79.2589C266.245 82.1355 263.843 86.0165 262.876 90.4876L262.792 90.879L262.395 90.936C259.225 91.3982 248.535 92.5661 244.098 88.269C243.053 87.2552 242.601 86.1166 242.756 84.881C243.161 81.627 248.344 78.8183 250.553 77.7613L250.935 77.5796L251.224 77.8877C251.342 78.0141 251.499 78.0849 251.665 78.0849C252.023 78.071 252.288 77.7875 252.275 77.4501L252.265 77.1174L252.544 76.8893C252.789 76.7337 252.893 76.4256 252.789 76.1529C252.727 75.9911 252.61 75.8971 252.523 75.8463L252.234 75.6814L252.228 74.8648C252.228 56.1991 259.481 38.6504 272.65 25.4512C279.375 18.7136 287.204 13.5153 295.922 10.0025L296.169 9.90228L296.406 10.0271C296.634 10.1488 296.913 10.1165 297.103 9.9439L297.979 9.21054C305.639 6.40644 313.705 4.98438 321.953 4.98438C333.899 4.98438 345.684 8.0627 356.036 13.8866C366.073 19.5333 374.645 27.6682 380.828 37.4117L380.923 37.6351C381.478 40.6641 381.759 43.7641 381.759 46.8501C381.759 53.7217 380.416 60.3883 377.769 66.6621L377.561 67.1274L377.065 67.0118C376.54 66.8531 376.013 66.7099 375.481 66.5835L370.082 64.7007C361.809 62.382 352.915 64.2 346.254 69.5586C340.722 74.0082 337.247 80.3497 336.474 87.417C335.701 94.4842 337.721 101.428 342.16 106.973C344.786 110.255 348.041 112.796 351.833 114.529L360.181 117.714C360.305 117.761 360.44 117.767 360.574 117.727L360.751 117.673L360.926 117.734C362.562 118.297 364.245 118.698 365.928 118.928C368.98 119.345 372.101 119.214 375.128 118.53L376.774 118.157L375.699 119.462C369.746 126.688 362.236 132.76 353.985 137.022C344.062 142.146 333.286 144.745 321.953 144.745C320.48 144.745 318.951 144.694 317.409 144.596L316.861 144.562L316.869 144.01C316.872 143.741 316.708 143.504 316.457 143.42C316.139 143.316 315.791 143.488 315.685 143.809L315.492 144.396L315.241 144.496C315.024 144.582 314.877 144.776 314.855 145.004C314.841 145.167 314.898 145.298 314.949 145.38L315.092 145.61L312.137 154.56L311.911 154.664C308.814 156.114 294.022 162.584 277.095 162.584Z" fill="black"/>
<path fill-rule="evenodd" clip-rule="evenodd" d="M464.501 228.861C501.805 173.441 540.022 129.9 541.464 128.262C541.847 127.909 544.311 125.605 545.835 123.64C545.964 123.475 546.036 123.286 546.067 123.092C550.345 117.231 558.885 111.826 575.561 117.648C593.415 123.884 610.298 136.827 616.654 141.7C617.157 142.086 617.604 142.428 617.99 142.722C620.779 144.836 621.452 147.621 620.671 149.167C620.203 150.099 619.246 150.405 617.983 150.028C615.661 149.336 614.956 148.664 613.071 146.869C611.337 145.221 608.719 142.728 603.24 138.753C597.64 134.692 589.614 130.481 581.77 127.489C576.862 125.617 568.01 122.719 563.878 124.349C562.23 124.998 560.331 125.948 560.261 127.567C560.191 129.162 561.902 130.017 562.925 130.529C563.08 130.606 563.291 130.71 563.337 130.738C563.73 131.039 564.164 131.099 564.819 131.188C566.722 131.452 571.778 132.151 585.04 139.246C600.265 147.392 607.641 156.785 611.604 161.831C612 162.334 612.365 162.8 612.705 163.223C615.887 167.182 618.023 172.47 617.463 175.012C617.294 175.789 616.916 176.055 616.647 176.188C614.327 177.34 611.608 172.707 610.147 170.217C609.981 169.937 609.827 169.672 609.683 169.435C607.827 166.35 597.371 153.567 588.53 147.241C585.377 144.987 579.386 141.594 573.62 138.802C570.739 137.408 568.219 136.313 566.333 135.635C563.819 134.732 562.213 134.416 561.44 135.471C560.519 136.725 561.992 138.205 562.699 138.915C563.798 140.019 565.613 141.531 568.092 143.412C587.961 158.479 595.537 169.764 596.026 170.513C596.161 171.006 595.912 172.775 594.917 173.339C594.284 173.698 591.724 174.294 585.417 166.826C573.901 153.196 554.645 140.043 554.451 139.91C554.387 139.865 554.317 139.83 554.248 139.799C554.542 139.323 554.467 138.691 554.039 138.3C553.553 137.858 552.803 137.892 552.362 138.377C551.921 138.864 507.973 187.401 474.188 238.141C469.847 236.563 465.547 235.043 461.301 233.575C462.388 231.986 463.461 230.407 464.501 228.861Z" fill="#E8F2DC"/>
<path fill-rule="evenodd" clip-rule="evenodd" d="M462.205 233.283C466.24 234.682 470.189 236.083 473.959 237.452C507.725 186.826 551.497 138.48 551.936 137.995C552.591 137.277 553.707 137.221 554.427 137.878C554.903 138.312 555.094 138.962 554.96 139.566C556.971 140.956 574.942 153.541 585.856 166.461C592.162 173.924 594.399 172.972 594.634 172.843C595.295 172.467 595.523 171.157 595.48 170.743C594.682 169.547 587.057 158.526 567.744 143.88C565.245 141.984 563.409 140.454 562.29 139.331C561.534 138.569 559.761 136.79 560.976 135.137C562.064 133.65 564.224 134.271 566.527 135.097C568.433 135.781 570.971 136.885 573.872 138.289C579.666 141.095 585.69 144.507 588.863 146.778C597.771 153.149 608.307 166.034 610.176 169.143L610.608 169.871C611.815 171.927 614.553 176.594 616.392 175.677C616.515 175.616 616.77 175.49 616.9 174.895C617.417 172.544 615.291 167.368 612.256 163.594C611.915 163.167 611.548 162.7 611.151 162.195C607.216 157.183 599.889 147.854 584.768 139.763C571.597 132.718 566.614 132.028 564.74 131.767C564.05 131.673 563.504 131.598 562.989 131.208C562.976 131.203 562.8 131.115 562.67 131.051C561.595 130.516 559.598 129.518 559.686 127.549C559.77 125.597 561.858 124.529 563.666 123.817C567.982 122.118 576.988 125.054 581.975 126.956C589.864 129.963 597.94 134.202 603.577 138.292C609.086 142.287 611.723 144.795 613.468 146.458C615.329 148.231 615.958 148.829 618.147 149.481C619.14 149.778 619.817 149.586 620.158 148.912C620.842 147.555 620.09 145.045 617.643 143.189L616.304 142.164C609.966 137.306 593.136 124.406 575.371 118.203C558.994 112.484 550.696 117.808 546.606 123.338C546.548 123.583 546.442 123.805 546.291 124C544.765 125.97 542.328 128.254 541.856 128.693C540.299 130.465 502.333 173.698 464.98 229.191C464.076 230.535 463.146 231.903 462.205 233.283ZM474.415 238.847L473.991 238.693C469.877 237.195 465.545 235.66 461.115 234.127L460.398 233.881L460.827 233.254C461.911 231.667 462.984 230.089 464.023 228.544C501.418 172.99 539.432 129.703 541.032 127.888C541.535 127.418 543.909 125.188 545.38 123.292C545.441 123.216 545.48 123.121 545.497 123.013L545.601 122.757C549.893 116.876 558.605 111.122 575.75 117.112C593.691 123.375 610.625 136.357 617 141.246L618.339 142.269C621.376 144.571 622.073 147.678 621.186 149.435C620.584 150.627 619.356 151.049 617.818 150.589C615.363 149.858 614.576 149.108 612.673 147.294C610.951 145.655 608.349 143.179 602.902 139.227C597.34 135.194 589.365 131.009 581.566 128.036C573.344 124.9 566.977 123.756 564.089 124.893C562.604 125.477 560.892 126.313 560.837 127.6C560.788 128.726 561.969 129.411 563.183 130.019C563.358 130.105 563.597 130.226 563.649 130.262C563.949 130.485 564.247 130.535 564.897 130.622C566.829 130.891 571.959 131.599 585.312 138.744C600.647 146.948 608.069 156.403 612.058 161.48C612.452 161.984 612.816 162.446 613.154 162.868C616.487 167.014 618.627 172.407 618.027 175.143C617.858 175.909 617.491 176.422 616.902 176.713C614.106 178.104 611.317 173.357 609.654 170.524L609.189 169.741C607.351 166.68 596.976 154.001 588.195 147.718C585.068 145.481 579.111 142.11 573.371 139.329C570.507 137.942 568.006 136.855 566.138 136.186C563.54 135.252 562.391 135.155 561.904 135.821C561.352 136.571 562.156 137.559 563.106 138.512C564.188 139.599 565.982 141.095 568.439 142.959C588.631 158.271 596.196 169.724 596.507 170.205L596.581 170.367C596.777 171.08 596.459 173.134 595.203 173.849C594.036 174.511 591.159 174.525 584.977 167.207C573.56 153.693 554.319 140.525 554.128 140.397L553.51 140.133L553.758 139.505C553.912 139.255 553.866 138.93 553.65 138.733C553.403 138.506 553.015 138.525 552.789 138.773C552.35 139.258 508.42 187.777 474.668 238.469L474.415 238.847Z" fill="black"/>
<path fill-rule="evenodd" clip-rule="evenodd" d="M391.1 74.8661C391.1 75.3037 391.094 75.7428 391.087 76.1819C390.904 75.9385 390.718 75.695 390.525 75.4562C389.483 74.1512 388.343 72.9726 387.125 71.9141C388.309 68.9652 389.237 65.9423 389.909 62.8594C390.691 67.084 391.1 71.1561 391.1 74.8661Z" fill="#E8F2DC"/>
<path fill-rule="evenodd" clip-rule="evenodd" d="M387.804 71.7424C388.768 72.6083 389.678 73.5435 390.516 74.5357C390.497 71.7671 390.258 68.812 389.796 65.7167C389.244 67.7581 388.577 69.7765 387.804 71.7424ZM391.624 77.8667L390.619 76.5232C390.439 76.2829 390.258 76.0456 390.07 75.8114C389.068 74.5588 387.947 73.3925 386.74 72.3448L386.43 72.0736L386.583 71.6916C387.749 68.7904 388.676 65.7752 389.34 62.7292L389.949 59.9375L390.47 62.7478C391.266 67.0433 391.67 71.12 391.67 74.8593C391.67 75.3015 391.664 75.7452 391.656 76.1873L391.624 77.8667Z" fill="black"/>
<path fill-rule="evenodd" clip-rule="evenodd" d="M247.375 182.615C250.325 179.413 256.134 172.211 260.408 161.31C262.582 162.644 265.802 163.538 270.119 164.012C272.506 164.274 274.866 164.391 277.186 164.391C286.408 164.391 294.932 162.539 301.369 160.578C301.916 161.899 302.545 163.415 303.257 165.108C300.997 166.154 298.059 167.749 294.712 169.564C287.048 173.723 277.509 178.9 268.379 181.883C258.854 184.997 250.731 183.969 246.883 183.133C247.061 182.949 247.227 182.775 247.375 182.615Z" fill="#E8F2DC"/>
<path fill-rule="evenodd" clip-rule="evenodd" d="M248.013 182.754C252.187 183.529 259.606 184.127 268.198 181.318C277.273 178.354 286.781 173.194 294.421 169.048C297.568 167.341 300.306 165.856 302.509 164.805C301.968 163.514 301.476 162.331 301.035 161.268C292.842 163.714 284.821 164.953 277.185 164.953H277.162C274.755 164.953 272.363 164.824 270.055 164.569C265.989 164.124 262.917 163.323 260.696 162.126C256.539 172.456 251.073 179.389 248.013 182.754ZM255.19 184.554C251.615 184.554 248.702 184.104 246.759 183.682L245.738 183.46L246.468 182.713C246.644 182.532 246.805 182.365 246.95 182.209C249.966 178.933 255.655 171.834 259.869 161.083L260.121 160.44L260.707 160.801C262.787 162.078 265.974 162.959 270.181 163.422C272.453 163.671 274.821 163.75 277.185 163.797C284.862 163.797 292.942 162.523 301.201 160.01L301.699 159.859L301.9 160.342C302.446 161.66 303.075 163.175 303.786 164.868L304.002 165.383L303.497 165.615C301.245 166.66 298.344 168.233 294.987 170.057C287.288 174.233 277.729 179.419 268.555 182.417C263.597 184.038 259.014 184.554 255.19 184.554Z" fill="black"/>
<path fill-rule="evenodd" clip-rule="evenodd" d="M294.31 283.534C299.325 283.534 304.496 282.29 309.259 279.865C319.174 274.815 322.281 267.327 323.14 261.934C323.838 257.56 323.216 253.884 322.837 252.245C323.285 252.017 323.771 251.761 324.309 251.468C327.079 249.959 330.488 247.846 333.205 245.953C333.326 245.868 333.445 245.786 333.56 245.703C334.144 248.084 335.14 253.085 334.971 258.885C334.661 269.563 330.747 277.768 323.343 283.273C313.953 290.254 304.17 292.692 297.617 293.507C292.069 294.195 287.83 293.873 286.199 293.693C286.239 292.473 286.321 291.267 286.454 290.085C286.722 287.694 287.074 285.235 287.501 282.723C289.7 283.263 291.987 283.534 294.31 283.534Z" fill="#E8F2DC"/>
<path fill-rule="evenodd" clip-rule="evenodd" d="M286.797 293.176C288.657 293.349 292.571 293.555 297.546 292.937C304.031 292.13 313.713 289.72 323 282.813C330.256 277.418 334.09 269.363 334.394 258.872C334.545 253.762 333.779 249.283 333.194 246.667C330.519 248.511 327.255 250.525 324.585 251.981C324.198 252.19 323.836 252.383 323.497 252.56C323.899 254.49 324.36 257.955 323.71 262.031C322.829 267.554 319.653 275.224 309.52 280.385C302.722 283.846 294.929 284.975 287.968 283.43C287.587 285.727 287.272 287.985 287.027 290.153C286.921 291.102 286.843 292.118 286.797 293.176ZM290.885 294.509C288.654 294.509 286.997 294.366 286.136 294.27L285.605 294.211L285.622 293.677C285.667 292.392 285.753 291.162 285.882 290.024C286.15 287.643 286.503 285.157 286.934 282.63L287.038 282.018L287.639 282.166C294.482 283.847 302.245 282.795 308.997 279.354C318.697 274.413 321.733 267.107 322.571 261.849C323.243 257.635 322.674 254.107 322.276 252.38L322.174 251.939L322.576 251.736C323.02 251.508 323.501 251.255 324.033 250.965C326.785 249.466 330.173 247.366 332.877 245.482L333.921 244.75L334.121 245.57C334.726 248.047 335.718 253.074 335.547 258.906C335.231 269.77 331.24 278.123 323.687 283.742C314.199 290.797 304.311 293.261 297.689 294.084C295.095 294.406 292.783 294.509 290.885 294.509Z" fill="black"/>
<path fill-rule="evenodd" clip-rule="evenodd" d="M131.27 113.254C131.925 113.231 132.437 112.682 132.416 112.024L132.413 111.955C135.873 108.941 138.738 107.134 140.033 106.51C141.011 106.037 141.793 105.934 142.18 106.225C142.56 106.512 142.755 107.287 142.631 108.029C142.425 109.266 138.543 113.191 135.71 116.055C132.486 119.315 129.152 122.683 127.659 125.159C127.635 125.2 127.599 125.251 127.559 125.313C122.093 133.69 126.389 151.707 139.658 176.048C151.601 197.96 166.56 216.29 177.005 227.809C187.295 239.156 195.358 246.311 196.803 247.576C194.275 252.344 192.012 257.041 190.005 261.681C186.442 258.05 177.81 249.131 174.339 244.434C172.894 242.478 168.923 237.047 163.898 230.171C153.333 215.717 137.366 193.873 129.25 182.976C119.741 170.211 108.549 163.016 104.023 160.438L115.123 145.003C115.313 146.088 115.484 146.783 115.501 146.847C115.661 147.484 116.303 147.87 116.94 147.712C117.575 147.553 117.96 146.907 117.802 146.271C117.796 146.243 117.321 144.318 117.078 141.802C117.075 141.761 117.073 141.721 117.066 141.68C116.987 140.842 116.937 139.942 116.937 139.028C116.937 135.083 117.223 130.792 120.651 125.518C123.993 120.378 127.692 116.292 130.998 113.226C131.086 113.244 131.177 113.257 131.27 113.254Z" fill="#E8F2DC"/>
<path fill-rule="evenodd" clip-rule="evenodd" d="M131.289 113.832H131.283C131.254 113.832 123.99 121.438 121.134 125.832C117.792 130.974 117.512 135.171 117.512 139.028C117.512 139.848 117.553 140.722 117.639 141.625C117.89 144.214 118.356 146.108 118.36 146.126C118.596 147.074 118.021 148.035 117.078 148.273C116.133 148.504 115.175 147.931 114.941 146.988C114.932 146.954 114.883 146.755 114.811 146.422L104.865 160.256C109.638 163.044 120.482 170.24 129.71 182.629C137.786 193.469 153.675 215.209 164.188 229.594L164.362 229.829C169.386 236.705 173.355 242.133 174.8 244.09C178.072 248.513 185.981 256.742 189.817 260.666C191.678 256.417 193.783 252.064 196.08 247.709C193.933 245.81 186.238 238.848 176.577 228.197C166.11 216.654 151.12 198.286 139.149 176.324C125.775 151.787 121.487 133.559 127.075 124.997L127.164 124.859C128.693 122.327 132.05 118.933 135.297 115.651C137.604 113.319 141.887 108.989 142.061 107.935C142.165 107.307 141.969 106.789 141.833 106.687C141.749 106.621 141.28 106.549 140.282 107.029C139.186 107.559 136.433 109.242 132.98 112.228L131.289 113.832ZM190.193 262.697L189.592 262.087C186.03 258.457 177.369 249.505 173.875 244.777C172.43 242.822 168.459 237.389 163.431 230.511L163.258 230.277C152.746 215.893 136.859 194.158 128.788 183.321C119.31 170.599 108.113 163.43 103.738 160.94L103.18 160.621L115.45 143.557L115.689 144.903C115.876 145.962 116.044 146.641 116.059 146.706C116.141 147.034 116.473 147.233 116.8 147.151C117.124 147.069 117.324 146.737 117.243 146.41C117.24 146.401 116.751 144.421 116.503 141.857C116.403 140.794 116.359 139.884 116.359 139.028C116.359 134.996 116.652 130.608 120.168 125.202C123.124 120.654 126.636 116.483 130.606 112.802L130.823 112.601L131.112 112.661L131.269 113.254L131.251 112.676C131.412 112.67 131.563 112.602 131.673 112.482C131.786 112.363 131.844 112.208 131.838 112.044L131.829 111.77L132.033 111.519C135.432 108.558 138.331 106.689 139.781 105.988C140.994 105.406 141.942 105.325 142.525 105.763C143.083 106.182 143.36 107.153 143.2 108.125C142.98 109.438 139.999 112.539 136.122 116.457C132.917 119.699 129.607 123.042 128.151 125.456L128.061 125.6C122.696 133.819 127 151.624 140.161 175.77C152.078 197.632 167.006 215.924 177.431 227.419C187.667 238.708 195.68 245.827 197.182 247.139L197.526 247.441L197.312 247.844C194.802 252.579 192.522 257.31 190.533 261.909L190.193 262.697Z" fill="black"/>
<path fill-rule="evenodd" clip-rule="evenodd" d="M148.224 266.16L147.005 264.345C139.275 252.831 121.174 225.869 106.849 210.654C98.9001 202.211 88.488 196.916 81.1521 193.959C73.2212 190.762 67.2412 189.567 66.9906 189.519C66.8507 189.491 66.7093 189.488 66.5709 189.511C66.2558 189.562 34.9458 194.688 19.4408 198.799C7.32232 202.009 4.80424 200.774 4.32153 200.318C4.14936 200.156 4.12937 199.983 4.22469 199.503C4.24621 199.393 4.26466 199.269 4.2831 199.13C4.42146 198.101 4.74583 195.691 13.968 193.187C24.6552 190.286 55.4717 182.425 55.7822 182.348C56.2281 182.233 56.5678 181.872 56.6539 181.421C56.7415 180.968 56.5601 180.506 56.1881 180.233L45.5716 172.479L59.7054 171.546C61.5548 175.894 63.6024 179.144 63.7316 179.347C64.0836 179.903 64.8169 180.065 65.3688 179.714C65.9207 179.361 66.0851 178.626 65.7331 178.071C65.687 177.999 61.0936 170.702 59.5809 163.552C57.853 155.386 54.022 133.804 54.4356 130.274C54.6339 128.595 55.1504 127.451 55.9329 126.963C56.5463 126.581 57.3949 126.575 58.451 126.946C58.7753 127.188 60.368 128.975 64.1236 141.823C66.1712 148.823 67.8469 155.653 67.8638 155.722C67.8715 155.753 67.8792 155.782 67.8899 155.811C68.0052 156.164 70.8676 164.55 82.5049 173.334C95.6672 183.268 110.175 195.882 116.227 201.498C129.155 213.495 143.837 230.546 158.684 250.808C179.512 279.234 182.505 283.911 182.532 283.952C182.539 283.964 182.547 283.975 182.555 283.986C182.824 284.384 189.308 293.82 202.194 303.875C209.755 309.774 217.954 314.642 226.561 318.342C237.324 322.969 248.756 325.773 260.543 326.676C263.265 326.886 265.985 326.989 268.7 326.989C277.734 326.989 286.703 325.835 295.452 323.539C304.551 321.153 313.433 317.533 321.856 312.783C333.887 305.995 341.401 298.956 343.709 296.648C345.69 298.728 349.466 302.313 352.457 304.581C349.28 307.411 339.646 315.589 326.056 323.405C316.253 329.044 306.352 333.386 296.629 336.309C284.505 339.954 272.624 341.387 261.319 340.573C235.654 338.726 214.947 329.18 202.095 321.499C188.146 313.162 180.173 305.155 180.095 305.075C180.078 305.058 180.061 305.041 180.044 305.026C171.14 297.016 154.381 275.309 148.224 266.16Z" fill="#E8F2DC"/>
<path fill-rule="evenodd" clip-rule="evenodd" d="M148.697 265.844C154.84 274.973 171.551 296.623 180.424 304.603C180.578 304.755 188.53 312.73 202.386 321.011C215.185 328.661 235.805 338.164 261.354 340.005C272.593 340.812 284.4 339.386 296.458 335.763C306.142 332.852 316.002 328.53 325.765 322.912C338.529 315.569 347.728 307.975 351.547 304.618C348.734 302.41 345.513 299.343 343.693 297.477C340.738 300.372 333.459 306.904 322.134 313.294C313.667 318.07 304.737 321.708 295.593 324.105C284.192 327.098 272.294 328.163 260.493 327.26C248.646 326.351 237.151 323.533 226.329 318.882C217.678 315.163 209.437 310.268 201.834 304.338C188.854 294.21 182.344 284.718 182.073 284.319C182.012 284.225 178.94 279.444 158.213 251.158C143.389 230.926 128.733 213.902 115.83 201.93C109.785 196.32 95.295 183.721 82.1527 173.804C70.3786 164.914 67.4547 156.358 67.3363 155.999C67.2825 155.801 65.6053 148.966 63.5669 141.991C60.0281 129.895 58.4416 127.774 58.1495 127.462C57.3163 127.19 56.6722 127.188 56.2325 127.462C55.613 127.848 55.1764 128.872 55.0042 130.35C54.603 133.764 58.4662 155.533 60.1403 163.44C61.6099 170.384 66.0281 177.474 66.2156 177.771C66.7352 178.591 66.4924 179.685 65.6745 180.209C64.8536 180.731 63.7621 180.488 63.241 179.665C63.1534 179.531 61.1656 176.38 59.3332 172.157L47.1902 172.958L56.523 179.776C57.0719 180.176 57.344 180.87 57.2148 181.537C57.0872 182.207 56.5784 182.748 55.9174 182.916L55.6007 182.996C48.2371 184.875 23.4821 191.209 14.1139 193.753C5.26218 196.155 4.96241 198.378 4.84865 199.215C4.83021 199.366 4.80868 199.501 4.78563 199.625C4.73489 199.879 4.73884 199.951 4.73884 199.97C4.89785 200.079 6.89479 201.531 19.2884 198.247C34.7258 194.157 66.1603 189 66.4739 188.949C66.6784 188.914 66.889 188.917 67.095 188.958C67.3502 189.009 73.4224 190.231 81.3625 193.43C88.7507 196.409 99.2427 201.746 107.264 210.266C121.619 225.512 139.74 252.503 147.477 264.028L148.697 265.844ZM267.517 341.379C265.417 341.379 263.336 341.307 261.271 341.157C235.496 339.301 214.702 329.716 201.795 322.003C187.803 313.64 179.76 305.57 179.68 305.488C170.714 297.423 153.912 275.66 147.741 266.49L146.522 264.675C138.799 253.171 120.716 226.236 106.425 211.058C98.5479 202.694 88.2142 197.438 80.9321 194.502C73.0919 191.343 67.1242 190.142 66.8721 190.092C66.8044 190.078 66.7322 190.078 66.6584 190.089C66.3463 190.14 34.9672 195.288 19.582 199.366C7.95398 202.447 4.77948 201.552 3.92167 200.746C3.50353 200.352 3.55733 199.882 3.65418 199.397C3.67417 199.3 3.68954 199.187 3.70645 199.062C3.87401 197.821 4.22298 195.24 13.811 192.638C23.1885 190.092 47.9496 183.757 55.3163 181.876L55.633 181.794C55.8635 181.737 56.0388 181.551 56.0834 181.32C56.128 181.087 56.0342 180.848 55.8436 180.708L43.9403 172.015L60.0711 170.951L60.2325 171.326C62.0696 175.651 64.1265 178.908 64.2126 179.045C64.3002 179.184 64.4355 179.278 64.5953 179.314C64.7521 179.349 64.9166 179.323 65.055 179.233C65.3379 179.053 65.4224 178.674 65.241 178.389C65.0473 178.081 60.5246 170.823 59.0119 163.678C57.51 156.586 53.407 134.066 53.8589 130.214C54.0757 128.355 54.6875 127.063 55.6237 126.481C56.3924 126 57.4054 125.977 58.6353 126.407L58.789 126.489C59.962 127.361 62.1065 132.893 64.6722 141.666C66.7153 148.653 68.4032 155.53 68.4186 155.594C68.5446 155.983 71.3563 164.207 82.846 172.879C96.0221 182.825 110.551 195.456 116.614 201.081C129.569 213.104 144.276 230.183 159.143 250.473C180.079 279.047 182.988 283.607 183.014 283.652C183.292 284.062 189.703 293.409 202.542 303.427C210.067 309.296 218.224 314.14 226.784 317.819C237.488 322.421 248.859 325.21 260.581 326.108C272.254 327 284.025 325.948 295.301 322.988C304.349 320.615 313.187 317.015 321.568 312.288C333.674 305.458 341.259 298.284 343.296 296.246L343.713 295.83L344.12 296.257C345.911 298.133 349.699 301.778 352.8 304.127L353.359 304.552L352.835 305.02C349.359 308.117 339.822 316.158 326.339 323.914C316.498 329.574 306.557 333.933 296.789 336.871C286.809 339.869 276.99 341.379 267.517 341.379Z" fill="black"/>
<path fill-rule="evenodd" clip-rule="evenodd" d="M383.974 357.726C383.51 356.135 382.81 354.059 381.771 351.337C380.532 348.083 378.786 343.954 377.25 341.093C380.076 337.87 390.531 325.857 404.236 309.086C408.858 312.625 413.452 315.954 417.985 319.118C401.851 338.973 388.398 353.156 383.974 357.726Z" fill="#E8F2DC"/>
<path fill-rule="evenodd" clip-rule="evenodd" d="M377.944 341.161C379.253 343.66 380.868 347.341 382.306 351.116C383.098 353.191 383.745 355.031 384.239 356.605C389.57 351.07 402.104 337.695 417.143 319.223C412.566 316.02 408.363 312.951 404.327 309.87C391.19 325.931 381.118 337.535 377.944 341.161ZM383.698 358.827L383.419 357.877C382.911 356.14 382.174 354.003 381.23 351.529C379.738 347.612 378.059 343.81 376.74 341.354L376.551 341.001L376.815 340.698C379.682 337.427 390.102 325.454 403.788 308.706L404.141 308.273L404.583 308.614C408.892 311.914 413.383 315.191 418.311 318.632L418.82 318.988L418.428 319.471C402.505 339.069 389.316 353.025 384.385 358.115L383.698 358.827Z" fill="black"/>
<path fill-rule="evenodd" clip-rule="evenodd" d="M83.614 662.489C84.7808 662.169 92.5149 633.739 98.7578 602.663C100.885 592.069 103.299 580.061 106.244 565.979C109.556 550.156 115.393 527.561 124.407 509.775C128.368 501.959 131.588 497.782 133.032 496.102C134.457 497.517 136.531 499.399 139.547 501.915C142.159 504.092 144.73 506.09 146.787 507.541C147.092 507.756 147.373 507.948 147.641 508.128C145.814 510.479 142.072 515.622 137.803 523.361C132.363 533.23 125.041 549.335 121.052 570.028C113.645 608.455 102.309 652.67 96.7932 664.648C96.7778 664.681 96.764 664.715 96.7501 664.751L93.8047 673.126C93.7693 673.226 93.7539 673.326 93.7447 673.427C91.6771 680.115 88.7147 682.215 86.3258 683.903C85.9415 684.176 85.5771 684.433 85.2205 684.705C84.4887 685.261 80.4487 688.094 72.8576 689.176C63.9137 690.448 53.8583 688.792 42.9727 684.252C31.7182 679.556 24.164 675.966 20.5252 673.581C18.9203 672.53 18.4038 671.924 18.2393 671.656C18.1517 671.515 18.1517 671.515 18.1932 671.324C18.2547 671.04 18.2516 670.749 18.2485 670.444C18.2454 669.909 18.2577 669.456 18.4622 669.325C18.7159 669.16 20.3531 668.519 27.689 671.954C37.8659 676.718 43.9059 678.606 49.2341 680.274C50.63 680.71 51.9505 681.122 53.2725 681.566C55.9028 682.447 62.0074 682.537 66.8914 682.235C70.8007 681.993 77.7047 681.28 80.0152 679.227C81.0252 678.328 81.0068 677.366 80.9053 676.873C80.6563 675.661 79.4802 673.972 72.5302 671.664C55.271 665.934 37.6383 657.11 27.1018 651.838C23.8873 650.23 21.3492 648.959 19.8135 648.281C17.5506 647.282 16.4099 645.626 16.2854 644.426C16.2285 643.885 16.3746 643.484 16.7205 643.235C17.0587 642.991 18.4407 642.324 22.0349 643.967C23.3 644.546 25.7228 645.689 28.7897 647.136C36.5884 650.815 48.3732 656.374 58.5378 660.891C64.1504 663.386 68.5885 665.258 71.7277 666.452C76.5163 668.276 78.3457 668.695 79.0667 667.422C79.8523 666.031 78.3165 664.672 73.2988 661.295C51.2649 646.463 46.5377 635.1 45.5277 630.903C45.4247 630.393 46.2933 628.332 47.9166 627.8C49.9182 627.147 52.3071 629.469 54.4686 634.175C57.022 639.739 62.4502 646.096 70.6024 653.072C75.4771 657.243 79.9199 660.397 81.4695 661.469L81.4679 661.477C81.4679 661.477 82.4472 662.809 83.614 662.489Z" fill="#E8F2DC"/>
<path fill-rule="evenodd" clip-rule="evenodd" d="M18.7687 671.414C18.9516 671.662 19.4451 672.193 20.8425 673.108C24.452 675.473 31.974 679.046 43.1977 683.728C53.9833 688.23 63.9373 689.871 72.7797 688.616C80.2279 687.554 84.1634 684.798 84.8751 684.255C85.2333 683.983 85.5992 683.724 85.9866 683.45C88.3079 681.807 91.1857 679.772 93.198 673.267C93.1872 673.219 93.2165 673.077 93.2641 672.943L96.2741 664.414C101.773 652.47 113.089 608.318 120.488 569.93C124.491 549.161 131.841 532.998 137.301 523.094C141.309 515.829 144.855 510.838 146.814 508.272C146.699 508.194 146.58 508.11 146.459 508.024C144.387 506.562 141.801 504.553 139.181 502.368C136.679 500.284 134.628 498.466 133.075 496.96C131.438 498.948 128.494 503.001 124.923 510.049C115.939 527.775 110.114 550.318 106.812 566.107C103.878 580.133 101.473 592.101 99.3502 602.662C95.1427 623.605 85.9143 662.468 83.7683 663.057C82.3986 663.434 81.2979 662.197 81.055 661.892C79.3224 660.69 74.9888 657.593 70.2309 653.523C62.0156 646.493 56.5368 640.068 53.9464 634.427C51.951 630.082 49.765 627.815 48.0986 628.362C46.8027 628.785 46.0832 630.452 46.0986 630.82C47.084 634.91 51.7558 646.106 73.6237 660.826C78.6906 664.237 80.646 665.815 79.5699 667.719C78.5815 669.469 76.3585 668.842 71.5238 667.004C68.3708 665.801 63.9234 663.927 58.3077 661.431C48.1693 656.925 36.406 651.375 28.6211 647.704C25.4835 646.223 23.0623 645.081 21.7987 644.504C18.3321 642.92 17.1791 643.628 17.0592 643.715C16.9931 643.764 16.8117 643.895 16.8609 644.376C16.9654 645.377 18.0077 646.862 20.0492 647.762C21.6019 648.449 24.1446 649.722 27.3621 651.332C37.8833 656.598 55.4914 665.409 72.7136 671.127C79.9035 673.512 81.1764 675.318 81.4731 676.769C81.5992 677.384 81.6284 678.578 80.3985 679.67C78.0819 681.73 71.7943 682.522 66.9288 682.822C61.9941 683.129 55.7989 683.032 53.0917 682.125C51.7727 681.682 50.4583 681.271 49.0655 680.835C43.7204 679.163 37.6635 677.27 27.4467 672.487C21.1699 669.551 19.2483 669.711 18.8548 669.8C18.8256 669.976 18.8286 670.323 18.8286 670.449C18.8317 670.759 18.8348 671.078 18.7687 671.414ZM66.8658 690.181C59.4222 690.181 51.3392 688.378 42.755 684.796C31.4651 680.086 23.8817 676.478 20.2122 674.076C18.9332 673.239 18.0815 672.511 17.751 671.97C17.5742 671.685 17.565 671.523 17.6326 671.213C17.6803 670.99 17.6787 670.733 17.6757 670.461C17.671 669.851 17.6649 669.164 18.1553 668.85C18.8194 668.422 20.9778 668.184 27.934 671.441C38.0801 676.191 44.1001 678.073 49.4099 679.732C50.8088 680.171 52.1324 680.584 53.4576 681.029C56.0156 681.887 62.031 681.969 66.8581 681.669C73.3839 681.266 78.0403 680.222 79.6345 678.806C80.3893 678.134 80.437 677.455 80.3432 677.002C80.1433 676.022 79.0965 674.463 72.3508 672.224C55.0502 666.48 37.396 657.644 26.8471 652.366C23.6434 650.762 21.1115 649.494 19.585 648.821C17.1084 647.73 15.857 645.862 15.7141 644.496C15.6157 643.548 16.0246 643.038 16.3859 642.776C16.9039 642.407 18.5119 641.732 22.2768 643.453C23.5435 644.032 25.9678 645.175 29.0393 646.624C36.8918 650.327 48.6489 655.874 58.7735 660.374C64.3723 662.863 68.7997 664.728 71.9342 665.924C76.5507 667.68 78.1034 667.968 78.5661 667.147C79.0765 666.247 77.8236 665.044 72.9811 661.786C50.7765 646.839 45.9956 635.312 44.9702 631.05C44.8042 630.23 45.8234 627.89 47.7404 627.263C50.0878 626.494 52.6628 628.868 54.9933 633.945C57.5145 639.433 62.8919 645.724 70.9796 652.643C75.7821 656.752 80.148 659.86 81.8005 661.004L82.1572 661.251L82.1218 661.357C82.3755 661.619 82.8444 662.014 83.3394 661.966C84.7721 659.821 92.002 633.389 98.1957 602.561C100.342 591.871 102.748 579.901 105.684 565.87C109.001 550.013 114.854 527.365 123.895 509.525C127.83 501.758 131.037 497.55 132.597 495.735L133.001 495.266L133.441 495.702C135.014 497.265 137.194 499.208 139.919 501.481C142.516 503.646 145.074 505.635 147.123 507.08C147.424 507.292 147.703 507.483 147.967 507.662L148.477 508.007L148.098 508.496C146.264 510.858 142.551 515.965 138.311 523.653C132.891 533.484 125.595 549.529 121.621 570.149C114.208 608.611 102.851 652.888 97.3195 664.899L94.351 673.33C94.3371 673.37 94.3279 673.418 94.3218 673.486C92.1711 680.49 89.1165 682.65 86.6615 684.386C86.2756 684.661 85.9205 684.912 85.5731 685.177C84.8198 685.748 80.6722 688.657 72.9427 689.759C70.9688 690.041 68.9411 690.181 66.8658 690.181Z" fill="black"/>
<path fill-rule="evenodd" clip-rule="evenodd" d="M292.893 36.9119C297.18 33.4638 302.323 31.7891 307.433 31.7891C314.253 31.7891 321.014 34.7719 325.605 40.5064C329.496 45.3643 331.264 51.4516 330.587 57.6437C329.909 63.8358 326.867 69.3932 322.018 73.2912C316.948 77.3695 310.71 79.1428 304.453 78.2862C298.553 77.4804 293.031 74.3497 289.306 69.6952C281.276 59.6667 282.885 44.9591 292.893 36.9119Z" fill="white"/>
<path fill-rule="evenodd" clip-rule="evenodd" d="M293.252 37.3615C283.492 45.2098 281.922 59.5523 289.753 69.3343C293.387 73.8717 298.772 76.9269 304.529 77.7142C310.628 78.5462 316.709 76.816 321.655 72.8394C326.384 69.0385 329.35 63.6182 330.012 57.5787C330.673 51.5406 328.948 45.6058 325.154 40.8666C320.829 35.4664 314.37 32.3665 307.43 32.3665C302.293 32.3665 297.257 34.1398 293.252 37.3615ZM307.53 79.0747C306.482 79.0747 305.427 79.0038 304.373 78.8605C298.326 78.0316 292.671 74.8239 288.854 70.0584C280.626 59.7788 282.274 44.7076 292.529 36.4601C296.74 33.0752 302.031 31.2109 307.43 31.2109C314.72 31.2109 321.509 34.4664 326.053 40.144C330.039 45.1235 331.852 51.3603 331.157 57.705C330.463 64.0512 327.346 69.7472 322.377 73.7407C318.036 77.232 312.858 79.0747 307.53 79.0747Z" fill="black"/>
<path fill-rule="evenodd" clip-rule="evenodd" d="M667.69 440.413C664.199 457.273 655.181 474.067 640.878 490.359C639.43 484.459 634.726 467.579 623.717 445.418C615.673 429.22 605.877 413.393 594.603 398.372C592.517 395.594 590.374 392.846 588.186 390.122C588.097 389.793 587.876 389.533 587.591 389.385C575.147 373.984 561.099 359.491 545.706 346.197C506.192 312.077 478.122 297.508 453.36 284.652C427.33 271.142 404.852 259.474 375.29 229.153C326.343 178.947 314.163 161.006 311.625 156.783C312.507 156.387 313.038 156.125 313.161 156.063C313.444 155.923 313.657 155.673 313.757 155.373L314.246 153.891C318.397 157.467 332.521 169.409 351.195 182.727C371.751 197.39 402.19 216.776 430.468 225.863C439.547 228.783 449.138 231.908 459.043 235.316C459.068 235.323 459.091 235.333 459.115 235.339C477.967 241.827 497.958 249.345 517.754 258.443C551.829 274.101 579.373 291.69 601.962 312.216C622.732 331.089 651.727 359.978 663.668 392.802C669.538 408.935 670.892 424.954 667.69 440.413Z" fill="#95F58C"/>
<path fill-rule="evenodd" clip-rule="evenodd" d="M588.699 389.846C590.944 392.639 593.084 395.392 595.061 398.027C606.355 413.074 616.169 428.932 624.232 445.162C634.612 466.06 639.396 482.231 641.165 489.149C654.982 473.195 663.713 456.765 667.122 440.298C670.302 424.945 668.956 409.032 663.124 393.001C651.225 360.296 622.297 331.477 601.571 312.645C579.027 292.16 551.529 274.601 517.511 258.97C500.247 251.037 481.63 243.703 458.924 235.887C448.531 232.311 438.622 229.094 430.288 226.416C401.94 217.305 371.447 197.886 350.858 183.199C333.002 170.462 319.211 158.906 314.521 154.89L314.301 155.558C314.152 156.007 313.838 156.371 313.416 156.582C313.322 156.63 312.994 156.792 312.456 157.038C315.691 162.209 328.798 180.643 375.7 228.749C405.196 259.004 427.638 270.653 453.621 284.142C478.414 297.01 506.514 311.596 546.078 345.761C561.417 359.004 575.511 373.531 587.967 388.938C588.307 389.149 588.566 389.47 588.699 389.846ZM640.578 491.571L640.315 490.497C638.803 484.338 634.109 467.639 623.199 445.677C615.168 429.51 605.391 413.711 594.138 398.722C592.149 396.07 589.994 393.3 587.734 390.487L587.626 390.276C587.582 390.112 587.474 389.978 587.322 389.898L587.14 389.75C574.708 374.365 560.641 359.859 545.326 346.637C505.864 312.561 477.827 298.009 453.092 285.168C427.018 271.633 404.501 259.944 374.876 229.558C326.026 179.452 313.732 161.417 311.128 157.083L310.793 156.524L311.386 156.257C312.255 155.869 312.779 155.61 312.901 155.548C313.047 155.476 313.154 155.35 313.206 155.194L313.966 152.891L314.619 153.453C318.539 156.832 332.788 168.892 351.526 182.258C372.049 196.898 402.434 216.249 430.64 225.316C438.978 227.996 448.895 231.214 459.227 234.77C482.042 242.622 500.691 249.971 517.992 257.919C552.119 273.602 579.712 291.222 602.346 311.789C623.161 330.704 652.222 359.66 664.208 392.605C670.114 408.841 671.475 424.968 668.252 440.532C664.741 457.483 655.676 474.375 641.308 490.741L640.578 491.571Z" fill="black"/>
<path fill-rule="evenodd" clip-rule="evenodd" d="M560.264 397.427C547.415 402.435 529.881 410.998 517.693 423.772C517.258 421.059 516.284 416.341 514.159 410.18C508.54 393.893 499.333 380.532 492.599 372.19C480.559 357.278 463.247 346.052 443.202 333.055C424.309 320.806 402.896 306.92 382.171 287.209C379.788 284.943 377.414 282.553 375.051 280.05C374.944 279.799 374.756 279.583 374.493 279.452L374.487 279.45C359.2 263.119 344.332 241.831 330.19 215.993C317.113 192.1 307.9 170.143 303.637 159.859C305.93 159.098 307.883 158.352 309.414 157.727C311.807 161.879 323.482 179.415 373.591 230.812C403.421 261.407 426.056 273.157 452.266 286.763C476.915 299.558 504.852 314.059 544.155 347.997C559.056 360.865 572.688 374.861 584.811 389.721C580.828 390.662 571.323 393.118 560.264 397.427Z" fill="#81BA8B"/>
<path fill-rule="evenodd" clip-rule="evenodd" d="M375.531 279.702C377.878 282.187 380.246 284.566 382.565 286.774C403.25 306.443 424.635 320.311 443.504 332.547C463.599 345.575 480.944 356.824 493.046 371.81C499.808 380.186 509.055 393.607 514.702 409.975C516.554 415.343 517.542 419.628 518.068 422.537C530.348 410.077 547.609 401.719 560.053 396.872C570.474 392.81 579.59 390.379 583.78 389.356C571.826 374.79 558.371 361.019 543.778 348.418C504.526 314.525 476.623 300.039 452.003 287.259C425.743 273.629 403.07 261.859 373.177 231.199C324.654 181.429 312.098 163.318 309.168 158.431C307.629 159.049 306.032 159.639 304.405 160.192C308.132 169.179 317.46 191.519 330.693 215.698C344.774 241.423 359.643 262.726 374.884 279.013C375.19 279.203 375.396 279.432 375.531 279.702ZM517.306 424.994L517.121 423.846C516.669 421.021 515.693 416.385 513.612 410.353C508.02 394.141 498.854 380.842 492.15 372.538C480.163 357.693 462.889 346.493 442.887 333.524C423.968 321.255 402.533 307.355 381.772 287.612C379.416 285.372 377.013 282.954 374.63 280.429L374.518 280.258C374.476 280.163 374.395 280.03 374.235 279.95L374.064 279.827C358.748 263.466 343.817 242.078 329.683 216.252C316.127 191.489 306.665 168.657 303.103 160.063L302.863 159.488L303.454 159.292C305.424 158.639 307.355 157.926 309.194 157.174L309.66 156.984L309.91 157.42C312.305 161.573 324.004 179.109 374.001 230.39C403.765 260.919 426.361 272.649 452.526 286.23C477.209 299.044 505.177 313.562 544.53 347.541C559.412 360.392 573.114 374.454 585.255 389.337L585.84 390.052L584.942 390.265C581.306 391.125 571.644 393.594 560.47 397.948C547.864 402.86 530.282 411.394 518.108 424.154L517.306 424.994Z" fill="black"/>
<path fill-rule="evenodd" clip-rule="evenodd" d="M207.233 234.242C226.421 203.369 239.214 190.645 244.889 185.095C246.666 185.585 250.301 186.385 255.13 186.385C259.107 186.385 263.894 185.841 269.113 184.137C278.448 181.085 288.093 175.852 295.842 171.646C299.119 169.868 302 168.304 304.18 167.289C307.893 176.048 313.43 188.623 320.54 202.713L299.684 191.005C299.112 190.685 298.388 190.888 298.068 191.461C297.748 192.033 297.953 192.759 298.525 193.079L315.395 202.551C315.115 203.259 312.88 208.739 304.359 225.543C295.468 243.077 288.674 263.012 285.47 280.594C285.418 280.679 285.375 280.769 285.344 280.867C285.285 281.06 285.284 281.254 285.321 281.437C284.815 284.3 284.403 287.102 284.099 289.813C282.867 300.77 285.634 313.55 288.329 322.727C279.264 324.486 270.005 325.019 260.72 324.309C249.215 323.428 238.054 320.691 227.546 316.183C219.134 312.57 211.117 307.817 203.718 302.057C192.79 293.543 186.435 285.294 184.887 283.175C186.519 277.26 188.573 271.302 191.073 265.252C191.259 265.2 191.437 265.103 191.585 264.956C191.964 264.574 192.027 264.004 191.786 263.553C195.818 254.079 200.938 244.369 207.233 234.242Z" fill="#FFA3A3"/>
<path fill-rule="evenodd" clip-rule="evenodd" d="M185.518 283.061C187.405 285.61 193.617 293.459 204.073 301.604C211.432 307.335 219.408 312.062 227.774 315.655C238.223 320.14 249.322 322.859 260.766 323.734C269.757 324.429 278.783 323.936 287.599 322.282C285.018 313.345 282.3 300.658 283.527 289.752C283.822 287.127 284.228 284.329 284.736 281.436C284.703 281.186 284.721 280.94 284.793 280.704C284.824 280.601 284.866 280.5 284.921 280.397C288.155 262.711 295.05 242.631 303.845 225.286C311.338 210.509 313.971 204.48 314.669 202.809L298.243 193.587C297.833 193.356 297.536 192.979 297.407 192.524C297.279 192.07 297.336 191.594 297.567 191.182C297.796 190.771 298.172 190.474 298.626 190.344C299.079 190.218 299.554 190.273 299.965 190.504L319.178 201.291C313.908 190.753 308.893 179.861 303.885 168.072C301.793 169.078 299.144 170.514 296.117 172.158C288.337 176.379 278.672 181.622 269.293 184.687C264.669 186.2 259.903 186.965 255.13 186.965C250.498 186.965 246.935 186.234 245.056 185.741C239.938 190.751 226.905 203.688 207.721 234.552C201.443 244.653 196.435 254.145 192.413 263.557C192.628 264.187 192.473 264.885 191.992 265.369C191.854 265.506 191.692 265.622 191.511 265.707C189.12 271.518 187.105 277.354 185.518 283.061ZM268.669 325.195C266.006 325.195 263.34 325.092 260.676 324.887C249.108 324.001 237.885 321.252 227.32 316.718C218.862 313.087 210.804 308.309 203.366 302.516C192.462 294.023 186.11 285.828 184.422 283.52L184.258 283.294L184.333 283.024C185.964 277.111 188.052 271.059 190.541 265.035L190.647 264.779L190.913 264.701C191.02 264.67 191.108 264.619 191.177 264.551C191.368 264.36 191.408 264.072 191.279 263.832L191.148 263.587L191.256 263.331C195.317 253.789 200.382 244.175 206.744 233.94C226.301 202.474 239.514 189.551 244.487 184.682L244.724 184.453L245.042 184.54C246.759 185.013 250.354 185.81 255.13 185.81C259.782 185.81 264.427 185.063 268.935 183.588C278.214 180.558 287.828 175.341 295.554 171.149C298.878 169.344 301.737 167.794 303.937 166.77L304.478 166.516L304.712 167.067C310.056 179.675 315.402 191.252 321.055 202.457L321.908 204.148L299.402 191.512C299.259 191.432 299.095 191.414 298.938 191.458C298.781 191.501 298.652 191.605 298.572 191.746C298.492 191.89 298.474 192.054 298.517 192.212C298.561 192.369 298.664 192.5 298.806 192.578L316.117 202.297L315.931 202.767C315.707 203.337 313.482 208.83 304.873 225.81C296.109 243.091 289.245 263.098 286.037 280.702L285.962 280.9C285.929 280.953 285.908 280.997 285.896 281.04C285.869 281.128 285.866 281.226 285.886 281.329L285.906 281.434L285.888 281.542C285.378 284.443 284.967 287.25 284.672 289.882C283.439 300.846 286.281 313.707 288.883 322.567L289.061 323.175L288.44 323.297C281.934 324.56 275.311 325.195 268.669 325.195Z" fill="black"/>
<path fill-rule="evenodd" clip-rule="evenodd" d="M336.087 240.593C335.533 241.331 332.737 243.585 327.764 246.686C322.971 249.677 319.779 251.171 318.734 251.415C317.229 249.288 312.062 236.231 307.699 224.198C314.625 210.453 316.901 205.147 317.481 203.727L322.485 206.537C324.056 209.584 325.696 212.692 327.404 215.837C327.413 215.951 327.433 216.063 327.475 216.174C331.536 226.643 335.85 238.545 336.087 240.593Z" fill="#FFA3A3"/>
<path fill-rule="evenodd" clip-rule="evenodd" d="M308.327 224.233C312.358 235.332 317.28 247.833 318.988 250.733C320.212 250.305 323.137 248.889 327.46 246.192C332.137 243.276 334.736 241.21 335.479 240.416C334.987 237.84 330.788 226.306 326.939 216.38C326.894 216.266 326.864 216.142 326.845 216.008C325.251 213.075 323.64 210.029 322.054 206.951L317.765 204.544C316.914 206.547 314.444 212.083 308.327 224.233ZM318.49 252.061L318.266 251.745C316.681 249.505 311.36 235.981 307.159 224.393L307.074 224.157L307.185 223.935C314.155 210.104 316.421 204.801 316.948 203.504L317.196 202.898L322.921 206.112L322.999 206.268C324.625 209.425 326.278 212.549 327.912 215.557L327.981 215.791C327.986 215.862 327.997 215.917 328.014 215.961C332.126 226.565 336.415 238.406 336.661 240.521L336.687 240.752L336.549 240.935C335.908 241.792 332.981 244.109 328.07 247.174C323.374 250.101 320.064 251.694 318.867 251.975L318.49 252.061Z" fill="black"/>
<path fill-rule="evenodd" clip-rule="evenodd" d="M285.959 432.788C275.376 442.944 263.13 446.939 248.952 451.564C244.47 453.025 239.837 454.536 234.971 456.328C211.11 465.121 190.478 474.049 179.784 480.212C171.778 484.825 162.794 495.071 156.85 501.85C154.617 504.395 152.316 507.021 151.474 507.651C151.329 507.597 151.135 507.501 150.9 507.373C150.879 507.067 150.742 506.768 150.491 506.551C150.138 506.247 149.658 506.192 149.257 506.361C147.467 505.17 144.786 503.183 141.369 500.349C138.001 497.556 135.575 495.314 134.07 493.777C134.024 493.69 133.969 493.607 133.896 493.532C133.821 493.45 133.733 493.387 133.643 493.333C132.965 492.617 132.528 492.088 132.336 491.775C133.022 490.478 136.699 486.018 140.579 481.309C148.65 471.52 160.846 456.723 170.25 442.124C185.546 418.377 189.626 389.213 189.666 388.92C189.686 388.78 189.68 388.637 189.648 388.498C189.526 387.954 177.391 333.939 179.451 314.48C179.657 312.54 179.878 310.486 180.127 308.391C183.189 311.19 190.253 317.193 200.808 323.508C213.894 331.338 234.984 341.069 261.145 342.952C263.251 343.104 265.377 343.18 267.519 343.18C276.2 343.18 285.158 341.932 294.258 339.462C294.901 341.026 295.298 341.915 295.327 341.977C298.806 349.317 303.613 360.536 306.337 371.524C306.337 371.537 306.334 371.549 306.332 371.563C306.328 371.795 306.392 372.013 306.503 372.198C308.113 378.897 308.92 385.479 308.148 391.007C305.893 407.149 298.843 420.426 285.959 432.788Z" fill="#FFA3A3"/>
<path fill-rule="evenodd" clip-rule="evenodd" d="M149.722 505.684C150.134 505.684 150.538 505.83 150.864 506.109C151.125 506.335 151.31 506.625 151.404 506.949C152.388 506.056 154.515 503.631 156.414 501.467C162.383 494.658 171.404 484.371 179.493 479.709C190.216 473.531 210.88 464.585 234.769 455.783C239.626 453.994 244.247 452.486 248.717 451.027C262.882 446.406 275.069 442.431 285.557 432.366C298.342 420.099 305.338 406.93 307.574 390.924C308.262 385.99 307.718 379.763 305.958 372.406C305.818 372.139 305.747 371.845 305.754 371.545C303.074 360.766 298.318 349.637 294.803 342.219C294.774 342.159 294.45 341.435 293.916 340.148C282.691 343.142 271.615 344.28 261.101 343.525C234.826 341.632 213.648 331.864 200.509 324C190.852 318.221 184.116 312.723 180.566 309.563C180.371 311.271 180.189 312.942 180.02 314.537C177.966 333.953 190.085 387.825 190.206 388.366C190.254 388.571 190.263 388.784 190.236 388.995C190.196 389.289 186.054 418.647 170.732 442.433C161.313 457.057 149.104 471.868 141.025 481.667C137.571 485.861 134.017 490.173 133.018 491.745C133.194 491.976 133.496 492.335 134.008 492.877C134.125 492.954 134.226 493.038 134.314 493.132C134.394 493.216 134.466 493.313 134.53 493.421C136.26 495.184 138.815 497.481 141.734 499.9C144.618 502.293 147.308 504.349 149.345 505.724C149.47 505.698 149.596 505.684 149.722 505.684ZM151.56 508.3L151.264 508.186C151.104 508.126 150.886 508.023 150.621 507.878L150.341 507.727L150.321 507.408C150.309 507.243 150.235 507.092 150.111 506.986C149.939 506.835 149.696 506.796 149.476 506.89L149.192 507.01L148.933 506.839C146.839 505.445 144.022 503.297 140.999 500.79C138.02 498.322 135.413 495.973 133.656 494.178L133.56 494.05C133.533 493.996 133.503 493.956 133.474 493.923C133.444 493.891 133.402 493.86 133.345 493.826L133.222 493.726C132.53 492.996 132.066 492.44 131.842 492.076L131.668 491.794L131.822 491.501C132.537 490.153 136.052 485.887 140.125 480.946C148.198 471.153 160.38 456.373 169.763 441.806C184.947 418.233 189.052 389.13 189.092 388.839C189.103 388.767 189.1 388.694 189.083 388.624C188.96 388.08 176.8 334.021 178.873 314.414C179.081 312.474 179.302 310.419 179.551 308.317L179.684 307.203L180.512 307.96C183.742 310.912 190.714 316.793 201.1 323.009C214.133 330.807 235.135 340.496 261.183 342.373C271.721 343.133 282.839 341.959 294.104 338.9L294.596 338.768L294.788 339.239C295.424 340.789 295.818 341.669 295.847 341.729C299.381 349.191 304.17 360.395 306.894 371.381L306.916 371.468L306.91 371.554C306.903 371.685 306.934 371.796 306.994 371.896L307.06 372.059C308.87 379.589 309.428 385.989 308.716 391.083C306.441 407.362 299.337 420.744 286.354 433.201C275.676 443.448 263.374 447.462 249.128 452.109C244.614 453.582 240.004 455.085 235.167 456.868C211.335 465.65 190.737 474.563 180.068 480.71C172.143 485.277 163.199 495.478 157.279 502.229C154.929 504.909 152.709 507.442 151.814 508.11L151.56 508.3Z" fill="black"/>
<path fill-rule="evenodd" clip-rule="evenodd" d="M382.461 362.098C381.287 364.095 366.798 376.963 346.507 391.404C330.994 402.445 308.319 416.339 298.113 422.5C304.865 413.1 308.876 402.938 310.496 391.335C311.266 385.816 310.553 379.343 309.054 372.749C312.971 372.587 323.694 371.563 335.711 365.417C345.552 360.385 358.527 350.035 366.278 343.849C369.208 341.513 371.988 339.294 372.865 338.773C372.935 338.79 372.956 338.804 372.956 338.804C373.015 338.847 373.17 339.083 373.294 339.273C373.447 339.504 373.636 339.79 373.897 340.142C374.068 340.371 374.249 340.641 374.437 340.944C374.363 341.34 374.489 341.765 374.812 342.052C374.932 342.158 375.065 342.232 375.207 342.283C377.703 346.918 381.022 355.613 382.109 359.878C382.032 360.22 382.109 360.588 382.338 360.877C382.449 361.428 382.493 361.849 382.461 362.098Z" fill="#FFA3A3"/>
<path fill-rule="evenodd" clip-rule="evenodd" d="M309.77 373.286C311.324 380.367 311.762 386.461 311.072 391.408C309.561 402.219 305.973 411.797 300.125 420.604C310.56 414.273 331.638 401.276 346.177 390.927C365.802 376.96 380.334 364.163 381.899 361.906C381.898 361.774 381.879 361.53 381.801 361.103C381.562 360.744 381.466 360.318 381.524 359.894C380.465 355.817 377.283 347.403 374.797 342.726C374.666 342.66 374.543 342.575 374.433 342.478C374.03 342.119 373.819 341.607 373.845 341.076C373.704 340.854 373.569 340.654 373.438 340.48C373.172 340.122 372.977 339.825 372.82 339.587L372.774 339.52C371.632 340.315 369.114 342.321 366.668 344.271C358.867 350.496 345.867 360.866 335.976 365.926C324.541 371.773 314.272 373.027 309.77 373.286ZM296.008 424.441L297.65 422.156C304.3 412.896 308.317 402.786 309.929 391.247C310.623 386.285 310.14 380.102 308.495 372.871L308.341 372.195L309.033 372.166C313.026 372.001 323.593 370.959 335.453 364.897C345.241 359.891 358.185 349.565 365.917 343.395C369.018 340.922 371.665 338.809 372.575 338.269L372.78 338.148L373.164 338.245L373.369 338.389C373.433 338.432 373.535 338.578 373.775 338.942C373.928 339.173 374.111 339.452 374.363 339.789C374.542 340.03 374.732 340.315 374.929 340.632L375.049 340.823L375.007 341.042C374.968 341.259 375.038 341.472 375.198 341.612C375.257 341.664 375.324 341.704 375.401 341.732L375.612 341.805L375.718 342.002C378.279 346.756 381.616 355.588 382.672 359.728L382.706 359.863L382.675 360C382.636 360.178 382.679 360.364 382.794 360.51L382.908 360.757C383.037 361.405 383.077 361.854 383.037 362.165L382.961 362.385C381.647 364.618 366.56 377.837 346.846 391.87C331.103 403.074 307.731 417.364 298.414 422.989L296.008 424.441Z" fill="black"/>
<path fill-rule="evenodd" clip-rule="evenodd" d="M365.798 292.064C365.792 292.072 365.786 292.081 365.781 292.089C362.159 297.353 357.578 303.309 356.164 304.223C355.99 304.141 355.738 303.994 355.421 303.787C355.378 303.718 355.328 303.652 355.271 303.591C355.094 303.405 354.871 303.293 354.637 303.246C353.351 302.317 351.449 300.781 349.115 298.643C345.135 294.99 343.311 292.699 343 291.979C343.267 291.364 344.437 289.688 345.573 288.061C349.493 282.444 355.909 273.243 358.119 263.766C362.862 269.922 367.658 275.601 372.497 280.792C369.082 287.509 365.832 292.018 365.798 292.064Z" fill="#FFA3A3"/>
<path fill-rule="evenodd" clip-rule="evenodd" d="M355.834 303.37C355.935 303.436 356.029 303.493 356.114 303.544C357.586 302.293 361.551 297.229 365.31 291.765L365.336 291.727C365.367 291.683 368.494 287.334 371.803 280.894C367.31 276.056 362.804 270.736 358.392 265.062C355.926 274.241 349.78 283.048 346.048 288.397C345.105 289.747 344.052 291.257 343.652 291.976C344.101 292.707 345.682 294.711 349.508 298.221C352.151 300.643 353.98 302.057 354.884 302.715C355.194 302.801 355.471 302.966 355.691 303.2C355.743 303.254 355.791 303.311 355.834 303.37ZM356.214 304.884L355.926 304.752C355.734 304.664 355.456 304.502 355.108 304.276L354.935 304.1C354.747 303.88 354.619 303.837 354.53 303.818L354.303 303.721C353.414 303.079 351.51 301.621 348.73 299.074C344.961 295.615 342.872 293.136 342.473 292.215L342.375 291.984L342.475 291.754C342.765 291.084 343.9 289.459 345.104 287.736C348.945 282.228 355.374 273.013 357.56 263.638L357.837 262.453L358.578 263.416C363.29 269.533 368.115 275.247 372.921 280.402L373.198 280.697L373.013 281.059C369.673 287.627 366.481 292.109 366.275 292.397L366.258 292.421C362.672 297.632 358.026 303.713 356.48 304.712L356.214 304.884Z" fill="black"/>
<path fill-rule="evenodd" clip-rule="evenodd" d="M393.972 95.1736C393.251 101.763 390.013 107.676 384.854 111.826C382.977 113.334 380.948 114.546 378.822 115.448C378.423 115.395 378.014 115.545 377.747 115.876C374.064 117.235 370.116 117.682 366.163 117.141C359.884 116.283 354.008 112.95 350.045 108C345.905 102.829 344.023 96.3537 344.744 89.7641C345.465 83.176 348.703 77.2628 353.862 73.1137C360.004 68.1757 367.798 66.655 374.934 68.302L378.926 69.6979C379.058 69.7441 379.195 69.7611 379.329 69.7595C381.186 70.5746 382.957 71.6253 384.594 72.9072C384.717 73.1491 384.917 73.354 385.187 73.468C385.238 73.4896 385.29 73.5019 385.343 73.5158C386.539 74.5296 387.655 75.6697 388.671 76.9392C392.809 82.1098 394.693 88.5855 393.972 95.1736Z" fill="#FFA3A3"/>
<path fill-rule="evenodd" clip-rule="evenodd" d="M369.308 68.2361C363.883 68.2361 358.577 70.0726 354.225 73.5731C349.187 77.6252 346.025 83.3997 345.321 89.8368C344.617 96.2708 346.454 102.597 350.497 107.646C354.369 112.484 360.109 115.738 366.243 116.577C370.052 117.097 373.81 116.698 377.418 115.39C377.764 115.038 378.243 114.86 378.729 114.87C380.775 113.987 382.715 112.815 384.495 111.382C389.535 107.33 392.697 101.555 393.401 95.1184C394.105 88.6828 392.266 82.3582 388.223 77.3093C387.278 76.1291 386.217 75.0321 385.067 74.0461C385.033 74.0353 385.001 74.0245 384.97 74.0107C384.629 73.8658 384.343 73.6162 384.151 73.2988C382.631 72.1202 380.966 71.1265 379.202 70.3422C379.039 70.3314 378.884 70.3022 378.738 70.2513L374.747 68.8554C372.941 68.441 371.118 68.2361 369.308 68.2361ZM369.468 117.955C368.348 117.955 367.221 117.878 366.088 117.722C359.664 116.844 353.653 113.434 349.597 108.37C345.362 103.078 343.436 96.4511 344.174 89.7105C344.912 82.9683 348.225 76.9164 353.504 72.6718C359.584 67.7831 367.442 65.985 375.066 67.7476L379.118 69.1605C379.176 69.1805 379.253 69.199 379.324 69.1897L379.448 69.1882L379.562 69.2375C381.488 70.0833 383.302 71.1665 384.952 72.4591L385.112 72.6533C385.159 72.7488 385.25 72.8751 385.415 72.9445L385.717 73.0831C386.96 74.137 388.106 75.3156 389.123 76.5852C393.359 81.8775 395.284 88.5026 394.546 95.2447C393.808 101.987 390.495 108.039 385.218 112.283C383.316 113.812 381.241 115.06 379.049 115.989L378.904 116.05L378.747 116.03C378.531 116.001 378.331 116.083 378.197 116.248L378.097 116.371L377.95 116.425C375.193 117.442 372.352 117.955 369.468 117.955Z" fill="black"/>
<path fill-rule="evenodd" clip-rule="evenodd" d="M388.846 50.6366C388.846 52.4177 388.76 54.188 388.593 55.9397C388.502 56.1524 388.473 56.3897 388.52 56.6315C388.01 61.3446 386.892 65.942 385.181 70.367C383.394 69.082 381.473 68.0359 379.47 67.2332C382.179 60.7715 383.555 53.9106 383.555 46.8403C383.555 26.8711 372.416 9.4611 356.039 0.523438C375.327 8.94804 388.846 28.2393 388.846 50.6366Z" fill="#FFA3A3"/>
<path fill-rule="evenodd" clip-rule="evenodd" d="M380.222 66.927C381.86 67.6234 383.43 68.4785 384.901 69.4753C386.435 65.3478 387.454 61.0384 387.936 56.6535C387.896 56.3669 387.926 56.0788 388.025 55.8108C388.186 54.0913 388.268 52.3534 388.268 50.6432C388.268 33.4042 380.082 17.4794 366.678 7.40006C377.656 17.3839 384.128 31.637 384.128 46.8469C384.128 53.7955 382.815 60.5469 380.222 66.927ZM385.447 71.2764L384.843 70.8419C383.115 69.6017 381.235 68.5693 379.255 67.7774L378.709 67.5586L378.936 67.0178C381.616 60.6224 382.975 53.8371 382.975 46.8469C382.975 27.7528 372.547 10.1995 355.762 1.03538L356.267 0C376.408 8.79746 389.421 28.6757 389.421 50.6432C389.421 52.4166 389.335 54.2207 389.164 56.0003L389.121 56.1743C389.073 56.2853 389.061 56.407 389.084 56.5272L389.099 56.6134L389.092 56.6997C388.575 61.4544 387.441 66.1258 385.716 70.5815L385.447 71.2764Z" fill="black"/>
<path fill-rule="evenodd" clip-rule="evenodd" d="M348.199 109.484C348.773 110.201 349.385 110.885 350.026 111.536C347.564 110.045 345.397 108.136 343.557 105.84C339.418 100.67 337.535 94.1942 338.256 87.6045C338.977 81.0149 342.215 75.1032 347.374 70.954C352.415 66.9004 358.827 65.0192 365.168 65.6047C360.63 66.3088 356.212 68.1746 352.381 71.2561C346.728 75.8011 343.18 82.2814 342.39 89.5012C341.601 96.7225 343.663 103.817 348.199 109.484Z" fill="#EBCED7"/>
<path fill-rule="evenodd" clip-rule="evenodd" d="M360.356 66.206C355.762 66.682 351.4 68.4616 347.736 71.4074C342.697 75.4595 339.535 81.2356 338.831 87.6711C338.128 94.1051 339.965 100.431 344.008 105.48C344.779 106.442 345.61 107.335 346.497 108.158C342.745 102.682 341.089 96.1127 341.819 89.4414C342.625 82.0676 346.248 75.4487 352.022 70.8065C354.523 68.7974 357.347 67.2413 360.356 66.206ZM353.69 114.436L349.73 112.034C347.212 110.509 344.985 108.546 343.109 106.204C338.874 100.914 336.948 94.2885 337.685 87.5448C338.422 80.8026 341.736 74.7523 347.014 70.5061C352.161 66.3677 358.63 64.4249 365.221 65.0304L369.881 65.4618L365.257 66.1767C360.689 66.8854 356.362 68.799 352.743 71.7078C347.211 76.1574 343.738 82.4989 342.965 89.5677C342.193 96.6334 344.211 103.579 348.649 109.124C349.201 109.814 349.804 110.489 350.439 111.133L353.69 114.436Z" fill="black"/>
<path fill-rule="evenodd" clip-rule="evenodd" d="M51.554 129.017L42.1781 129.561L41.5708 118.998C41.534 118.369 41.0159 117.878 40.3856 117.878H35.3633L46.0413 104.039L56.6824 117.28L52.295 117.428C51.9783 117.437 51.6816 117.573 51.4648 117.805C51.2512 118.036 51.1374 118.345 51.1482 118.66L51.554 129.017Z" fill="#FFA3A3"/>
<path fill-rule="evenodd" clip-rule="evenodd" d="M36.5365 117.301H40.3843C41.3159 117.301 42.0892 118.033 42.1445 118.965L42.7179 128.952L50.9532 128.476L50.5704 118.684C50.5535 118.213 50.7195 117.762 51.0408 117.413C51.3636 117.067 51.8017 116.866 52.2722 116.849L55.5081 116.743L46.0477 104.974L36.5365 117.301ZM41.6341 130.172L40.9931 119.033C40.9746 118.709 40.7071 118.456 40.3843 118.456H34.1875L46.0308 103.109L57.854 117.82L52.3121 118.005C52.1476 118.011 51.997 118.08 51.8848 118.201C51.7756 118.319 51.7172 118.476 51.7218 118.64L52.1507 129.563L41.6341 130.172Z" fill="black"/>
<path fill-rule="evenodd" clip-rule="evenodd" d="M112.307 92.875L119.25 97.1813L115.479 101.32C115.251 101.571 115.141 101.907 115.176 102.246L116.014 110.233L113.219 112.779L112.349 104.926C112.301 104.5 112.028 104.133 111.634 103.964C111.483 103.9 111.327 103.87 111.17 103.87C110.912 103.87 110.656 103.954 110.446 104.118L108.426 105.683L112.307 92.875Z" fill="#FFA3A3"/>
<path fill-rule="evenodd" clip-rule="evenodd" d="M111.173 103.287C111.41 103.287 111.642 103.333 111.86 103.427C112.448 103.677 112.855 104.224 112.924 104.86L113.671 111.585L115.413 109.995L114.604 102.301C114.552 101.802 114.717 101.3 115.055 100.927L118.359 97.3014L112.644 93.7562L109.505 104.113L110.096 103.655C110.402 103.418 110.784 103.287 111.173 103.287ZM112.775 113.964L111.779 104.988C111.754 104.768 111.614 104.577 111.412 104.49C111.213 104.407 110.972 104.436 110.801 104.57L107.352 107.239L111.976 91.9844L120.146 97.0518L115.908 101.705C115.79 101.834 115.733 102.007 115.753 102.179L116.62 110.458L112.775 113.964Z" fill="black"/>
<path fill-rule="evenodd" clip-rule="evenodd" d="M292.892 36.9134C297.18 33.4653 302.322 31.7905 307.432 31.7905C314.253 31.7905 321.014 34.7734 325.604 40.5079C329.495 45.3658 331.263 51.4531 330.587 57.6452C329.909 63.8373 326.866 69.3947 322.018 73.2927C316.948 77.3709 310.709 79.1443 304.453 78.2877C298.553 77.4819 293.031 74.3511 289.306 69.6966C281.275 59.6681 282.885 44.9605 292.892 36.9134ZM304.133 80.645C305.271 80.8006 306.407 80.8776 307.538 80.8776C313.271 80.8776 318.839 78.8978 323.503 75.1461C328.845 70.8506 332.198 64.7279 332.945 57.9041C333.692 51.0803 331.741 44.3735 327.455 39.0196C318.607 27.9665 302.436 26.1901 291.407 35.0584C280.38 43.9268 278.608 60.1335 287.455 71.185C291.556 76.3078 297.635 79.7575 304.133 80.645Z" fill="black"/>
<path fill-rule="evenodd" clip-rule="evenodd" d="M293.248 37.3636C283.488 45.212 281.919 59.5545 289.75 69.3364C293.384 73.8738 298.769 76.9291 304.526 77.7164C310.624 78.5484 316.706 76.8181 321.651 72.8416C326.38 69.0406 329.347 63.6204 330.008 57.5808C330.669 51.5428 328.944 45.608 325.15 40.8687C320.826 35.4686 314.366 32.3687 307.427 32.3687C302.289 32.3687 297.253 34.142 293.248 37.3636ZM307.527 79.0769C306.478 79.0769 305.424 79.006 304.369 78.8627C298.323 78.0338 292.667 74.826 288.85 70.0606C280.623 59.781 282.271 44.7097 292.526 36.4623C296.736 33.0774 302.028 31.2131 307.427 31.2131C314.717 31.2131 321.505 34.4686 326.05 40.1461C330.036 45.1257 331.848 51.3625 331.153 57.7072C330.46 64.0533 327.342 69.7494 322.374 73.7429C318.033 77.2341 312.855 79.0769 307.527 79.0769ZM307.391 29.9898C301.711 29.9898 296.246 31.9034 291.763 35.5086C280.984 44.1782 279.25 60.0198 287.9 70.8248C291.911 75.8336 297.854 79.2047 304.205 80.0722C305.307 80.2216 306.426 80.2986 307.533 80.2986C313.182 80.2986 318.578 78.3619 323.136 74.695C328.359 70.4981 331.636 64.511 332.366 57.8412C333.095 51.1715 331.19 44.6142 327.001 39.3819C322.817 34.1559 316.844 30.8757 310.182 30.1423C309.247 30.0406 308.317 29.9898 307.391 29.9898ZM307.533 81.4542C306.374 81.4542 305.202 81.374 304.049 81.2169C297.408 80.3094 291.195 76.7858 287.001 71.5474C277.952 60.2478 279.766 43.6759 291.041 34.6073C302.318 25.5387 318.852 27.3567 327.9 38.6578C332.282 44.1335 334.276 50.9897 333.512 57.9675C332.749 64.9439 329.319 71.2053 323.859 75.5963C319.093 79.4296 313.447 81.4542 307.533 81.4542Z" fill="black"/>
<path fill-rule="evenodd" clip-rule="evenodd" d="M303.913 64.8663C305.877 64.8663 307.47 63.2701 307.47 61.3011C307.47 59.3305 305.877 57.7344 303.913 57.7344C301.948 57.7344 300.355 59.3305 300.355 61.3011C300.355 63.2701 301.948 64.8663 303.913 64.8663Z" fill="black"/>
<path fill-rule="evenodd" clip-rule="evenodd" d="M303.915 58.3196C302.272 58.3196 300.934 59.66 300.934 61.307C300.934 62.9556 302.272 64.296 303.915 64.296C305.558 64.296 306.896 62.9556 306.896 61.307C306.896 59.66 305.558 58.3196 303.915 58.3196ZM303.915 65.4516C301.635 65.4516 299.781 63.5919 299.781 61.307C299.781 59.0222 301.635 57.1641 303.915 57.1641C306.195 57.1641 308.049 59.0222 308.049 61.307C308.049 63.5919 306.195 65.4516 303.915 65.4516Z" fill="black"/>
<path fill-rule="evenodd" clip-rule="evenodd" d="M112.307 92.8724L119.249 97.1788L115.478 101.317C115.25 101.568 115.14 101.904 115.175 102.243L116.013 110.23L113.218 112.777L112.348 104.924C112.3 104.497 112.027 104.13 111.633 103.961C111.483 103.898 111.326 103.867 111.169 103.867C110.911 103.867 110.655 103.952 110.445 104.115L108.425 105.68L112.307 92.8724ZM105.536 109.876C105.961 110.17 106.526 110.153 106.935 109.837L110.224 107.29L111.118 115.354C111.167 115.798 111.461 116.177 111.878 116.336C112.014 116.387 112.156 116.411 112.296 116.411C112.586 116.411 112.872 116.305 113.095 116.102L118.054 111.584C118.333 111.329 118.476 110.956 118.436 110.58L117.59 102.527L121.964 97.7226C122.202 97.4623 122.311 97.1094 122.264 96.7582C122.214 96.4084 122.013 96.0987 121.713 95.9123L112.244 90.0376C111.931 89.8419 111.546 89.8064 111.201 89.9358C110.857 90.0668 110.592 90.3488 110.485 90.7032L105.075 108.552C104.924 109.045 105.111 109.581 105.536 109.876Z" fill="black"/>
<path fill-rule="evenodd" clip-rule="evenodd" d="M111.168 103.296C111.405 103.296 111.637 103.342 111.855 103.436C112.443 103.686 112.85 104.233 112.919 104.869L113.666 111.594L115.408 110.004L114.6 102.31C114.547 101.811 114.712 101.309 115.05 100.936L118.354 97.3104L112.639 93.7652L109.5 104.122L110.091 103.664C110.397 103.427 110.779 103.296 111.168 103.296ZM112.77 113.973L111.774 104.997C111.749 104.777 111.609 104.586 111.407 104.499C111.208 104.416 110.967 104.445 110.796 104.58L107.347 107.248L111.971 91.9934L120.141 97.0608L115.903 101.714C115.785 101.843 115.728 102.016 115.748 102.188L116.616 110.467L112.77 113.973ZM110.683 106.213L111.689 115.297C111.714 115.526 111.865 115.719 112.08 115.802C112.294 115.881 112.538 115.834 112.706 115.682L117.665 111.163C117.808 111.032 117.882 110.839 117.862 110.647L116.988 102.335L121.537 97.3412C121.66 97.2072 121.716 97.0269 121.691 96.8451C121.666 96.6633 121.563 96.5062 121.408 96.4091L111.94 90.5359C111.777 90.4342 111.583 90.4157 111.402 90.4835C111.228 90.5498 111.09 90.6977 111.036 90.8779L105.626 108.726C105.548 108.981 105.643 109.256 105.862 109.407C106.081 109.558 106.37 109.551 106.583 109.386L110.683 106.213ZM112.295 116.998C112.083 116.998 111.874 116.958 111.674 116.882C111.048 116.646 110.616 116.089 110.544 115.425L109.763 108.385L107.287 110.302C106.678 110.773 105.842 110.796 105.208 110.357C104.573 109.92 104.298 109.129 104.523 108.391L109.932 90.5421C110.091 90.0213 110.487 89.5945 110.995 89.4019C111.505 89.2078 112.085 89.2679 112.546 89.5529L122.015 95.4276C122.461 95.7034 122.761 96.1626 122.833 96.6864C122.905 97.2087 122.744 97.731 122.389 98.1208L118.189 102.731L119.008 110.527C119.067 111.084 118.855 111.642 118.44 112.018L113.48 116.537C113.154 116.833 112.735 116.998 112.295 116.998Z" fill="black"/>
<path fill-rule="evenodd" clip-rule="evenodd" d="M245.102 239.185L237.046 234.418C235.939 233.764 235.567 232.32 236.221 231.211L239.85 225.048C240.505 223.938 241.946 223.567 243.052 224.222L251.108 228.989C252.215 229.645 252.587 231.087 251.932 232.198L248.302 238.359C247.649 239.47 246.209 239.842 245.102 239.185Z" fill="#F2506C"/>
<path fill-rule="evenodd" clip-rule="evenodd" d="M233.804 221.123L225.749 216.356C224.642 215.701 224.27 214.257 224.925 213.148L228.554 206.985C229.208 205.876 230.648 205.505 231.755 206.159L239.812 210.926C240.917 211.583 241.289 213.025 240.636 214.136L237.007 220.297C236.352 221.406 234.911 221.779 233.804 221.123Z" fill="#F2506C"/>
<path fill-rule="evenodd" clip-rule="evenodd" d="M222.398 240.49L214.343 235.723C213.236 235.068 212.864 233.625 213.519 232.515L217.148 226.352C217.802 225.243 219.242 224.872 220.349 225.527L228.404 230.295C229.511 230.95 229.883 232.392 229.228 233.503L225.599 239.664C224.945 240.775 223.505 241.146 222.398 240.49Z" fill="#F2506C"/>
</svg>
