<svg width="340" height="477" viewBox="0 0 340 477" fill="none" xmlns="http://www.w3.org/2000/svg">
<path fill-rule="evenodd" clip-rule="evenodd" d="M138.573 94.0781C138.998 94.474 139.39 94.9075 139.733 95.3927C141.041 97.2415 141.549 99.4879 141.168 101.719C140.784 103.95 139.556 105.899 137.708 107.205C136.132 108.319 134.234 108.835 132.355 108.736C133.72 108.505 135.053 107.971 136.252 107.123C140.465 104.144 141.489 98.3176 138.573 94.0781Z" fill="#EBCED7"/>
<path fill-rule="evenodd" clip-rule="evenodd" d="M141.468 82.4595C145.556 79.5692 150.525 78.4441 155.46 79.2912C157.345 79.6149 159.136 80.2131 160.794 81.0536C155.25 78.845 148.733 79.388 143.509 83.0809C142.362 83.8917 141.331 84.8208 140.409 85.8579C140.367 85.8905 140.333 85.9304 140.305 85.9745C139.654 86.7212 139.058 87.5201 138.527 88.3786L136.803 91.76L134.875 90.889L136.362 87.8736C137.684 85.7418 139.402 83.9204 141.468 82.4595Z" fill="#F2726C"/>
<path fill-rule="evenodd" clip-rule="evenodd" d="M125.911 92.5022C127.907 91.0912 130.416 90.6106 132.795 91.1848C133.784 91.4233 134.714 91.8363 135.544 92.3966C136.387 92.9652 137.128 93.6856 137.725 94.5303C139.033 96.3786 139.542 98.6253 139.159 100.857C138.777 103.087 137.548 105.036 135.7 106.343C133.285 108.049 130.27 108.348 127.667 107.302L127.493 107.229C126.654 106.87 125.86 106.374 125.148 105.734L125.063 105.657C124.626 105.254 124.231 104.803 123.886 104.314C121.187 100.499 122.095 95.1998 125.911 92.5022Z" fill="#F2726C"/>
<path fill-rule="evenodd" clip-rule="evenodd" d="M302.429 208.519L312.903 187.225L317.307 187.277L307.006 208.29C305.821 208.303 304.09 208.402 302.429 208.519Z" fill="#FFCA71"/>
<path fill-rule="evenodd" clip-rule="evenodd" d="M283.251 169.249L316.062 186.311L312.72 186.271L277.236 168.39L283.251 169.249Z" fill="#FFCA71"/>
<path fill-rule="evenodd" clip-rule="evenodd" d="M311.965 186.964L301.319 208.607C299.509 208.744 297.963 208.882 297.576 208.917C296.606 208.991 295.624 208.886 294.675 208.783C292.781 208.579 290.991 208.386 290.128 209.895C289.609 210.801 289.654 211.686 290.214 212.474C289.081 212.462 287.54 212.61 286.796 213.408C286.335 213.904 286.333 214.387 286.413 214.704C286.531 215.174 286.92 215.632 287.575 216.073C287.651 216.125 287.745 216.175 287.828 216.226C287.013 216.763 286.086 217.75 286.515 218.902C286.682 219.349 287.093 219.801 287.71 220.217C289.135 221.178 291.667 221.944 294.828 222.042L290.662 231.018C290.583 230.997 290.501 230.978 290.425 230.957C288.901 230.532 286.839 229.052 284.448 227.337C281.35 225.114 277.496 222.348 273.248 220.804C266.948 218.515 259.62 217.632 252.296 216.989L274.639 168.154L311.965 186.964Z" fill="#FFCA71"/>
<path fill-rule="evenodd" clip-rule="evenodd" d="M133.706 175.176C120.557 163.956 111.706 154.214 111.534 154.023C111.359 153.828 111.054 153.81 110.856 153.988C110.66 154.165 110.644 154.468 110.821 154.665C110.995 154.858 119.996 164.767 133.351 176.132C128.615 188.766 122.459 200.786 115.244 204.996C108.66 200.24 101.302 196.513 95.4538 193.936C86.087 189.808 78.4668 187.647 78.3912 187.626C78.1356 187.554 77.871 187.702 77.7998 187.957C77.7279 188.212 77.8762 188.478 78.1312 188.549C78.2065 188.571 85.7731 190.718 95.0803 194.82C103.651 198.597 115.495 204.853 123.242 213.202C138.197 229.317 132.781 248.123 124.159 256.329C114.767 265.266 84.7045 278.076 74.8255 282.286C60.6333 288.334 52.6508 292.213 51.1121 295.383C49.9138 297.855 52.2343 299.908 53.7245 300.914C54.3117 301.31 54.7705 301.543 54.8331 301.575C54.9034 301.61 54.9775 301.621 55.0509 301.62C56.835 302.6 65.4202 307.128 71.3238 306.927C73.6867 306.846 75.1185 307.359 75.2469 308.337C75.3477 309.1 74.6863 309.898 74.4453 309.954C72.5587 310.394 67.0502 310.784 56.6696 304.924C54.0352 303.436 53.4516 303.344 53.1284 303.827C52.6943 304.475 52.3805 304.944 71.3469 319.827C72.5543 320.775 73.4853 321.505 73.9725 321.897C75.3747 323.025 75.3842 323.737 75.3539 323.928C75.3203 324.136 75.1789 324.289 74.9324 324.382C74.4135 324.578 73.499 324.454 72.6293 323.733C72.0507 323.256 71.0326 322.494 69.7435 321.53C65.5137 318.366 58.4354 313.072 52.6681 307.304C50.3647 305.001 49.4716 304.868 48.9505 305.008C48.7434 305.064 48.3749 305.241 48.2252 305.801C47.6461 307.981 51.1748 315.457 52.6598 316.933C53.1048 317.375 53.5374 317.823 53.9894 318.292C55.7271 320.091 57.6967 322.13 61.6476 325.25C64.4454 327.459 64.595 328.268 64.5741 328.464C64.5602 328.599 64.3856 328.695 64.1411 328.815C64.0213 328.874 63.9074 328.93 63.8107 329.008C63.4821 329.273 61.7177 328.673 53.5888 321.675C45.0823 314.351 44.6851 303.299 45.0736 300.224C45.133 300.139 45.1719 300.038 45.1652 299.925C45.1439 299.556 45.1062 299.191 45.0694 298.826C44.6093 294.334 44.1333 289.689 77.8204 274.781C93.2906 267.935 112.588 256.715 116.669 242.139C116.744 241.87 116.804 241.657 116.848 241.55C117.183 240.749 117.351 237.464 114.927 233.975C111.684 229.308 103.579 223.911 83.374 224.701C69.2619 225.252 59.3936 223.551 52.3418 221.064C52.2444 220.97 52.1143 220.918 51.9719 220.93C43.411 217.834 39.0836 213.587 36.3722 210.917C36.1364 210.685 35.9152 210.467 35.7051 210.265C34.631 209.227 32.9869 205.987 31.994 201.523C31.9998 201.437 31.9807 201.354 31.9401 201.274C31.0205 196.993 30.7062 191.624 32.0491 185.992C35.8269 170.141 50.1733 161.975 62.3677 157.832C62.3751 157.832 62.3813 157.835 62.3893 157.834C62.4794 157.829 62.5569 157.793 62.627 157.746C63.2593 157.533 63.8873 157.328 64.5067 157.136C106.001 144.302 125.459 124.989 128.18 122.122C128.246 122.114 128.312 122.097 128.373 122.06C128.527 121.965 128.603 121.795 128.594 121.625C128.671 121.44 128.632 121.222 128.473 121.083C128.42 121.037 128.359 121.006 128.296 120.986C126.038 117.142 124.955 112.899 125.096 108.361C125.111 107.907 125.142 107.451 125.183 106.998C125.304 107.088 125.425 107.18 125.551 107.265C125.81 107.44 126.078 107.595 126.35 107.742C126.374 107.767 126.395 107.793 126.424 107.813C126.449 107.83 126.477 107.845 126.508 107.858L127.328 108.201C127.374 108.22 127.42 108.241 127.467 108.259L129.719 109.201C132.591 110.195 135.784 109.743 138.261 107.992C140.318 106.537 141.686 104.368 142.112 101.885C142.538 99.4012 141.971 96.9002 140.515 94.842C139.75 93.7608 138.797 92.8751 137.657 92.1944L139.362 88.8479C139.848 88.0634 140.395 87.3271 140.995 86.6369C150.974 83.1288 162.187 86.6992 168.31 95.356C169.373 96.8592 170.231 98.4674 170.891 100.148C170.877 100.3 170.939 100.438 171.045 100.535C172.517 104.501 172.862 108.859 172 113.233C170.776 119.442 167.304 124.875 162.216 128.575C162.11 128.548 161.994 128.551 161.887 128.603C161.649 128.72 161.551 129.007 161.667 129.245C161.678 129.268 162.772 131.595 161.55 132.329C160.502 132.959 155.311 128.486 153.142 125.452C153.34 124.674 153.389 123.859 153.275 123.04C153.043 121.385 152.181 119.918 150.847 118.91C149.705 118.045 148.284 117.598 146.854 117.649C146.589 117.659 146.381 117.881 146.391 118.146C146.401 118.41 146.623 118.617 146.888 118.608C148.099 118.565 149.298 118.943 150.269 119.676C151.398 120.529 152.129 121.771 152.324 123.173C152.52 124.575 152.158 125.969 151.305 127.098C150.452 128.227 149.21 128.957 147.808 129.152C146.406 129.347 145.02 128.985 143.882 128.132C143.687 127.976 143.371 128.014 143.211 128.226C143.051 128.437 143.093 128.738 143.304 128.897C143.395 128.966 143.488 129.032 143.582 129.096C144.864 129.96 146.398 130.317 147.941 130.102C149.596 129.872 151.063 129.01 152.07 127.676C152.344 127.314 152.571 126.928 152.757 126.526C153.904 127.964 155.995 130.159 157.974 131.664C158.074 132.068 158.331 133.488 157.123 133.951C155.66 134.512 154.09 132.373 154.074 132.351C154.069 132.345 154.061 132.341 154.056 132.336C153.942 132.174 153.738 132.091 153.536 132.149C153.208 132.245 145.588 134.506 143.985 139.041C143.94 139.098 143.904 139.163 143.889 139.239C143.84 139.484 141.631 150.333 137.693 163.253C128.736 152.026 125.014 142.733 124.955 142.579C124.858 142.332 124.579 142.211 124.333 142.307C124.086 142.403 123.964 142.681 124.061 142.928C124.122 143.086 127.997 152.776 137.354 164.36L138.1 165.266C143.601 171.926 150.891 179.138 160.3 185.485C160.904 185.893 161.523 186.301 162.145 186.701C190.492 204.943 239.724 216.917 248.005 217.592C249.038 217.676 250.076 217.761 251.115 217.849C251.147 217.893 251.186 217.932 251.233 217.964C251.255 217.979 251.278 217.992 251.302 218.002C251.487 218.087 251.695 218.044 251.833 217.912C259.216 218.552 266.619 219.416 272.918 221.706C277.042 223.205 280.837 225.928 283.886 228.116C286.35 229.885 288.478 231.41 290.165 231.881C290.918 232.091 291.713 232.279 292.481 232.461C294.343 232.903 296.255 233.361 297.087 234.032C297.093 234.044 297.093 234.057 297.1 234.068C297.137 234.132 297.187 234.184 297.245 234.223C297.262 234.234 297.281 234.24 297.298 234.249C297.335 234.294 297.387 234.336 297.415 234.383C297.523 234.568 297.544 234.764 297.478 235C297.381 235.35 297.154 235.605 296.786 235.779C295.369 236.451 292.13 235.833 288.336 234.167C286.679 233.439 284.533 232.414 282.261 231.329C277.879 229.236 272.912 226.864 270.448 226.177C270.193 226.106 269.928 226.255 269.857 226.51C269.787 226.766 269.936 227.031 270.19 227.101C271.899 227.577 274.913 228.921 278.083 230.408C278.087 230.412 278.089 230.418 278.093 230.422L281.54 233.908C285.089 237.497 294.876 240.879 299.589 240.144C302.827 239.639 303.897 240.312 304.035 240.617C304.131 240.827 303.854 241.091 303.73 241.195C302.621 242.127 300.765 243.687 291.899 242.418C285.03 241.434 277.501 235.412 273.456 232.178C272.42 231.349 271.601 230.693 271.032 230.31C266.402 227.186 259.507 223.404 252.956 223.128C246.198 222.844 215.137 217.734 180.071 204.613C163.581 198.442 147.148 186.558 134.507 175.858L133.706 175.176Z" fill="#E8F2DC"/>
<path fill-rule="evenodd" clip-rule="evenodd" d="M296.703 231.932C296.785 231.883 304.965 227.025 307.876 225.261C309.201 224.458 310.09 224.486 310.361 224.858C310.512 225.065 310.448 225.365 310.209 225.569C309.41 226.257 301.139 231.147 297.602 233.218C297.224 232.936 296.743 232.698 296.18 232.487L296.42 231.99C296.516 231.997 296.614 231.985 296.703 231.932Z" fill="#E8F2DC"/>
<path fill-rule="evenodd" clip-rule="evenodd" d="M303.673 219.536C303.266 219.798 300.956 221.106 295.479 221.1C290.892 221.095 287.796 219.597 287.41 218.564C287.088 217.7 288.625 216.863 288.641 216.854C288.697 216.824 288.747 216.783 288.785 216.737C289.266 216.958 289.817 217.174 290.439 217.385C293.049 218.271 297.825 218.948 299.904 218.727C300.97 218.613 302.581 218.295 303.993 217.823C304.091 218.447 304.092 219.266 303.673 219.536Z" fill="#E8F2DC"/>
<path fill-rule="evenodd" clip-rule="evenodd" d="M306.196 215.199C306.213 215.236 306.257 215.334 306.124 215.555C305.992 215.776 305.563 216.222 304.18 216.745C302.739 217.289 300.944 217.655 299.804 217.777C297.867 217.983 293.213 217.317 290.75 216.48C288.411 215.686 287.455 214.922 287.342 214.472C287.328 214.415 287.294 214.282 287.497 214.064C288.121 213.395 290.13 213.364 291.323 213.503C291.941 213.905 292.613 214.179 293.08 214.337C294.78 214.914 299.593 215.145 304.557 214.269C304.618 214.412 304.74 214.526 304.904 214.555C305.343 214.635 306.057 214.894 306.196 215.199Z" fill="#E8F2DC"/>
<path fill-rule="evenodd" clip-rule="evenodd" d="M308.123 209.292C308.223 209.317 308.342 209.376 308.467 209.46C308.88 209.739 309.348 210.299 309.343 210.869C309.334 211.736 308.217 212.474 306.196 212.949C300.611 214.262 294.976 213.959 293.391 213.421C292.954 213.273 292.324 213.01 291.757 212.635C290.252 211.607 290.786 210.672 290.962 210.365C291.487 209.448 292.676 209.527 294.574 209.731C295.521 209.833 296.594 209.949 297.653 209.868L297.66 209.867C300.568 209.604 305.022 209.266 307.084 209.244C307.214 209.305 307.355 209.299 307.477 209.245C307.781 209.249 308.011 209.263 308.123 209.292Z" fill="#E8F2DC"/>
<path fill-rule="evenodd" clip-rule="evenodd" d="M194.828 186.676C229.728 195.084 252.601 213.196 252.829 213.378C252.844 213.39 252.862 213.393 252.878 213.403L251.281 216.894C250.211 216.803 249.143 216.716 248.079 216.629C247.808 216.607 247.491 216.572 247.134 216.526C247.102 216.487 247.066 216.449 247.02 216.422C246.123 215.887 224.976 203.314 218.098 200.69C217.062 200.295 215.949 199.834 214.772 199.345C208.159 196.601 198.168 192.455 178.625 190.639C175.966 190.391 172.863 190.264 170.112 190.289L170.11 190.289C167.51 188.867 165.015 187.4 162.666 185.888C161.699 185.266 160.756 184.633 159.831 183.992C172.073 183.131 183.842 184.029 194.828 186.676Z" fill="#E8F2DC"/>
<path fill-rule="evenodd" clip-rule="evenodd" d="M69.2423 140.851C72.1777 136.78 81.1329 133.162 90.0721 132.436C97.8534 131.804 111.05 132.017 114.755 132.094C110.953 134.796 106.279 137.808 100.681 140.905C100.672 140.901 100.665 140.894 100.655 140.891C100.266 140.773 91.0194 138.029 81.6997 141.054C72.2701 144.116 69.7355 154.296 69.7106 154.398C69.7073 154.412 69.7092 154.427 69.7071 154.441C67.9228 155.045 66.0978 155.639 64.2234 156.219C63.7674 156.36 63.3064 156.508 62.8425 156.661C63.0408 152.728 66.4356 144.742 69.2423 140.851Z" fill="#E8F2DC"/>
<path fill-rule="evenodd" clip-rule="evenodd" d="M1.91518 235.589C-0.826723 236.976 -3.53085 238.382 -6.14676 239.742C-21.9893 247.982 -36.9543 255.764 -60.9844 259.985C-88.7287 264.858 -115.027 263.286 -115.29 263.269C-115.359 263.265 -115.425 263.277 -115.486 263.3C-115.675 263.197 -115.913 263.22 -116.066 263.385C-116.12 263.445 -121.571 269.37 -124.381 274.851C-125.575 277.181 -126.503 277.874 -126.975 277.746C-127.325 277.651 -127.534 277.105 -127.534 276.986C-127.521 276.945 -125.93 272.519 -120.271 265.72C-118.334 263.393 -118.21 262.827 -118.664 262.438C-119.802 261.448 -126.533 268.041 -126.948 268.512C-129.431 271.333 -131.954 276.452 -132.338 277.635L-132.433 277.935C-132.722 278.862 -133.262 280.588 -134.068 280.399C-134.161 280.377 -134.283 280.323 -134.387 280.106C-134.759 279.328 -134.448 277.375 -133.709 275.841C-133.628 275.672 -133.541 275.487 -133.447 275.287C-132.512 273.29 -130.771 269.571 -126.301 265.657C-122.408 262.248 -120.771 261.621 -120.155 261.385C-119.94 261.303 -119.784 261.243 -119.671 261.107C-119.645 261.079 -119.601 261.046 -119.551 261.004C-119.234 260.742 -118.703 260.303 -118.863 259.73C-119.026 259.153 -119.764 258.974 -120.389 258.882C-122.797 258.529 -129.285 263.052 -132.557 266.817C-134.091 268.582 -134.777 269.626 -135.232 270.316C-135.719 271.055 -135.901 271.332 -136.613 271.737C-136.868 271.883 -137.23 271.991 -137.495 271.675C-137.86 271.239 -137.845 270.291 -137.098 269.394L-136.729 268.948C-134.976 266.818 -130.318 261.162 -124.812 257.679C-120.327 254.842 -117.656 256.029 -115.704 256.894C-115.127 257.151 -114.629 257.372 -114.141 257.473C-106.235 259.106 -98.1993 258.263 -97.5985 258.196C-86.0668 258.465 -48.7943 253.449 -28.6708 242.461C-9.62571 232.061 26.0376 206.093 31.1772 202.332C32.2381 206.706 33.9072 209.862 35.0366 210.952C35.2439 211.152 35.4636 211.369 35.6968 211.598C38.1261 213.99 42.2663 218.056 50.2345 221.22C43.5107 222.417 18.3387 227.279 1.91518 235.589Z" fill="#E8F2DC"/>
<path fill-rule="evenodd" clip-rule="evenodd" d="M123.846 197.708C125.381 195.51 126.901 192.945 128.403 190.02C129.509 189.634 135.652 187.573 145.448 185.803C147.999 187.708 150.634 189.591 153.335 191.413C153.447 191.489 153.561 191.564 153.673 191.639C139.984 193.463 127.535 196.701 123.846 197.708Z" fill="#E8F2DC"/>
<path fill-rule="evenodd" clip-rule="evenodd" d="M306.073 236.692C305.312 236.784 304.55 236.898 303.769 237.016C299.729 237.623 295.15 238.311 287.216 236.328C287.141 236.31 287.069 236.315 286.998 236.33C285.017 235.39 283.298 234.314 282.225 233.227L280.615 231.599C281.029 231.797 281.442 231.994 281.85 232.189C284.129 233.277 286.281 234.306 287.952 235.039C292.117 236.868 295.487 237.451 297.199 236.64C297.816 236.348 298.233 235.868 298.405 235.251C298.442 235.117 298.462 234.986 298.471 234.857C300.19 234.784 308.463 234.355 312.303 232.815C313.945 232.155 315.161 232.196 315.639 232.935C315.918 233.367 315.82 233.845 315.738 233.924C315.202 234.374 310.792 236.121 306.073 236.692Z" fill="#E8F2DC"/>
<path fill-rule="evenodd" clip-rule="evenodd" d="M151.314 101.477C153.162 100.17 155.409 99.6614 157.641 100.044C158.844 100.251 159.965 100.703 160.948 101.366C161.787 101.933 162.526 102.653 163.128 103.505C165.827 107.32 164.918 112.62 161.103 115.317C157.288 118.015 151.989 117.107 149.289 113.289C147.982 111.441 147.473 109.194 147.855 106.963C148.237 104.732 149.466 102.783 151.314 101.477Z" fill="white"/>
<path fill-rule="evenodd" clip-rule="evenodd" d="M291.603 231.258L295.876 222.052C297.596 222.032 299.086 221.881 300.331 221.651L295.265 232.178C294.489 231.947 293.619 231.74 292.703 231.523C292.34 231.436 291.971 231.349 291.603 231.258Z" fill="#FFCA71"/>
<path fill-rule="evenodd" clip-rule="evenodd" d="M283.48 191.24L285.209 201.433L282.18 200.152C281.945 200.053 281.674 200.155 281.562 200.384L278.702 206.231L274.571 204.558L277.443 198.299C277.496 198.182 277.501 198.049 277.454 197.928C277.419 197.836 277.356 197.757 277.275 197.702C277.25 197.685 277.225 197.671 277.198 197.66L273.319 195.969L283.48 191.24Z" fill="#F2726C"/>
<path fill-rule="evenodd" clip-rule="evenodd" d="M306.077 236.694C305.316 236.787 304.555 236.901 303.773 237.018C299.733 237.625 295.154 238.313 287.22 236.331C287.145 236.312 287.073 236.317 287.003 236.332C285.021 235.393 283.302 234.316 282.229 233.23L280.619 231.602C281.033 231.8 281.447 231.997 281.854 232.191C284.133 233.28 286.285 234.308 287.956 235.042C292.121 236.87 295.491 237.453 297.203 236.642C297.82 236.35 298.237 235.87 298.409 235.254C298.446 235.119 298.466 234.988 298.475 234.86C300.194 234.786 308.467 234.358 312.307 232.817C313.95 232.157 315.165 232.199 315.643 232.938C315.922 233.37 315.824 233.848 315.742 233.927C315.206 234.377 310.797 236.123 306.077 236.694ZM133.712 175.173C120.563 163.953 111.713 154.211 111.54 154.019C111.365 153.824 111.06 153.806 110.863 153.984C110.666 154.161 110.65 154.464 110.828 154.661C111.001 154.854 120.002 164.764 133.357 176.128C128.621 188.762 122.466 200.782 115.25 204.992C108.665 200.236 101.308 196.509 95.4603 193.932C86.0932 189.805 78.4731 187.643 78.3969 187.622C78.1419 187.55 77.8773 187.699 77.8056 187.954C77.7341 188.209 77.8825 188.474 78.1369 188.545C78.2126 188.566 85.7793 190.714 95.0866 194.816C103.658 198.594 115.501 204.85 123.248 213.198C138.203 229.314 132.787 248.119 124.164 256.326C114.773 265.263 84.7107 278.073 74.8317 282.282C60.6391 288.33 52.6569 292.208 51.1183 295.38C49.9204 297.851 52.2406 299.905 53.7303 300.91C54.3175 301.306 54.7768 301.54 54.8394 301.571C54.9092 301.606 54.9833 301.617 55.0572 301.617C56.8413 302.596 65.426 307.124 71.3296 306.923C73.6929 306.843 75.1243 307.355 75.253 308.333C75.3539 309.097 74.6926 309.894 74.4511 309.95C72.5648 310.39 67.0565 310.78 56.6754 304.92C54.0414 303.433 53.4574 303.34 53.1342 303.823C52.7006 304.472 52.3868 304.941 71.3532 319.824C72.5601 320.771 73.4911 321.501 73.9788 321.894C75.3805 323.021 75.39 323.733 75.3601 323.924C75.3266 324.132 75.1847 324.285 74.9386 324.378C74.4196 324.573 73.5053 324.45 72.6351 323.73C72.0568 323.252 71.0384 322.49 69.7497 321.526C65.5199 318.363 58.4412 313.068 52.6744 307.301C50.3709 304.998 49.4774 304.864 48.9563 305.004C48.7495 305.06 48.3807 305.237 48.2314 305.797C47.6523 307.978 51.1806 315.453 52.6661 316.929C53.1111 317.372 53.5436 317.82 53.9957 318.288C55.7333 320.087 57.7029 322.126 61.6534 325.246C64.4512 327.455 64.6013 328.265 64.5804 328.46C64.566 328.595 64.3919 328.691 64.1474 328.811C64.0276 328.871 63.9132 328.926 63.817 329.004C63.4884 329.269 61.724 328.669 53.5954 321.671C45.0886 314.348 44.6909 303.295 45.0798 300.22C45.1393 300.135 45.1782 300.034 45.1718 299.921C45.15 299.552 45.1123 299.187 45.0752 298.822C44.6151 294.33 44.1391 289.685 77.8266 274.777C93.2964 267.931 112.594 256.712 116.675 242.136C116.75 241.866 116.81 241.653 116.854 241.547C117.19 240.745 117.357 237.46 114.933 233.971C111.69 229.303 103.585 223.907 83.3806 224.697C69.2677 225.249 59.3994 223.547 52.3476 221.06C52.2509 220.966 52.1205 220.914 51.9777 220.926C43.4176 217.83 39.0894 213.583 36.378 210.913C36.1422 210.681 35.921 210.463 35.7112 210.26C34.6372 209.223 32.9932 205.983 32.0001 201.518C32.006 201.434 31.9869 201.35 31.9466 201.27C31.0266 196.989 30.7125 191.62 32.0553 185.988C35.833 170.137 50.1795 161.972 62.374 157.829C62.3809 157.828 62.3876 157.832 62.3956 157.831C62.4856 157.826 62.5631 157.789 62.6327 157.742C63.265 157.529 63.8935 157.324 64.5129 157.133C106.007 144.298 125.466 124.986 128.186 122.119C128.253 122.11 128.318 122.093 128.379 122.056C128.534 121.961 128.61 121.791 128.6 121.621C128.677 121.437 128.638 121.219 128.479 121.079C128.426 121.032 128.365 121.002 128.302 120.983C126.044 117.138 124.961 112.895 125.102 108.357C125.116 107.903 125.149 107.448 125.189 106.994C125.31 107.085 125.432 107.177 125.557 107.261C125.816 107.436 126.084 107.592 126.356 107.739C126.379 107.763 126.401 107.79 126.429 107.809C126.456 107.827 126.484 107.842 126.513 107.854L127.333 108.197C127.38 108.216 127.426 108.238 127.473 108.256L129.725 109.197C132.596 110.191 135.79 109.739 138.267 107.988C140.324 106.534 141.692 104.364 142.118 101.881C142.544 99.3974 141.977 96.8967 140.522 94.8385C139.757 93.7573 138.803 92.8713 137.663 92.1904L139.368 88.8441C139.854 88.0599 140.401 87.3236 141.001 86.6331C150.98 83.1254 162.193 86.6958 168.316 95.3522C169.379 96.8552 170.236 98.4637 170.896 100.144C170.883 100.296 170.946 100.434 171.051 100.532C172.523 104.496 172.868 108.855 172.006 113.23C170.782 119.439 167.311 124.872 162.223 128.572C162.115 128.544 161.999 128.547 161.893 128.6C161.655 128.715 161.557 129.003 161.673 129.24C161.684 129.264 162.778 131.592 161.556 132.326C160.508 132.955 155.317 128.482 153.149 125.448C153.347 124.671 153.395 123.855 153.281 123.037C153.049 121.381 152.188 119.914 150.853 118.906C149.711 118.042 148.291 117.594 146.86 117.645C146.594 117.655 146.388 117.877 146.397 118.142C146.407 118.406 146.629 118.613 146.894 118.604C148.105 118.561 149.304 118.939 150.275 119.672C151.405 120.525 152.135 121.767 152.33 123.169C152.526 124.571 152.164 125.965 151.311 127.095C150.458 128.224 149.216 128.953 147.814 129.148C146.412 129.343 145.026 128.981 143.888 128.128C143.692 127.972 143.377 128.011 143.217 128.222C143.057 128.433 143.099 128.734 143.311 128.894C143.402 128.963 143.494 129.029 143.588 129.092C144.87 129.957 146.404 130.313 147.947 130.099C149.602 129.868 151.07 129.007 152.077 127.672C152.35 127.311 152.576 126.924 152.763 126.522C153.909 127.961 156.001 130.156 157.98 131.66C158.081 132.064 158.337 133.484 157.13 133.947C155.666 134.509 154.096 132.37 154.08 132.347C154.075 132.34 154.068 132.338 154.063 132.332C153.948 132.17 153.744 132.087 153.542 132.146C153.214 132.241 145.595 134.502 143.991 139.038C143.946 139.095 143.91 139.159 143.895 139.236C143.845 139.481 141.637 150.33 137.7 163.25C128.741 152.022 125.021 142.729 124.96 142.575C124.864 142.328 124.585 142.207 124.339 142.303C124.092 142.4 123.971 142.678 124.067 142.924C124.128 143.082 128.004 152.772 137.36 164.355L138.106 165.262C143.607 171.923 150.897 179.134 160.306 185.482C160.911 185.889 161.529 186.297 162.151 186.698C190.498 204.939 239.73 216.914 248.011 217.589C249.045 217.673 250.082 217.757 251.121 217.845C251.153 217.889 251.192 217.929 251.239 217.96C251.261 217.975 251.284 217.988 251.308 217.999C251.493 218.083 251.701 218.04 251.839 217.908C259.222 218.548 266.625 219.413 272.924 221.702C277.048 223.201 280.844 225.924 283.893 228.112C286.356 229.881 288.484 231.407 290.171 231.876C290.924 232.087 291.718 232.275 292.487 232.457C294.35 232.9 296.261 233.357 297.093 234.028C297.099 234.04 297.098 234.053 297.106 234.064C297.143 234.128 297.194 234.18 297.251 234.219C297.268 234.23 297.287 234.236 297.304 234.246C297.341 234.29 297.393 234.332 297.42 234.379C297.53 234.564 297.55 234.76 297.484 234.995C297.386 235.346 297.16 235.601 296.792 235.775C295.375 236.447 292.137 235.829 288.342 234.163C286.685 233.436 284.539 232.411 282.268 231.325C277.885 229.232 272.919 226.86 270.455 226.173C270.199 226.102 269.934 226.251 269.864 226.506C269.792 226.762 269.942 227.028 270.197 227.097C271.904 227.573 274.919 228.917 278.09 230.404C278.094 230.408 278.095 230.414 278.099 230.418L281.546 233.904C285.096 237.493 294.882 240.875 299.596 240.14C302.833 239.635 303.904 240.308 304.041 240.613C304.136 240.823 303.86 241.087 303.736 241.191C302.627 242.123 300.771 243.683 291.905 242.414C285.036 241.431 277.507 235.409 273.462 232.174C272.425 231.345 271.607 230.69 271.038 230.306C266.408 227.182 259.513 223.4 252.962 223.124C246.204 222.841 215.143 217.731 180.077 204.609C163.587 198.438 147.154 186.554 134.513 175.854L133.712 175.173ZM123.848 197.701C125.384 195.503 126.903 192.938 128.405 190.013C129.512 189.628 135.654 187.566 145.45 185.796C148.002 187.702 150.636 189.584 153.337 191.407C153.449 191.482 153.563 191.557 153.675 191.633C139.987 193.456 127.537 196.694 123.848 197.701ZM134.156 176.805C137.354 179.506 140.791 182.277 144.408 185.012C136.62 186.464 131.238 188.075 129.018 188.797C130.757 185.285 132.471 181.286 134.156 176.805ZM1.92343 235.587C-0.818478 236.974 -3.52261 238.381 -6.13851 239.741C-21.981 247.98 -36.946 255.762 -60.9758 259.983C-88.7204 264.856 -115.019 263.284 -115.281 263.268C-115.351 263.263 -115.416 263.276 -115.478 263.298C-115.667 263.196 -115.905 263.218 -116.057 263.384C-116.112 263.443 -121.563 269.368 -124.373 274.85C-125.566 277.179 -126.495 277.872 -126.966 277.744C-127.317 277.649 -127.526 277.103 -127.526 276.985C-127.512 276.943 -125.922 272.517 -120.263 265.718C-118.326 263.391 -118.201 262.825 -118.655 262.436C-119.793 261.447 -126.525 268.039 -126.94 268.51C-129.423 271.331 -131.946 276.451 -132.33 277.633L-132.425 277.933C-132.714 278.861 -133.254 280.586 -134.06 280.397C-134.153 280.375 -134.274 280.322 -134.378 280.104C-134.751 279.326 -134.44 277.373 -133.701 275.84C-133.619 275.67 -133.533 275.485 -133.439 275.285C-132.503 273.287 -130.762 269.569 -126.293 265.656C-122.4 262.246 -120.763 261.619 -120.147 261.383C-119.932 261.301 -119.776 261.242 -119.662 261.105C-119.636 261.078 -119.592 261.044 -119.543 261.003C-119.225 260.74 -118.694 260.301 -118.855 259.728C-119.017 259.152 -119.755 258.972 -120.38 258.881C-122.788 258.527 -129.277 263.051 -132.548 266.815C-134.082 268.58 -134.769 269.624 -135.224 270.314C-135.71 271.053 -135.892 271.33 -136.604 271.736C-136.86 271.882 -137.222 271.989 -137.487 271.673C-137.852 271.237 -137.837 270.289 -137.09 269.392L-136.721 268.946C-134.968 266.816 -130.31 261.161 -124.804 257.678C-120.319 254.84 -117.647 256.027 -115.696 256.893C-115.119 257.149 -114.62 257.37 -114.133 257.471C-106.227 259.104 -98.1908 258.261 -97.5902 258.194C-86.0586 258.464 -48.7861 253.448 -28.6626 242.46C-9.61746 232.059 26.0458 206.092 31.1859 202.33C32.2463 206.705 33.9157 209.86 35.0453 210.95C35.2521 211.151 35.4718 211.367 35.705 211.596C38.1343 213.988 42.2749 218.054 50.2428 221.218C43.519 222.416 18.3469 227.277 1.92343 235.587ZM70.8104 154.064C71.4682 151.964 74.3172 144.46 82.0019 141.965C89.3792 139.569 96.9124 140.965 99.4688 141.57C91.6763 145.797 82.1675 150.15 70.8104 154.064ZM69.2479 140.849C72.1833 136.778 81.1385 133.16 90.0777 132.434C97.8591 131.802 111.056 132.016 114.761 132.092C110.959 134.794 106.285 137.805 100.687 140.903C100.677 140.899 100.67 140.892 100.661 140.889C100.271 140.77 91.0251 138.027 81.7054 141.052C72.2758 144.114 69.7411 154.294 69.7163 154.396C69.7129 154.41 69.7149 154.424 69.7128 154.439C67.9284 155.043 66.1034 155.636 64.2295 156.217C63.7731 156.357 63.3121 156.506 62.8482 156.658C63.0465 152.726 66.4413 144.739 69.2479 140.849ZM125.915 92.4989C127.911 91.0874 130.42 90.6073 132.798 91.1807C133.788 91.4195 134.717 91.8327 135.548 92.3933C136.39 92.9616 137.131 93.6823 137.729 94.5265C139.036 96.3753 139.545 98.622 139.163 100.853C138.78 103.084 137.551 105.032 135.703 106.339C133.288 108.046 130.274 108.344 127.67 107.299L127.496 107.226C126.658 106.867 125.863 106.37 125.152 105.731L125.066 105.653C124.63 105.251 124.234 104.799 123.889 104.311C121.191 100.495 122.099 95.196 125.915 92.4989ZM141.474 82.4542C145.562 79.5639 150.531 78.4388 155.466 79.2858C157.35 79.6095 159.142 80.2073 160.799 81.0482C155.256 78.8396 148.739 79.3826 143.515 83.0755C142.368 83.8864 141.337 84.8155 140.416 85.8524C140.373 85.8851 140.339 85.925 140.31 85.9692C139.66 86.7158 139.064 87.5148 138.532 88.3732L136.809 91.7547L134.881 90.8837L136.367 87.8683C137.689 85.7364 139.408 83.915 141.474 82.4542ZM168.127 87.9891C168.609 88.67 169.037 89.38 169.411 90.1131C170.53 92.611 171.086 95.3251 171.039 98.0763C170.485 96.9426 169.84 95.8463 169.099 94.7985C163.084 86.2927 152.342 82.5062 142.42 85.1882C142.94 84.7161 143.487 84.27 144.069 83.8591C151.839 78.3667 162.63 80.2176 168.127 87.9891ZM138.578 94.0779C139.003 94.473 139.395 94.9068 139.739 95.3925C141.046 97.2409 141.555 99.4872 141.173 101.719C140.79 103.95 139.562 105.898 137.713 107.205C136.137 108.319 134.24 108.835 132.359 108.735C133.725 108.504 135.057 107.97 136.257 107.122C140.471 104.144 141.494 98.3174 138.578 94.0779ZM244.643 216.132C232.233 213.903 197.421 204.75 171.91 191.256C174.138 191.287 176.474 191.405 178.54 191.596C197.938 193.399 207.849 197.512 214.408 200.233C215.592 200.725 216.711 201.189 217.76 201.589C223.373 203.73 239.176 212.918 244.643 216.132ZM194.832 186.678C229.733 195.086 252.606 213.198 252.832 213.38C252.848 213.392 252.866 213.396 252.882 213.406L251.285 216.897C250.215 216.805 249.146 216.719 248.082 216.632C247.811 216.609 247.494 216.575 247.138 216.528C247.105 216.49 247.069 216.451 247.024 216.424C246.127 215.89 224.98 203.316 218.101 200.693C217.066 200.297 215.953 199.836 214.775 199.347C208.164 196.603 198.171 192.457 178.629 190.641C175.97 190.394 172.867 190.266 170.116 190.291C170.115 190.291 170.115 190.291 170.114 190.291C167.514 188.869 165.019 187.402 162.67 185.891C161.703 185.268 160.759 184.636 159.835 183.995C172.077 183.133 183.847 184.032 194.832 186.678ZM311.969 186.96L301.323 208.604C299.513 208.74 297.967 208.878 297.579 208.914C296.609 208.988 295.628 208.882 294.679 208.78C292.785 208.575 290.995 208.382 290.132 209.891C289.613 210.797 289.659 211.682 290.218 212.47C289.085 212.458 287.544 212.606 286.8 213.405C286.339 213.9 286.337 214.383 286.417 214.701C286.535 215.17 286.924 215.627 287.579 216.069C287.655 216.121 287.748 216.171 287.832 216.222C287.017 216.759 286.089 217.746 286.519 218.898C286.686 219.345 287.097 219.796 287.714 220.213C289.139 221.174 291.671 221.94 294.832 222.038L290.665 231.015C290.588 230.994 290.505 230.974 290.428 230.953C288.905 230.528 286.842 229.049 284.452 227.333C281.354 225.11 277.5 222.345 273.252 220.801C266.952 218.511 259.624 217.628 252.3 216.985L274.643 168.15L311.969 186.96ZM283.257 169.245L316.068 186.307L312.726 186.267L277.242 168.386L283.257 169.245ZM302.432 208.523L312.906 187.228L317.31 187.28L307.01 208.294C305.824 208.306 304.094 208.406 302.432 208.523ZM308.126 209.294C308.226 209.32 308.345 209.378 308.469 209.462C308.883 209.741 309.351 210.302 309.346 210.872C309.337 211.738 308.22 212.476 306.199 212.951C300.614 214.265 294.979 213.962 293.393 213.423C292.956 213.275 292.327 213.012 291.76 212.637C290.255 211.609 290.789 210.675 290.965 210.367C291.49 209.45 292.679 209.529 294.577 209.733C295.524 209.836 296.597 209.951 297.657 209.87L297.663 209.869C300.57 209.606 305.025 209.268 307.087 209.246C307.217 209.307 307.357 209.301 307.479 209.247C307.784 209.252 308.013 209.266 308.126 209.294ZM306.201 215.194C306.218 215.23 306.262 215.328 306.129 215.55C305.997 215.77 305.568 216.217 304.185 216.74C302.744 217.284 300.949 217.65 299.809 217.771C297.872 217.977 293.218 217.311 290.755 216.475C288.416 215.681 287.461 214.916 287.347 214.466C287.333 214.409 287.3 214.276 287.502 214.059C288.126 213.389 290.135 213.358 291.328 213.498C291.947 213.899 292.619 214.173 293.086 214.331C294.785 214.909 299.598 215.14 304.562 214.263C304.623 214.406 304.745 214.52 304.909 214.55C305.348 214.629 306.063 214.889 306.201 215.194ZM303.68 219.534C303.273 219.797 300.964 221.104 295.487 221.098C290.899 221.094 287.804 219.595 287.418 218.563C287.095 217.699 288.633 216.861 288.648 216.853C288.705 216.822 288.754 216.782 288.793 216.735C289.273 216.956 289.824 217.172 290.446 217.383C293.056 218.269 297.832 218.947 299.912 218.725C300.978 218.611 302.589 218.293 304.001 217.821C304.099 218.446 304.099 219.264 303.68 219.534ZM291.608 231.26L295.882 222.053C297.602 222.034 299.091 221.883 300.336 221.652L295.27 232.18C294.494 231.948 293.624 231.742 292.708 231.524C292.345 231.438 291.976 231.35 291.608 231.26ZM296.71 231.929C296.793 231.88 304.973 227.021 307.884 225.257C309.209 224.455 310.098 224.483 310.369 224.854C310.519 225.061 310.455 225.361 310.216 225.566C309.418 226.254 301.147 231.143 297.609 233.214C297.232 232.932 296.751 232.694 296.188 232.484L296.428 231.986C296.523 231.994 296.622 231.982 296.71 231.929ZM316.485 232.476C316.14 231.901 315.009 230.699 311.949 231.927C308.212 233.426 299.699 233.847 298.327 233.905C300.733 232.495 309.903 227.102 310.843 226.293C311.459 225.763 311.589 224.902 311.145 224.291C310.625 223.578 309.366 223.237 307.387 224.437C305.049 225.853 299.311 229.267 297.106 230.578L301.525 221.394C302.731 221.086 303.629 220.708 304.2 220.341C305.201 219.695 305.062 218.224 304.916 217.48C305.965 217.041 306.635 216.57 306.951 216.044C307.277 215.503 307.198 215.066 307.074 214.796C306.893 214.399 306.516 214.131 306.134 213.947C306.229 213.926 306.324 213.907 306.418 213.885C309.614 213.134 310.295 211.837 310.305 210.881C310.317 209.652 309.163 208.57 308.363 208.365C308.29 208.346 308.189 208.332 308.065 208.321L318.501 187.032L318.5 187.031L318.506 187.021C318.51 187.013 318.508 187.005 318.511 186.997C318.537 186.936 318.549 186.873 318.55 186.809C318.549 186.789 318.546 186.77 318.542 186.749C318.535 186.694 318.52 186.644 318.495 186.595C318.489 186.583 318.49 186.569 318.484 186.558C318.479 186.551 318.471 186.548 318.465 186.541C318.431 186.491 318.387 186.449 318.334 186.415C318.323 186.407 318.316 186.397 318.304 186.391C318.301 186.389 318.3 186.386 318.297 186.384L283.628 168.356C283.579 168.331 283.527 168.314 283.474 168.307L274.481 167.023C274.475 167.022 274.469 167.024 274.462 167.024C274.431 167.02 274.401 167.026 274.369 167.029C274.336 167.032 274.304 167.033 274.273 167.043C274.267 167.044 274.26 167.043 274.255 167.045C274.234 167.053 274.218 167.068 274.198 167.078C274.167 167.095 274.136 167.109 274.109 167.132C274.087 167.15 274.071 167.172 274.053 167.195C274.031 167.22 274.009 167.245 273.994 167.276C273.989 167.284 273.981 167.289 273.977 167.298L253.288 212.519C251.303 210.975 228.744 193.861 195.057 185.745C183.63 182.993 171.368 182.109 158.613 183.119C158.607 183.12 158.602 183.123 158.596 183.124C150.129 177.071 143.497 170.363 138.444 164.172C142.259 151.745 144.512 141 144.803 139.586C144.812 139.565 144.828 139.549 144.835 139.527C145.974 135.826 152.067 133.634 153.503 133.164C153.753 133.465 154.218 133.971 154.823 134.379C155.559 134.875 156.494 135.218 157.473 134.843C158.689 134.377 159.031 133.32 159.033 132.397C160.262 133.176 161.365 133.561 162.051 133.148C163.548 132.247 163.098 130.317 162.759 129.368C168.059 125.524 171.675 119.874 172.947 113.415C173.826 108.954 173.493 104.509 172.036 100.447C172.074 100.389 172.101 100.324 172.111 100.252C172.574 96.6058 171.928 92.9487 170.284 89.7141C169.764 88.5555 169.133 87.4399 168.387 86.3859C162.112 77.5133 149.791 75.399 140.92 81.6706C138.749 83.206 136.942 85.121 135.53 87.4036L133.981 90.5397C133.667 90.4282 133.349 90.327 133.023 90.2488C130.375 89.6099 127.583 90.1445 125.361 91.7153C123.303 93.1699 121.935 95.3388 121.509 97.8224C121.084 100.306 121.651 102.807 123.106 104.865C123.457 105.362 123.861 105.819 124.3 106.239C124.219 106.93 124.165 107.631 124.144 108.327C123.996 113.051 125.126 117.468 127.478 121.472C126.414 122.592 122.698 126.32 115.988 131.209C115.927 131.178 115.86 131.157 115.786 131.155C115.621 131.151 99.1245 130.737 89.9996 131.478C80.6583 132.237 71.6034 135.942 68.4697 140.288C65.479 144.434 61.9018 152.904 61.8786 156.982C49.4897 161.225 34.9807 169.574 31.1221 185.765C29.7508 191.519 30.032 196.946 30.9532 201.311C27.3158 203.977 -9.64526 230.981 -29.1226 241.617C-49.1175 252.535 -86.1841 257.513 -97.6004 257.234C-97.6232 257.234 -97.6458 257.235 -97.6685 257.238C-97.7504 257.247 -105.912 258.189 -113.939 256.532C-114.326 256.451 -114.78 256.25 -115.307 256.016C-117.334 255.116 -120.398 253.755 -125.317 256.867C-130.953 260.432 -135.681 266.174 -137.462 268.336L-137.827 268.778C-138.919 270.09 -138.852 271.537 -138.222 272.289C-137.708 272.904 -136.905 273.011 -136.129 272.569C-135.218 272.05 -134.935 271.621 -134.422 270.842C-133.982 270.173 -133.316 269.161 -131.824 267.445C-128.618 263.754 -122.384 259.556 -120.52 259.829C-120.157 259.883 -119.958 259.946 -119.853 259.99C-119.943 260.088 -120.088 260.208 -120.154 260.263C-120.231 260.326 -120.297 260.383 -120.344 260.431C-120.38 260.447 -120.429 260.464 -120.49 260.488C-121.15 260.74 -122.903 261.412 -126.925 264.934C-131.546 268.98 -133.343 272.816 -134.308 274.878C-134.4 275.075 -134.485 275.257 -134.565 275.423C-135.323 276.995 -135.819 279.315 -135.245 280.517C-135.117 280.783 -134.943 280.991 -134.729 281.136C-134.594 281.226 -134.443 281.292 -134.279 281.331C-132.604 281.724 -131.891 279.444 -131.509 278.22L-131.417 277.93C-131.06 276.83 -128.578 271.822 -126.22 269.145C-124.721 267.441 -121.5 264.755 -119.896 263.698C-120.132 264.027 -120.482 264.482 -121 265.105C-125.924 271.019 -128.074 275.563 -128.439 276.689C-128.603 277.194 -128.185 278.278 -127.386 278.612C-126.203 279.103 -124.901 277.985 -123.519 275.287C-121.018 270.407 -116.353 265.141 -115.492 264.188C-115.445 264.207 -115.395 264.222 -115.341 264.225C-115.077 264.242 -88.6707 265.821 -60.81 260.928C-36.634 256.681 -21.6059 248.866 -5.69543 240.592C-3.08251 239.233 -0.380585 237.828 2.35646 236.443C20.7628 227.13 50.3037 222.167 52.0149 221.885C59.2142 224.435 69.2512 226.209 83.4182 225.656C103.189 224.882 111.039 230.048 114.145 234.519C116.332 237.668 116.201 240.621 115.969 241.177C115.902 241.338 115.839 241.564 115.751 241.877C111.772 256.092 92.7193 267.138 77.4379 273.9C43.1144 289.09 43.603 293.864 44.1209 298.92C44.1466 299.177 44.1683 299.436 44.189 299.695C44.1895 299.695 44.1887 299.695 44.1891 299.696C43.7086 302.287 43.7611 314.47 52.9687 322.398C56.7642 325.665 59.2267 327.592 60.861 328.695C63.5106 330.482 63.9826 330.103 64.4163 329.754C64.4541 329.726 64.5101 329.703 64.5708 329.672C64.8825 329.519 65.4633 329.234 65.5347 328.562C65.6018 327.928 65.2886 326.894 62.2478 324.493C58.3478 321.414 56.4028 319.399 54.6857 317.622C54.2295 317.148 53.7919 316.696 53.3429 316.249C52.0473 314.961 49.0694 308.623 49.1228 306.346C49.1303 306.015 49.2053 305.932 49.2044 305.932C49.2153 305.927 49.7793 305.763 51.9956 307.979C57.8112 313.794 64.9248 319.115 69.1755 322.295C70.4537 323.251 71.464 324.006 72.0244 324.469C73.0479 325.316 74.3277 325.634 75.2773 325.276C75.8447 325.062 76.2198 324.624 76.3075 324.075C76.4063 323.452 76.1873 322.439 74.5798 321.146C74.0908 320.753 73.1568 320.02 71.9455 319.069C67.7956 315.812 57.6634 307.862 54.7591 304.979C55.1183 305.158 55.5884 305.408 56.2039 305.755C66.8783 311.781 72.6734 311.35 74.6689 310.885C75.477 310.696 76.3615 309.399 76.2044 308.208C76.0851 307.312 75.2907 305.829 71.2969 305.965C65.0921 306.176 55.3072 300.659 55.2094 300.603C55.1326 300.559 55.0502 300.547 54.9681 300.548C53.9838 299.984 50.9106 298.007 51.982 295.799C53.3754 292.927 61.902 288.835 75.2078 283.165C85.126 278.938 115.309 266.077 124.826 257.02C133.734 248.543 139.351 229.14 123.952 212.546C121.626 210.04 118.938 207.728 116.086 205.607C118.405 204.172 120.697 201.945 122.954 198.933C122.973 198.93 122.991 198.935 123.011 198.93C123.161 198.886 138.176 194.576 154.748 192.458C154.789 192.453 154.822 192.435 154.858 192.421C162.8 197.664 171.262 202.334 179.741 205.507C214.914 218.669 246.125 223.798 252.922 224.084C257.858 224.291 264.101 226.783 270.502 231.102C271.038 231.463 271.844 232.108 272.863 232.923C276.98 236.216 284.641 242.344 291.77 243.364C300.342 244.591 302.76 243.265 304.353 241.925C304.96 241.416 305.169 240.777 304.914 240.216C304.415 239.12 302.372 238.736 299.448 239.192C297.614 239.479 294.897 239.073 292.11 238.262C297.241 238.963 300.744 238.443 303.916 237.967C304.688 237.851 305.441 237.738 306.192 237.647C310.998 237.065 315.613 235.288 316.36 234.661C316.877 234.226 316.935 233.225 316.485 232.476Z" fill="black"/>
<mask id="mask0_31_2342" style="mask-type:luminance" maskUnits="userSpaceOnUse" x="-144" y="0" width="484" height="477">
<path d="M43.1492 0L339.954 200.258L153.805 476.153L-143 275.895L43.1492 0Z" fill="black"/>
</mask>
<g mask="url(#mask0_31_2342)">
<path fill-rule="evenodd" clip-rule="evenodd" d="M283.167 169.515L278.904 168.907L312.792 185.984L314.884 186.009L283.167 169.515ZM275.575 167.862L283.384 168.993L317.246 186.601L312.655 186.547L312.596 186.517L275.575 167.862ZM163.543 83.8888C157.858 80.0525 150.151 79.9012 144.229 84.0877C143.988 84.2578 143.747 84.4386 143.507 84.6291C153.265 82.4903 163.517 86.4173 169.326 94.6337C169.834 95.3518 170.307 96.1068 170.737 96.8876C170.632 94.5818 170.1 92.3465 169.15 90.2267C168.785 89.5126 168.361 88.8096 167.894 88.1502C166.677 86.4291 165.195 85.0032 163.543 83.8888ZM141.36 85.7641L142.227 84.9772C142.775 84.4792 143.339 84.0251 143.903 83.6266C151.8 78.0445 162.771 79.9278 168.355 87.8246C168.837 88.5058 169.276 89.2324 169.659 89.9832C170.811 92.5524 171.367 95.2718 171.318 98.0794L171.297 99.2537L170.782 98.198C170.228 97.064 169.584 95.9744 168.866 94.9597C162.96 86.6091 152.361 82.791 142.491 85.4586L141.36 85.7641ZM154.839 79.4726C150.169 78.818 145.501 79.9485 141.634 82.6828C139.598 84.1219 137.906 85.9159 136.605 88.0153L135.26 90.7454L136.677 91.3847L138.278 88.2438C138.815 87.3745 139.422 86.5534 140.095 85.7821C140.12 85.7383 140.175 85.6771 140.24 85.6271C141.143 84.603 142.202 83.6543 143.349 82.8436C146.755 80.436 150.793 79.288 154.839 79.4726ZM134.495 91.019L136.112 87.7419C137.466 85.554 139.21 83.7049 141.308 82.2222C145.457 79.2882 150.501 78.1462 155.511 79.0059C157.404 79.3312 159.225 79.933 160.925 80.7951L160.693 81.3084C155.008 79.0439 148.646 79.7897 143.675 83.3046C142.563 84.0903 141.537 85.0103 140.623 86.0381C140.571 86.0844 140.558 86.0995 140.544 86.1209C139.868 86.9014 139.279 87.6979 138.77 88.5203L136.935 92.1212L134.495 91.019ZM313.078 187.511L302.898 208.205C304.57 208.092 305.89 208.028 306.829 208.012L316.857 187.555L313.078 187.511ZM301.959 208.837L312.729 186.942L317.757 187.002L307.183 208.573L307.009 208.575C305.988 208.585 304.454 208.661 302.448 208.802L301.959 208.837ZM307.031 209.527C305.04 209.554 300.806 209.866 297.685 210.148C296.589 210.233 295.502 210.116 294.543 210.012C292.588 209.801 291.621 209.781 291.207 210.506C291.033 210.81 290.626 211.521 291.917 212.403C292.512 212.797 293.153 213.043 293.481 213.155C295.04 213.683 300.599 213.976 306.131 212.675C307.986 212.239 309.053 211.58 309.06 210.867C309.065 210.433 308.686 209.949 308.308 209.694C308.212 209.629 308.12 209.583 308.053 209.566C308.009 209.555 307.883 209.535 307.527 209.529C307.362 209.585 307.19 209.584 307.031 209.527ZM291.602 212.871C290.456 212.088 290.159 211.199 290.717 210.225C291.36 209.101 292.863 209.263 294.604 209.451C295.538 209.552 296.597 209.666 297.632 209.587C300.795 209.3 305.1 208.983 307.081 208.962L307.203 208.989C307.265 209.018 307.324 209.003 307.362 208.987L307.481 208.963C307.843 208.968 308.063 208.986 308.193 209.019C308.755 209.164 309.633 210.006 309.625 210.873C309.615 211.896 308.451 212.709 306.261 213.225C300.624 214.55 294.913 214.236 293.3 213.689C292.946 213.569 292.254 213.303 291.602 212.871ZM291.228 213.769C289.845 213.618 288.168 213.754 287.706 214.25C287.621 214.341 287.615 214.385 287.615 214.386C287.686 214.666 288.448 215.393 290.842 216.206C293.277 217.033 297.869 217.692 299.776 217.489C300.897 217.369 302.663 217.009 304.083 216.474C305.472 215.949 305.813 215.522 305.884 215.403C305.917 215.347 305.93 215.312 305.934 215.296C305.847 215.155 305.339 214.914 304.856 214.825C304.687 214.796 304.534 214.705 304.422 214.572C299.69 215.381 294.824 215.22 292.992 214.597C292.538 214.443 291.868 214.175 291.228 213.769ZM287.938 215.495C287.446 215.163 287.147 214.837 287.07 214.534C287.049 214.449 286.986 214.195 287.292 213.865C288.226 212.863 291.23 213.201 291.358 213.216L291.424 213.223L291.479 213.259C292.119 213.675 292.815 213.941 293.173 214.062C294.675 214.573 299.316 214.901 304.509 213.984L304.729 213.945L304.817 214.15C304.835 214.189 304.876 214.256 304.956 214.27C304.969 214.272 306.193 214.5 306.455 215.075L306.456 215.077C306.537 215.258 306.509 215.46 306.368 215.694C306.183 216.001 305.671 216.477 304.282 217.002C302.816 217.555 300.992 217.926 299.836 218.05C297.869 218.26 293.153 217.587 290.661 216.741C289.485 216.341 288.558 215.914 287.938 215.495ZM140.038 96.4133C141.311 100.354 139.953 104.852 136.417 107.351C135.989 107.654 135.543 107.919 135.081 108.147C135.963 107.897 136.799 107.501 137.547 106.973C139.333 105.71 140.521 103.826 140.891 101.669C141.203 99.8477 140.901 98.0154 140.038 96.4133ZM129.794 108.881L132.31 108.455C133.676 108.224 134.949 107.698 136.091 106.89C140.156 104.017 141.166 98.3404 138.343 94.2362L136.888 92.1217L138.767 93.8692C139.234 94.3042 139.627 94.7487 139.965 95.2277C141.316 97.1376 141.842 99.4591 141.448 101.765C141.052 104.07 139.783 106.084 137.873 107.434C136.282 108.558 134.318 109.12 132.342 109.016L129.794 108.881ZM126.074 92.7272C122.386 95.335 121.507 100.458 124.116 104.146C124.451 104.619 124.834 105.055 125.254 105.444L125.338 105.52C126.008 106.121 126.77 106.607 127.604 106.965L127.776 107.036C130.348 108.069 133.252 107.723 135.537 106.107C137.324 104.844 138.511 102.961 138.882 100.803C139.251 98.6465 138.759 96.4742 137.495 94.6877C136.354 93.075 134.647 91.9154 132.729 91.4539C130.429 90.8985 128.005 91.3631 126.074 92.7272ZM125.915 106.685C125.58 106.459 125.261 106.21 124.96 105.939L124.874 105.86C124.422 105.443 124.013 104.977 123.656 104.472C120.867 100.529 121.806 95.0533 125.749 92.2664C127.811 90.8084 130.403 90.3125 132.861 90.9051C134.912 91.3992 136.737 92.6377 137.956 94.3621C139.307 96.2719 139.833 98.5938 139.438 100.899C139.042 103.204 137.773 105.218 135.863 106.568C133.42 108.294 130.317 108.665 127.562 107.559L127.384 107.484C126.868 107.263 126.376 106.996 125.915 106.685ZM288.838 217.064C288.818 217.077 288.798 217.089 288.778 217.1C288.432 217.288 287.485 217.943 287.679 218.463C287.993 219.303 290.87 220.81 295.484 220.815C300.883 220.82 303.128 219.55 303.524 219.296C303.716 219.172 303.801 218.747 303.758 218.194C302.319 218.643 300.824 218.91 299.938 219.004C297.828 219.229 292.991 218.545 290.353 217.648C289.796 217.46 289.288 217.264 288.838 217.064ZM288.077 219.645C287.582 219.311 287.266 218.969 287.15 218.66C286.742 217.567 288.439 216.641 288.512 216.603C288.535 216.589 288.556 216.573 288.573 216.553L288.711 216.386L288.907 216.477C289.379 216.694 289.927 216.908 290.534 217.114C293.114 217.991 297.829 218.661 299.878 218.443C300.803 218.344 302.414 218.051 303.909 217.552L304.225 217.446L304.276 217.776C304.367 218.355 304.43 219.383 303.831 219.77C303.412 220.04 301.041 221.385 295.483 221.379C292.007 221.376 289.401 220.539 288.077 219.645ZM296.606 232.258L296.571 232.33C296.984 232.501 297.331 232.681 297.621 232.877C301.681 230.498 309.288 225.988 310.029 225.351C310.152 225.245 310.198 225.102 310.137 225.018C310.002 224.836 309.315 224.717 308.027 225.497C305.372 227.106 298.296 231.312 296.904 232.138L296.852 232.17C296.777 232.214 296.695 232.243 296.606 232.258ZM295.797 232.638L296.254 231.689L296.446 231.703C296.522 231.709 296.553 231.691 296.563 231.684L296.616 231.653C298.007 230.827 305.081 226.622 307.734 225.014C309.321 224.054 310.267 224.239 310.594 224.686C310.833 225.016 310.75 225.475 310.397 225.778C309.421 226.619 298.225 233.177 297.749 233.456L297.588 233.551L297.438 233.439C297.097 233.186 296.658 232.961 296.086 232.746L295.797 232.638ZM296.06 222.331L292.006 231.065C292.261 231.127 292.517 231.188 292.77 231.248C293.561 231.435 294.376 231.629 295.117 231.84L299.842 222.021C298.677 222.205 297.408 222.308 296.06 222.331ZM291.205 231.45L295.698 221.772L295.875 221.77C297.472 221.752 298.954 221.618 300.282 221.373L300.829 221.272L295.417 232.518L295.186 232.449C294.402 232.215 293.506 232.002 292.64 231.797C292.276 231.711 291.906 231.623 291.538 231.532L291.205 231.45ZM281.953 232.551L282.426 233.03C283.413 234.028 285.008 235.068 287.042 236.038C287.127 236.03 287.208 236.036 287.285 236.055C295.166 238.025 299.715 237.34 303.728 236.738C304.52 236.619 305.28 236.504 306.04 236.413C310.617 235.859 314.906 234.172 315.523 233.735C315.552 233.64 315.575 233.356 315.403 233.09C315.014 232.485 313.894 232.481 312.409 233.077C308.675 234.575 300.815 235.032 298.722 235.129C298.71 235.197 298.695 235.263 298.677 235.328C298.483 236.025 298.014 236.568 297.321 236.896C295.535 237.742 292.079 237.16 287.84 235.298C286.22 234.587 284.15 233.6 281.953 232.551ZM283.804 234.864C283.094 234.385 282.495 233.902 282.025 233.426L279.28 230.651L281.972 231.935C284.272 233.033 286.409 234.053 288.067 234.781C292.156 236.577 295.441 237.162 297.079 236.386C297.62 236.13 297.984 235.711 298.133 235.176C298.163 235.07 298.181 234.959 298.19 234.838L298.208 234.587L298.46 234.576C300.085 234.507 308.388 234.082 312.199 232.554C313.981 231.838 315.321 231.924 315.876 232.783C316.212 233.302 316.134 233.936 315.935 234.128C315.35 234.619 310.963 236.385 306.108 236.973C305.353 237.064 304.598 237.177 303.824 237.294C299.746 237.906 295.139 238.599 287.149 236.603C287.125 236.597 287.097 236.598 287.059 236.606L286.965 236.626L286.879 236.585C285.707 236.03 284.672 235.45 283.804 234.864ZM274.774 168.532L252.72 216.738C260.834 217.461 267.463 218.396 273.345 220.534C277.625 222.09 281.495 224.864 284.605 227.096C286.979 228.8 289.022 230.267 290.501 230.679L290.506 230.68L294.395 222.301C291.612 222.158 289.078 221.474 287.553 220.445C286.879 219.99 286.441 219.502 286.252 218.995C285.78 217.732 286.71 216.733 287.326 216.239C286.668 215.775 286.27 215.281 286.14 214.767C286.003 214.223 286.162 213.67 286.59 213.211C287.295 212.455 288.602 212.23 289.725 212.192C289.355 211.416 289.408 210.581 289.884 209.749C290.839 208.08 292.804 208.292 294.706 208.497C295.642 208.598 296.609 208.703 297.555 208.63C297.927 208.596 299.396 208.466 301.138 208.333L311.589 187.084L274.774 168.532ZM251.874 217.23L274.505 167.764L312.342 186.832L301.502 208.871L301.342 208.883C299.533 209.02 297.989 209.158 297.603 209.193C296.601 209.269 295.607 209.162 294.646 209.058C292.768 208.856 291.145 208.681 290.374 210.03C289.917 210.829 289.941 211.594 290.445 212.306L290.765 212.757L290.212 212.751C288.665 212.734 287.526 213.034 287.003 213.596C286.702 213.919 286.596 214.267 286.688 214.63C286.788 215.028 287.139 215.433 287.733 215.834C287.777 215.863 287.828 215.893 287.878 215.922L288.356 216.212L287.984 216.457C287.593 216.714 286.35 217.644 286.78 218.798C286.926 219.187 287.302 219.595 287.869 219.977C289.386 221.001 291.991 221.666 294.837 221.755L295.264 221.768L290.818 231.347L290.349 231.223C288.774 230.784 286.694 229.29 284.284 227.56C281.195 225.345 277.36 222.594 273.153 221.064C267.233 218.913 260.524 217.989 252.272 217.265L251.874 217.23ZM243.097 215.553C237.051 212.018 222.851 203.833 217.656 201.851C216.594 201.446 215.478 200.982 214.297 200.492C207.754 197.777 197.866 193.674 178.511 191.875C176.845 191.721 174.961 191.612 173.1 191.561C197.488 204.225 229.511 212.893 243.097 215.553ZM170.739 190.956L171.91 190.972C174.161 191.003 176.524 191.125 178.563 191.314C198.003 193.12 207.939 197.243 214.513 199.971C215.69 200.46 216.803 200.922 217.858 201.324C223.397 203.437 238.533 212.212 244.783 215.887L246.144 216.687L244.591 216.409C231.875 214.124 197.347 205.03 171.775 191.504L170.739 190.956ZM160.66 184.22C161.396 184.721 162.105 185.192 162.82 185.652C165.059 187.093 167.536 188.558 170.182 190.007C172.924 189.985 176.006 190.112 178.652 190.358C198.237 192.179 208.253 196.335 214.88 199.085C216.054 199.572 217.161 200.031 218.199 200.428C225.102 203.06 246.268 215.646 247.165 216.18C247.207 216.206 247.241 216.232 247.271 216.26C247.582 216.299 247.861 216.329 248.102 216.348C249.101 216.43 250.104 216.512 251.108 216.597L252.526 213.498C250.641 212.035 228.212 195.009 194.763 186.951C184.063 184.373 172.593 183.455 160.66 184.22ZM160.76 184.97C160.401 184.728 160.04 184.48 159.671 184.226L159.011 183.768L159.811 183.712C172.094 182.848 183.897 183.753 194.895 186.402C229.808 194.813 252.778 212.975 253.006 213.158L253.214 213.29L253.135 213.522L251.456 217.193L251.258 217.176C250.189 217.085 249.12 216.998 248.056 216.911C247.782 216.889 247.461 216.854 247.099 216.807L246.99 216.792L246.919 216.708C246.893 216.678 246.876 216.665 246.876 216.665C245.981 216.131 224.855 203.57 217.997 200.954C216.952 200.556 215.841 200.095 214.664 199.606C208.068 196.869 198.1 192.732 178.6 190.92C175.949 190.674 172.857 190.547 170.115 190.572L170.041 190.573L169.976 190.537C167.294 189.071 164.784 187.587 162.515 186.127C161.932 185.752 161.351 185.369 160.76 184.97ZM134.276 177.276C132.735 181.345 131.151 185.056 129.561 188.324C132.168 187.504 137.001 186.133 143.728 184.851C140.605 182.475 137.429 179.93 134.276 177.276ZM128.465 189.27L128.763 188.67C130.491 185.178 132.216 181.152 133.889 176.705L134.03 176.331L134.335 176.589C137.751 179.472 141.196 182.23 144.575 184.785L145.085 185.171L144.456 185.287C136.554 186.761 131.086 188.419 129.103 189.063L128.465 189.27ZM98.6667 141.679C95.4623 141.001 88.738 140.072 82.0862 142.231C75.105 144.498 72.1824 150.956 71.2552 153.609C81.0174 150.215 90.2336 146.204 98.6667 141.679ZM70.3707 154.511L70.5375 153.978C71.2409 151.735 74.1392 144.218 81.9116 141.695C89.2609 139.309 96.6813 140.62 99.5305 141.294L100.25 141.464L99.6 141.817C90.8057 146.587 81.1496 150.797 70.8992 154.329L70.3707 154.511ZM113.892 132.356C109.246 132.27 97.3344 132.125 90.0974 132.713C81.2323 133.434 72.3661 137.001 69.474 141.012C66.8745 144.616 63.5581 152.169 63.1581 156.258C63.4885 156.15 63.817 156.046 64.143 155.945C65.8751 155.41 67.665 154.83 69.4672 154.221C69.7646 153.124 72.5632 143.721 81.6155 140.782C90.6642 137.844 99.6472 140.299 100.659 140.593C105.358 137.988 109.805 135.219 113.892 132.356ZM62.5423 157.053L62.5633 156.643C62.7681 152.58 66.2822 144.471 69.0158 140.682C71.9948 136.551 81.0387 132.883 90.0515 132.151C97.8185 131.52 110.93 131.729 114.763 131.809L115.617 131.826L114.921 132.321C110.594 135.395 105.85 138.365 100.821 141.148L100.704 141.213L100.544 141.148C99.8428 140.939 90.8492 138.378 81.7896 141.319C72.5325 144.324 70.0124 154.36 69.9881 154.46L69.9666 154.636L69.8005 154.704C67.9424 155.333 66.0953 155.932 64.3096 156.485C63.8551 156.625 63.3955 156.773 62.9332 156.925L62.5423 157.053ZM128.601 190.241C127.256 192.852 125.883 195.199 124.512 197.227C128.745 196.094 140.25 193.188 152.898 191.451C150.437 189.784 147.909 187.983 145.377 186.094C135.967 187.802 129.962 189.772 128.601 190.241ZM123.167 198.177L123.613 197.538C125.132 195.365 126.658 192.789 128.151 189.883L128.202 189.782L128.309 189.745C129.444 189.35 135.604 187.286 145.397 185.517L145.517 185.495L145.616 185.568C148.269 187.55 150.919 189.435 153.492 191.171L154.448 191.813L153.71 191.91C139.97 193.741 127.434 197.013 123.919 197.972L123.167 198.177ZM74.8544 307.272C75.2455 307.536 75.4752 307.878 75.5296 308.294C75.6456 309.176 74.9185 310.128 74.5121 310.223C72.5937 310.671 67.0014 311.072 56.5337 305.164C54.1404 303.813 53.567 303.697 53.3713 303.97L54.882 304.725C55.2876 304.927 55.7778 305.191 56.3394 305.508C66.927 311.484 72.6379 311.065 74.6021 310.608C75.227 310.462 76.0667 309.345 75.9217 308.243C75.815 307.441 75.0737 306.116 71.3034 306.245C64.9995 306.46 55.1651 300.903 55.0668 300.846C55.0522 300.839 55.027 300.828 54.9686 300.828L54.8915 300.83L54.8255 300.791C53.799 300.203 50.5467 298.101 51.7246 295.674C53.1567 292.722 61.7288 288.599 75.0939 282.903C85.0095 278.678 115.152 265.833 124.629 256.814C133.452 248.417 139.01 229.19 123.742 212.736C121.588 210.415 118.955 208.093 115.915 205.832L115.581 205.584L115.934 205.366C118.212 203.957 120.497 201.735 122.725 198.762L122.794 198.669L122.984 198.649C123.079 198.614 138.067 194.304 154.709 192.177L154.845 192.125L155.01 192.184C163.753 197.956 172.106 202.349 179.837 205.242C214.979 218.391 246.145 223.514 252.931 223.8C257.918 224.009 264.213 226.519 270.656 230.866C271.203 231.235 272.012 231.882 273.036 232.701C277.135 235.98 284.756 242.074 291.807 243.084C300.263 244.293 302.621 243.008 304.169 241.708C304.672 241.285 304.854 240.77 304.654 240.33C304.218 239.371 302.237 239.041 299.488 239.469C297.71 239.747 295.06 239.414 292.028 238.531L292.146 237.981C297.258 238.68 300.771 238.152 303.871 237.686C304.645 237.57 305.401 237.457 306.156 237.365C310.83 236.799 315.469 235.036 316.175 234.443C316.586 234.098 316.616 233.246 316.24 232.62C315.932 232.107 314.906 231.041 312.051 232.187C308.308 233.689 299.969 234.115 298.336 234.185L297.648 234.215C297.652 234.221 297.656 234.227 297.66 234.234C297.81 234.486 297.839 234.76 297.753 235.07C297.634 235.497 297.35 235.82 296.91 236.029C295.398 236.745 292.152 236.144 288.225 234.42C286.566 233.691 284.42 232.666 282.148 231.581C277.77 229.49 272.816 227.124 270.376 226.443C270.27 226.414 270.161 226.476 270.132 226.58C270.118 226.632 270.124 226.686 270.151 226.732C270.177 226.778 270.218 226.809 270.268 226.824C272.13 227.342 275.488 228.873 278.207 230.147L278.258 230.172L278.321 230.243L281.744 233.704C285.248 237.249 294.899 240.585 299.549 239.86C302.837 239.347 304.08 240.018 304.295 240.495C304.421 240.771 304.285 241.095 303.914 241.406C302.769 242.368 300.853 243.979 291.862 242.692C284.919 241.699 277.351 235.647 273.285 232.395C272.252 231.569 271.438 230.917 270.877 230.539C266.277 227.435 259.432 223.678 252.947 223.405C246.178 223.12 215.073 218.005 179.975 204.871C166.155 199.701 150.797 190.009 134.328 176.067L133.525 175.385C120.241 164.05 111.415 154.304 111.328 154.207C111.291 154.167 111.243 154.145 111.191 154.142C111.138 154.139 111.087 154.157 111.048 154.192C111.009 154.227 110.986 154.275 110.983 154.328C110.981 154.381 110.998 154.431 111.034 154.47C111.123 154.569 120.222 164.581 133.537 175.912L133.688 176.04L133.618 176.225C127.769 191.83 121.636 201.59 115.388 205.234L115.23 205.327L115.082 205.219C108.235 200.273 100.57 196.492 95.3435 194.189C85.9839 190.065 78.3932 187.913 78.3176 187.892C78.2673 187.878 78.2135 187.884 78.1677 187.909C78.1215 187.935 78.0883 187.977 78.0742 188.029C78.0597 188.079 78.0666 188.134 78.0926 188.18C78.1178 188.225 78.1586 188.258 78.2097 188.272C78.2868 188.294 85.9136 190.464 95.1973 194.556C103.792 198.344 115.67 204.619 123.451 213.004C138.538 229.261 133.063 248.242 124.356 256.528C114.924 265.503 84.8285 278.326 74.9395 282.54C60.8103 288.561 52.8696 292.41 51.3691 295.501C49.8112 298.714 54.7917 301.232 54.9623 301.317C54.9843 301.328 55.0129 301.333 55.0511 301.333L55.1249 301.331L55.1899 301.367C56.8566 302.283 65.4688 306.839 71.3166 306.64C72.9574 306.583 74.1605 306.803 74.8544 307.272ZM45.3491 300.316C44.9221 303.877 45.6124 314.427 53.7761 321.455C62.1528 328.667 63.4835 328.812 63.6639 328.768C63.7541 328.688 63.8839 328.623 64.0096 328.561C64.089 328.522 64.2724 328.432 64.3103 328.387C64.2953 328.377 64.2207 327.633 61.4757 325.466C57.509 322.334 55.533 320.287 53.7898 318.482C53.3348 318.011 52.9056 317.566 52.4639 317.128C50.9093 315.582 47.342 308.032 47.9555 305.723C48.149 304.999 48.6668 304.787 48.8805 304.73C49.5107 304.559 50.479 304.707 52.8706 307.1C58.6237 312.853 65.692 318.14 69.9156 321.298C71.206 322.263 72.2249 323.025 72.8115 323.51C73.5902 324.156 74.4064 324.274 74.836 324.113C75.0537 324.03 75.0717 323.92 75.0786 323.878C75.0886 323.812 75.1425 323.192 73.799 322.111C73.3187 321.725 72.4077 321.011 71.2267 320.084L71.1754 320.044C52.0041 304.999 52.3021 304.553 52.8964 303.664C53.3958 302.918 54.3121 303.262 56.8109 304.673C67.1057 310.484 72.5299 310.106 74.3842 309.674C74.5159 309.613 75.0497 308.971 74.9703 308.368C74.8643 307.566 73.5062 307.129 71.3361 307.204C65.4065 307.405 56.8006 302.892 54.9768 301.894C54.8803 301.887 54.7906 301.862 54.7104 301.822C54.6577 301.796 54.1785 301.553 53.5693 301.142C52.0042 300.086 49.5706 297.917 50.8614 295.255C52.4389 292.003 60.4629 288.095 74.7178 282.021C84.5844 277.817 114.609 265.024 123.967 256.119C132.506 247.993 137.862 229.363 123.038 213.388C115.321 205.073 103.515 198.839 94.9697 195.073C85.722 190.997 78.1332 188.836 78.0576 188.815C77.8641 188.761 77.7012 188.634 77.6004 188.456C77.5004 188.279 77.4757 188.072 77.5311 187.876C77.5857 187.68 77.7138 187.517 77.8913 187.418C78.069 187.318 78.274 187.293 78.4705 187.348C78.5466 187.37 86.1748 189.532 95.5708 193.672C100.785 195.97 108.417 199.736 115.262 204.654C121.316 201.019 127.288 191.453 133.02 176.212C119.759 164.912 110.703 154.946 110.615 154.848C110.478 154.697 110.409 154.502 110.42 154.299C110.43 154.096 110.52 153.909 110.671 153.772C110.822 153.636 111.018 153.568 111.222 153.578C111.426 153.59 111.613 153.678 111.747 153.829C111.834 153.925 120.635 163.644 133.892 174.956L134.693 175.637C151.111 189.536 166.413 199.194 180.173 204.343C215.207 217.453 246.225 222.557 252.971 222.841C259.587 223.119 266.532 226.926 271.193 230.071C271.773 230.462 272.595 231.12 273.636 231.952C277.662 235.172 285.151 241.16 291.943 242.134C300.683 243.385 302.478 241.875 303.551 240.974C303.711 240.84 303.772 240.731 303.776 240.702C303.682 240.542 302.686 239.942 299.636 240.417C294.855 241.162 284.942 237.739 281.342 234.101L277.913 230.633C275.224 229.372 271.926 227.871 270.118 227.367C269.923 227.314 269.761 227.188 269.661 227.011C269.56 226.833 269.534 226.627 269.588 226.429C269.702 226.025 270.122 225.787 270.527 225.9C273.014 226.593 277.992 228.971 282.384 231.069C284.659 232.156 286.801 233.178 288.452 233.903C292.118 235.513 295.343 236.147 296.668 235.519C296.962 235.379 297.134 235.189 297.209 234.918C297.254 234.757 297.243 234.638 297.174 234.521C297.156 234.502 297.142 234.488 297.131 234.475C297.011 234.414 296.924 234.316 296.859 234.204L296.859 234.204C296.022 233.572 294.116 233.133 292.419 232.73C291.644 232.546 290.849 232.358 290.092 232.147C288.352 231.662 286.208 230.122 283.725 228.339C280.692 226.162 276.916 223.453 272.825 221.966C266.339 219.608 258.643 218.782 251.922 218.197C251.706 218.341 251.43 218.365 251.188 218.253C251.112 218.219 251.042 218.172 250.983 218.116C249.981 218.031 248.981 217.949 247.985 217.868C239.695 217.193 190.38 205.2 161.996 186.933C161.371 186.531 160.752 186.123 160.145 185.714C151.879 180.137 144.39 173.316 137.886 165.44L137.139 164.533C127.674 152.815 123.839 143.122 123.801 143.025C123.648 142.634 123.842 142.192 124.233 142.039C124.423 141.965 124.629 141.969 124.816 142.05C125.002 142.131 125.146 142.282 125.22 142.471C125.256 142.562 128.827 151.564 137.583 162.651C141.406 150.015 143.526 139.62 143.615 139.178C143.634 139.082 143.674 138.991 143.736 138.902C145.417 134.26 153.132 131.968 153.46 131.873C153.755 131.788 154.072 131.894 154.263 132.131L154.304 132.178C154.32 132.2 155.789 134.157 157.025 133.682C157.939 133.332 157.819 132.265 157.725 131.821C155.909 130.425 154.018 128.485 152.816 127.036C152.661 127.322 152.487 127.591 152.298 127.841C151.246 129.235 149.714 130.135 147.983 130.376C146.264 130.616 144.525 130.17 143.138 129.117C142.975 128.994 142.87 128.816 142.842 128.614C142.814 128.413 142.866 128.212 142.989 128.05C143.111 127.888 143.3 127.781 143.505 127.755C143.707 127.73 143.914 127.791 144.062 127.906C145.129 128.71 146.452 129.051 147.772 128.867C149.099 128.682 150.275 127.992 151.083 126.923C151.891 125.853 152.233 124.534 152.048 123.206C151.862 121.879 151.171 120.703 150.102 119.896C149.185 119.202 148.047 118.843 146.901 118.884C146.481 118.899 146.128 118.57 146.112 118.15C146.105 117.947 146.178 117.753 146.316 117.604C146.455 117.455 146.643 117.369 146.847 117.362C148.345 117.308 149.829 117.775 151.021 118.68C152.415 119.733 153.315 121.265 153.558 122.996C153.669 123.8 153.633 124.604 153.45 125.387C155.765 128.561 160.672 132.525 161.408 132.082C162.393 131.49 161.426 129.382 161.416 129.361C161.232 128.985 161.389 128.528 161.766 128.344C161.884 128.286 162.014 128.262 162.148 128.272C167.127 124.615 170.527 119.257 171.726 113.173C172.565 108.917 172.246 104.6 170.804 100.684C170.68 100.546 170.611 100.372 170.61 100.191C169.951 98.5279 169.101 96.9543 168.082 95.5134C162.058 86.9975 150.998 83.4504 141.162 86.8729C140.583 87.5451 140.059 88.2578 139.605 88.9912L138.029 92.0848C139.103 92.765 140.013 93.6332 140.749 94.674C142.248 96.7937 142.832 99.3694 142.393 101.927C141.954 104.485 140.546 106.719 138.427 108.217C135.876 110.021 132.587 110.486 129.63 109.462L126.402 108.113C126.308 108.074 126.223 108.011 126.178 107.963C125.888 107.805 125.647 107.661 125.427 107.514C125.405 107.82 125.39 108.101 125.381 108.365C125.243 112.799 126.29 116.967 128.494 120.755C128.556 120.784 128.613 120.822 128.663 120.866C128.889 121.065 128.973 121.381 128.88 121.668C128.873 121.925 128.74 122.162 128.524 122.295C128.463 122.332 128.398 122.359 128.325 122.377C126.783 123.993 121.254 129.448 111.041 136.122C97.7168 144.83 82.0891 151.989 64.5929 157.401C63.9871 157.588 63.3722 157.788 62.7537 157.996C62.6415 158.066 62.5292 158.103 62.4124 158.111C41.343 165.284 34.4211 177.263 32.3265 186.051C30.8688 192.168 31.4578 197.647 32.2127 201.178C32.2585 201.279 32.2809 201.384 32.28 201.491C33.2283 205.731 34.8192 209.008 35.904 210.056C36.0926 210.238 36.2905 210.432 36.4996 210.638L36.5726 210.71C39.1753 213.273 43.5269 217.559 52.0197 220.641C52.1909 220.641 52.3532 220.699 52.4901 220.811C60.6635 223.683 71.0511 224.895 83.3661 224.413C103.697 223.618 111.88 229.084 115.162 233.809C117.653 237.395 117.463 240.814 117.111 241.653C117.07 241.754 117.015 241.955 116.944 242.21C112.834 256.891 93.4633 268.163 77.9377 275.033C44.4381 289.858 44.903 294.4 45.353 298.792C45.3928 299.187 45.429 299.543 45.4499 299.904C45.4581 300.044 45.4233 300.185 45.3491 300.316ZM-119.065 259.009C-118.84 259.161 -118.666 259.367 -118.587 259.65C-118.377 260.4 -119.02 260.932 -119.366 261.218C-119.426 261.267 -119.448 261.285 -119.463 261.3C-119.609 261.476 -119.811 261.554 -120.046 261.644C-120.653 261.877 -122.255 262.49 -126.11 265.866C-130.534 269.739 -132.259 273.423 -133.186 275.402L-133.221 275.478C-133.302 275.65 -133.378 275.812 -133.45 275.961C-134.219 277.556 -134.424 279.36 -134.126 279.981C-134.068 280.105 -134.023 280.115 -133.998 280.121C-133.447 280.249 -132.883 278.442 -132.697 277.847L-132.602 277.547C-132.213 276.347 -129.662 271.171 -127.155 268.322C-127.087 268.246 -120.113 261.11 -118.527 262.18C-118.509 262.192 -118.491 262.207 -118.474 262.221C-117.794 262.803 -118.132 263.594 -120.049 265.897C-125.332 272.244 -127.031 276.462 -127.239 277.013C-127.203 277.134 -127.051 277.429 -126.896 277.47C-126.685 277.527 -125.87 277.144 -124.627 274.719C-121.819 269.241 -116.323 263.251 -116.268 263.191C-116.063 262.969 -115.745 262.897 -115.46 262.998C-115.396 262.986 -115.332 262.98 -115.268 262.984C-115.006 263.001 -88.8354 264.587 -61.0278 259.703C-37.0397 255.49 -22.0943 247.718 -6.27139 239.489C-3.66255 238.132 -0.964699 236.729 1.79275 235.333C17.4755 227.398 40.9852 222.62 49.2356 221.111C41.7851 217.98 37.8763 214.132 35.5038 211.796L35.4425 211.735C35.2324 211.529 35.0344 211.334 34.8461 211.152C33.7405 210.084 32.092 207.036 31.01 202.804C25.549 206.794 -9.76608 232.458 -28.5303 242.705C-48.673 253.704 -86.0737 258.744 -97.5997 258.475C-98.4341 258.57 -106.312 259.373 -114.192 257.746C-114.711 257.639 -115.222 257.412 -115.814 257.149C-117.706 256.309 -120.299 255.158 -124.656 257.914C-130.126 261.375 -134.761 267.004 -136.506 269.124L-136.875 269.57C-137.565 270.399 -137.524 271.192 -137.274 271.49C-137.223 271.55 -137.104 271.693 -136.747 271.489C-136.094 271.117 -135.948 270.895 -135.463 270.158C-135.003 269.46 -134.31 268.406 -132.764 266.628C-129.417 262.777 -122.898 258.224 -120.343 258.599C-119.907 258.663 -119.422 258.768 -119.065 259.009ZM-119.379 259.886L-119.648 260.179C-119.747 260.287 -119.906 260.419 -119.977 260.479C-120.046 260.536 -120.105 260.586 -120.147 260.629L-120.23 260.686C-120.26 260.7 -120.299 260.714 -120.344 260.731C-121.041 260.999 -122.76 261.658 -126.742 265.144C-131.319 269.151 -133.099 272.954 -134.055 274.996L-134.089 275.068C-134.169 275.239 -134.243 275.397 -134.314 275.544C-135.054 277.079 -135.509 279.312 -134.993 280.395C-134.823 280.748 -134.558 280.975 -134.217 281.055C-132.798 281.388 -132.136 279.271 -131.781 278.134L-131.689 277.843C-131.327 276.726 -128.816 271.66 -126.435 268.956C-124.936 267.253 -121.718 264.557 -120.054 263.46L-118.834 262.656C-118.836 262.654 -118.839 262.651 -118.842 262.649C-118.848 262.643 -118.855 262.638 -118.861 262.634C-119.704 262.065 -125.556 267.359 -126.731 268.695C-129.189 271.487 -131.685 276.55 -132.064 277.719L-132.158 278.017C-132.497 279.102 -133.065 280.919 -134.127 280.67C-134.351 280.618 -134.518 280.472 -134.636 280.225C-135.047 279.365 -134.743 277.342 -133.958 275.715C-133.887 275.568 -133.813 275.409 -133.733 275.238L-133.698 275.164C-132.753 273.147 -130.995 269.393 -126.482 265.442C-122.551 262 -120.881 261.359 -120.251 261.118C-120.046 261.04 -119.946 260.999 -119.882 260.923C-119.842 260.88 -119.803 260.847 -119.757 260.809C-119.368 260.488 -119.027 260.168 -119.13 259.802C-119.249 259.379 -119.925 259.231 -120.424 259.158C-122.712 258.822 -129.18 263.363 -132.339 266.999C-133.859 268.749 -134.54 269.782 -134.99 270.467C-135.491 271.226 -135.697 271.54 -136.468 271.979C-136.954 272.256 -137.403 272.214 -137.707 271.852C-138.156 271.316 -138.164 270.236 -137.309 269.21L-136.941 268.764C-135.181 266.626 -130.504 260.946 -124.958 257.437C-120.346 254.52 -117.594 255.741 -115.585 256.633C-115.023 256.883 -114.538 257.098 -114.079 257.193C-106.15 258.831 -97.9691 257.95 -97.6245 257.912C-86.106 258.179 -48.8557 253.161 -28.8014 242.21C-9.62033 231.736 26.9135 205.103 31.016 202.101L31.3573 201.851L31.4567 202.262C32.5082 206.597 34.1535 209.699 35.2376 210.746C35.4273 210.929 35.6272 211.125 35.8379 211.333L35.9002 211.394C38.3346 213.791 42.4098 217.804 50.3433 220.954L51.2659 221.32L50.2889 221.494C43.0855 222.778 18.3186 227.604 2.04798 235.837C-0.707267 237.231 -3.4037 238.633 -6.01098 239.99C-21.8734 248.239 -36.856 256.031 -60.9298 260.26C-88.8028 265.155 -115.041 263.564 -115.302 263.547C-115.327 263.546 -115.354 263.55 -115.383 263.561L-115.502 263.606L-115.615 263.545C-115.685 263.507 -115.786 263.501 -115.853 263.574C-115.908 263.632 -121.351 269.566 -124.125 274.977C-125.236 277.145 -126.273 278.224 -127.043 278.015C-127.544 277.88 -127.811 277.196 -127.811 276.983L-127.798 276.896C-127.784 276.854 -126.176 272.376 -120.483 265.536C-118.627 263.307 -118.607 262.88 -118.817 262.672L-119.67 263.861C-119.948 264.249 -120.323 264.728 -120.787 265.283C-125.681 271.163 -127.812 275.662 -128.173 276.774C-128.289 277.132 -127.956 278.066 -127.281 278.35C-126.006 278.88 -124.67 276.906 -123.773 275.157C-121.26 270.253 -116.611 265.001 -115.704 263.997L-115.571 263.85L-115.387 263.926C-115.363 263.936 -115.343 263.941 -115.328 263.941C-115.064 263.959 -88.7003 265.538 -60.8624 260.648C-36.73 256.409 -21.7211 248.605 -5.8313 240.341C-3.21697 238.981 -0.51567 237.577 2.22624 236.189C20.7675 226.808 50.7007 221.814 51.9661 221.605L52.0374 221.594L52.1059 221.618C60.5049 224.592 71.0352 225.855 83.404 225.372C103.301 224.593 111.228 229.827 114.374 234.356C116.609 237.573 116.512 240.602 116.226 241.283C116.165 241.43 116.101 241.66 116.02 241.952C112.01 256.273 92.8862 267.37 77.5494 274.157C43.4126 289.263 43.8914 293.939 44.3982 298.889C44.4248 299.149 44.4461 299.409 44.467 299.67L44.4637 299.745C43.9891 302.304 44.0439 314.343 53.15 322.182C56.6539 325.199 59.2267 327.252 61.0159 328.459C63.4934 330.131 63.8882 329.813 64.2362 329.532C64.2877 329.494 64.3412 329.466 64.4027 329.438C64.8246 329.23 65.2005 329.007 65.2508 328.53C65.3063 328.013 65.0359 327.054 62.07 324.713C58.1561 321.622 56.2036 319.6 54.4809 317.817C54.0243 317.344 53.5882 316.893 53.1412 316.448C51.7843 315.1 48.7818 308.725 48.8376 306.338C48.8418 306.154 48.8656 306.005 48.9071 305.892L48.8788 305.744L49.1074 305.663C49.3758 305.569 50.1338 305.719 52.1922 307.778C57.9922 313.578 65.0938 318.89 69.3375 322.064C70.6357 323.036 71.639 323.786 72.2012 324.25C73.1496 325.037 74.3172 325.334 75.1743 325.01C75.6444 324.833 75.9542 324.476 76.0257 324.03C76.1132 323.48 75.9021 322.572 74.4001 321.364C73.9112 320.971 72.9786 320.239 71.7678 319.289C67.4908 315.933 57.4739 308.073 54.5577 305.177L53.3594 303.988C53.0522 304.491 54.29 306.076 71.5246 319.6L71.5749 319.639C72.7589 320.569 73.6714 321.285 74.1527 321.672C75.6296 322.86 75.6818 323.672 75.6357 323.967C75.6008 324.184 75.4686 324.477 75.0354 324.641C74.4389 324.866 73.4097 324.737 72.4526 323.945C71.8763 323.47 70.8616 322.711 69.5773 321.75C65.3422 318.582 58.2535 313.28 52.4716 307.498C49.9891 305.017 49.2655 305.211 49.027 305.275C48.8458 305.323 48.608 305.466 48.5016 305.868C47.9799 307.829 51.3176 315.192 52.8621 316.728C53.3065 317.169 53.7377 317.616 54.1883 318.083C55.9272 319.883 57.8888 321.914 61.8254 325.023C63.8788 326.644 64.9272 327.842 64.8581 328.488C64.826 328.789 64.5298 328.935 64.2684 329.063C64.1535 329.12 64.0608 329.165 63.9908 329.222C63.6732 329.479 62.9291 330.08 53.408 321.883C45.0081 314.652 44.3434 303.767 44.7964 300.183L44.8054 300.114L44.8452 300.057C44.89 299.993 44.8878 299.951 44.8864 299.937C44.8662 299.584 44.831 299.236 44.7955 298.888C44.3214 294.257 43.8347 289.508 77.709 274.518C93.1241 267.696 112.349 256.527 116.4 242.058C116.486 241.75 116.542 241.555 116.59 241.437C116.911 240.673 117.055 237.523 114.698 234.13C111.494 229.52 103.464 224.192 83.3887 224.977C70.976 225.462 60.4998 224.233 52.2509 221.325L52.193 221.304L52.1484 221.261C52.1177 221.233 52.0691 221.2 51.9986 221.206L51.8788 221.19C43.2373 218.064 38.8181 213.713 36.1772 211.112L36.1042 211.04C35.8961 210.836 35.6996 210.643 35.5117 210.462C34.3989 209.386 32.7381 206.148 31.7214 201.578L31.7154 201.497C31.7174 201.466 31.7096 201.432 31.6918 201.397L31.6675 201.328C30.8974 197.742 30.2909 192.158 31.7779 185.921C33.9068 176.987 40.9268 164.814 62.2794 157.56L62.3947 157.544C62.4126 157.54 62.4362 157.53 62.4719 157.507L62.5397 157.473C63.1747 157.259 63.8046 157.053 64.4263 156.861C81.8718 151.465 97.4518 144.329 110.732 135.65C121.038 128.915 126.539 123.441 127.979 121.923L128.048 121.85L128.148 121.837C128.185 121.832 128.21 121.825 128.229 121.814C128.286 121.778 128.32 121.711 128.315 121.635L128.336 121.512C128.362 121.45 128.365 121.356 128.29 121.29C128.27 121.272 128.246 121.26 128.217 121.251L128.112 121.218L128.056 121.124C125.765 117.221 124.674 112.922 124.817 108.347C124.83 107.936 124.858 107.484 124.905 106.967L124.95 106.463L125.355 106.766C125.495 106.871 125.601 106.951 125.711 107.025C125.936 107.176 126.182 107.323 126.487 107.489L126.526 107.51L126.557 107.542L126.51 107.852L126.619 107.592L129.83 108.935C132.6 109.894 135.698 109.455 138.101 107.756C140.097 106.345 141.423 104.24 141.837 101.831C142.25 99.4226 141.7 96.9961 140.288 94.9996C139.546 93.9505 138.613 93.0862 137.515 92.4309L137.289 92.2956L139.113 88.7146C139.608 87.9145 140.167 87.158 140.785 86.4461L140.834 86.3899L140.904 86.3652C150.994 82.8185 162.359 86.4464 168.543 95.1873C169.599 96.6812 170.478 98.313 171.156 100.038L171.181 100.101L171.175 100.167C171.168 100.241 171.207 100.292 171.24 100.323L171.289 100.369L171.313 100.432C172.808 104.46 173.143 108.904 172.28 113.283C171.046 119.545 167.532 125.055 162.386 128.798L162.278 128.877L162.149 128.843C162.097 128.83 162.053 128.832 162.014 128.851C161.917 128.899 161.875 129.018 161.923 129.115C161.935 129.14 163.165 131.685 161.699 132.565C160.321 133.393 154.827 128.284 152.916 125.61L152.84 125.503L152.872 125.377C153.063 124.623 153.106 123.849 152.998 123.074C152.778 121.493 151.954 120.092 150.68 119.13C149.592 118.302 148.237 117.877 146.866 117.926C146.814 117.928 146.765 117.95 146.729 117.989C146.693 118.027 146.674 118.078 146.676 118.13C146.681 118.239 146.771 118.323 146.881 118.32C148.155 118.275 149.417 118.674 150.442 119.445C151.632 120.344 152.401 121.652 152.607 123.128C152.813 124.605 152.432 126.073 151.533 127.263C150.635 128.452 149.326 129.22 147.85 129.426C146.381 129.63 144.903 129.24 143.716 128.353C143.677 128.318 143.627 128.308 143.575 128.315C143.52 128.322 143.47 128.349 143.439 128.39C143.407 128.432 143.394 128.484 143.401 128.536C143.408 128.589 143.435 128.635 143.477 128.667C144.747 129.629 146.334 130.036 147.905 129.818C149.486 129.597 150.887 128.774 151.849 127.501C152.098 127.17 152.319 126.8 152.504 126.401L152.696 125.988L152.981 126.344C154.111 127.763 156.21 129.961 158.147 131.434L158.227 131.494L158.251 131.59C158.496 132.573 158.355 133.777 157.228 134.208C155.659 134.811 154.085 132.825 153.872 132.543L153.84 132.507C153.792 132.44 153.713 132.387 153.618 132.415C153.3 132.507 145.81 134.731 144.254 139.13L144.239 139.173L144.211 139.209C144.187 139.239 144.174 139.265 144.169 139.288C144.078 139.739 141.895 150.437 137.966 163.33L137.81 163.842L137.476 163.423C128.424 152.079 124.731 142.769 124.694 142.677C124.675 142.628 124.64 142.588 124.59 142.567C124.542 142.546 124.488 142.545 124.439 142.565C124.337 142.604 124.287 142.719 124.326 142.82C124.364 142.916 128.167 152.528 137.576 164.177L138.321 165.081C144.791 172.915 152.24 179.7 160.461 185.246C161.063 185.653 161.68 186.059 162.301 186.458C190.606 204.674 239.768 216.632 248.031 217.306C249.065 217.39 250.103 217.474 251.142 217.563L251.271 217.573L251.346 217.678C251.36 217.697 251.376 217.712 251.394 217.725C251.496 217.774 251.581 217.759 251.64 217.703L251.732 217.614L251.86 217.625C258.643 218.213 266.431 219.041 273.018 221.436C277.182 222.949 280.992 225.684 284.054 227.881C286.493 229.633 288.6 231.145 290.243 231.603C290.99 231.811 291.779 231.998 292.543 232.179C294.431 232.628 296.371 233.082 297.268 233.807L297.318 233.848L297.36 233.94C297.373 233.958 297.389 233.973 297.406 233.984L297.458 234.01L297.508 234.054L298.181 233.66C303.735 230.405 309.928 226.704 310.655 226.078C311.159 225.644 311.27 224.945 310.914 224.454C310.468 223.844 309.343 223.578 307.53 224.676C305.333 226.007 300.144 229.096 297.247 230.819L296.442 231.297L301.325 221.151L301.452 221.119C302.533 220.843 303.454 220.482 304.044 220.102C304.891 219.556 304.778 218.258 304.636 217.533L304.592 217.307L304.804 217.218C305.786 216.807 306.426 216.363 306.707 215.897C306.917 215.547 306.953 215.216 306.814 214.911C306.689 214.636 306.417 214.396 306.009 214.199L305.28 213.848L306.351 213.609C308.739 213.047 310.008 212.103 310.02 210.877C310.03 209.799 308.985 208.814 308.29 208.636C308.228 208.621 308.141 208.609 308.036 208.6L307.628 208.563L318.247 186.886C318.259 186.86 318.264 186.834 318.265 186.807C318.256 186.761 318.251 186.741 318.241 186.721L318.227 186.695C318.213 186.676 318.199 186.665 318.177 186.65L318.157 186.636L318.127 186.609L283.494 168.604C283.474 168.594 283.453 168.587 283.432 168.585L274.434 167.303L274.366 167.027L274.366 167.31L274.268 167.372L274.264 167.379L274.233 167.418L274.22 167.44L274.217 167.444L253.393 212.958L253.112 212.739C250.685 210.852 228.445 194.079 194.988 186.018C183.601 183.275 171.381 182.393 158.669 183.396L158.519 183.416L158.43 183.352C150.949 178.005 144.15 171.611 138.223 164.348L138.127 164.232L138.171 164.087C142.007 151.593 144.277 140.725 144.523 139.527L144.577 139.407C145.723 135.671 151.629 133.477 153.412 132.894L153.595 132.834L153.717 132.982C153.986 133.305 154.423 133.768 154.978 134.143C155.825 134.715 156.629 134.861 157.369 134.578C158.506 134.142 158.746 133.149 158.748 132.395L158.749 131.883L159.181 132.157C160.444 132.957 161.385 133.215 161.902 132.904C163.204 132.122 162.83 130.411 162.49 129.461L162.42 129.262L162.591 129.137C167.833 125.336 171.412 119.732 172.667 113.359C173.525 109.006 173.214 104.573 171.768 100.54L171.721 100.41L171.796 100.293C171.815 100.264 171.824 100.239 171.828 100.215C172.283 96.6375 171.66 93.0501 170.029 89.8403C169.505 88.6724 168.876 87.5685 168.153 86.547C165.162 82.317 160.695 79.5042 155.577 78.6257C150.457 77.7467 145.309 78.9097 141.08 81.8997C138.937 83.4146 137.149 85.3161 135.767 87.5502L134.119 90.8884L133.883 90.8038C133.542 90.6818 133.238 90.5896 132.954 90.5207C130.386 89.9017 127.677 90.4202 125.52 91.9436C123.524 93.3551 122.198 95.4594 121.784 97.8685C121.372 100.278 121.922 102.704 123.333 104.7C123.659 105.162 124.049 105.61 124.491 106.034L124.593 106.131L124.577 106.27C124.495 106.974 124.443 107.668 124.422 108.334C124.277 112.986 125.386 117.357 127.718 121.327L127.825 121.51L127.68 121.665C126.691 122.706 122.939 126.489 116.151 131.436L116.012 131.537L115.857 131.459C115.827 131.444 115.801 131.436 115.776 131.435C115.085 131.419 98.945 131.033 90.0193 131.757C80.7528 132.51 71.7848 136.167 68.6957 140.451C65.7719 144.504 62.1812 152.928 62.1578 156.982L62.1568 157.183L61.9671 157.248C40.5819 164.571 33.5377 176.833 31.393 185.829C29.8936 192.122 30.4748 197.689 31.2264 201.251L31.2635 201.429L31.1174 201.537C27.0085 204.548 -9.58429 231.266 -28.9903 241.863C-49.0294 252.805 -86.1718 257.794 -97.6098 257.515C-97.7204 257.525 -105.938 258.472 -113.999 256.806C-114.416 256.72 -114.883 256.512 -115.424 256.272C-117.397 255.396 -120.378 254.073 -125.169 257.103C-130.764 260.643 -135.472 266.359 -137.244 268.51L-137.612 268.956C-138.606 270.149 -138.564 271.443 -138.009 272.107C-137.582 272.616 -136.931 272.699 -136.272 272.322C-135.418 271.836 -135.165 271.451 -134.661 270.684C-134.214 270.007 -133.542 268.985 -132.04 267.258C-129.009 263.77 -122.62 259.234 -120.482 259.549C-120.165 259.595 -119.917 259.656 -119.746 259.729L-119.379 259.886ZM-134.89 281.367C-135.147 281.194 -135.353 280.948 -135.502 280.638C-136.121 279.342 -135.629 276.971 -134.823 275.298C-134.753 275.154 -134.679 274.997 -134.6 274.829L-134.567 274.756C-133.593 272.676 -131.78 268.805 -127.114 264.72C-123.057 261.167 -121.269 260.481 -120.596 260.223L-120.541 260.202C-120.527 260.197 -120.515 260.193 -120.504 260.189C-120.483 260.17 -120.461 260.149 -120.436 260.127C-120.475 260.121 -120.518 260.114 -120.563 260.107C-122.181 259.869 -128.28 263.79 -131.614 267.628C-133.092 269.328 -133.751 270.329 -134.188 270.992C-134.708 271.783 -135.021 272.259 -135.993 272.813C-136.882 273.319 -137.842 273.186 -138.442 272.468C-139.147 271.626 -139.238 270.025 -138.047 268.596L-137.682 268.154C-135.892 265.981 -131.143 260.214 -125.471 256.627C-120.425 253.435 -117.278 254.832 -115.195 255.757C-114.684 255.984 -114.242 256.18 -113.885 256.254C-105.912 257.9 -97.7862 256.965 -97.7051 256.956C-97.6669 256.951 -97.6323 256.95 -97.597 256.951C-86.2033 257.228 -49.2118 252.262 -29.261 241.368C-10.0986 230.904 25.8809 204.673 30.6371 201.189C29.892 197.564 29.3449 191.989 30.8447 185.698C33.0153 176.59 40.1143 164.192 61.5977 156.778C61.7324 152.556 65.3134 144.174 68.2376 140.121C71.4151 135.714 80.5569 131.96 89.9734 131.195C98.9287 130.468 115.098 130.855 115.782 130.871C115.836 130.873 115.888 130.88 115.94 130.892C122.315 126.233 125.962 122.635 127.124 121.429C124.811 117.414 123.712 113.004 123.859 108.317C123.878 107.679 123.926 107.015 124.001 106.343C123.573 105.924 123.195 105.482 122.873 105.026C121.374 102.906 120.79 100.331 121.228 97.7729C121.667 95.2151 123.076 92.9816 125.194 91.4833C127.484 89.8654 130.36 89.3149 133.086 89.9722C133.321 90.0294 133.568 90.1011 133.835 90.19L135.274 87.2768C136.709 84.9539 138.549 82.9976 140.754 81.4386C145.106 78.3617 150.404 77.1651 155.672 78.0694C160.939 78.9736 165.536 81.8683 168.614 86.2209C169.358 87.2726 170.005 88.4087 170.538 89.5972C172.215 92.8961 172.856 96.5957 172.387 100.286C172.379 100.347 172.363 100.407 172.34 100.466C173.785 104.563 174.091 109.056 173.221 113.468C171.951 119.913 168.356 125.588 163.09 129.471C163.675 131.27 163.352 132.691 162.193 133.388C161.537 133.783 160.559 133.611 159.281 132.877C159.181 133.641 158.801 134.633 157.571 135.104C156.663 135.453 155.658 135.282 154.662 134.611C154.133 134.254 153.705 133.826 153.409 133.49C151.859 134.015 146.164 136.157 145.102 139.608L145.066 139.686C144.778 141.085 142.528 151.793 138.755 164.109C144.606 171.256 151.305 177.554 158.67 182.83C171.423 181.827 183.687 182.715 195.12 185.47C227.656 193.308 249.634 209.369 253.176 212.077L273.735 167.141L273.771 167.098C273.771 167.085 273.807 167.042 273.834 167.011C273.866 166.971 273.892 166.941 273.924 166.915C273.973 166.874 274.018 166.851 274.051 166.834C274.076 166.818 274.11 166.794 274.157 166.778L274.22 166.762C274.258 166.753 274.293 166.75 274.319 166.748C274.372 166.743 274.411 166.738 274.449 166.739L274.515 166.741L283.51 168.026C283.595 168.037 283.678 168.064 283.755 168.104L318.463 186.153L318.51 186.195C318.558 186.224 318.619 186.279 318.668 186.343L318.748 186.45L318.758 186.495C318.788 186.561 318.81 186.635 318.819 186.711C318.825 186.747 318.829 186.777 318.829 186.81C318.828 186.897 318.813 186.982 318.784 187.064L318.756 187.145L308.481 208.104C309.384 208.365 310.598 209.523 310.584 210.882C310.574 211.899 309.907 213.258 306.848 214.067C307.065 214.248 307.225 214.452 307.328 214.677C307.48 215.01 307.579 215.542 307.19 216.187C306.864 216.73 306.222 217.209 305.23 217.649C305.371 218.539 305.384 219.909 304.35 220.576C303.725 220.979 302.818 221.343 301.72 221.633L297.763 229.855C300.734 228.088 305.233 225.408 307.237 224.194C309.378 222.897 310.776 223.309 311.37 224.122C311.901 224.854 311.752 225.878 311.024 226.506C310.168 227.242 302.888 231.55 299.46 233.564C302.318 233.401 308.735 232.909 311.841 231.663C315.101 230.355 316.342 231.694 316.724 232.329C317.25 233.205 317.166 234.348 316.538 234.875C315.677 235.599 310.99 237.348 306.223 237.925C305.474 238.016 304.724 238.129 303.955 238.244C301.764 238.573 299.369 238.933 296.356 238.879C297.546 239.024 298.587 239.039 299.401 238.912C302.504 238.428 304.605 238.862 305.168 240.097C305.479 240.781 305.241 241.544 304.532 242.14C302.891 243.519 300.414 244.885 291.727 243.641C284.525 242.612 276.827 236.455 272.689 233.146C271.67 232.331 270.869 231.69 270.341 231.334C263.983 227.044 257.791 224.568 252.907 224.363C246.098 224.077 214.845 218.944 179.639 205.77C171.903 202.875 163.551 198.488 154.814 192.731C154.803 192.733 154.792 192.735 154.78 192.736C138.463 194.822 123.741 199.011 123.107 199.194C120.97 202.027 118.777 204.188 116.579 205.624C119.508 207.828 122.056 210.09 124.155 212.352C139.686 229.088 134.009 248.666 125.018 257.223C115.467 266.312 85.2545 279.187 75.3261 283.418C62.0698 289.067 53.5878 293.126 52.2331 295.92C51.2885 297.866 54.0652 299.697 55.0452 300.267C55.1566 300.275 55.255 300.305 55.3454 300.356C55.4432 300.412 65.1384 305.89 71.2839 305.681C75.4982 305.537 76.3499 307.177 76.4809 308.169C76.6589 309.518 75.6674 310.94 74.7299 311.158C72.7375 311.622 67.0283 312.058 56.6258 306.313C60.6312 309.833 68.4666 315.981 72.1166 318.846C73.3291 319.796 74.2642 320.531 74.7538 320.924C76.4663 322.302 76.6938 323.422 76.5828 324.118C76.4786 324.77 76.0381 325.288 75.3741 325.538C74.3302 325.932 72.9411 325.595 71.8413 324.685C71.2901 324.229 70.2917 323.483 69.0278 322.537C64.7438 319.333 57.6212 314.005 51.7932 308.177C50.3895 306.773 49.6948 306.37 49.4065 306.255C49.4046 306.283 49.4022 306.314 49.4013 306.351C49.351 308.521 52.3024 314.818 53.5389 316.047C53.9895 316.496 54.4277 316.949 54.8858 317.424C56.597 319.196 58.5351 321.202 62.4193 324.27C65.5509 326.742 65.8916 327.841 65.812 328.589C65.7247 329.416 65.0278 329.759 64.6932 329.924C64.6203 329.959 64.5962 329.969 64.5787 329.981C63.9652 330.475 63.3205 330.695 60.7003 328.927C58.8928 327.707 56.3024 325.641 52.7818 322.61C43.5165 314.633 43.4229 302.38 43.9014 299.68C43.8821 299.434 43.8615 299.19 43.837 298.947C43.3085 293.787 42.8097 288.913 77.3202 273.641C92.5471 266.902 111.526 255.909 115.476 241.799C115.566 241.477 115.631 241.245 115.705 241.067C115.916 240.564 116.001 237.688 113.91 234.678C110.845 230.264 103.069 225.167 83.4267 225.936C71.0187 226.42 60.4415 225.155 51.986 222.174C49.9456 222.513 20.6822 227.483 2.48101 236.693C-0.257914 238.079 -2.95764 239.483 -5.56837 240.84C-21.5002 249.126 -36.5464 256.951 -60.7646 261.203C-88.6677 266.105 -115.098 264.522 -115.362 264.505C-115.374 264.504 -115.387 264.503 -115.399 264.502C-116.519 265.751 -120.881 270.751 -123.271 275.414C-124.732 278.266 -126.154 279.429 -127.498 278.871C-128.406 278.49 -128.933 277.285 -128.71 276.6C-128.346 275.476 -126.229 270.992 -121.418 265.16C-123.026 266.425 -124.954 268.129 -126.011 269.329C-128.343 271.978 -130.799 276.928 -131.152 278.015L-131.242 278.303C-131.623 279.521 -132.416 282.057 -134.346 281.604C-134.543 281.558 -134.726 281.478 -134.89 281.367Z" fill="black"/>
</g>
<path fill-rule="evenodd" clip-rule="evenodd" d="M151.319 101.474C153.167 100.167 155.414 99.658 157.646 100.041C158.849 100.248 159.97 100.7 160.953 101.363C161.792 101.929 162.531 102.65 163.133 103.501C165.832 107.317 164.923 112.616 161.108 115.314C157.293 118.012 151.994 117.103 149.294 113.286C147.987 111.437 147.478 109.191 147.86 106.959C148.243 104.729 149.471 102.78 151.319 101.474ZM148.511 113.84C149.187 114.796 150.01 115.589 150.928 116.208C154.088 118.34 158.371 118.424 161.662 116.097C165.909 113.094 166.921 107.195 163.917 102.948C162.461 100.889 160.292 99.5217 157.808 99.0954C155.324 98.669 152.823 99.2354 150.765 100.69C148.708 102.145 147.34 104.313 146.914 106.797C146.489 109.281 147.055 111.782 148.511 113.84Z" fill="black"/>
<path fill-rule="evenodd" clip-rule="evenodd" d="M160.794 101.598C159.832 100.949 158.756 100.519 157.596 100.32C155.439 99.9499 153.268 100.442 151.481 101.705C149.695 102.968 148.507 104.852 148.136 107.009C147.766 109.165 148.259 111.337 149.522 113.124C150.785 114.909 152.669 116.096 154.829 116.466C156.988 116.837 159.16 116.346 160.943 115.085C164.632 112.477 165.51 107.354 162.902 103.666C162.322 102.847 161.613 102.151 160.794 101.598ZM151.31 115.655C150.444 115.07 149.683 114.328 149.062 113.45C147.712 111.54 147.185 109.218 147.58 106.913C147.976 104.607 149.245 102.594 151.155 101.244C153.065 99.8937 155.386 99.3683 157.692 99.7642C159.986 100.158 162.017 101.437 163.362 103.339C166.151 107.283 165.212 112.759 161.27 115.545C159.363 116.894 157.042 117.418 154.733 117.023C153.488 116.808 152.327 116.34 151.31 115.655ZM161.33 100.803C160.268 100.086 159.058 99.5979 157.758 99.3745C155.349 98.9608 152.923 99.5107 150.927 100.922C148.931 102.333 147.603 104.437 147.191 106.846C146.778 109.255 147.328 111.682 148.74 113.678C149.381 114.585 150.17 115.358 151.084 115.975C154.225 118.094 158.41 118.051 161.498 115.868C165.618 112.955 166.599 107.232 163.685 103.112C163.034 102.192 162.236 101.414 161.33 100.803ZM150.769 116.443C149.797 115.788 148.959 114.967 148.279 114.004C146.78 111.884 146.196 109.309 146.634 106.751C147.073 104.193 148.481 101.959 150.6 100.461C152.72 98.9627 155.296 98.3793 157.854 98.8189C160.411 99.2571 162.647 100.667 164.146 102.786C165.642 104.902 166.225 107.477 165.785 110.038C165.346 112.599 163.939 114.833 161.823 116.329C158.546 118.647 154.103 118.692 150.769 116.443Z" fill="black"/>
<path fill-rule="evenodd" clip-rule="evenodd" d="M159.021 110.49C159.142 110.662 159.291 110.807 159.46 110.921C159.658 111.055 159.884 111.146 160.126 111.187C160.576 111.265 161.028 111.162 161.4 110.899C161.774 110.636 162.021 110.243 162.098 109.793C162.175 109.344 162.072 108.891 161.809 108.519C161.545 108.146 161.152 107.899 160.703 107.822C160.254 107.744 159.801 107.847 159.429 108.11C159.056 108.374 158.809 108.766 158.732 109.216C158.655 109.665 158.757 110.118 159.021 110.49Z" fill="black"/>
<path fill-rule="evenodd" clip-rule="evenodd" d="M159.251 110.329C159.47 110.639 159.798 110.846 160.174 110.911C160.548 110.976 160.926 110.89 161.238 110.67C161.548 110.45 161.755 110.123 161.82 109.747C161.884 109.372 161.798 108.994 161.578 108.683C161.358 108.372 161.03 108.165 160.656 108.101C160.28 108.037 159.902 108.122 159.591 108.342C159.281 108.562 159.074 108.889 159.01 109.265C158.945 109.64 159.031 110.018 159.251 110.329ZM159.302 111.157C159.103 111.023 158.931 110.853 158.79 110.655C158.483 110.22 158.363 109.692 158.453 109.169C158.543 108.646 158.832 108.188 159.266 107.881C159.7 107.574 160.227 107.455 160.751 107.545C161.274 107.634 161.732 107.922 162.039 108.357C162.346 108.792 162.466 109.32 162.376 109.842C162.286 110.366 161.997 110.824 161.563 111.131C161.129 111.438 160.602 111.557 160.078 111.467C159.797 111.419 159.535 111.314 159.302 111.157Z" fill="black"/>
<path fill-rule="evenodd" clip-rule="evenodd" d="M283.479 191.242L285.208 201.436L282.179 200.155C281.944 200.056 281.673 200.158 281.561 200.386L278.701 206.233L274.57 204.561L277.442 198.302C277.495 198.185 277.5 198.051 277.453 197.931C277.418 197.838 277.355 197.76 277.274 197.705C277.249 197.688 277.224 197.674 277.197 197.663L273.318 195.972L283.479 191.242ZM271.671 195.992C271.673 196.18 271.785 196.349 271.959 196.426L276.366 198.347L273.488 204.617C273.434 204.737 273.431 204.873 273.478 204.995C273.515 205.085 273.577 205.162 273.656 205.215C273.684 205.234 273.714 205.249 273.745 205.262L278.756 207.29C278.989 207.385 279.256 207.283 279.367 207.056L282.223 201.216L285.641 202.66C285.802 202.728 285.988 202.703 286.125 202.594C286.262 202.486 286.329 202.311 286.3 202.138L284.32 190.462C284.295 190.314 284.202 190.187 284.069 190.117C283.937 190.048 283.78 190.044 283.644 190.107L271.948 195.551C271.777 195.631 271.668 195.803 271.671 195.992Z" fill="black"/>
<path fill-rule="evenodd" clip-rule="evenodd" d="M277.435 197.471C277.566 197.56 277.666 197.684 277.721 197.832C277.794 198.02 277.787 198.235 277.702 198.42L274.954 204.411L278.567 205.874L281.312 200.263C281.489 199.9 281.92 199.739 282.292 199.896L284.848 200.976L283.267 191.655L274.008 195.964L277.314 197.404C277.356 197.423 277.397 197.445 277.435 197.471ZM274.194 204.713L277.189 198.185C277.211 198.137 277.213 198.082 277.194 198.033C277.179 197.994 277.154 197.962 277.12 197.939L272.635 195.981L283.699 190.831L285.577 201.897L282.073 200.416C281.976 200.375 281.864 200.417 281.818 200.511L278.843 206.594L274.194 204.713ZM276.746 198.203L273.749 204.736C273.727 204.784 273.725 204.842 273.745 204.892C273.759 204.928 273.785 204.96 273.818 204.982L278.866 207.03C278.961 207.068 279.072 207.026 279.118 206.933L282.091 200.853L285.755 202.401C285.821 202.429 285.897 202.418 285.954 202.374C286.01 202.329 286.038 202.257 286.026 202.186L284.045 190.51C284.035 190.45 283.996 190.395 283.941 190.367C283.888 190.339 283.823 190.337 283.767 190.363L272.071 195.808C272.001 195.84 271.956 195.912 271.957 195.989L271.957 195.99C271.958 196.067 272.002 196.136 272.077 196.168L276.746 198.203ZM273.503 205.45C273.375 205.364 273.277 205.243 273.221 205.1C273.144 204.906 273.15 204.688 273.236 204.501L275.994 198.491L271.85 196.685C271.573 196.564 271.396 196.293 271.393 195.996C271.389 195.697 271.561 195.423 271.832 195.296L283.529 189.851C283.743 189.752 283.995 189.758 284.205 189.868C284.414 189.98 284.563 190.184 284.602 190.416L286.583 202.092C286.629 202.367 286.522 202.645 286.303 202.817C286.087 202.989 285.791 203.029 285.535 202.921L282.364 201.58L279.624 207.181C279.45 207.539 279.023 207.702 278.654 207.552L273.643 205.525C273.593 205.504 273.546 205.479 273.503 205.45Z" fill="black"/>
</svg>
