<?xml version="1.0" encoding="UTF-8"?>
<svg width="11px" height="6px" viewBox="0 0 11 6" version="1.1" xmlns="http://www.w3.org/2000/svg" xmlns:xlink="http://www.w3.org/1999/xlink">
    <!-- Generator: Sketch 56.2 (81672) - https://sketch.com -->
    <title>Icon</title>
    <desc>Created with Sketch.</desc>
    <g id="desktop" stroke="none" stroke-width="1" fill="none" fill-rule="evenodd" opacity="0.8">
        <g id="Desktop-HD" transform="translate(-1359.000000, -17507.000000)" fill="#000000">
            <g id="Footer" transform="translate(0.000000, 17459.000000)">
                <path d="M1366.52009,56.4058529 L1361.68403,51.4545588 C1361.43866,51.2035 1361.43866,50.7965 1361.68403,50.5454412 L1366.52009,45.5941471 C1366.64262,45.4686176 1366.84157,45.4686176 1366.9641,45.5941471 L1367.4081,46.0487059 C1367.53063,46.1742353 1367.53063,46.3777353 1367.4081,46.5032647 L1363.23773,50.7725588 C1363.11521,50.8980882 1363.11521,51.1019118 1363.23773,51.2271176 L1367.4081,55.4967353 C1367.53063,55.6222647 1367.53063,55.8257647 1367.4081,55.9512941 L1366.9641,56.4058529 C1366.84157,56.5313824 1366.64262,56.5313824 1366.52009,56.4058529" id="Icon" transform="translate(1364.500000, 51.000000) scale(-1, 1) rotate(-270.000000) translate(-1364.500000, -51.000000) "></path>
            </g>
        </g>
    </g>
</svg>