<?xml version="1.0" encoding="UTF-8"?>
<svg width="99px" height="99px" viewBox="0 0 99 99" version="1.1" xmlns="http://www.w3.org/2000/svg" xmlns:xlink="http://www.w3.org/1999/xlink">
    <!-- Generator: Sketch 56.2 (81672) - https://sketch.com -->
    <title>Dev icon</title>
    <desc>Created with Sketch.</desc>
    <g id="desktop" stroke="none" stroke-width="1" fill="none" fill-rule="evenodd">
        <g id="Desktop-HD" transform="translate(-201.000000, -4898.000000)">
            <g id="Who-is-Livepeer-For" transform="translate(147.000000, 4650.940886)">
                <g id="Developers" transform="translate(54.000000, 247.059114)">
                    <g id="Dev-icon">
                        <circle id="Oval-Copy" fill="#9FEFE4" cx="49.5" cy="49.5" r="49.5"></circle>
                        <g id="dev-icon" transform="translate(4.000000, 11.000000)" fill="#000000" fill-rule="nonzero">
                            <path d="M35.4641009,56 C35.1129669,56 34.7592635,55.8912265 34.4706482,55.6698224 L24.5395477,48.0525899 C24.1969778,47.7895278 24,47.4053489 24,46.9995697 C24,46.5945618 24.1978342,46.210383 24.5395477,45.9473209 L34.4706482,38.3300884 C35.1155362,37.8348218 36.0841526,37.905023 36.6339771,38.4859201 C37.1829453,39.0675883 37.1058672,39.9400909 36.4601229,40.4345861 L27.9018709,46.9995697 L36.4601229,53.5645532 C37.1058672,54.0598199 37.1829453,54.9323223 36.6339771,55.5132193 C36.3299463,55.8349112 35.8983083,56 35.4641009,56 Z" id="Path"></path>
                            <path d="M52.5355211,56 C52.1012994,56 51.6696471,55.8349112 51.3664626,55.5132193 C50.81662,54.9323223 50.894557,54.0598199 51.5394662,53.5645532 L60.0980004,46.9995697 L51.5394662,40.4345861 C50.894557,39.9400909 50.81662,39.0675883 51.3664626,38.4859201 C51.9154489,37.905023 52.8849539,37.8348218 53.5290065,38.3300884 L63.4604345,45.9473209 C63.8030157,46.210383 64,46.5945618 64,46.9995697 C64,47.4053489 63.8030157,47.7895278 63.4604345,48.0525899 L53.5290065,55.6698224 C53.2403817,55.8912265 52.8866667,56 52.5355211,56 L52.5355211,56 Z" id="Path"></path>
                            <path d="M40.4940807,62 C40.3916913,62 40.2884694,61.9893662 40.1844152,61.9680984 C39.3786191,61.8012287 38.86251,61.0233216 39.0323265,60.2315085 L45.0483274,32.1638619 C45.2181438,31.3720488 46.0089562,30.8648958 46.8155848,31.0317655 C47.6213809,31.1986352 48.13749,31.9757246 47.9676735,32.7683556 L41.9516728,60.836002 C41.8034994,61.5263845 41.1841685,62 40.4940807,62 L40.4940807,62 Z" id="Path"></path>
                            <path d="M78.245283,78 L9.75471698,78 C4.37632675,78 0,73.6042226 0,68.2001128 L0,9.79988721 C0,4.39659179 4.37632675,0 9.75471698,0 L78.245283,0 C83.6236732,0 88,4.39659179 88,9.79988721 L88,68.2001128 C88,73.6042226 83.6236732,78 78.245283,78 Z M9.75471698,2.91911534 C5.97833147,2.91911534 2.90566038,6.00601476 2.90566038,9.79988721 L2.90566038,68.2001128 C2.90566038,71.9939852 5.97833147,75.0808847 9.75471698,75.0808847 L78.245283,75.0808847 C82.0216685,75.0808847 85.0943396,71.9939852 85.0943396,68.2001128 L85.0943396,9.79988721 C85.0943396,6.00601476 82.0216685,2.91911534 78.245283,2.91911534 L9.75471698,2.91911534 Z" id="Shape"></path>
                            <path d="M86.5471698,23 L1.45283019,23 C0.650206264,23 0,22.3286829 0,21.5 C0,20.6721539 0.650206264,20 1.45283019,20 L86.5471698,20 C87.3497937,20 88,20.6721539 88,21.5 C88,22.3286829 87.3497937,23 86.5471698,23 Z" id="Path"></path>
                            <path d="M24.5,16 C22.0194851,16 20,13.980515 20,11.5 C20,9.01869157 22.0194851,7 24.5,7 C26.9813084,7 29,9.01869157 29,11.5 C29,13.980515 26.9813084,16 24.5,16 Z M24.4999999,9.84394284 C23.5874625,9.84394284 22.8439429,10.586669 22.8439429,11.5 C22.8439429,12.413331 23.5874625,13.1560572 24.4999999,13.1560572 C25.4133309,13.1560572 26.1560571,12.413331 26.1560571,11.5 C26.1560571,10.586669 25.4133309,9.84394284 24.4999999,9.84394284 Z" id="Shape"></path>
                            <path d="M10.5,16 C8.01869161,16 6,13.9813084 6,11.5 C6,9.01869161 8.01869161,7 10.5,7 C12.9813084,7 15,9.01869161 15,11.5 C15,13.9813084 12.9813084,16 10.5,16 Z M10.4999999,9.8439429 C9.58746252,9.8439429 8.8439429,10.5874625 8.8439429,11.4999999 C8.8439429,12.4133309 9.58746252,13.1560571 10.4999999,13.1560571 C11.4133309,13.1560571 12.1560571,12.4133309 12.1560571,11.4999999 C12.1560571,10.5874625 11.4133309,9.8439429 10.4999999,9.8439429 Z" id="Shape"></path>
                            <path d="M38.4996031,16 C36.0188696,16 34,13.9811304 34,11.4996032 C34,9.01886955 36.0188696,7 38.4996031,7 C40.9811304,7 43,9.01886955 43,11.4996032 C43,13.9811304 40.9811304,16 38.4996031,16 Z M38.4996031,9.84340006 C37.5869853,9.84340006 36.8441936,10.5861917 36.8441936,11.4996032 C36.8441936,12.4130148 37.5869853,13.1558064 38.4996031,13.1558064 C39.4130147,13.1558064 40.1558064,12.4130148 40.1558064,11.4996032 C40.1558064,10.5861917 39.4130147,9.84340006 38.4996031,9.84340006 Z" id="Shape"></path>
                        </g>
                    </g>
                </g>
            </g>
        </g>
    </g>
</svg>