<?xml version="1.0" encoding="UTF-8"?>
<svg width="842px" height="599px" viewBox="0 0 842 599" version="1.1" xmlns="http://www.w3.org/2000/svg" xmlns:xlink="http://www.w3.org/1999/xlink">
    <!-- Generator: Sketch 56.2 (81672) - https://sketch.com -->
    <title>Group 2</title>
    <desc>Created with Sketch.</desc>
    <defs>
        <polygon id="path-1" points="0.000146895659 0.144715334 531.24456 0.144715334 531.24456 470.562792 0.000146895659 470.562792"></polygon>
        <polygon id="path-3" points="0 0.0735513635 884.692 0.0735513635 884.692 668.7996 0 668.7996"></polygon>
        <polygon id="path-5" points="0 677.3816 884.692 677.3816 884.692 0 0 0"></polygon>
    </defs>
    <g id="desktop" stroke="none" stroke-width="1" fill="none" fill-rule="evenodd">
        <g id="Desktop-HD" transform="translate(0.000000, -6934.000000)">
            <g id="How-Livepeer-Works" transform="translate(-452.000000, 5487.000000)">
                <g id="Devices" transform="translate(0.000000, 1447.000000)">
                    <g id="Group-2">
                        <g id="illu/comp" transform="translate(762.000000, 108.000000)">
                            <g id="Group-229">
                                <polygon id="Fill-1" fill="#8A92D7" points="1.424304 288.414588 3.978744 298.949868 283.503024 489.584508 464.719584 357.062748 466.794384 344.130948 444.922464 358.339548 282.482424 470.410668 1.105104 282.028068"></polygon>
                                <polygon id="Fill-2" fill="#A6ADEB" points="183.48414 213.537912 201.68358 1.846152 530.23698 55.487712 467.9745 343.090272 283.34334 470.249472 1.00842 281.308272"></polygon>
                                <g id="Group-228" transform="translate(0.000000, 0.695520)">
                                    <g id="Group-5">
                                        <mask id="mask-2" fill="white">
                                            <use xlink:href="#path-1"></use>
                                        </mask>
                                        <g id="Clip-4"></g>
                                        <path d="M3.20754,280.870632 L283.33494,468.335952 L467.07318,341.791632 L529.02654,55.615392 L202.59498,2.320752 L184.48794,212.928912 C184.45518,213.316992 184.20066,213.651312 183.83526,213.787392 L3.20754,280.870632 Z M283.34334,470.562792 C283.14762,470.562792 282.9519,470.505672 282.78306,470.391432 L0.44814,281.450232 C0.13314,281.240232 -0.03738,280.870632 0.00714,280.494312 C0.05166,280.118832 0.30282,279.799632 0.6573,279.667752 L182.5341,212.119992 L200.67978,1.064952 C200.7033,0.785232 200.84274,0.528192 201.0645,0.355152 C201.28542,0.182952 201.57018,0.115752 201.8457,0.156072 L530.3991,53.796792 C530.67126,53.842152 530.91402,53.995872 531.07026,54.224352 C531.22566,54.452832 531.28026,54.735072 531.2223,55.005552 L468.95982,342.608112 C468.90522,342.859272 468.75738,343.080192 468.5457,343.225512 L283.91538,470.384712 C283.74234,470.502312 283.54326,470.562792 283.34334,470.562792 L283.34334,470.562792 Z" id="Fill-3" fill="#000000" mask="url(#mask-2)"></path>
                                    </g>
                                    <polygon id="Fill-6" fill="#D4B9E4" points="192.104808 209.489784 456.479688 325.872624 512.516088 67.244184 210.065688 11.926824"></polygon>
                                    <path d="M193.174548,208.858944 L455.756868,324.452184 L511.310268,68.048064 L210.969948,13.117104 L193.174548,208.858944 Z M456.480108,326.880624 C456.342348,326.880624 456.203748,326.852064 456.074388,326.794944 L191.698668,210.412944 C191.302188,210.238224 191.061108,209.829144 191.100588,209.399064 L209.061468,11.835264 C209.086668,11.553024 209.230308,11.295144 209.456268,11.123784 C209.681388,10.952424 209.972028,10.885224 210.246708,10.934784 L512.697948,66.252144 C512.965908,66.301704 513.203628,66.457944 513.354828,66.684744 C513.506868,66.912384 513.558948,67.191264 513.501828,67.457544 L457.465428,326.085984 C457.401588,326.381664 457.207548,326.632824 456.937908,326.770584 C456.794268,326.843664 456.637188,326.880624 456.480108,326.880624 L456.480108,326.880624 Z" id="Fill-8" fill="#000000"></path>
                                    <path d="M283.104612,489.72 C282.792132,489.72 282.484692,489.57468 282.287292,489.30252 C281.961372,488.85228 282.062172,488.22144 282.513252,487.89552 L464.188452,356.41956 L466.831932,342.98292 L183.066492,213.75984 C182.559972,213.52884 182.335692,212.93076 182.566692,212.42508 C182.797692,211.91772 183.395772,211.69092 183.901452,211.92528 L468.391812,341.47764 C468.816852,341.67168 469.053732,342.132 468.963852,342.5898 L466.090212,357.1974 C466.040652,357.44772 465.897852,357.67032 465.691212,357.81984 L283.694292,489.52764 C283.516212,489.65784 283.309572,489.72 283.104612,489.72" id="Fill-10" fill="#000000"></path>
                                    <path d="M90.943104,260.932392 L330.968904,404.663112 L430.966704,337.997352 L187.755624,223.517112 L90.943104,260.932392 Z M330.997464,406.863912 C330.818544,406.863912 330.639624,406.816032 330.480024,406.720272 L88.135824,261.601032 C87.805704,261.403632 87.616704,261.034032 87.649464,260.650152 C87.682224,260.266272 87.930864,259.935312 88.290384,259.795872 L187.431384,221.480952 C187.689264,221.382672 187.975704,221.392752 188.224344,221.508672 L433.440504,336.933912 C433.769784,337.088472 433.990704,337.408512 434.019511,337.771392 C434.043624,338.133432 433.873104,338.482872 433.571544,338.684472 L331.556904,406.693392 C331.388064,406.806792 331.193184,406.863912 330.997464,406.863912 L330.997464,406.863912 Z" id="Fill-12" fill="#000000"></path>
                                    <path d="M117.397308,327.444936 L171.101028,365.870736 L208.782588,344.986656 L151.354308,309.787296 L117.397308,327.444936 Z M171.032148,368.069016 C170.824668,368.069016 170.619708,368.006016 170.444988,367.880856 L114.888228,328.127856 C114.602628,327.924576 114.443868,327.586896 114.469068,327.237456 C114.493428,326.888016 114.698388,326.576376 115.009188,326.414256 L150.930108,307.736016 C151.244268,307.573056 151.621428,307.586496 151.922148,307.770456 L211.310148,344.170176 C211.615908,344.358336 211.799028,344.693496 211.790905,345.052176 C211.783068,345.410856 211.585668,345.737616 211.272348,345.911496 L171.521028,367.943016 C171.368148,368.027856 171.200148,368.069016 171.032148,368.069016 L171.032148,368.069016 Z" id="Fill-14" fill="#000000"></path>
                                    <path d="M283.103772,489.72 C282.903852,489.72 282.703092,489.66036 282.531732,489.54192 L4.267452,297.96648 C4.060812,297.82368 3.913812,297.60864 3.856692,297.3642 L0.026292,280.84056 C-0.098868,280.29792 0.237972,279.75612 0.779772,279.63096 C1.325772,279.50496 1.863372,279.84348 1.990212,280.38444 L5.732412,296.52756 L282.119292,486.81024 L282.335172,469.54236 C282.342732,468.9888 282.792132,468.54612 283.343172,468.54612 L283.355772,468.54612 C283.912692,468.55368 284.357892,469.01064 284.351247,469.56672 L284.111772,488.72376 C284.106732,489.09672 283.897572,489.43608 283.567452,489.6066 C283.421292,489.6822 283.261692,489.72 283.103772,489.72" id="Fill-16" fill="#000000"></path>
                                    <path d="M425.348448,344.121876 C425.203968,344.121876 425.056968,344.090796 424.917528,344.024436 L178.263288,227.163636 C177.760128,226.925076 177.545088,226.324476 177.783648,225.821316 C178.021368,225.317316 178.621128,225.102276 179.125968,225.342516 L425.781048,342.203316 C426.283368,342.441036 426.498408,343.042476 426.259848,343.544796 C426.087648,343.908516 425.725608,344.121876 425.348448,344.121876" id="Fill-18" fill="#000000"></path>
                                    <path d="M390.065928,367.43028 C389.910528,367.43028 389.754288,367.395 389.607288,367.3194 L142.155048,240.56004 C141.659448,240.30552 141.463728,239.6982 141.717408,239.20344 C141.971928,238.70784 142.580928,238.51212 143.074008,238.76496 L390.526248,365.52432 C391.021848,365.77884 391.217568,366.38616 390.963888,366.88176 C390.784968,367.23036 390.432168,367.43028 390.065928,367.43028" id="Fill-20" fill="#000000"></path>
                                    <path d="M403.476444,357.851508 C403.324404,357.851508 403.171524,357.817068 403.026204,357.744828 L157.808364,235.135908 C157.310244,234.887268 157.108644,234.281628 157.358124,233.783508 C157.606764,233.286228 158.212404,233.086308 158.710524,233.333268 L403.928364,355.942188 C404.426484,356.189988 404.628084,356.796468 404.378604,357.294588 C404.202204,357.647388 403.846044,357.851508 403.476444,357.851508" id="Fill-22" fill="#000000"></path>
                                    <path d="M370.589268,380.52168 C370.426308,380.52168 370.260828,380.4822 370.107948,380.39904 L125.529348,247.25316 C125.040468,246.98688 124.859868,246.37536 125.126148,245.88564 C125.393268,245.3976 126.006468,245.21784 126.493668,245.48244 L371.072268,378.62832 C371.561148,378.8946 371.741748,379.50612 371.475468,379.99584 C371.292348,380.331 370.946268,380.52168 370.589268,380.52168" id="Fill-24" fill="#000000"></path>
                                    <path d="M352.389828,392.01582 C352.220988,392.01582 352.049628,391.97298 351.891708,391.88394 L108.909948,253.63002 C108.425268,253.3545 108.256428,252.73878 108.531948,252.25494 C108.807468,251.77194 109.424028,251.6031 109.907028,251.87778 L352.889628,390.1317 C353.373468,390.40722 353.542308,391.0221 353.266788,391.50678 C353.081148,391.8327 352.740108,392.01582 352.389828,392.01582" id="Fill-26" fill="#000000"></path>
                                    <path d="M296.83416,386.268708 C296.48808,386.268708 296.15124,386.089788 295.96392,385.769748 C295.68252,385.289268 295.84296,384.672708 296.32428,384.391308 L318.67416,371.300748 C319.15296,371.017668 319.77288,371.179788 320.05344,371.660268 C320.33484,372.141588 320.17356,372.758148 319.69308,373.039548 L297.34236,386.130108 C297.18276,386.224188 297.0072,386.268708 296.83416,386.268708" id="Fill-28" fill="#000000"></path>
                                    <path d="M275.441208,374.135496 C275.104368,374.135496 274.774248,373.966656 274.583568,373.658376 C274.290408,373.185456 274.436568,372.563856 274.909488,372.270696 L313.544448,348.323976 C314.015688,348.030816 314.638968,348.175296 314.932128,348.649896 C315.225288,349.122816 315.079128,349.744416 314.606208,350.037576 L275.971248,373.983456 C275.806608,374.085936 275.622648,374.135496 275.441208,374.135496" id="Fill-30" fill="#000000"></path>
                                    <path d="M256.60278,362.641272 C256.25334,362.641272 255.91398,362.458992 255.7275,362.134752 C255.4503,361.651752 255.61746,361.036032 256.09962,360.758832 L295.05378,338.407272 C295.53678,338.132592 296.15334,338.298912 296.43054,338.780232 C296.70774,339.263232 296.54058,339.878952 296.05842,340.156152 L257.10426,362.507712 C256.9455,362.597592 256.7733,362.641272 256.60278,362.641272" id="Fill-32" fill="#000000"></path>
                                    <path d="M228.505368,346.038168 C228.141648,346.038168 227.789688,345.840768 227.610768,345.495528 C227.353728,345.002448 227.544408,344.393448 228.038328,344.135568 L250.708248,332.321808 C251.201328,332.065608 251.811168,332.257128 252.068208,332.750208 C252.324408,333.244128 252.133728,333.852288 251.639808,334.110168 L228.970728,345.923928 C228.822048,346.001208 228.662448,346.038168 228.505368,346.038168" id="Fill-34" fill="#000000"></path>
                                    <path d="M141.338148,293.673492 C140.950068,293.673492 140.580468,293.448372 140.414148,293.070372 C140.190708,292.561332 140.421708,291.966612 140.932428,291.742332 L162.005508,282.483012 C162.512028,282.257052 163.110108,282.490572 163.333548,283.000452 C163.556988,283.509492 163.325988,284.104212 162.815268,284.328492 L141.742188,293.587812 C141.611148,293.646612 141.473388,293.673492 141.338148,293.673492" id="Fill-36" fill="#000000"></path>
                                    <path d="M120.583428,281.221164 C120.186108,281.221164 119.809788,280.985124 119.651028,280.594524 C119.440188,280.079604 119.687148,279.490764 120.202068,279.279924 L141.275148,270.659844 C141.790068,270.446484 142.378908,270.695964 142.588908,271.210884 C142.799748,271.725804 142.552788,272.313804 142.037868,272.524644 L120.964788,281.145564 C120.840468,281.197644 120.710268,281.221164 120.583428,281.221164" id="Fill-38" fill="#000000"></path>
                                    <path d="M107.172996,273.5586 C106.775676,273.5586 106.399356,273.32256 106.240596,272.93196 C106.029756,272.41704 106.276716,271.8282 106.791636,271.61736 L127.864716,262.99644 C128.379636,262.78308 128.969316,263.03256 129.178476,263.54748 C129.389316,264.0624 129.142356,264.65124 128.627436,264.86124 L107.554356,273.483 C107.430036,273.53508 107.299836,273.5586 107.172996,273.5586" id="Fill-40" fill="#000000"></path>
                                    <path d="M345.686208,367.111164 C345.362808,367.111164 345.046128,366.955764 344.851248,366.669324 C344.538768,366.208164 344.658888,365.581524 345.119208,365.269044 L363.957888,352.497684 C364.420728,352.184364 365.045688,352.305324 365.358168,352.765644 C365.670648,353.226804 365.549688,353.853444 365.090208,354.165924 L346.251528,366.937284 C346.077648,367.054884 345.880248,367.111164 345.686208,367.111164" id="Fill-42" fill="#000000"></path>
                                    <path d="M359.734872,352.423512 C359.416512,352.423512 359.103192,352.273152 358.907472,351.991752 C358.589112,351.535632 358.700832,350.907312 359.157792,350.588112 L372.886752,341.009592 C373.341192,340.691232 373.971192,340.801272 374.290392,341.259912 C374.608752,341.716032 374.497032,342.344352 374.040072,342.663552 L360.311112,352.242072 C360.135552,352.364712 359.933952,352.423512 359.734872,352.423512" id="Fill-44" fill="#000000"></path>
                                    <path d="M363.566616,338.055732 C363.235656,338.055732 362.912256,337.893612 362.719056,337.594572 C362.417496,337.127532 362.551056,336.502572 363.018936,336.201012 L383.772816,322.790412 C384.238176,322.488852 384.863976,322.621572 385.166376,323.090292 C385.467936,323.557332 385.334376,324.181452 384.866496,324.483852 L364.112616,337.894452 C363.943776,338.003652 363.754776,338.055732 363.566616,338.055732" id="Fill-46" fill="#000000"></path>
                                    <path d="M324.612372,355.936056 C324.282252,355.936056 323.959692,355.774776 323.766492,355.477416 C323.463252,355.010376 323.595132,354.386256 324.062172,354.083016 L343.219212,341.630856 C343.685412,341.325096 344.310372,341.458656 344.614452,341.925696 C344.917692,342.392736 344.785812,343.016856 344.318772,343.320096 L325.160892,355.773096 C324.991212,355.883976 324.801372,355.936056 324.612372,355.936056" id="Fill-48" fill="#000000"></path>
                                    <path d="M339.939096,341.567436 C339.600576,341.567436 339.269616,341.396916 339.079776,341.086956 C338.788296,340.611516 338.936976,339.991596 339.410736,339.700116 L353.459736,331.080036 C353.936016,330.789396 354.554256,330.937236 354.845736,331.410996 C355.137216,331.886436 354.988536,332.506356 354.514776,332.797836 L340.465776,341.417916 C340.301136,341.518716 340.118856,341.567436 339.939096,341.567436" id="Fill-50" fill="#000000"></path>
                                    <path d="M343.450884,328.157844 C343.116564,328.157844 342.788964,327.991524 342.597444,327.687444 C342.300924,327.217044 342.441204,326.594604 342.911604,326.297244 L363.665484,313.205844 C364.138404,312.907644 364.760004,313.050444 365.056524,313.520004 C365.353044,313.991244 365.212764,314.613684 364.742364,314.910204 L343.988484,328.001604 C343.820484,328.107444 343.634844,328.157844 343.450884,328.157844" id="Fill-52" fill="#000000"></path>
                                    <path d="M399.64638,331.988664 C399.3087,331.988664 398.97774,331.818144 398.78706,331.509024 C398.49558,331.034424 398.64342,330.413664 399.11718,330.121344 L407.4189,325.013304 C407.89266,324.723504 408.51342,324.868824 408.80574,325.344264 C409.09722,325.818024 408.94938,326.439624 408.47562,326.731104 L400.1739,331.839144 C400.00926,331.939944 399.82698,331.988664 399.64638,331.988664" id="Fill-54" fill="#000000"></path>
                                    <path d="M379.850604,322.409892 C379.512924,322.409892 379.181964,322.239372 378.991284,321.930252 C378.699804,321.455652 378.847644,320.834892 379.321404,320.542572 L387.623124,315.434532 C388.096884,315.145572 388.717644,315.290892 389.009964,315.765492 C389.301444,316.239252 389.153604,316.860852 388.679844,317.152332 L380.378124,322.260372 C380.213484,322.361172 380.031204,322.409892 379.850604,322.409892" id="Fill-56" fill="#000000"></path>
                                    <path d="M360.69306,313.470108 C360.33438,313.470108 359.98662,313.277748 359.80434,312.940068 C359.54058,312.449508 359.72454,311.838828 360.21426,311.574228 L368.51598,307.104588 C369.00738,306.839988 369.61722,307.023948 369.88098,307.513668 C370.14558,308.004228 369.96162,308.615748 369.4719,308.879508 L361.17018,313.349148 C361.01814,313.431468 360.85434,313.470108 360.69306,313.470108" id="Fill-58" fill="#000000"></path>
                                    <path d="M342.49278,304.8486 C342.12318,304.8486 341.76702,304.64448 341.59062,304.29084 C341.34114,303.79272 341.54274,303.18708 342.0417,302.93928 L350.98182,298.4688 C351.47742,298.22184 352.08558,298.42176 352.33422,298.91988 C352.5837,299.418 352.38126,300.02364 351.88314,300.27228 L342.94218,304.74192 C342.7977,304.81416 342.64482,304.8486 342.49278,304.8486" id="Fill-60" fill="#000000"></path>
                                    <path d="M304.816596,345.080064 C304.472196,345.080064 304.135356,344.902824 303.948036,344.584464 C303.664956,344.104824 303.823716,343.487424 304.303356,343.204344 L323.779596,331.709784 C324.259236,331.425864 324.878316,331.585464 325.160556,332.065104 C325.443636,332.544744 325.284036,333.162144 324.805236,333.445224 L305.328156,344.939784 C305.167716,345.034704 304.990476,345.080064 304.816596,345.080064" id="Fill-62" fill="#000000"></path>
                                    <path d="M320.461596,331.988664 C320.129796,331.988664 319.805556,331.825704 319.612356,331.524984 C319.311636,331.057944 319.447716,330.432984 319.916436,330.132264 L333.326196,321.511344 C333.792396,321.211464 334.418196,321.345864 334.719756,321.815424 C335.020476,322.282464 334.884396,322.906584 334.415676,323.208144 L321.005076,331.829064 C320.837076,331.936584 320.648916,331.988664 320.461596,331.988664" id="Fill-64" fill="#000000"></path>
                                    <path d="M324.932328,318.898104 C324.583728,318.898104 324.244368,318.716664 324.057888,318.392424 C323.779848,317.910264 323.946168,317.294544 324.428328,317.016504 L345.501408,304.882704 C345.982728,304.603824 346.600968,304.770984 346.878168,305.253984 C347.156208,305.736144 346.989888,306.351864 346.507728,306.630744 L325.434648,318.763704 C325.275888,318.854424 325.102848,318.898104 324.932328,318.898104" id="Fill-66" fill="#000000"></path>
                                    <path d="M286.616316,335.182176 C286.250916,335.182176 285.898956,334.983096 285.720036,334.636176 C285.464676,334.141416 285.658716,333.533256 286.153476,333.277896 L306.588156,322.740936 C307.081236,322.486416 307.690236,322.679616 307.946436,323.175216 C308.200956,323.669976 308.006916,324.278136 307.512156,324.532656 L287.077476,335.069616 C286.929636,335.146056 286.772556,335.182176 286.616316,335.182176" id="Fill-68" fill="#000000"></path>
                                    <path d="M300.984936,322.090776 C300.637176,322.090776 300.298656,321.910176 300.111336,321.586776 C299.833296,321.104616 299.997936,320.488896 300.479256,320.210016 L314.848296,311.908296 C315.330456,311.631936 315.947016,311.794056 316.225896,312.276216 C316.503936,312.759216 316.338456,313.374936 315.857136,313.653816 L301.488936,321.955536 C301.329336,322.047096 301.156296,322.090776 300.984936,322.090776" id="Fill-70" fill="#000000"></path>
                                    <path d="M260.115324,338.69388 C259.770084,338.69388 259.433244,338.5158 259.245924,338.1966 C258.963684,337.71696 259.123284,337.09956 259.603764,336.81732 L275.887164,327.23796 C276.367644,326.9574 276.985044,327.11784 277.267284,327.5958 C277.549524,328.07544 277.389084,328.69368 276.909444,328.97592 L260.625204,338.55444 C260.464764,338.64852 260.289204,338.69388 260.115324,338.69388" id="Fill-72" fill="#000000"></path>
                                    <path d="M268.09776,325.283448 C267.7416,325.283448 267.3972,325.094448 267.21324,324.760968 C266.94528,324.273768 267.12336,323.659728 267.6114,323.391768 L286.76928,312.855648 C287.25816,312.586848 287.86968,312.766608 288.13764,313.253808 C288.40644,313.741008 288.22836,314.354208 287.74032,314.623008 L268.58244,325.159128 C268.42872,325.243128 268.26156,325.283448 268.09776,325.283448" id="Fill-74" fill="#000000"></path>
                                    <path d="M203.919828,272.28138 C203.535108,272.28138 203.167188,272.05962 202.999188,271.68582 C202.771548,271.17846 202.998348,270.58206 203.506548,270.35358 L219.151548,263.32866 C219.656388,263.09934 220.254468,263.32698 220.483788,263.83518 C220.711428,264.34338 220.484628,264.93978 219.976428,265.16742 L204.331428,272.19318 C204.197868,272.25282 204.057588,272.28138 203.919828,272.28138" id="Fill-76" fill="#000000"></path>
                                    <path d="M189.551208,264.298944 C189.168168,264.298944 188.801088,264.078864 188.632248,263.707584 C188.402928,263.201064 188.626368,262.602984 189.133728,262.372824 L203.183568,255.986304 C203.686728,255.756144 204.287328,255.981264 204.517488,256.487784 C204.747648,256.994304 204.523368,257.592384 204.016848,257.822544 L189.967008,264.209064 C189.832608,264.270384 189.690648,264.298944 189.551208,264.298944" id="Fill-78" fill="#000000"></path>
                                    <path d="M176.140776,257.274612 C175.757736,257.274612 175.390656,257.054532 175.221816,256.683252 C174.992496,256.176732 175.215936,255.578652 175.723296,255.348492 L189.773136,248.961972 C190.277136,248.732652 190.876896,248.956932 191.107056,249.463452 C191.337216,249.969972 191.112936,250.568052 190.606416,250.798212 L176.556576,257.184732 C176.422176,257.246052 176.280216,257.274612 176.140776,257.274612" id="Fill-80" fill="#000000"></path>
                                    <path d="M162.411144,250.888512 C162.028104,250.888512 161.661024,250.668432 161.492184,250.297152 C161.262864,249.790632 161.486304,249.192552 161.993664,248.962392 L176.043504,242.575872 C176.546664,242.344872 177.147264,242.570832 177.377424,243.077352 C177.607584,243.583872 177.383304,244.181952 176.876784,244.412112 L162.826944,250.798632 C162.692544,250.859952 162.550584,250.888512 162.411144,250.888512" id="Fill-82" fill="#000000"></path>
                                    <path d="M148.042608,259.190064 C147.642768,259.190064 147.263928,258.950664 147.106848,258.555864 C146.900208,258.039264 147.151368,257.452944 147.668808,257.246304 L165.229848,250.221384 C165.743928,250.013904 166.333608,250.265904 166.540248,250.783344 C166.746888,251.299944 166.494888,251.887104 165.978288,252.093744 L148.416408,259.117824 C148.294608,259.167384 148.166928,259.190064 148.042608,259.190064" id="Fill-84" fill="#000000"></path>
                                    <path d="M161.133084,266.533512 C160.733244,266.533512 160.354404,266.294112 160.197324,265.899312 C159.990684,265.382712 160.241844,264.796392 160.759284,264.589752 L178.320324,257.564832 C178.834404,257.359872 179.424084,257.610192 179.630724,258.126792 C179.837364,258.643392 179.585364,259.230552 179.068764,259.437192 L161.506884,266.461272 C161.385084,266.510832 161.257404,266.533512 161.133084,266.533512" id="Fill-86" fill="#000000"></path>
                                    <path d="M174.5436,273.5586 C174.14376,273.5586 173.76492,273.3192 173.60784,272.9244 C173.4012,272.4078 173.65236,271.82148 174.1698,271.61484 L191.73084,264.58908 C192.24576,264.38412 192.83376,264.63444 193.04124,265.15104 C193.24788,265.66764 192.99588,266.2548 192.47928,266.46144 L174.9174,273.48636 C174.7956,273.53592 174.66792,273.5586 174.5436,273.5586" id="Fill-88" fill="#000000"></path>
                                    <path d="M188.593104,281.221164 C188.193264,281.221164 187.814424,280.981764 187.657344,280.586964 C187.450704,280.070364 187.701864,279.484044 188.219304,279.277404 L205.779504,272.252484 C206.293584,272.046684 206.882424,272.297844 207.089904,272.814444 C207.296544,273.331044 207.044544,273.918204 206.527944,274.124844 L188.966904,281.148924 C188.845104,281.198484 188.717424,281.221164 188.593104,281.221164" id="Fill-90" fill="#000000"></path>
                                    <path d="M203.599872,288.884568 C203.200032,288.884568 202.821192,288.645168 202.664112,288.250368 C202.457472,287.733768 202.708632,287.147448 203.226072,286.940808 L220.786272,279.915888 C221.300352,279.710088 221.890032,279.960408 222.096672,280.477848 C222.303312,280.994448 222.051312,281.581608 221.534712,281.788248 L203.973672,288.812328 C203.851872,288.861888 203.724192,288.884568 203.599872,288.884568" id="Fill-92" fill="#000000"></path>
                                    <path d="M219.245712,297.824268 C218.881152,297.824268 218.529192,297.626028 218.350272,297.280788 C218.094072,296.786028 218.286432,296.177028 218.780352,295.920828 L236.023032,286.981548 C236.516112,286.722828 237.125112,286.917708 237.382152,287.411628 C237.638352,287.906388 237.445152,288.515388 236.951232,288.771588 L219.709392,297.710868 C219.560712,297.788148 219.401952,297.824268 219.245712,297.824268" id="Fill-94" fill="#000000"></path>
                                    <path d="M235.5297,306.445776 C235.16514,306.445776 234.81318,306.247536 234.63426,305.902296 C234.37806,305.407536 234.57042,304.799376 235.06434,304.542336 L252.30702,295.602216 C252.80094,295.344336 253.4091,295.540056 253.66614,296.033136 C253.92234,296.527056 253.72914,297.135216 253.23522,297.392256 L235.99338,306.332376 C235.8447,306.409656 235.68594,306.445776 235.5297,306.445776" id="Fill-96" fill="#000000"></path>
                                    <path d="M252.132888,315.066444 C251.768328,315.066444 251.416368,314.868204 251.237448,314.522964 C250.981248,314.028204 251.173608,313.420044 251.667528,313.163004 L268.910208,304.222884 C269.404968,303.964164 270.012288,304.159884 270.269328,304.653804 C270.525528,305.147724 270.332328,305.755884 269.838408,306.012924 L252.596568,314.953044 C252.447888,315.030324 252.289128,315.066444 252.132888,315.066444" id="Fill-98" fill="#000000"></path>
                                    <path d="M242.235,328.795992 C241.87044,328.795992 241.51848,328.597752 241.33956,328.252512 C241.08336,327.757752 241.27572,327.149592 241.76964,326.892552 L259.01232,317.952432 C259.50708,317.693712 260.1144,317.889432 260.37144,318.383352 C260.62764,318.877272 260.43444,319.485432 259.94052,319.742472 L242.69868,328.682592 C242.55,328.759872 242.39124,328.795992 242.235,328.795992" id="Fill-100" fill="#000000"></path>
                                    <path d="M224.992824,319.536336 C224.628264,319.536336 224.276304,319.338096 224.097384,318.992856 C223.841184,318.498096 224.033544,317.889096 224.527464,317.632896 L241.770144,308.693616 C242.262384,308.437416 242.871384,308.629776 243.129264,309.123696 C243.385464,309.618456 243.192264,310.227456 242.698344,310.483656 L225.456504,319.422936 C225.307824,319.500216 225.149064,319.536336 224.992824,319.536336" id="Fill-102" fill="#000000"></path>
                                    <path d="M209.028708,310.915668 C208.664148,310.915668 208.312188,310.717428 208.133268,310.372188 C207.877068,309.877428 208.069428,309.269268 208.563348,309.012228 L225.805188,300.072108 C226.299108,299.813388 226.906428,300.008268 227.164308,300.503028 C227.420508,300.996948 227.227308,301.605108 226.733388,301.862148 L209.492388,310.802268 C209.343708,310.879548 209.184948,310.915668 209.028708,310.915668" id="Fill-104" fill="#000000"></path>
                                    <path d="M193.063752,301.01778 C192.677352,301.01778 192.309432,300.79434 192.141432,300.41886 C191.915472,299.91066 192.144792,299.3151 192.653832,299.0883 L209.895672,291.42498 C210.406392,291.19818 211.001112,291.42918 211.226232,291.93654 C211.453032,292.44558 211.222872,293.04114 210.714672,293.2671 L193.471992,300.93042 C193.339272,300.99006 193.199832,301.01778 193.063752,301.01778" id="Fill-106" fill="#000000"></path>
                                    <path d="M179.015088,293.035344 C178.628688,293.035344 178.260768,292.811904 178.092768,292.436424 C177.866808,291.928224 178.096128,291.332664 178.605168,291.105864 L195.846168,283.442544 C196.356888,283.218264 196.951608,283.446744 197.176728,283.954104 C197.403528,284.463144 197.173368,285.058704 196.665168,285.284664 L179.423328,292.947984 C179.290608,293.007624 179.151168,293.035344 179.015088,293.035344" id="Fill-108" fill="#000000"></path>
                                    <path d="M164.00832,285.691056 C163.62192,285.691056 163.254,285.467616 163.086,285.092136 C162.86004,284.583936 163.08936,283.988376 163.5984,283.761576 L180.8394,276.099096 C181.35096,275.873976 181.944,276.103296 182.16996,276.610656 C182.39676,277.119696 182.1666,277.715256 181.6584,277.941216 L164.41656,285.603696 C164.28384,285.663336 164.1444,285.691056 164.00832,285.691056" id="Fill-110" fill="#000000"></path>
                                    <path d="M150.278772,277.389504 C149.892372,277.389504 149.524452,277.166064 149.356452,276.790584 C149.130492,276.282384 149.359812,275.686824 149.868852,275.460024 L167.109852,267.797544 C167.620572,267.573264 168.215292,267.801744 168.440412,268.309104 C168.667212,268.818144 168.437052,269.413704 167.928852,269.639664 L150.687012,277.302144 C150.554292,277.361784 150.414852,277.389504 150.278772,277.389504" id="Fill-112" fill="#000000"></path>
                                    <path d="M137.824764,269.407068 C137.428284,269.407068 137.052804,269.171868 136.893204,268.782948 C136.680684,268.268028 136.926804,267.678348 137.440884,267.466668 L153.725124,260.762628 C154.239204,260.549268 154.828884,260.795388 155.040564,261.310308 C155.253084,261.826068 155.006964,262.414908 154.492884,262.626588 L138.208644,269.330628 C138.083484,269.382708 137.952444,269.407068 137.824764,269.407068" id="Fill-114" fill="#000000"></path>
                                    <path d="M124.734204,262.382736 C124.337724,262.382736 123.962244,262.147536 123.802644,261.758616 C123.590124,261.243696 123.836244,260.654016 124.350324,260.442336 L140.634564,253.737456 C141.147804,253.523256 141.737484,253.770216 141.950004,254.285136 C142.162524,254.800896 141.916404,255.389736 141.402324,255.601416 L125.118084,262.306296 C124.992924,262.358376 124.861884,262.382736 124.734204,262.382736" id="Fill-116" fill="#000000"></path>
                                    <path d="M218.926596,278.98668 C218.543556,278.98668 218.176476,278.7666 218.007636,278.39616 C217.778316,277.8888 218.001756,277.29072 218.508276,277.06056 L232.557276,270.67404 C233.063796,270.4422 233.661876,270.66984 233.892036,271.17468 C234.122196,271.68204 233.897916,272.28012 233.392236,272.51028 L219.343236,278.8968 C219.207996,278.95812 219.066036,278.98668 218.926596,278.98668" id="Fill-118" fill="#000000"></path>
                                    <path d="M233.294376,286.64916 C232.911336,286.64916 232.544256,286.42908 232.375416,286.0578 C232.146096,285.55128 232.369536,284.9532 232.876896,284.72304 L246.926736,278.33652 C247.430736,278.10552 248.030496,278.33064 248.260656,278.838 C248.490816,279.34452 248.266536,279.9426 247.760016,280.17276 L233.710176,286.55928 C233.575776,286.6206 233.433816,286.64916 233.294376,286.64916" id="Fill-120" fill="#000000"></path>
                                    <path d="M249.89832,294.63168 C249.51528,294.63168 249.1482,294.4116 248.97936,294.04116 C248.75004,293.5338 248.97348,292.93572 249.48,292.70556 L263.529,286.31904 C264.03552,286.08804 264.6336,286.31484 264.86376,286.81968 C265.09392,287.32704 264.86964,287.92512 264.36396,288.15528 L250.31496,294.5418 C250.17972,294.60312 250.03776,294.63168 249.89832,294.63168" id="Fill-122" fill="#000000"></path>
                                    <path d="M266.181552,303.252264 C265.798512,303.252264 265.431432,303.032184 265.262592,302.660904 C265.033272,302.154384 265.256712,301.556304 265.764072,301.326144 L279.813912,294.940464 C280.317072,294.709464 280.917672,294.935424 281.147832,295.441944 C281.377992,295.948464 281.153712,296.546544 280.647192,296.776704 L266.597352,303.162384 C266.462952,303.223704 266.320992,303.252264 266.181552,303.252264" id="Fill-124" fill="#000000"></path>
                                    <path d="M283.423644,311.5539 C283.040604,311.5539 282.673524,311.33382 282.504684,310.96254 C282.275364,310.45602 282.498804,309.85794 283.006164,309.62778 L297.055164,303.2421 C297.559164,303.01194 298.158924,303.23706 298.389084,303.74358 C298.619244,304.2501 298.394964,304.84818 297.888444,305.07834 L283.839444,311.46402 C283.705044,311.52534 283.563084,311.5539 283.423644,311.5539" id="Fill-126" fill="#000000"></path>
                                    <path d="M306.412932,309.000216 C306.054252,309.000216 305.706492,308.807856 305.524212,308.470176 C305.260452,307.979616 305.444412,307.368936 305.934132,307.104336 L326.688012,295.928136 C327.180252,295.665216 327.789252,295.847496 328.053852,296.338056 C328.317612,296.828616 328.133652,297.439296 327.643932,297.703896 L306.890052,308.879256 C306.738012,308.961576 306.574212,309.000216 306.412932,309.000216" id="Fill-128" fill="#000000"></path>
                                    <path d="M288.851724,300.378792 C288.493044,300.378792 288.145284,300.186432 287.963004,299.848752 C287.699244,299.358192 287.883204,298.747512 288.372924,298.482912 L309.126804,287.307552 C309.619044,287.046312 310.228044,287.227752 310.492644,287.717472 C310.756404,288.208032 310.572444,288.818712 310.082724,289.083312 L289.328844,300.257832 C289.176804,300.340152 289.013004,300.378792 288.851724,300.378792" id="Fill-130" fill="#000000"></path>
                                    <path d="M272.248536,292.077156 C271.889856,292.077156 271.542096,291.884796 271.359816,291.547116 C271.096056,291.056556 271.280016,290.445876 271.769736,290.181276 L292.523616,279.005916 C293.015856,278.742996 293.624856,278.925276 293.889456,279.415836 C294.153216,279.906396 293.969256,280.517076 293.479536,280.781676 L272.725656,291.956196 C272.573616,292.038516 272.409816,292.077156 272.248536,292.077156" id="Fill-132" fill="#000000"></path>
                                    <path d="M255.964548,284.413836 C255.605868,284.413836 255.258108,284.221476 255.075828,283.883796 C254.812068,283.393236 254.996028,282.782556 255.485748,282.517956 L276.239628,271.342596 C276.731028,271.079676 277.340868,271.262796 277.605468,271.752516 C277.869228,272.243076 277.685268,272.853756 277.195548,273.118356 L256.441668,284.292876 C256.289628,284.375196 256.125828,284.413836 255.964548,284.413836" id="Fill-134" fill="#000000"></path>
                                    <path d="M240.638664,276.432156 C240.275784,276.432156 239.924664,276.235596 239.744904,275.891196 C239.487024,275.398956 239.676864,274.789116 240.169944,274.530396 L260.286264,263.993436 C260.779344,263.738076 261.388344,263.926236 261.647064,264.419316 C261.904104,264.912396 261.714264,265.522236 261.221184,265.780116 L241.105704,276.317076 C240.956184,276.395196 240.795744,276.432156 240.638664,276.432156" id="Fill-136" fill="#000000"></path>
                                    <path d="M225.950928,268.44972 C225.562008,268.44972 225.192408,268.22376 225.026088,267.84576 C224.803488,267.33588 225.036168,266.74116 225.546048,266.51772 L245.980728,257.5776 C246.494808,257.35416 247.086168,257.58768 247.308768,258.09672 C247.531368,258.6066 247.298688,259.20132 246.789648,259.42476 L226.354128,268.36488 C226.222248,268.42284 226.085328,268.44972 225.950928,268.44972" id="Fill-138" fill="#000000"></path>
                                    <path d="M211.263276,261.105432 C210.874356,261.105432 210.504756,260.879472 210.338436,260.501472 C210.115836,259.991592 210.348516,259.396872 210.858396,259.173432 L231.293076,250.234152 C231.807156,250.010712 232.397676,250.243392 232.621116,250.753272 C232.843716,251.263152 232.611036,251.857872 232.101996,252.081312 L211.666476,261.020592 C211.534596,261.078552 211.397676,261.105432 211.263276,261.105432" id="Fill-140" fill="#000000"></path>
                                    <path d="M196.895496,254.720172 C196.506576,254.720172 196.136976,254.494212 195.970656,254.116212 C195.748056,253.606332 195.980736,253.011612 196.490616,252.788172 L216.925296,243.848052 C217.440216,243.625452 218.029896,243.857292 218.253336,244.367172 C218.475936,244.877052 218.243256,245.471772 217.734216,245.695212 L197.298696,254.635332 C197.166816,254.693292 197.029896,254.720172 196.895496,254.720172" id="Fill-142" fill="#000000"></path>
                                    <path d="M183.804096,248.014956 C183.415176,248.014956 183.045576,247.788996 182.879256,247.410996 C182.656656,246.901116 182.889336,246.306396 183.399216,246.082956 L203.833896,237.142836 C204.347976,236.920236 204.938496,237.152916 205.161936,237.661956 C205.384536,238.171836 205.151856,238.766556 204.642816,238.989996 L184.207296,247.930116 C184.075416,247.988076 183.938496,248.014956 183.804096,248.014956" id="Fill-144" fill="#000000"></path>
                                    <path d="M170.712696,241.628772 C170.323776,241.628772 169.954176,241.402812 169.787856,241.024812 C169.565256,240.514932 169.797936,239.920212 170.307816,239.696772 L190.742496,230.757492 C191.256576,230.534892 191.847936,230.766732 192.070536,231.276612 C192.293136,231.786492 192.060456,232.381212 191.551416,232.604652 L171.115896,241.543932 C170.984016,241.601892 170.847096,241.628772 170.712696,241.628772" id="Fill-146" fill="#000000"></path>
                                    <path d="M324.932328,296.867004 C324.619008,296.867004 324.310728,296.721684 324.113328,296.447844 C323.788248,295.995924 323.890728,295.365924 324.342648,295.040844 L332.324328,289.292724 C332.774568,288.967644 333.406248,289.069284 333.731328,289.522044 C334.056408,289.973964 333.953928,290.603964 333.502008,290.929044 L325.520328,296.676324 C325.342248,296.805684 325.136448,296.867004 324.932328,296.867004" id="Fill-148" fill="#000000"></path>
                                    <path d="M308.009268,287.92638 C307.639668,287.92638 307.283508,287.72226 307.107108,287.36946 C306.857628,286.87134 307.059228,286.26486 307.557348,286.01706 L315.220668,282.18498 C315.720468,281.9355 316.324428,282.13794 316.573068,282.63522 C316.822548,283.13334 316.620948,283.73982 316.122828,283.98846 L308.459508,287.8197 C308.314188,287.89194 308.161308,287.92638 308.009268,287.92638" id="Fill-150" fill="#000000"></path>
                                    <path d="M291.72528,279.943944 C291.35568,279.943944 290.99952,279.739824 290.82312,279.387024 C290.57364,278.888904 290.77524,278.282424 291.27336,278.034624 L298.93668,274.202544 C299.43648,273.954744 300.0396,274.154664 300.28908,274.652784 C300.53856,275.150904 300.33696,275.757384 299.83884,276.006024 L292.17552,279.837264 C292.0302,279.909504 291.87732,279.943944 291.72528,279.943944" id="Fill-152" fill="#000000"></path>
                                    <path d="M275.441208,272.919612 C275.071608,272.919612 274.715448,272.715492 274.539048,272.362692 C274.289568,271.864572 274.491168,271.258092 274.989288,271.010292 L282.652608,267.178212 C283.151568,266.929572 283.756368,267.130332 284.005008,267.628452 C284.254488,268.126572 284.052888,268.733052 283.554768,268.981692 L275.891448,272.812932 C275.746128,272.885172 275.593248,272.919612 275.441208,272.919612" id="Fill-154" fill="#000000"></path>
                                    <path d="M260.43444,265.576164 C260.06484,265.576164 259.70868,265.372044 259.53228,265.019244 C259.2828,264.521124 259.4844,263.914644 259.98252,263.666844 L267.64584,259.834764 C268.14564,259.586124 268.7496,259.786884 268.99824,260.285004 C269.24772,260.783124 269.04612,261.389604 268.548,261.638244 L260.88468,265.469484 C260.73936,265.541724 260.58648,265.576164 260.43444,265.576164" id="Fill-156" fill="#000000"></path>
                                    <path d="M245.747544,258.551832 C245.377944,258.551832 245.021784,258.347712 244.845384,257.994912 C244.595904,257.496792 244.797504,256.890312 245.295624,256.642512 L252.958104,252.810432 C253.457064,252.561792 254.061864,252.763392 254.310504,253.260672 C254.559984,253.758792 254.358384,254.365272 253.860264,254.613912 L246.197784,258.445152 C246.052464,258.517392 245.899584,258.551832 245.747544,258.551832" id="Fill-158" fill="#000000"></path>
                                    <path d="M231.69804,251.846616 C231.32844,251.846616 230.97228,251.642496 230.79588,251.289696 C230.5464,250.791576 230.748,250.185096 231.24612,249.937296 L238.90944,246.105216 C239.4084,245.858256 240.0132,246.058176 240.26184,246.555456 C240.51132,247.053576 240.30972,247.660056 239.8116,247.908696 L232.14828,251.739936 C232.00296,251.812176 231.85008,251.846616 231.69804,251.846616" id="Fill-160" fill="#000000"></path>
                                    <path d="M218.287608,245.460432 C217.918008,245.460432 217.561848,245.256312 217.385448,244.903512 C217.135968,244.405392 217.337568,243.798912 217.835688,243.551112 L225.499008,239.719032 C225.997968,239.470392 226.602768,239.671152 226.851408,240.169272 C227.100888,240.667392 226.899288,241.273872 226.401168,241.522512 L218.737848,245.353752 C218.592528,245.425992 218.439648,245.460432 218.287608,245.460432" id="Fill-162" fill="#000000"></path>
                                    <path d="M204.877932,239.71332 C204.508332,239.71332 204.152172,239.5092 203.975772,239.1564 C203.726292,238.65828 203.927892,238.0518 204.426012,237.804 L212.088492,233.97192 C212.588292,233.72328 213.192252,233.92404 213.440892,234.42216 C213.690372,234.92028 213.488772,235.52676 212.990652,235.7754 L205.328172,239.60664 C205.182852,239.67888 205.029972,239.71332 204.877932,239.71332" id="Fill-164" fill="#000000"></path>
                                    <path d="M191.147544,233.008104 C190.777944,233.008104 190.421784,232.803984 190.245384,232.451184 C189.995904,231.953064 190.197504,231.346584 190.695624,231.098784 L198.358944,227.266704 C198.858744,227.019744 199.462704,227.219664 199.711344,227.716944 C199.960824,228.215064 199.759224,228.821544 199.261104,229.070184 L191.597784,232.901424 C191.452464,232.973664 191.299584,233.008104 191.147544,233.008104" id="Fill-166" fill="#000000"></path>
                                    <polygon id="Fill-168" fill="#C8EDFF" points="207.909828 33.718104 390.386388 109.869984 365.002428 224.336784 196.574868 159.999504"></polygon>
                                    <path d="M197.46804,159.44166 L364.39284,223.20438 L389.41476,110.37474 L208.64424,34.93434 L197.46804,159.44166 Z M365.00184,225.1767 C364.9002,225.1767 364.7994,225.15822 364.7028,225.12126 L196.27524,160.78482 C195.92328,160.64958 195.70404,160.2993 195.73764,159.92382 L207.07344,33.64242 C207.09696,33.37614 207.24732,33.13758 207.4758,32.99898 C207.70596,32.86206 207.98736,32.84022 208.23264,32.9427 L390.71004,109.09458 C391.08552,109.25166 391.29468,109.65486 391.20732,110.05218 L365.82252,224.51898 C365.76876,224.7567 365.61588,224.96082 365.4,225.07674 C365.27568,225.1431 365.1396,225.1767 365.00184,225.1767 L365.00184,225.1767 Z" id="Fill-170" fill="#000000"></path>
                                    <path d="M253.675884,123.70638 C246.215844,123.70638 241.448004,125.29566 240.447564,128.17266 C239.336244,131.37054 242.859204,136.20558 250.113444,141.43878 C257.737284,146.9391 268.576644,152.2773 280.634844,156.46974 C292.693044,160.66218 304.505964,163.2015 313.897164,163.6173 C322.830564,164.00958 328.595484,162.40602 329.708484,159.21066 C331.853844,153.03918 316.217244,140.19642 289.521204,130.91274 C277.462164,126.7203 265.649244,124.18098 256.258044,123.76518 C255.365964,123.7257 254.503284,123.70638 253.675884,123.70638 M316.446564,165.35526 C315.603204,165.35526 314.729604,165.33594 313.823244,165.29562 C304.273284,164.87226 292.291524,162.30102 280.082964,158.0565 C267.875244,153.81198 256.882164,148.39482 249.130644,142.80042 C241.115364,137.0187 237.468084,131.62758 238.860804,127.62162 C240.253524,123.6165 246.453564,121.65342 256.331964,122.08686 C265.881924,122.51022 277.864524,125.08146 290.072244,129.32598 C312.790884,137.22618 334.421724,150.77034 331.294404,159.7617 C330.029364,163.40058 324.794484,165.35526 316.446564,165.35526" id="Fill-172" fill="#000000"></path>
                                    <path d="M280.002996,236.991552 C279.810636,236.991552 279.626676,236.950392 279.453636,236.867232 C278.661516,236.485032 278.564916,235.501392 278.463276,234.458112 C278.336436,233.166192 278.186076,232.159032 277.518276,231.927192 C277.037796,231.760872 276.905076,231.809592 276.290196,232.781472 C275.695476,233.721432 274.789956,235.147752 272.652996,234.747072 C270.539556,234.358152 270.159036,232.428672 269.881836,231.020832 C269.607996,229.632312 269.392956,228.770472 268.468956,228.526032 C267.569316,228.293352 266.817516,228.957792 265.666716,230.069112 C264.329436,231.359352 262.659516,232.964592 260.120196,232.403472 C257.406996,231.803712 257.405316,229.290432 257.403636,227.271072 C257.402796,225.293712 257.321316,224.054712 256.215876,223.507872 C254.987796,222.898872 254.053716,223.796832 252.670236,225.349992 C251.566476,226.589832 250.316556,227.997672 248.682756,227.427312 C246.901116,226.808232 247.253076,224.722512 247.536156,223.045032 C247.665516,222.273912 247.883916,220.981152 247.626036,220.721592 C247.581516,220.676232 247.379076,220.609032 246.923796,220.682112 C245.452956,220.911432 244.361796,221.549832 243.399156,222.112632 C241.976196,222.943392 240.365076,223.885032 238.591836,222.066432 C237.187356,220.625832 238.489356,217.863912 241.083276,212.362752 C243.767076,206.668392 247.824276,198.065112 250.219116,187.229112 C251.694996,180.552792 252.219156,164.329032 239.146236,130.693752 C238.827876,129.874752 238.769916,129.720192 238.741356,129.610152 C238.624596,129.161592 238.894236,128.702952 239.343636,128.586192 C239.785476,128.469432 240.238236,128.732352 240.362556,129.170832 C240.396996,129.275832 240.519636,129.588312 240.712836,130.084752 C246.392076,144.699912 255.393516,171.604272 251.859636,187.591152 C249.424476,198.611952 245.319396,207.317712 242.603676,213.078432 C241.009356,216.457752 239.204196,220.287312 239.794716,220.893792 C240.617076,221.739672 241.044636,221.541432 242.551596,220.661952 C243.588156,220.056312 244.880076,219.301152 246.665076,219.021432 C247.607556,218.875272 248.335836,219.048312 248.821356,219.540552 C249.683196,220.413312 249.433716,221.892552 249.191796,223.324752 C249.023796,224.321832 248.793636,225.687672 249.233796,225.841392 C249.767196,226.022832 250.444236,225.323952 251.416116,224.232792 C252.713076,222.775392 254.491356,220.782072 256.960116,222.001752 C259.081116,223.049232 259.082796,225.389472 259.083636,227.270232 C259.085316,229.532352 259.212156,230.482392 260.483076,230.762952 C262.149636,231.130872 263.290356,230.027952 264.499116,228.860352 C265.687716,227.712072 267.038436,226.409232 268.896516,226.901472 C270.885636,227.425632 271.242636,229.239192 271.529916,230.694912 C271.840716,232.270752 272.056596,232.929312 272.956236,233.094792 C273.940716,233.272872 274.271676,232.828512 274.871436,231.882672 C275.418276,231.016632 276.243156,229.702872 278.069316,230.340432 C279.806436,230.944392 280.003836,232.959552 280.134876,234.294312 C280.160076,234.557232 280.195356,234.905832 280.239876,235.162032 C281.120196,234.346392 281.908116,228.166512 282.541476,223.186992 C283.256316,217.581672 284.066076,211.227072 285.405876,206.688552 C285.674676,205.776312 285.926676,204.901032 286.169436,204.058512 C288.466836,196.071792 289.985556,190.795752 297.611076,185.020752 C305.698596,178.896312 328.602876,161.141232 328.833876,160.963152 C329.199276,160.677552 329.727636,160.744752 330.011556,161.112672 C330.296316,161.478912 330.229116,162.006432 329.862036,162.290352 C329.631876,162.469272 306.720876,180.229392 298.624956,186.359712 C291.444636,191.797872 290.066196,196.587552 287.783916,204.523872 C287.540316,205.368912 287.287476,206.247552 287.016996,207.163992 C285.715836,211.573152 284.915316,217.856352 284.208876,223.399512 C283.185756,231.421512 282.584316,235.650912 281.116836,236.602632 C280.717836,236.862192 280.344876,236.991552 280.002996,236.991552" id="Fill-174" fill="#000000"></path>
                                    <path d="M283.563168,221.16528 C283.243128,221.16528 282.938208,220.98216 282.797928,220.67304 C282.769368,220.61004 279.810888,214.06392 268.298688,185.7072 C256.678128,157.07916 267.454488,124.64676 267.564528,124.32168 C267.714048,123.88236 268.190328,123.64464 268.630488,123.79752 C269.069808,123.9462 269.304168,124.42332 269.156328,124.86264 C269.047968,125.181 258.474048,157.038 269.856048,185.07552 C281.343888,213.37428 284.299008,219.91536 284.326728,219.97836 C284.519088,220.40004 284.331768,220.89816 283.909248,221.08968 C283.796688,221.14176 283.679088,221.16528 283.563168,221.16528" id="Fill-176" fill="#000000"></path>
                                    <path d="M251.87694,187.28556 C251.70306,187.28556 251.5275,187.2318 251.37714,187.12008 C251.00502,186.84372 250.9269,186.31788 251.20326,185.94492 C273.45486,155.97204 272.85006,125.51448 272.84082,125.2104 C272.82738,124.74672 273.19278,124.36032 273.6573,124.3458 C274.0983,124.33512 274.50738,124.698 274.52082,125.16252 C274.52922,125.47248 275.14746,156.51132 252.5523,186.9462 C252.38682,187.16796 252.13398,187.28556 251.87694,187.28556" id="Fill-178" fill="#000000"></path>
                                    <path d="M286.21026,207.766272 C285.81966,207.766272 285.46938,207.492432 285.3879,207.094272 C285.14766,205.919952 279.51042,178.251192 279.8145,172.289712 C280.03626,167.917512 281.89686,163.407552 284.71338,156.582552 C285.8583,153.806352 287.15694,150.659712 288.59922,146.925072 C293.82906,133.379232 302.0745,134.501472 302.4231,134.556072 C302.88174,134.627472 303.19506,135.056712 303.12366,135.515352 C303.05226,135.971472 302.62218,136.275552 302.16774,136.216752 C301.84854,136.171392 294.86982,135.349032 290.16582,147.530712 C288.71682,151.282152 287.41566,154.438872 286.2657,157.223472 C283.41894,164.124912 281.7003,168.290472 281.49282,172.374552 C281.19882,178.126032 286.9755,206.472672 287.03346,206.758272 C287.12754,207.212712 286.83354,207.656232 286.3791,207.748632 C286.32282,207.760392 286.2657,207.766272 286.21026,207.766272" id="Fill-180" fill="#000000"></path>
                                    <path d="M246.724548,202.828836 C246.517908,202.828836 246.310428,202.752396 246.147468,202.600356 C245.810628,202.281156 245.795508,201.749436 246.113028,201.411756 C250.125708,197.163036 258.186348,189.246876 266.719068,180.866196 C276.680628,171.083556 287.971908,159.995556 294.237468,153.326796 C305.115468,141.750756 303.120468,136.328556 303.096948,136.276476 C302.906268,135.853956 303.093588,135.356676 303.516948,135.165996 C303.942828,134.972796 304.438428,135.163476 304.628268,135.585996 C304.741668,135.837996 307.276788,141.904476 295.462188,154.476756 C289.173108,161.169876 277.869228,172.271316 267.895908,182.065716 C259.374948,190.434636 251.325228,198.339036 247.336068,202.565916 C247.169748,202.740636 246.947988,202.828836 246.724548,202.828836" id="Fill-182" fill="#000000"></path>
                                    <path d="M290.420928,195.662544 C290.366328,195.662544 290.310048,195.656664 290.253768,195.645744 C289.799328,195.553344 289.504488,195.111504 289.596888,194.656224 C289.628808,194.499144 292.908168,178.779384 305.551848,162.611904 C318.553368,145.988304 325.959648,150.693984 326.270448,150.903144 C326.654328,151.161864 326.755968,151.685184 326.496408,152.069904 C326.239368,152.451264 325.724448,152.554584 325.338048,152.301744 C323.122968,150.891384 316.409688,151.455864 306.875688,163.647624 C294.489888,179.484144 291.275208,194.835984 291.243288,194.988864 C291.162648,195.387864 290.812368,195.662544 290.420928,195.662544" id="Fill-184" fill="#000000"></path>
                                    <path d="M239.280216,221.345712 C239.128176,221.345712 238.974456,221.304552 238.836696,221.218872 C238.442736,220.972752 238.322616,220.454472 238.567896,220.061352 C241.390296,215.540472 255.122616,202.313832 276.818976,187.061952 C297.861816,172.268712 327.794376,151.821432 328.093416,151.616472 C328.478136,151.357752 328.999776,151.454352 329.261856,151.836552 C329.523936,152.220432 329.424816,152.742912 329.041776,153.004992 C328.741896,153.209112 298.818576,173.649672 277.785816,188.436192 C256.280976,203.552832 242.740176,216.550152 239.994216,220.950072 C239.834616,221.205432 239.560776,221.345712 239.280216,221.345712" id="Fill-186" fill="#000000"></path>
                                    <path d="M253.351812,224.22834 C252.942732,224.22834 252.583212,223.9293 252.521892,223.51098 L248.241252,194.63766 C248.173212,194.17986 248.489892,193.7523 248.949372,193.68426 C249.408852,193.62546 249.835572,193.9329 249.903612,194.39154 L254.183412,223.2657 C254.251452,223.7235 253.934772,224.15106 253.475292,224.2191 C253.434132,224.22498 253.392972,224.22834 253.351812,224.22834" id="Fill-188" fill="#000000"></path>
                                    <path d="M265.89444,229.343772 C265.51812,229.343772 265.1754,229.088412 265.07964,228.705372 C264.39168,225.928332 248.22504,160.461252 249.28092,142.319772 C249.30696,141.856932 249.71016,141.510012 250.16712,141.529336 C250.6308,141.557052 250.98444,141.954372 250.95756,142.417212 C249.9168,160.305852 266.54208,227.623452 266.71092,228.302172 C266.8218,228.752412 266.54712,229.207692 266.09688,229.319412 C266.02968,229.335372 265.96164,229.343772 265.89444,229.343772" id="Fill-190" fill="#000000"></path>
                                    <path d="M276.67332,231.584052 C276.339,231.584052 276.02232,231.382452 275.89128,231.052332 C275.18568,229.260612 258.60492,187.050612 260.02956,176.392692 C261.4542,165.731412 270.45984,153.819372 270.84288,153.317052 C271.12344,152.949972 271.64928,152.876052 272.01972,153.159132 C272.38764,153.439692 272.45904,153.967212 272.17764,154.335972 C272.08692,154.455252 263.05944,166.399212 261.69444,176.616132 C260.32776,186.843972 277.284,230.000652 277.45536,230.435772 C277.62504,230.866692 277.41336,231.355572 276.9816,231.526092 C276.87996,231.565572 276.7758,231.584052 276.67332,231.584052" id="Fill-192" fill="#000000"></path>
                                    <path d="M248.519376,220.788792 C248.313576,220.788792 248.107776,220.713192 247.945656,220.561152 C247.607136,220.245312 247.589496,219.713592 247.906176,219.374232 C247.970016,219.307032 254.385096,212.340072 265.779696,191.632392 C277.086096,171.083472 272.832336,155.440152 272.788656,155.284752 C272.660976,154.837872 272.920536,154.374192 273.366576,154.246512 C273.807576,154.120512 274.277136,154.377552 274.403976,154.825272 C274.592976,155.487192 278.887896,171.293472 267.251376,192.442992 C255.729096,213.384192 249.396336,220.241952 249.131736,220.523352 C248.967096,220.699752 248.743656,220.788792 248.519376,220.788792" id="Fill-194" fill="#000000"></path>
                                    <path d="M291.98778,190.429008 C291.82902,190.429008 291.66774,190.383648 291.5241,190.289568 C291.4317,190.228248 282.26226,184.002168 285.53994,173.064528 C288.79326,162.209208 296.1903,161.019768 296.50362,160.975248 C296.96226,160.897968 297.38982,161.224728 297.45534,161.685048 C297.5217,162.142848 297.20586,162.568728 296.74806,162.636768 C296.47758,162.678768 290.0793,163.774128 287.14938,173.546688 C284.22534,183.303288 292.36998,188.834688 292.45314,188.888448 C292.83954,189.145488 292.94538,189.666288 292.68918,190.053528 C292.5279,190.297128 292.25994,190.429008 291.98778,190.429008" id="Fill-196" fill="#000000"></path>
                                    <path d="M254.716812,223.19556 C254.496732,223.19556 254.278332,223.10988 254.112852,222.93936 C253.790292,222.60588 253.799532,222.07416 254.133012,221.7516 L293.498772,183.68364 C293.832252,183.36192 294.363972,183.37032 294.686532,183.70296 C295.009092,184.03728 294.999852,184.569 294.667212,184.89072 L255.300612,222.95952 C255.137652,223.1166 254.926812,223.19556 254.716812,223.19556" id="Fill-198" fill="#000000"></path>
                                    <path d="M258.704376,228.350388 C258.430536,228.350388 258.161736,228.215988 257.999616,227.969028 C257.745936,227.580948 257.855976,227.060148 258.244896,226.806468 C258.376776,226.720788 271.656336,217.966308 286.930896,200.314548 C287.234136,199.962588 287.765016,199.926468 288.115296,200.228868 C288.466416,200.532948 288.504216,201.062988 288.200136,201.414108 C272.760096,219.258228 259.296576,228.126108 259.162176,228.214308 C259.021056,228.305868 258.861456,228.350388 258.704376,228.350388" id="Fill-200" fill="#000000"></path>
                                    <path d="M270.895044,231.584052 C270.676644,231.584052 270.457404,231.499212 270.293604,231.330372 C269.969364,230.998572 269.976084,230.466012 270.308724,230.142612 C270.380964,230.072052 277.583964,223.045452 283.512684,216.683292 C283.827684,216.343092 284.361084,216.325452 284.699604,216.641292 C285.038964,216.957132 285.057444,217.488852 284.740764,217.828212 C278.785164,224.220612 271.553604,231.274932 271.481364,231.345492 C271.318404,231.504252 271.106724,231.584052 270.895044,231.584052" id="Fill-202" fill="#000000"></path>
                                    <path d="M287.6811,181.14222 C287.3997,181.14222 287.12502,181.0011 286.96542,180.74406 C286.72182,180.3501 286.84362,179.83182 287.23842,179.58738 C300.30126,171.49734 297.93414,163.3653 297.90894,163.28382 C297.77034,162.84198 298.01646,162.3699 298.45914,162.2313 C298.90266,162.0927 299.37306,162.33882 299.51166,162.78234 C299.63178,163.16454 302.28282,172.24578 288.1221,181.01706 C287.98434,181.1019 287.8323,181.14222 287.6811,181.14222" id="Fill-204" fill="#000000"></path>
                                    <path d="M220.431036,148.151724 L330.052716,189.210924 L343.425516,132.567204 L237.668676,89.445804 L220.431036,148.151724 Z M330.651636,191.172324 C330.552516,191.172324 330.452556,191.153844 330.356796,191.118564 L219.110556,149.451204 C218.698116,149.296644 218.474676,148.849764 218.598156,148.427244 L236.318796,88.079964 C236.385996,87.853164 236.547276,87.663324 236.760636,87.560004 C236.974836,87.457524 237.222636,87.449124 237.442716,87.539844 L344.725836,131.283684 C345.108876,131.439084 345.320556,131.851524 345.225636,132.253884 L331.468956,190.524684 C331.413516,190.760724 331.259796,190.959804 331.047276,191.073204 C330.923796,191.138724 330.787716,191.172324 330.651636,191.172324 L330.651636,191.172324 Z" id="Fill-206" fill="#000000"></path>
                                    <path d="M345.983148,103.611228 C338.771748,120.910188 318.903228,129.087588 301.604268,121.877028 C284.305308,114.665628 276.127068,94.797108 283.338468,77.497308 C290.549028,60.198348 310.418388,52.020948 327.717348,59.231508 C345.016308,66.442908 353.194548,86.311428 345.983148,103.611228" id="Fill-208" fill="#FFCA71"></path>
                                    <path d="M314.704908,57.459108 C301.737828,57.459108 289.405788,65.125788 284.113788,77.820708 C277.092228,94.664388 285.083988,114.080148 301.927668,121.101708 C318.769668,128.121588 338.185428,120.130668 345.207828,103.287828 C352.229388,86.444148 344.237628,67.028388 327.393948,60.006828 C323.246028,58.277268 318.941028,57.459108 314.704908,57.459108 L314.704908,57.459108 Z M314.614188,125.328588 C310.161348,125.328588 305.641308,124.470108 301.280868,122.652348 C283.582068,115.274628 275.185428,94.872708 282.563148,77.173908 C286.136508,68.600868 292.835508,61.932108 301.425348,58.396548 C310.015188,54.861828 319.467708,54.881988 328.040748,58.456188 C345.739548,65.833908 354.136188,86.235828 346.758468,103.934628 C341.198508,117.272988 328.237308,125.328588 314.614188,125.328588 L314.614188,125.328588 Z" id="Fill-210" fill="#000000"></path>
                                    <path d="M287.175,111.688836 C286.7844,111.688836 286.43412,111.414996 286.35264,111.017676 C286.3098,110.805996 282.24504,89.680836 301.8834,71.104236 C321.7032,52.353756 339.12816,65.489676 339.30288,65.624916 C339.66828,65.909676 339.73464,66.436356 339.45072,66.802596 C339.16764,67.169676 338.6418,67.237716 338.27304,66.952956 C337.60944,66.438876 321.78552,54.588996 303.0384,72.324756 C284.0712,90.265476 287.95788,110.478396 287.9982,110.679996 C288.09228,111.134436 287.79912,111.577956 287.34468,111.671196 C287.28756,111.682956 287.23044,111.688836 287.175,111.688836" id="Fill-212" fill="#000000"></path>
                                    <path d="M348.102048,93.507456 C347.763528,93.507456 347.444328,93.300816 347.315808,92.964816 C347.286408,92.886696 344.225448,84.994896 336.173208,78.411816 C331.966488,74.972856 327.507768,73.270176 323.196888,71.624616 C319.134648,70.074816 315.296688,68.609016 312.197088,65.833656 C309.800568,63.688296 308.716968,61.634496 308.975688,59.728536 C309.288168,57.417696 311.462088,56.314776 311.554488,56.268576 C311.969448,56.060256 312.473448,56.230776 312.680088,56.647416 C312.885888,57.061536 312.717888,57.563856 312.304608,57.771336 C312.271848,57.788976 310.822848,58.550856 310.638048,59.966256 C310.469208,61.264896 311.395728,62.861736 313.317648,64.581216 C316.186248,67.150776 319.882248,68.561976 323.795808,70.055496 C328.026048,71.669976 332.819928,73.500336 337.235808,77.110656 C345.655128,83.994456 348.759768,92.031576 348.888288,92.370096 C349.052088,92.804376 348.832848,93.288216 348.399408,93.452856 C348.301128,93.489816 348.201168,93.507456 348.102048,93.507456" id="Fill-214" fill="#000000"></path>
                                    <path d="M335.603772,116.70666 C335.257692,116.70666 334.933452,116.49162 334.811652,116.14638 C326.722452,93.24462 315.341292,80.32374 307.809852,71.77338 C307.205892,71.0871 306.625452,70.42854 306.071892,69.79266 C299.140212,61.8387 295.063692,63.76902 295.024212,63.79338 C294.614292,63.99918 294.110292,63.84378 293.895252,63.44058 C293.681052,63.03486 293.823852,62.53758 294.224532,62.31582 C294.431172,62.19906 299.418252,59.60094 307.338612,68.6889 C307.890492,69.3231 308.468412,69.97914 309.070692,70.6629 C316.686972,79.30986 328.198332,92.37858 336.395892,115.58694 C336.550452,116.02458 336.321132,116.50422 335.883492,116.65878 C335.791092,116.6907 335.696172,116.70666 335.603772,116.70666" id="Fill-216" fill="#000000"></path>
                                    <path d="M313.660368,125.557068 C313.425168,125.557068 313.189968,125.458788 313.024488,125.265588 C312.858168,125.073228 308.912688,120.459948 306.128088,113.471988 C302.870568,105.297108 303.059568,89.554668 303.069648,88.888548 C303.145248,83.535228 302.547168,76.097868 296.482368,73.345188 C290.254608,70.516068 283.262448,79.871148 283.192728,79.967748 C282.916368,80.340708 282.390528,80.420508 282.017568,80.144148 C281.644608,79.869468 281.564808,79.343628 281.840328,78.969828 C282.157848,78.538068 289.726248,68.430348 297.176208,71.815548 C304.138128,74.975628 304.832808,83.086668 304.749648,88.912908 C304.663128,94.847508 305.185608,106.568868 307.688808,112.850388 C310.363368,119.561988 314.257608,124.123188 314.296248,124.168548 C314.598648,124.520508 314.560008,125.049708 314.208888,125.352948 C314.050128,125.489868 313.854408,125.557068 313.660368,125.557068" id="Fill-218" fill="#000000"></path>
                                    <path d="M371.476056,177.530388 C371.476056,177.530388 343.199976,179.142348 342.080256,175.286748 C340.959696,171.431148 346.274376,171.407628 351.486576,171.033828 C356.698776,170.659188 368.888016,172.058628 368.888016,172.058628 C368.888016,172.058628 357.676536,142.628388 357.573216,136.388028 C357.469896,130.145988 361.597656,133.887348 361.597656,133.887348 L371.010696,159.089028 C371.010696,159.089028 372.747816,138.249468 372.950256,133.059948 C373.152696,127.869588 371.850696,122.737188 374.531136,122.147508 C377.209896,121.559508 377.877696,125.166468 377.755896,131.283348 C377.632416,137.401068 375.985176,155.933148 375.985176,155.933148 C375.985176,155.933148 378.618576,150.606708 381.703056,139.638828 C384.787536,128.670108 388.596936,122.811948 388.596936,122.811948 C388.596936,122.811948 393.899016,120.131508 390.215616,131.653788 C386.532216,143.176908 379.458576,163.143708 379.458576,163.143708 L400.284696,300.966708 L391.024536,297.136308 L371.476056,177.530388 Z" id="Fill-220" fill="#E8F2DC"></path>
                                    <path d="M391.778772,296.5389 L399.232092,299.62254 L378.628572,163.26954 C378.606732,163.13346 378.621012,162.99402 378.667212,162.86298 C378.737772,162.6639 385.777812,142.77606 389.415852,131.39742 C391.409172,125.1621 390.534732,123.79962 390.219732,123.53082 C389.928252,123.28302 389.436012,123.39726 389.166372,123.48798 C388.467492,124.63962 385.195692,130.32054 382.511892,139.86546 C379.440852,150.78378 376.847772,156.08502 376.738572,156.30594 C376.558812,156.66714 376.147212,156.85194 375.758292,156.7419 C375.369372,156.6327 375.112332,156.26142 375.148452,155.85822 C375.165252,155.67426 376.794852,137.28498 376.915812,131.26638 C377.008212,126.62454 376.588212,123.88698 375.665052,123.13014 C375.499572,122.99322 375.240012,122.85126 374.711652,122.96802 C373.484412,123.23766 373.595292,125.77194 373.722972,128.70522 C373.781772,130.05258 373.848132,131.57886 373.789332,133.09254 C373.588572,138.24174 371.865732,158.95026 371.847252,159.15858 C371.815332,159.55086 371.515452,159.86754 371.125692,159.92046 C370.741812,159.97926 370.362132,159.75162 370.224372,159.38286 L360.886932,134.38446 C360.327492,133.93254 359.464812,133.46634 359.057412,133.65534 C358.726452,133.80654 358.383732,134.5995 358.413132,136.37358 C358.512252,142.39722 369.561612,171.46626 369.673332,171.75942 C369.777492,172.0341 369.731292,172.34238 369.551532,172.57422 C369.370092,172.80606 369.080292,172.93038 368.792172,172.89342 C368.671212,172.87914 356.629812,171.5049 351.546132,171.87114 L350.334012,171.9543 C347.136132,172.16682 343.830732,172.38606 342.978972,173.60238 C342.889092,173.7309 342.616092,174.1215 342.886572,175.05222 C343.337652,176.60454 354.914532,177.63186 371.428092,176.6919 C371.836332,176.67426 372.235332,176.96994 372.305052,177.39498 L391.778772,296.5389 Z M400.284612,301.80654 C400.176252,301.80654 400.067052,301.78554 399.963732,301.7427 L390.704412,297.9123 C390.434772,297.80142 390.243252,297.55866 390.195372,297.27138 L370.768692,178.41054 C361.700052,178.90026 342.417852,179.46642 341.273772,175.52178 C340.944492,174.3903 341.055372,173.42094 341.603052,172.6389 C342.915972,170.76402 346.302012,170.53806 350.222292,170.27766 L351.426852,170.19618 C355.671372,169.88874 364.266252,170.72118 367.617852,171.07566 C365.433012,165.26538 356.827212,142.03434 356.733132,136.4013 C356.693652,134.03922 357.227892,132.64062 358.365252,132.12486 C360.014172,131.38314 361.946172,133.0707 362.162052,133.26474 C362.261172,133.35462 362.337612,133.46718 362.384652,133.59402 L370.481412,155.27106 C370.989612,149.02398 371.963172,136.7961 372.111012,133.02702 C372.166452,131.58306 372.105132,130.15758 372.044652,128.7783 C371.883372,125.08818 371.743932,121.90038 374.350452,121.3275 C375.503772,121.07382 376.281612,121.46106 376.731852,121.8315 C378.166572,123.00834 378.705852,125.75262 378.595812,131.29998 C378.515172,135.28662 377.784372,144.59886 377.285412,150.58386 C378.278292,147.92862 379.545852,144.20658 380.894052,139.41102 C383.977692,128.44566 387.734172,122.59842 387.892932,122.35482 C387.973572,122.22966 388.086132,122.1297 388.218012,122.0625 C388.886652,121.72566 390.291132,121.38294 391.309212,122.25318 C392.806932,123.52998 392.713692,126.59766 391.015212,131.90982 C387.566172,142.69962 381.068772,161.1099 380.320332,163.22586 L401.114532,300.84138 C401.160732,301.14126 401.040612,301.44198 400.802052,301.62846 C400.651692,301.74606 400.469412,301.80654 400.284612,301.80654 L400.284612,301.80654 Z" id="Fill-222" fill="#000000"></path>
                                    <path d="M279.322092,247.780344 C279.322092,247.780344 261.569532,236.222784 251.641572,229.311264 C241.713612,222.398904 247.554132,221.305224 247.554132,221.305224 C247.554132,221.305224 254.138892,223.642944 263.254572,230.478024 C272.370252,237.313944 277.697532,239.943144 277.697532,239.943144 C277.697532,239.943144 265.127772,226.226784 261.312492,221.443824 C257.496372,216.660864 255.834852,213.390744 258.320412,212.229864 C260.805972,211.068144 262.891692,215.935944 266.207172,219.934344 C269.521812,223.932744 283.566612,239.426544 283.566612,239.426544 L275.725212,213.692304 C275.725212,213.692304 276.729012,208.212984 280.440972,213.231144 C284.152092,218.250984 293.134212,248.435544 293.134212,248.435544 C293.134212,248.435544 301.963452,239.917104 306.330612,237.045984 C310.697772,234.175704 314.932212,230.964384 316.385412,234.707424 C317.839452,238.449624 294.405132,254.354184 294.405132,254.354184 L279.322092,247.780344 Z" id="Fill-224" fill="#E8F2DC"></path>
                                    <path d="M279.721596,247.037952 L294.315756,253.399272 C306.539436,245.065632 316.252356,236.684112 315.602196,235.011672 C315.251076,234.106992 314.797476,233.963352 314.647956,233.916312 C313.234236,233.464392 310.473996,235.303152 307.806996,237.076392 L306.792276,237.747552 C302.540196,240.543072 293.805876,248.955672 293.717676,249.040512 C293.506836,249.243792 293.204436,249.324432 292.921356,249.247992 C292.637436,249.173232 292.413156,248.956512 292.329996,248.675112 C292.240116,248.375232 283.347036,218.575392 279.766116,213.731112 C278.711916,212.304792 277.964316,211.886472 277.601436,211.963752 C277.166316,212.063712 276.761436,212.954112 276.591756,213.655512 L284.370156,239.181432 C284.484396,239.557752 284.323116,239.962632 283.980396,240.157512 C283.640196,240.349032 283.208436,240.281832 282.943836,239.990352 C282.803556,239.835792 268.849476,224.437752 265.560876,220.470432 C264.594036,219.304512 263.718756,218.051232 262.946796,216.946632 C261.265116,214.538352 259.813596,212.455992 258.676236,212.991072 C258.183156,213.220392 258.064716,213.490032 258.015156,213.699192 C257.742996,214.860912 259.073556,217.291032 261.968196,220.919832 C265.722996,225.626352 278.191956,239.238552 278.317116,239.375472 C278.590116,239.672832 278.612796,240.123912 278.370036,240.447312 C278.127276,240.772392 277.687956,240.877392 277.325916,240.695952 C277.105836,240.587592 271.823916,237.955032 262.751076,231.150192 C254.820636,225.204672 248.772636,222.680472 247.513476,222.189072 C247.243836,222.281472 246.778476,222.493152 246.700356,222.866952 C246.617196,223.272672 246.759156,224.887992 252.121716,228.621792 C261.642276,235.250232 278.588436,246.299592 279.721596,247.037952 M294.404796,255.194352 C294.291396,255.194352 294.177156,255.171672 294.069636,255.124632 L278.986596,248.550792 C278.943756,248.531472 278.902596,248.509632 278.863956,248.484432 C278.686716,248.368512 260.986236,236.840352 251.161596,230.000232 C246.585276,226.814112 244.645716,224.434392 245.058996,222.509952 C245.340396,221.200392 246.662556,220.618272 247.399236,220.479672 C247.542876,220.452792 247.694916,220.463712 247.835196,220.514112 C248.108196,220.610712 254.644236,222.972792 263.758236,229.806192 C267.744876,232.795752 271.013316,234.980592 273.414876,236.485872 C269.382036,232.036392 263.142516,225.084552 260.656116,221.968152 C257.239836,217.687512 255.961356,215.100312 256.379676,213.315312 C256.512396,212.749152 256.895436,211.967952 257.965596,211.468152 C260.385636,210.339192 262.210116,212.956632 264.324396,215.983992 C265.113996,217.115472 265.931316,218.285592 266.853636,219.397752 C269.261076,222.302472 277.465356,231.420672 281.666196,236.072592 L274.920996,213.936912 C274.882356,213.808392 274.873956,213.672312 274.899156,213.540432 C274.951236,213.254832 275.461956,210.735672 277.220916,210.328272 C278.434716,210.043512 279.710676,210.830592 281.115996,212.731512 C284.465916,217.263312 291.748716,240.940392 293.545476,246.882552 C295.990716,244.564992 302.311716,238.683312 305.869116,236.343912 L306.876276,235.676952 C310.148076,233.502192 312.975516,231.622272 315.155316,232.314432 C316.065036,232.602552 316.742076,233.304792 317.168796,234.402672 C318.698436,238.343112 302.089116,250.154352 294.876876,255.049032 C294.735756,255.144792 294.571116,255.194352 294.404796,255.194352" id="Fill-226" fill="#000000"></path>
                                </g>
                            </g>
                        </g>
                        <g id="illu/hand">
                            <g id="Group-50">
                                <path d="M1,629.85584 L691.6968,271.37744 C691.6968,271.37744 676.9488,227.13424 677.6864,174.77904 C678.424,122.42384 696.1208,86.29184 699.0704,69.33184 C702.02,52.37184 696.8584,38.36144 699.808,29.51184 C702.7576,20.66384 711.6064,23.12144 712.0984,34.91984 C712.5896,46.71824 712.5896,91.45344 708.1656,109.15104 C703.7408,126.84864 715.048,186.33184 715.048,186.33184 C715.048,186.33184 854.1688,22.13904 860.56,16.23904 C866.9512,10.33984 876.2912,5.91584 883.1736,14.27264 C890.056,22.63024 814.8416,105.21824 814.8416,105.21824 L773.056,158.31024 C773.056,158.31024 787.804,204.02944 816.808,187.80624 C845.812,171.58384 822.7072,240.40704 822.7072,240.40704 L842.3704,248.27264 C842.3704,248.27264 785.3464,269.90304 748.476,295.95744 C711.6064,322.01184 1,676.38144 1,676.38144 L1,629.85584 Z" id="Fill-1" fill="#E8F2DC"></path>
                                <g id="Group-5" transform="translate(0.000000, 8.581600)">
                                    <mask id="mask-4" fill="white">
                                        <use xlink:href="#path-3"></use>
                                    </mask>
                                    <g id="Clip-4"></g>
                                    <path d="M2,621.882 L2,666.1836 C38.0968,648.1756 712.308,311.71 747.8992,286.5596 C780.1976,263.734 828.4608,244.09 839.6472,239.6788 L822.336,232.754 C821.844,232.5572 821.5904,232.01 821.7592,231.5076 C825.9536,219.0116 835.1504,185.1812 827.4384,178.7868 C825.3552,177.0596 821.9416,177.4996 817.2968,180.098 C810.2376,184.046 803.3816,184.7588 796.9136,182.2172 C780.5792,175.7988 772.4424,151.0852 772.104,150.0356 C772.0016,149.7188 772.064,149.3716 772.2696,149.11 L814.056,96.018 C814.2904,95.7572 833.0992,75.0812 850.8224,53.6564 C883.6288,13.9956 883.288,7.4028 882.4016,6.3276 C880.2512,3.7156 877.7152,2.2924 874.8648,2.098 C869.3688,1.7156 863.9608,5.8796 861.2376,8.3932 C854.9656,14.1836 717.2016,176.7548 715.8104,178.3964 C715.5616,178.6916 715.1664,178.8132 714.7928,178.7172 C714.42,178.6188 714.1368,178.3156 714.0656,177.9364 C713.6016,175.4988 702.768,118.034 707.1952,100.3276 C711.6856,82.3652 711.54,36.966 711.0992,26.3796 C710.84,20.1668 708.172,16.978 705.8032,16.6436 C703.736,16.3612 701.8008,18.1156 700.7568,21.2468 C699.4088,25.2924 699.8528,30.6612 700.3664,36.8772 C700.9512,43.9468 701.6144,51.9604 700.056,60.9212 C699.2144,65.7612 697.2384,71.982 694.7368,79.8596 C688.5552,99.3236 679.2144,128.7364 678.6864,166.2116 C677.96,217.7828 692.4984,262.0388 692.6456,262.4796 C692.8008,262.9468 692.5944,263.4572 692.1576,263.6836 L2,621.882 Z M1,668.7996 C0.8168,668.7996 0.6344,668.75 0.4736,668.65 C0.1792,668.4676 0,668.146 0,667.7996 L0,621.274 C0,620.9004 0.208,620.5588 0.5392,620.3868 L690.4872,262.298 C688.508,256.002 676.0096,214.2468 676.6864,166.1836 C677.2184,128.4132 686.6136,98.83 692.8304,79.254 C695.3096,71.4492 697.2672,65.2844 698.0856,60.5788 C699.6,51.87 698.9488,43.9924 698.3736,37.042 C697.8416,30.606 697.3816,25.0484 698.8592,20.614 C700.4952,15.706 703.6608,14.318 706.0824,14.6636 C709.352,15.1244 712.7888,18.9004 713.0976,26.2972 C713.5408,36.9444 713.6784,82.6404 709.1352,100.8116 C705.2768,116.2468 713.7176,164.8484 715.6488,175.494 C730.9112,157.4852 853.7848,12.5508 859.8816,6.9236 C862.84,4.1916 868.7368,-0.3268 875.0008,0.102 C878.4216,0.3356 881.432,2.002 883.9456,5.0556 C885.2664,6.6588 888.7712,10.9156 852.3592,54.9348 C834.6056,76.3972 815.7688,97.1028 815.5816,97.31 L774.1784,149.9204 C775.4216,153.4628 783.4232,174.7708 797.6488,180.3572 C803.5304,182.6668 809.8128,181.9916 816.32,178.3524 C821.7592,175.3092 825.9312,174.9364 828.716,177.2476 C838.3768,185.2596 826.1168,224.5852 823.9512,231.246 L842.7416,238.7636 C843.1248,238.9156 843.3744,239.2884 843.3704,239.6996 C843.3664,240.1124 843.1104,240.4804 842.7256,240.6268 C842.1568,240.842 785.3944,262.5116 749.0536,288.1924 C712.544,313.9932 8.5528,665.1508 1.4464,668.6948 C1.3056,668.7652 1.152,668.7996 1,668.7996 L1,668.7996 Z" id="Fill-3" fill="#000000" mask="url(#mask-4)"></path>
                                </g>
                                <mask id="mask-6" fill="white">
                                    <use xlink:href="#path-5"></use>
                                </mask>
                                <g id="Clip-7"></g>
                                <polygon id="Fill-6" fill="#A6ADEB" mask="url(#mask-6)" points="711.6064 250.7312 849.7448 250.7312 849.7448 1 711.6064 1"></polygon>
                                <polygon id="Stroke-8" stroke="#000000" stroke-width="2" stroke-linecap="round" stroke-linejoin="round" mask="url(#mask-6)" points="711.6064 250.7312 849.7448 250.7312 849.7448 1 711.6064 1"></polygon>
                                <polygon id="Fill-9" fill="#D4B9E4" mask="url(#mask-6)" points="721.4384 222.7096 840.4048 222.7096 840.4048 22.6296 721.4384 22.6296"></polygon>
                                <polygon id="Stroke-10" stroke="#000000" stroke-width="2" stroke-linecap="round" stroke-linejoin="round" mask="url(#mask-6)" points="721.4384 222.7096 840.4048 222.7096 840.4048 22.6296 721.4384 22.6296"></polygon>
                                <polygon id="Fill-11" fill="#D4B9E4" mask="url(#mask-6)" points="762.4216 239.0616 797.8168 239.0616 797.8168 233.1624 762.4216 233.1624"></polygon>
                                <polygon id="Stroke-12" stroke="#000000" stroke-width="2" stroke-linecap="round" stroke-linejoin="round" mask="url(#mask-6)" points="762.4216 239.0616 797.8168 239.0616 797.8168 233.1624 762.4216 233.1624"></polygon>
                                <polygon id="Fill-13" fill="#A6ADEB" mask="url(#mask-6)" points="762.2408 16.2392 798.6192 16.2392 798.6192 9.8488 762.2408 9.8488"></polygon>
                                <polygon id="Stroke-14" stroke="#000000" stroke-width="2" stroke-linecap="round" stroke-linejoin="round" mask="url(#mask-6)" points="762.2408 16.2392 798.6192 16.2392 798.6192 9.8488 762.2408 9.8488"></polygon>
                                <path d="M836.96368,190.51048 C836.31808,191.67768 830.08048,201.57128 836.96368,207.22488 C843.84608,212.87768 868.42528,189.52728 871.37568,185.59368 C874.32448,181.66088 878.01248,172.07528 868.42528,167.40488 C858.83968,162.73448 849.59168,169.83208 849.59168,169.83208 L849.77568,178.15928 C849.77568,178.15928 837.60928,189.34248 836.96368,190.51048" id="Fill-15" fill="#E8F2DC" mask="url(#mask-6)"></path>
                                <path d="M836.96368,190.51048 C836.31808,191.67768 830.08048,201.57128 836.96368,207.22488 C843.84608,212.87768 868.42528,189.52728 871.37568,185.59368 C874.32448,181.66088 878.01248,172.07528 868.42528,167.40488 C858.83968,162.73448 849.59168,169.83208 849.59168,169.83208 L849.77568,178.15928 C849.77568,178.15928 837.60928,189.34248 836.96368,190.51048 Z" id="Stroke-16" stroke="#000000" stroke-width="2" stroke-linecap="round" stroke-linejoin="round" mask="url(#mask-6)"></path>
                                <polygon id="Fill-17" fill="#C8EDFF" mask="url(#mask-6)" points="721.46912 147.2652 767.64832 161.7516 763.71552 74.9844 721.46912 47.0252"></polygon>
                                <polygon id="Stroke-18" stroke="#000000" stroke-width="1.2" stroke-linecap="round" stroke-linejoin="round" mask="url(#mask-6)" points="721.46912 147.2652 767.64832 161.7516 763.71552 74.9844 721.46912 47.0252"></polygon>
                                <path d="M853.92384,216.31912 C853.92384,216.31912 845.56704,216.56472 840.40544,222.70952 C835.24224,228.85512 834.01344,237.21192 839.91264,241.39032 C845.81184,245.56952 852.69504,245.81432 859.08544,240.65272 C865.47584,235.49112 867.68864,228.85512 864.49264,221.97192 C861.29744,215.09032 853.92384,216.31912 853.92384,216.31912" id="Fill-19" fill="#E8F2DC" mask="url(#mask-6)"></path>
                                <path d="M853.92384,216.31912 C853.92384,216.31912 845.56704,216.56472 840.40544,222.70952 C835.24224,228.85512 834.01344,237.21192 839.91264,241.39032 C845.81184,245.56952 852.69504,245.81432 859.08544,240.65272 C865.47584,235.49112 867.68864,228.85512 864.49264,221.97192 C861.29744,215.09032 853.92384,216.31912 853.92384,216.31912 Z" id="Stroke-20" stroke="#000000" stroke-width="2" stroke-linecap="round" stroke-linejoin="round" mask="url(#mask-6)"></path>
                                <polyline id="Stroke-21" stroke="#000000" stroke-width="1.2" stroke-linecap="round" stroke-linejoin="round" mask="url(#mask-6)" points="721.6844 84.57144 740.3652 94.64904 741.594 132.25544 721.8068 124.02184"></polyline>
                                <path d="M805.55584,126.08944 C805.55584,132.25424 788.82944,137.25184 768.19664,137.25184 C747.56384,137.25184 730.83744,132.25424 730.83744,126.08944 C730.83744,119.92464 747.56384,114.92704 768.19664,114.92704 C788.82944,114.92704 805.55584,119.92464 805.55584,126.08944 Z" id="Stroke-22" stroke="#000000" stroke-width="1.2" stroke-linecap="round" stroke-linejoin="round" mask="url(#mask-6)"></path>
                                <path d="M731.14728,127.21752 C731.51608,127.76952 752.53208,151.18232 754.37528,166.85192 C756.21848,182.52152 752.16328,193.76712 754.37528,194.87272 C756.58728,195.97912 756.77208,193.21352 759.53688,191.73912 C762.30248,190.26472 760.82808,196.16392 762.85528,196.16392 C764.88328,196.16392 764.51448,191.00152 767.46408,191.37032 C770.41368,191.73912 769.30728,197.26952 772.44168,196.90072 C775.57528,196.53272 775.20648,192.10792 777.60328,191.92392 C780.00008,191.73912 779.81528,195.79512 782.21208,195.42632 C784.60888,195.05752 783.13368,192.10792 785.16168,192.10792 C787.18968,192.10792 787.18968,196.53272 788.48008,194.87272 C789.77048,193.21352 785.53048,179.94072 785.16168,172.19832 C784.79288,164.45592 784.05528,160.21512 788.48008,153.57912 C792.90408,146.94232 805.25528,127.95432 805.25528,127.95432" id="Stroke-23" stroke="#000000" stroke-width="1.2" stroke-linecap="round" stroke-linejoin="round" mask="url(#mask-6)"></path>
                                <path d="M751.05704,116.34096 C751.05704,116.34096 751.24104,142.70256 767.09544,160.76816 C782.94904,178.83456 786.63624,182.70576 786.63624,182.70576" id="Stroke-24" stroke="#000000" stroke-width="1.2" stroke-linecap="round" stroke-linejoin="round" mask="url(#mask-6)"></path>
                                <path d="M755.11288,115.41912 C755.11288,115.41912 763.59288,137.72552 754.74408,165.93032" id="Stroke-25" stroke="#000000" stroke-width="1.2" stroke-linecap="round" stroke-linejoin="round" mask="url(#mask-6)"></path>
                                <path d="M778.70936,115.60344 C778.70936,115.60344 772.62616,116.70904 772.25736,127.58584 C771.88856,138.46184 770.96696,143.80824 772.25736,148.23304 C773.54776,152.65704 785.16136,172.19784 785.16136,172.19784" id="Stroke-26" stroke="#000000" stroke-width="1.2" stroke-linecap="round" stroke-linejoin="round" mask="url(#mask-6)"></path>
                                <path d="M780,115.60344 C780,115.60344 783.3176,119.10584 777.972,131.08824 C772.6256,143.07144 758.984,169.61784 754.9288,178.65064" id="Stroke-27" stroke="#000000" stroke-width="1.2" stroke-linecap="round" stroke-linejoin="round" mask="url(#mask-6)"></path>
                                <path d="M800.09376,121.50272 C800.09376,121.50272 793.82576,119.84352 788.66416,134.95952 C783.50256,150.07632 785.16176,162.24352 785.16176,162.24352" id="Stroke-28" stroke="#000000" stroke-width="1.2" stroke-linecap="round" stroke-linejoin="round" mask="url(#mask-6)"></path>
                                <path d="M802.30584,121.31832 C802.30584,121.31832 785.53064,143.99272 773.73224,160.39992 C761.93384,176.80632 755.11304,190.07992 754.19064,194.13512" id="Stroke-29" stroke="#000000" stroke-width="1.2" stroke-linecap="round" stroke-linejoin="round" mask="url(#mask-6)"></path>
                                <path d="M765.25192,192.66128 L754.74392,172.56688" id="Stroke-30" stroke="#000000" stroke-width="1.2" stroke-linecap="round" stroke-linejoin="round" mask="url(#mask-6)"></path>
                                <path d="M775.75976,193.2136 C775.75976,193.2136 746.07976,147.68 742.20856,134.0376" id="Stroke-31" stroke="#000000" stroke-width="1.2" stroke-linecap="round" stroke-linejoin="round" mask="url(#mask-6)"></path>
                                <path d="M784.23984,192.10816 C784.23984,192.10816 760.45904,164.45616 758.79984,156.34416 C757.14064,148.23296 760.82784,136.98816 760.82784,136.98816" id="Stroke-32" stroke="#000000" stroke-width="1.2" stroke-linecap="round" stroke-linejoin="round" mask="url(#mask-6)"></path>
                                <path d="M762.67112,137.35664 C762.67112,137.35664 770.04472,147.86464 766.91112,166.29904 C763.77752,184.73424 760.82792,191.37104 760.82792,191.37104" id="Stroke-33" stroke="#000000" stroke-width="1.2" stroke-linecap="round" stroke-linejoin="round" mask="url(#mask-6)"></path>
                                <path d="M781.29024,136.43472 C781.29024,136.43472 776.31264,139.01552 776.68144,147.49552 C777.05024,155.97552 784.97744,158.00352 784.97744,158.00352" id="Stroke-34" stroke="#000000" stroke-width="1.2" stroke-linecap="round" stroke-linejoin="round" mask="url(#mask-6)"></path>
                                <path d="M765.98944,191.55504 L785.16144,153.57904" id="Stroke-35" stroke="#000000" stroke-width="1.2" stroke-linecap="round" stroke-linejoin="round" mask="url(#mask-6)"></path>
                                <path d="M770.22928,194.31992 C770.22928,194.31992 777.78768,184.54952 784.60848,167.40472" id="Stroke-36" stroke="#000000" stroke-width="1.2" stroke-linecap="round" stroke-linejoin="round" mask="url(#mask-6)"></path>
                                <path d="M780,193.5824 C780,193.5824 783.5024,186.5776 786.2672,180.3096" id="Stroke-37" stroke="#000000" stroke-width="1.2" stroke-linecap="round" stroke-linejoin="round" mask="url(#mask-6)"></path>
                                <path d="M783.1336,136.80344 C783.1336,136.80344 787.3736,142.51864 779.4472,152.28824" id="Stroke-38" stroke="#000000" stroke-width="1.2" stroke-linecap="round" stroke-linejoin="round" mask="url(#mask-6)"></path>
                                <path d="M727.46056,149.15424 L721.43816,163.22704" id="Stroke-39" stroke="#000000" stroke-width="2" stroke-linecap="round" stroke-linejoin="round" mask="url(#mask-6)"></path>
                                <path d="M806.36168,82.60504 C806.36168,97.16424 794.55928,108.96664 780.00008,108.96664 C765.44088,108.96664 753.63768,97.16424 753.63768,82.60504 C753.63768,68.04584 765.44088,56.24344 780.00008,56.24344 C794.55928,56.24344 806.36168,68.04584 806.36168,82.60504" id="Fill-40" fill="#FFCA71" mask="url(#mask-6)"></path>
                                <path d="M806.36168,82.60504 C806.36168,97.16424 794.55928,108.96664 780.00008,108.96664 C765.44088,108.96664 753.63768,97.16424 753.63768,82.60504 C753.63768,68.04584 765.44088,56.24344 780.00008,56.24344 C794.55928,56.24344 806.36168,68.04584 806.36168,82.60504 Z" id="Stroke-41" stroke="#000000" stroke-width="1.2" stroke-linecap="round" stroke-linejoin="round" mask="url(#mask-6)"></path>
                                <path d="M790.04688,57.99408 C790.04688,57.99408 774.10048,53.66208 765.62048,72.74288 C757.14048,91.82208 766.35808,105.37248 766.35808,105.37248" id="Stroke-42" stroke="#000000" stroke-width="1.2" stroke-linecap="round" stroke-linejoin="round" mask="url(#mask-6)"></path>
                                <path d="M768.0172,59.37688 C768.0172,59.37688 764.9756,62.87928 771.0588,64.99928 C777.1428,67.12008 783.9636,64.44648 791.9828,66.84328 C800.0012,69.23928 804.6108,74.12488 804.6108,74.12488" id="Stroke-43" stroke="#000000" stroke-width="1.2" stroke-linecap="round" stroke-linejoin="round" mask="url(#mask-6)"></path>
                                <path d="M757.4172,68.87064 C757.4172,68.87064 759.906,65.73704 767.9252,69.70024 C775.9444,73.66344 788.8484,79.28664 802.5828,94.49544" id="Stroke-44" stroke="#000000" stroke-width="1.2" stroke-linecap="round" stroke-linejoin="round" mask="url(#mask-6)"></path>
                                <path d="M753.63792,84.2636 C753.63792,84.2636 755.94192,74.862 761.84112,75.0468 C767.74032,75.2308 770.50592,81.4068 771.79632,84.6324 C773.08672,87.8588 777.14272,96.9836 781.19792,101.1316 C785.25392,105.2804 789.49392,107.3996 789.49392,107.3996" id="Stroke-45" stroke="#000000" stroke-width="1.2" stroke-linecap="round" stroke-linejoin="round" mask="url(#mask-6)"></path>
                                <path d="M840.466,114.06672 C840.466,114.06672 837.2092,94.15712 834.9972,82.84992 C832.7844,71.54432 829.5892,76.21472 829.5892,76.21472 C829.5892,76.21472 829.098,82.84992 831.5556,93.41952 C834.014,103.98912 834.2596,109.64272 834.2596,109.64272 C834.2596,109.64272 827.1316,93.41952 824.4276,88.25792 C821.7244,83.09632 819.5116,80.39232 817.5452,82.11312 C815.5788,83.83392 819.0204,87.52032 821.2324,91.94512 C823.4444,96.36992 831.5556,114.55872 831.5556,114.55872 L812.138,97.84432 C812.138,97.84432 806.9764,96.61552 809.926,101.77712 C812.8756,106.93872 835.7348,126.35632 835.7348,126.35632 C835.7348,126.35632 824.9196,130.78192 820.7412,133.48432 C816.562,136.18832 812.138,138.64672 814.842,141.34992 C817.5452,144.05392 840.4052,129.73632 840.4052,129.73632 L840.466,114.06672 Z" id="Fill-46" fill="#E8F2DC" mask="url(#mask-6)"></path>
                                <path d="M840.466,114.06672 C840.466,114.06672 837.2092,94.15712 834.9972,82.84992 C832.7844,71.54432 829.5892,76.21472 829.5892,76.21472 C829.5892,76.21472 829.098,82.84992 831.5556,93.41952 C834.014,103.98912 834.2596,109.64272 834.2596,109.64272 C834.2596,109.64272 827.1316,93.41952 824.4276,88.25792 C821.7244,83.09632 819.5116,80.39232 817.5452,82.11312 C815.5788,83.83392 819.0204,87.52032 821.2324,91.94512 C823.4444,96.36992 831.5556,114.55872 831.5556,114.55872 L812.138,97.84432 C812.138,97.84432 806.9764,96.61552 809.926,101.77712 C812.8756,106.93872 835.7348,126.35632 835.7348,126.35632 C835.7348,126.35632 824.9196,130.78192 820.7412,133.48432 C816.562,136.18832 812.138,138.64672 814.842,141.34992 C817.5452,144.05392 840.4052,129.73632 840.4052,129.73632 L840.466,114.06672 Z" id="Stroke-47" stroke="#000000" stroke-width="1.2" stroke-linecap="round" stroke-linejoin="round" mask="url(#mask-6)"></path>
                                <path d="M784.2656,222.71672 C784.2656,222.71672 764.3272,219.63992 753.0008,217.53112 C741.6744,215.42072 746.3152,212.18312 746.3152,212.18312 C746.3152,212.18312 752.948,211.63192 763.5384,213.99432 C774.1296,216.35592 779.7848,216.55032 779.7848,216.55032 C779.7848,216.55032 763.4984,209.56952 758.3128,206.91272 C753.1264,204.25592 750.4024,202.06792 752.1056,200.08632 C753.808,198.10392 757.5264,201.51192 761.9704,203.68392 C766.4144,205.85592 784.6768,213.80152 784.6768,213.80152 L767.7864,194.53592 C767.7864,194.53592 766.5112,189.38632 771.6992,192.28872 C776.888,195.19192 796.512,217.87352 796.512,217.87352 C796.512,217.87352 800.8384,207.01912 803.504,202.81592 C806.1696,198.61272 808.5872,194.16632 811.316,196.84552 C814.044,199.52552 799.9336,222.51272 799.9336,222.51272 L784.2656,222.71672 Z" id="Fill-48" fill="#E8F2DC" mask="url(#mask-6)"></path>
                                <path d="M784.2656,222.71672 C784.2656,222.71672 764.3272,219.63992 753.0008,217.53112 C741.6744,215.42072 746.3152,212.18312 746.3152,212.18312 C746.3152,212.18312 752.948,211.63192 763.5384,213.99432 C774.1296,216.35592 779.7848,216.55032 779.7848,216.55032 C779.7848,216.55032 763.4984,209.56952 758.3128,206.91272 C753.1264,204.25592 750.4024,202.06792 752.1056,200.08632 C753.808,198.10392 757.5264,201.51192 761.9704,203.68392 C766.4144,205.85592 784.6768,213.80152 784.6768,213.80152 L767.7864,194.53592 C767.7864,194.53592 766.5112,189.38632 771.6992,192.28872 C776.888,195.19192 796.512,217.87352 796.512,217.87352 C796.512,217.87352 800.8384,207.01912 803.504,202.81592 C806.1696,198.61272 808.5872,194.16632 811.316,196.84552 C814.044,199.52552 799.9336,222.51272 799.9336,222.51272 L784.2656,222.71672 Z" id="Stroke-49" stroke="#000000" stroke-width="1.2" stroke-linecap="round" stroke-linejoin="round" mask="url(#mask-6)"></path>
                            </g>
                        </g>
                    </g>
                </g>
            </g>
        </g>
    </g>
</svg>