<?xml version="1.0" encoding="UTF-8"?>
<svg width="263px" height="75px" viewBox="0 0 263 75" version="1.1" xmlns="http://www.w3.org/2000/svg" xmlns:xlink="http://www.w3.org/1999/xlink">
    <!-- Generator: Sketch 56.2 (81672) - https://sketch.com -->
    <title>Group 119</title>
    <desc>Created with Sketch.</desc>
    <defs>
        <path d="M0.6589,70.2470558 L23.9011492,70.1572404 C23.9011492,43.8181493 45.0628376,23.1692986 71.8148685,23.1692986 L71.8148685,23.1692986 C98.5668994,23.1692986 119.167494,44.0026089 119.167494,70.3417 L119.167494,70.3417 L142.286145,69.7902527 L142.6589,69.7902527 C142.6589,31.1821845 110.877621,0.3417 71.6638047,0.3417 L71.6638047,0.3417 C32.4480268,0.3417 0.6589,31.6399534 0.6589,70.2470558" id="path-1"></path>
        <linearGradient x1="2.76319425e-06%" y1="49.9993804%" x2="100.000115%" y2="49.9993804%" id="linearGradient-3">
            <stop stopColor="#24A8DF" offset="0%"></stop>
            <stop stopColor="#EB858A" offset="100%"></stop>
        </linearGradient>
    </defs>
    <g id="Symbols" stroke="none" stroke-width="1" fill="none" fill-rule="evenodd">
        <g id="illu_inflation" transform="translate(-66.000000, -112.000000)">
            <g id="Group-119" transform="translate(65.000000, 112.000000)">
                <g id="Group-10" transform="translate(61.000000, 2.317000)">
                    <mask id="mask-2" fill="white">
                        <use xlink:href="#path-1"></use>
                    </mask>
                    <g id="Clip-9"></g>
                    <path d="M0.6589,70.2470558 L23.9011492,70.1572404 C23.9011492,43.8181493 45.0628376,23.1692986 71.8148685,23.1692986 L71.8148685,23.1692986 C98.5668994,23.1692986 119.167494,44.0026089 119.167494,70.3417 L119.167494,70.3417 L142.286145,69.7902527 L142.6589,69.7902527 C142.6589,31.1821845 110.877621,0.3417 71.6638047,0.3417 L71.6638047,0.3417 C32.4480268,0.3417 0.6589,31.6399534 0.6589,70.2470558" id="Fill-8" fill="url(#linearGradient-3)" mask="url(#mask-2)"></path>
                </g>
                <g id="Group-118" transform="translate(0.000000, 0.317000)" fill="#000000">
                    <path d="M133.15433,23.8902978 C159.835362,23.8902978 180.842707,44.7614782 181.597316,71.683 L202,71.1865567 C201.637788,53.2186392 194.499672,36.4355271 181.808607,23.7855257 C168.80304,10.8221873 151.471371,3.683 133.004382,3.683 C95.4365303,3.683 64.7828461,34.0238116 64,71.6183742 L84.1553669,71.5371025 C84.9012129,44.7007692 106.154901,23.8902978 133.15433,23.8902978 L133.15433,23.8902978 Z M180.199567,74.683 C179.819491,74.683 179.453059,74.533004 179.17921,74.2643836 C178.897564,73.9879204 178.737737,73.6085187 178.737737,73.2124507 C178.737737,47.184709 158.716513,26.7970139 133.154954,26.7970139 C107.281538,26.7970139 87.0147266,47.1033386 87.0147266,73.0252008 C87.0147266,73.8349833 86.363725,74.492809 85.5587439,74.4957501 L62.4676773,74.5888848 C62.0944234,74.5477095 61.7055766,74.4359477 61.429778,74.1604648 C61.1539794,73.8840016 61,73.5085213 61,73.1183356 C61,33.177237 93.3005956,0.683 133.004873,0.683 C152.263021,0.683 170.34196,8.13378297 183.910666,21.6618559 C197.510558,35.2213005 205,53.3296442 205,72.6526616 C205,73.5281286 204.19307,74.2124242 203.35203,74.1124269 C203.303303,74.1183091 203.2536,74.1212502 203.202924,74.1232109 L180.235625,74.683 L180.199567,74.683 Z" id="Fill-11"></path>
                    <path d="M132.659523,26.3417 C131.553883,26.3417 130.6589,25.6149291 130.6589,24.7203642 L130.6589,1.96404663 C130.6589,1.06847086 131.553883,0.3417 132.659523,0.3417 C133.765164,0.3417 134.6589,1.06847086 134.6589,1.96404663 L134.6589,24.7203642 C134.6589,25.6149291 133.765164,26.3417 132.659523,26.3417" id="Fill-13"></path>
                    <path d="M155.2401,31.3417 C154.978798,31.3417 154.713553,31.278179 154.469014,31.1443999 C153.706803,30.7286261 153.433669,29.7873603 153.860625,29.0424321 L164.695268,10.1324216 C165.121238,9.38845594 166.085589,9.12186021 166.848786,9.5385965 C167.610997,9.95437035 167.884131,10.8956361 167.457175,11.6405643 L156.622532,30.5515372 C156.332636,31.0558555 155.794256,31.3417 155.2401,31.3417" id="Fill-15"></path>
                    <path d="M174.244513,48.3417 C173.71738,48.3417 173.201106,48.0942882 172.901016,47.6474698 C172.436073,46.9523164 172.661141,46.039293 173.401496,45.6044759 L192.23415,34.5688008 C192.974504,34.1330605 193.95276,34.3435452 194.417703,35.0359291 C194.880672,35.7310824 194.657578,36.6441059 193.916236,37.078923 L175.084569,48.1145981 C174.822977,48.2687689 174.531771,48.3417 174.244513,48.3417" id="Fill-17"></path>
                    <path d="M91.072743,48.3417 C90.7854785,48.3417 90.4952524,48.2687689 90.2336542,48.1145981 L71.4025257,37.078923 C70.6601788,36.6441059 70.4370799,35.7310824 70.9000595,35.0359291 C71.3660007,34.3435452 72.3432924,34.1330605 73.0846521,34.5688008 L91.9157805,45.6044759 C92.6571402,46.039293 92.8812263,46.9523164 92.4172595,47.6474698 C92.1161747,48.0942882 91.6008754,48.3417 91.072743,48.3417" id="Fill-19"></path>
                    <path d="M110.0777,31.3417 C109.523544,31.3417 108.985164,31.0568205 108.695268,30.5515444 L97.8606254,11.6407448 C97.4336687,10.8958235 97.7068026,9.95456629 98.469014,9.53879625 C99.2341835,9.12206379 100.196562,9.38769464 100.622532,10.132616 L111.457175,29.0424532 C111.884131,29.7873745 111.610997,30.7286317 110.848786,31.1444017 C110.604247,31.2781796 110.339002,31.3417 110.0777,31.3417" id="Fill-21"></path>
                    <path d="M132.5,65.683 C131.121549,65.683 130,66.8045491 130,68.183 C130,69.5624095 131.121549,70.683 132.5,70.683 C133.878451,70.683 135,69.5624095 135,68.183 C135,66.8045491 133.878451,65.683 132.5,65.683 M133.000516,74.683 C129.692447,74.683 127,71.9913534 127,68.683 C127,65.3736153 129.692447,62.683 133.000516,62.683 C136.308585,62.683 139,65.3736153 139,68.683 C139,71.9913534 136.308585,74.683 133.000516,74.683" id="Fill-23"></path>
                    <path d="M134.446407,64.6433443 C134.261455,64.9649052 133.963841,65.2184622 133.59206,65.3350402 C132.795921,65.5876258 131.954718,65.1242284 131.710618,64.3004108 L127.7656,50.9502913 L130.406566,64.4733348 C130.572741,65.316582 130.044172,66.1394281 129.228318,66.3104091 C128.413402,66.4813901 127.618202,65.9344452 127.452966,65.0902265 L118.687928,20.2096544 C118.53208,19.3945802 119.018401,18.5950497 119.795763,18.3900668 C120.575002,18.1850839 121.370202,18.6494527 121.606791,19.4460688 L134.592866,63.3891597 C134.721488,63.8263271 134.656708,64.2790382 134.446407,64.6433443" id="Fill-25"></path>
                    <path d="M246.000491,16.683 C237.728696,16.683 231,23.4119168 231,31.6849658 C231,39.9550661 237.728696,46.683 246.000491,46.683 C254.271304,46.683 261,39.9550661 261,31.6849658 C261,23.4119168 254.271304,16.683 246.000491,16.683 M246,49.683 C236.075249,49.683 228,41.6085069 228,31.6844617 C228,21.7584676 236.075249,13.683 246,13.683 C255.924751,13.683 264,21.7584676 264,31.6844617 C264,41.6085069 255.924751,49.683 246,49.683" id="Fill-27"></path>
                    <path d="M255.136947,32.3417 C254.295319,32.3417 253.614045,31.6879646 253.614045,30.8832972 C253.614045,26.6790238 250.046375,23.260324 245.659849,23.260324 C241.273322,23.260324 237.704704,26.6790238 237.704704,30.8832972 C237.704704,31.6879646 237.02343,32.3417 236.181802,32.3417 C235.341122,32.3417 234.6589,31.6879646 234.6589,30.8832972 C234.6589,25.0705983 239.593861,20.3417 245.659849,20.3417 C251.723939,20.3417 256.6589,25.0705983 256.6589,30.8832972 C256.6589,31.6879646 255.978576,32.3417 255.136947,32.3417" id="Fill-29"></path>
                    <path d="M19.0004914,16.683 C10.7286964,16.683 4,23.4119168 4,31.6849658 C4,39.9550661 10.7286964,46.683 19.0004914,46.683 C27.2713036,46.683 34,39.9550661 34,31.6849658 C34,23.4119168 27.2713036,16.683 19.0004914,16.683 M19.0004872,49.683 C9.07449314,49.683 1,41.6085069 1,31.6844617 C1,21.7584676 9.07449314,13.683 19.0004872,13.683 C28.9255069,13.683 37,21.7584676 37,31.6844617 C37,41.6085069 28.9255069,49.683 19.0004872,49.683" id="Fill-31"></path>
                    <path d="M28.1369471,32.3417 C27.2953185,32.3417 26.6140453,31.6879646 26.6140453,30.8832972 C26.6140453,26.6790238 23.0463752,23.260324 18.6598488,23.260324 C14.2733225,23.260324 10.7047035,26.6790238 10.7047035,30.8832972 C10.7047035,31.6879646 10.0224815,32.3417 9.1808529,32.3417 C8.34112203,32.3417 7.6589,31.6879646 7.6589,30.8832972 C7.6589,25.0705983 12.5938608,20.3417 18.6598488,20.3417 C24.7239392,20.3417 29.6589,25.0705983 29.6589,30.8832972 C29.6589,31.6879646 28.9785757,32.3417 28.1369471,32.3417" id="Fill-33"></path>
                </g>
            </g>
        </g>
    </g>
</svg>