<?xml version="1.0" encoding="UTF-8"?>
<svg width="1104px" height="358px" viewBox="0 0 1104 358" version="1.1" xmlns="http://www.w3.org/2000/svg" xmlns:xlink="http://www.w3.org/1999/xlink">
    <!-- Generator: Sketch 56.2 (81672) - https://sketch.com -->
    <title>Group</title>
    <desc>Created with Sketch.</desc>
    <g id="Symbols" stroke="none" stroke-width="1" fill="none" fill-rule="evenodd">
        <g id="illu/title" transform="translate(-1536.000000, -352.000000)">
            <g id="Group-399" transform="translate(9.000000, 12.000000)">
                <g id="Group" transform="translate(1526.709300, 339.840700)">
                    <path d="M689.1637,110.122 C699.0307,93.993 715.7517,85.815 738.8597,85.815 C757.8147,85.815 772.1687,93.989 781.5237,110.111 C786.9587,119.476 789.0557,128.966 789.7397,132.897 L681.3217,132.897 C681.7697,129.053 683.4117,119.522 689.1637,110.122 M796.8047,180.346 C793.7667,181.105 792.4157,184.38 790.2907,190.101 C786.9177,199.185 781.8197,212.913 761.6997,222.331 C745.8017,229.773 725.5897,229.612 707.6317,221.899 C693.6567,215.898 683.2727,206.193 679.8547,195.938 C672.4437,173.706 676.9367,151.868 677.1317,150.949 L677.4177,149.601 L807.2387,149.601 C807.9427,149.022 809.8557,146.92 809.3977,141.421 C808.9577,136.144 806.7067,117.572 796.2157,100.098 C782.1857,76.727 759.6797,64.879 729.3207,64.879 C710.6027,64.879 695.3077,71.694 683.8587,85.138 C669.8577,101.577 664.1467,124.999 661.8217,141.754 C658.9187,162.665 660.0777,180.13 661.0967,186.444 C662.0427,192.316 672.3297,243.813 740.9347,243.813 C764.6867,243.813 783.5077,234.094 796.8717,214.923 C805.8007,202.116 809.1847,189.128 809.8467,186.305 C808.8487,184.493 804.8077,178.343 796.8047,180.346" id="Fill-1" fill="#FFCA71"></path>
                    <path d="M861.5514,110.122 C871.4184,93.993 888.1394,85.815 911.2474,85.815 C930.2024,85.815 944.5564,93.989 953.9114,110.111 C959.3464,119.476 961.4434,128.966 962.1274,132.897 L853.7094,132.897 C854.1574,129.053 855.7994,119.522 861.5514,110.122 M969.1924,180.346 C966.1544,181.105 964.8034,184.38 962.6784,190.101 C959.3054,199.185 954.2074,212.913 934.0874,222.331 C918.1894,229.773 897.9774,229.612 880.0194,221.899 C866.0444,215.898 855.6604,206.193 852.2424,195.938 C844.8304,173.706 849.3244,151.868 849.5194,150.949 L849.8054,149.601 L979.6264,149.601 C980.3304,149.022 982.2434,146.92 981.7854,141.421 C981.3454,136.144 979.0944,117.572 968.6034,100.098 C954.5734,76.727 932.0674,64.879 901.7084,64.879 C882.9904,64.879 867.6954,71.694 856.2464,85.138 C842.2454,101.577 836.5344,124.999 834.2094,141.754 C831.3064,162.665 832.4654,180.13 833.4844,186.444 C834.4304,192.316 844.7174,243.813 913.3224,243.813 C937.0744,243.813 955.8954,234.094 969.2594,214.923 C978.1884,202.116 981.5724,189.128 982.2344,186.305 C981.2354,184.493 977.1904,178.343 969.1924,180.346" id="Fill-3" fill="#FFCA71"></path>
                    <path d="M10.566,5.3369 C6.945,5.3369 4,8.2829 4,11.9039 L4,239.9189 C4,243.5399 6.945,246.4859 10.566,246.4859 L13.409,246.4859 C17.03,246.4859 19.976,243.5399 19.976,239.9189 L19.976,11.9039 C19.976,8.2829 17.03,5.3369 13.409,5.3369 L10.566,5.3369 Z" id="Fill-9" fill="#FFCA71"></path>
                    <path d="M65.7007,4 C63.9757,4 62.5727,5.403 62.5727,7.129 L62.5727,22.193 C62.5727,23.919 63.9757,25.322 65.7007,25.322 L84.0397,25.322 C85.7637,25.322 87.1677,23.919 87.1677,22.193 L87.1677,7.129 C87.1677,5.403 85.7637,4 84.0397,4 L65.7007,4 Z" id="Fill-11" fill="#FFCA71"></path>
                    <path d="M276.7701,62.8095 C275.0451,62.8095 273.6421,64.2125 273.6421,65.9375 L273.6421,81.0025 C273.6421,82.7285 275.0451,84.1315 276.7701,84.1315 L295.1091,84.1315 C296.8331,84.1315 298.2371,82.7285 298.2371,81.0025 L298.2371,65.9375 C298.2371,64.2125 296.8331,62.8095 295.1091,62.8095 L276.7701,62.8095 Z" id="Fill-19" fill="#FFCA71"></path>
                    <path d="M240.525,139.7734 C238.8,139.7734 237.397,141.1764 237.397,142.9014 L237.397,157.9664 C237.397,159.6914 238.8,161.0944 240.525,161.0944 L258.863,161.0944 C260.588,161.0944 261.992,159.6914 261.992,157.9664 L261.992,142.9014 C261.992,141.1764 260.588,139.7734 258.863,139.7734 L240.525,139.7734 Z" id="Fill-21" fill="#FFCA71"></path>
                    <path d="M201.1031,221.1552 C199.3771,221.1552 197.9741,222.5582 197.9741,224.2842 L197.9741,239.3482 C197.9741,241.0742 199.3771,242.4772 201.1031,242.4772 L219.4411,242.4772 C221.1661,242.4772 222.5701,241.0742 222.5701,239.3482 L222.5701,224.2842 C222.5701,222.5582 221.1661,221.1552 219.4411,221.1552 L201.1031,221.1552 Z" id="Fill-25" fill="#FFCA71"></path>
                    <path d="M74.0425,57.5742 C70.4215,57.5742 67.4755,60.5202 67.4755,64.1412 L67.4755,239.9192 C67.4755,243.5402 70.4215,246.4862 74.0425,246.4862 L76.8845,246.4862 C80.5055,246.4862 83.4515,243.5402 83.4515,239.9192 L83.4515,64.1412 C83.4515,60.5202 80.5055,57.5742 76.8845,57.5742 L74.0425,57.5742 Z M76.8845,249.8872 L74.0425,249.8872 C68.5465,249.8872 64.0745,245.4152 64.0745,239.9192 L64.0745,64.1412 C64.0745,58.6452 68.5465,54.1742 74.0425,54.1742 L76.8845,54.1742 C82.3805,54.1742 86.8525,58.6452 86.8525,64.1412 L86.8525,239.9192 C86.8525,245.4152 82.3805,249.8872 76.8845,249.8872 L76.8845,249.8872 Z" id="Fill-129" fill="#000000"></path>
                    <path d="M1018.4294,57.5742 C1014.0244,57.5742 1010.4414,61.1572 1010.4414,65.5622 L1010.4414,238.4982 C1010.4414,242.9032 1014.0244,246.4862 1018.4294,246.4862 C1022.8344,246.4862 1026.4174,242.9032 1026.4174,238.4982 L1026.4174,112.6962 L1027.2474,112.2022 C1027.8564,111.8392 1088.1744,75.8872 1091.3714,73.8332 C1091.6154,73.6762 1091.9604,73.4722 1092.3784,73.2272 C1094.4884,71.9912 1099.4284,69.0952 1100.1654,66.0112 C1100.3814,65.1042 1100.2114,64.2612 1099.6294,63.3542 C1096.4354,58.3872 1093.3424,58.6172 1088.3994,60.8652 C1083.6304,63.0332 1029.5154,94.3262 1028.9694,94.6422 L1026.4174,96.1182 L1026.4174,65.5622 C1026.4174,61.1572 1022.8344,57.5742 1018.4294,57.5742 M1018.4294,249.8872 C1012.1504,249.8872 1007.0404,244.7772 1007.0404,238.4982 L1007.0404,65.5622 C1007.0404,59.2832 1012.1504,54.1742 1018.4294,54.1742 C1024.7084,54.1742 1029.8184,59.2832 1029.8184,65.5622 L1029.8184,90.2242 C1040.7904,83.8862 1082.6304,59.7532 1086.9924,57.7692 C1091.9994,55.4952 1097.7594,54.1572 1102.4894,61.5162 C1103.5754,63.2062 1103.9064,64.9842 1103.4724,66.8012 C1102.3984,71.2952 1096.7914,74.5812 1094.0974,76.1612 C1093.7294,76.3772 1093.4244,76.5542 1093.2094,76.6922 C1090.1344,78.6702 1037.4234,110.0952 1029.8184,114.6282 L1029.8184,238.4982 C1029.8184,244.7772 1024.7084,249.8872 1018.4294,249.8872" id="Fill-131" fill="#000000"></path>
                    <path d="M128.941,62.8095 C127.215,62.8095 125.812,64.2125 125.812,65.9375 L125.812,81.0025 C125.812,82.7285 127.215,84.1315 128.941,84.1315 L147.279,84.1315 C149.003,84.1315 150.407,82.7285 150.407,81.0025 L150.407,65.9375 C150.407,64.2125 149.003,62.8095 147.279,62.8095 L128.941,62.8095 Z M147.279,87.5325 L128.941,87.5325 C125.34,87.5325 122.412,84.6035 122.412,81.0025 L122.412,65.9375 C122.412,62.3375 125.34,59.4095 128.941,59.4095 L147.279,59.4095 C150.878,59.4095 153.807,62.3375 153.807,65.9375 L153.807,81.0025 C153.807,84.6035 150.878,87.5325 147.279,87.5325 L147.279,87.5325 Z" id="Fill-135" fill="#000000"></path>
                    <path d="M201.1031,62.8095 C199.3771,62.8095 197.9741,64.2125 197.9741,65.9375 L197.9741,81.0025 C197.9741,82.7285 199.3771,84.1315 201.1031,84.1315 L219.4411,84.1315 C221.1661,84.1315 222.5701,82.7285 222.5701,81.0025 L222.5701,65.9375 C222.5701,64.2125 221.1661,62.8095 219.4411,62.8095 L201.1031,62.8095 Z M219.4411,87.5325 L201.1031,87.5325 C197.5021,87.5325 194.5741,84.6035 194.5741,81.0025 L194.5741,65.9375 C194.5741,62.3375 197.5021,59.4095 201.1031,59.4095 L219.4411,59.4095 C223.0411,59.4095 225.9701,62.3375 225.9701,65.9375 L225.9701,81.0025 C225.9701,84.6035 223.0411,87.5325 219.4411,87.5325 L219.4411,87.5325 Z" id="Fill-137" fill="#000000"></path>
                    <path d="M164.857,139.7734 C163.132,139.7734 161.729,141.1764 161.729,142.9014 L161.729,157.9664 C161.729,159.6914 163.132,161.0944 164.857,161.0944 L183.196,161.0944 C184.92,161.0944 186.324,159.6914 186.324,157.9664 L186.324,142.9014 C186.324,141.1764 184.92,139.7734 183.196,139.7734 L164.857,139.7734 Z M183.196,164.4954 L164.857,164.4954 C161.257,164.4954 158.329,161.5664 158.329,157.9664 L158.329,142.9014 C158.329,139.3014 161.257,136.3734 164.857,136.3734 L183.196,136.3734 C186.795,136.3734 189.724,139.3014 189.724,142.9014 L189.724,157.9664 C189.724,161.5664 186.795,164.4954 183.196,164.4954 L183.196,164.4954 Z" id="Fill-143" fill="#000000"></path>
                    <path d="M384.2378,64.8789 C365.5188,64.8789 350.2218,71.6949 338.7738,85.1389 C324.7738,101.5789 319.0628,125.0009 316.7378,141.7549 C313.8348,162.6659 314.9948,180.1309 316.0128,186.4439 C316.9598,192.3169 327.2468,243.8139 395.8508,243.8139 C419.6038,243.8139 438.4248,234.0939 451.7888,214.9229 C460.7168,202.1159 464.1018,189.1279 464.7628,186.3049 C463.7648,184.4929 459.7208,178.3429 451.7208,180.3459 C448.6818,181.1059 447.3318,184.3799 445.2068,190.1019 C441.8338,199.1859 436.7348,212.9139 416.6168,222.3309 C400.7188,229.7719 380.5088,229.6109 362.5488,221.8999 C348.5738,215.8989 338.1888,206.1929 334.7708,195.9399 C327.3598,173.7059 331.8528,151.8679 332.0478,150.9489 L332.3338,149.6019 L462.1548,149.6019 C462.8588,149.0229 464.7718,146.9199 464.3138,141.4209 C463.8748,136.1459 461.6258,117.5759 451.1328,100.0979 C437.1018,76.7279 414.5958,64.8789 384.2378,64.8789 M395.8508,247.2139 C369.4998,247.2139 348.3928,239.7759 333.1188,225.1079 C317.8328,210.4289 313.7168,193.5579 312.6558,186.9849 C310.5988,174.2379 308.3218,115.6539 336.1858,82.9349 C348.3098,68.6969 364.4768,61.4789 384.2378,61.4789 C415.8728,61.4789 439.3598,73.8829 454.0478,98.3479 C464.9188,116.4559 467.2478,135.6779 467.7028,141.1379 C468.4578,150.1979 463.6338,152.7199 463.4278,152.8219 L463.0688,153.0019 L335.1308,153.0019 C334.2928,158.0669 331.9048,176.5889 337.9958,194.8639 C341.1128,204.2119 350.7928,213.1509 363.8898,218.7749 C380.9718,226.1109 400.1438,226.2869 415.1748,219.2509 C434.0328,210.4249 438.6488,197.9939 442.0198,188.9179 C444.2268,182.9739 445.9708,178.2779 450.8968,177.0469 C460.4418,174.6689 466.3258,181.4529 468.1038,185.3749 L468.3298,185.8739 L468.2218,186.4109 C468.0978,187.0319 465.0568,201.7889 454.6488,216.7659 C444.9958,230.6559 426.9598,247.2139 395.8508,247.2139" id="Fill-147" fill="#000000"></path>
                    <path d="M492.1021,69.6826 L499.0601,344.0536 L499.0351,344.2096 C499.0281,344.2536 498.3031,349.1326 500.9661,352.1236 C502.5321,353.8826 505.0471,354.7036 508.4601,354.5766 C511.8211,354.4456 514.3421,353.3916 515.9561,351.4426 C518.8451,347.9546 518.0971,342.7036 518.0881,342.6506 L518.0721,342.4786 L510.7221,186.1266 L514.0761,185.6596 C514.0961,185.7456 516.2861,194.6616 524.5771,203.5276 C535.5451,215.2546 552.2481,221.6096 572.8761,221.9036 C573.0981,221.9076 573.3221,221.9086 573.5441,221.9086 C608.5781,221.9086 623.5991,182.5156 623.7481,182.1156 C627.1571,174.2666 630.6891,156.9196 630.9111,138.7846 C631.0991,123.3376 628.9701,102.1986 617.7601,89.2056 C589.6111,56.5826 556.9341,62.8936 544.1901,67.1196 C526.2861,73.0596 514.6391,84.6366 514.1161,91.9556 L510.7331,92.0446 C509.8061,84.5886 507.6391,71.7136 505.7721,68.9046 C504.6171,67.1646 498.0141,67.8936 492.1021,69.6826 M507.7611,357.9896 C503.6831,357.9896 500.5401,356.7716 498.4081,354.3636 C494.9781,350.4886 495.5131,344.9126 495.6541,343.8396 L488.6391,67.2346 L489.8321,66.8366 C492.3811,65.9866 505.2651,62.0026 508.6041,67.0216 C510.5021,69.8796 512.1491,78.5386 513.1401,84.8206 C518.0001,76.7276 529.5891,68.3816 543.1201,63.8936 C556.5141,59.4516 590.8441,52.8076 620.3351,86.9856 C632.2401,100.7836 634.5051,122.7916 634.3101,138.8266 C634.0841,157.4116 630.4111,175.3096 626.9001,183.3836 C626.7781,183.7206 610.9111,225.3046 573.5471,225.3086 C573.3061,225.3086 573.0701,225.3066 572.8271,225.3036 C545.4591,224.9126 530.0581,214.4296 521.9591,205.7046 C518.6521,202.1426 516.2651,198.6036 514.5691,195.5476 L521.4641,342.2436 C521.5791,343.1176 522.2161,349.2136 518.5761,353.6106 C516.3191,356.3356 512.9591,357.8036 508.5911,357.9736 C508.3111,357.9846 508.0341,357.9896 507.7611,357.9896" id="Fill-149" fill="#000000"></path>
                    <path d="M565.2067,206.0986 C537.2207,206.0986 514.4517,177.9616 514.4517,143.3756 C514.4517,108.7906 537.2207,80.6546 565.2067,80.6546 C593.1927,80.6546 615.9617,108.7906 615.9617,143.3756 C615.9617,177.9616 593.1927,206.0986 565.2067,206.0986 M617.7607,89.2056 C589.6107,56.5826 556.9347,62.8936 544.1897,67.1196 C526.2857,73.0596 514.6387,84.6366 514.1157,91.9556 L510.7327,92.0446 C509.8057,84.5886 507.6387,71.7136 505.7717,68.9046 C504.6167,67.1646 498.0137,67.8936 492.1017,69.6826 L499.0597,344.0536 L499.0347,344.2096 C499.0277,344.2536 498.3037,349.1326 500.9667,352.1236 C502.5317,353.8826 505.0477,354.7036 508.4607,354.5766 C511.8207,354.4456 514.3427,353.3916 515.9567,351.4426 C518.8457,347.9536 518.0977,342.7036 518.0887,342.6506 L518.0717,342.4786 L510.7227,186.1266 L514.0757,185.6596 C514.0967,185.7456 516.2857,194.6616 524.5767,203.5276 C535.5457,215.2546 552.2477,221.6096 572.8757,221.9036 C573.0987,221.9076 573.3217,221.9086 573.5437,221.9086 C608.5777,221.9086 623.5997,182.5156 623.7477,182.1156 C627.1567,174.2666 630.6887,156.9196 630.9107,138.7846 C631.0997,123.3376 628.9707,102.1986 617.7607,89.2056" id="Fill-5" fill="#FFCA71"></path>
                    <path d="M344.0796,110.122 C353.9476,93.993 370.6676,85.815 393.7756,85.815 C412.7306,85.815 427.0846,93.989 436.4396,110.111 C441.8746,119.476 443.9716,128.966 444.6556,132.897 L336.2386,132.897 C336.6866,129.053 338.3286,119.522 344.0796,110.122 M451.7216,180.346 C448.6826,181.105 447.3316,184.38 445.2066,190.101 C441.8336,199.185 436.7346,212.914 416.6166,222.331 C400.7196,229.771 380.5096,229.611 362.5486,221.899 C348.5736,215.898 338.1886,206.193 334.7706,195.939 C327.3596,173.706 331.8526,151.868 332.0476,150.949 L332.3336,149.601 L462.1546,149.601 C462.8586,149.022 464.7716,146.92 464.3136,141.421 C463.8746,136.145 461.6256,117.576 451.1326,100.098 C437.1016,76.727 414.5966,64.879 384.2376,64.879 C365.5186,64.879 350.2226,71.695 338.7736,85.139 C324.7736,101.579 319.0626,125.001 316.7376,141.755 C313.8346,162.666 314.9946,180.131 316.0136,186.444 C316.9596,192.316 327.2466,243.813 395.8506,243.813 C419.6036,243.813 438.4246,234.094 451.7886,214.923 C460.7176,202.116 464.1016,189.128 464.7636,186.305 C463.7656,184.493 459.7216,178.343 451.7216,180.346" id="Fill-7" fill="#FFCA71"></path>
                    <path d="M74.0425,57.5742 C70.4215,57.5742 67.4755,60.5202 67.4755,64.1412 L67.4755,239.9192 C67.4755,243.5402 70.4215,246.4862 74.0425,246.4862 L76.8845,246.4862 C80.5055,246.4862 83.4515,243.5402 83.4515,239.9192 L83.4515,64.1412 C83.4515,60.5202 80.5055,57.5742 76.8845,57.5742 L74.0425,57.5742 Z" id="Fill-13" fill="#FFCA71"></path>
                    <path d="M128.941,62.8095 C127.215,62.8095 125.812,64.2125 125.812,65.9375 L125.812,81.0025 C125.812,82.7285 127.215,84.1315 128.941,84.1315 L147.279,84.1315 C149.003,84.1315 150.407,82.7285 150.407,81.0025 L150.407,65.9375 C150.407,64.2125 149.003,62.8095 147.279,62.8095 L128.941,62.8095 Z" id="Fill-15" fill="#FFCA71"></path>
                    <path d="M201.1031,62.8095 C199.3771,62.8095 197.9741,64.2125 197.9741,65.9375 L197.9741,81.0025 C197.9741,82.7285 199.3771,84.1315 201.1031,84.1315 L219.4411,84.1315 C221.1661,84.1315 222.5701,82.7285 222.5701,81.0025 L222.5701,65.9375 C222.5701,64.2125 221.1661,62.8095 219.4411,62.8095 L201.1031,62.8095 Z" id="Fill-17" fill="#FFCA71"></path>
                    <path d="M164.857,139.7734 C163.132,139.7734 161.729,141.1764 161.729,142.9014 L161.729,157.9664 C161.729,159.6914 163.132,161.0944 164.857,161.0944 L183.196,161.0944 C184.92,161.0944 186.324,159.6914 186.324,157.9664 L186.324,142.9014 C186.324,141.1764 184.92,139.7734 183.196,139.7734 L164.857,139.7734 Z" id="Fill-23" fill="#FFCA71"></path>
                    <path d="M1018.4294,57.5742 C1014.0244,57.5742 1010.4414,61.1572 1010.4414,65.5622 L1010.4414,238.4982 C1010.4414,242.9032 1014.0244,246.4862 1018.4294,246.4862 C1022.8344,246.4862 1026.4174,242.9032 1026.4174,238.4982 L1026.4174,112.6962 L1027.2474,112.2022 C1027.8564,111.8392 1088.1744,75.8872 1091.3714,73.8332 C1091.6154,73.6762 1091.9604,73.4722 1092.3784,73.2272 C1094.4884,71.9912 1099.4284,69.0952 1100.1654,66.0112 C1100.3814,65.1042 1100.2114,64.2612 1099.6294,63.3542 C1096.4354,58.3872 1093.3424,58.6172 1088.3994,60.8652 C1083.6304,63.0332 1029.5154,94.3262 1028.9694,94.6422 L1026.4174,96.1182 L1026.4174,65.5622 C1026.4174,61.1572 1022.8344,57.5742 1018.4294,57.5742" id="Fill-27" fill="#FFCA71"></path>
                    <path d="M10.566,5.3369 C6.945,5.3369 4,8.2829 4,11.9039 L4,239.9189 C4,243.5399 6.945,246.4859 10.566,246.4859 L13.409,246.4859 C17.03,246.4859 19.976,243.5399 19.976,239.9189 L19.976,11.9039 C19.976,8.2829 17.03,5.3369 13.409,5.3369 L10.566,5.3369 Z M13.409,249.8869 L10.566,249.8869 C5.071,249.8869 0.599,245.4149 0.599,239.9189 L0.599,11.9039 C0.599,6.4079 5.071,1.9369 10.566,1.9369 L13.409,1.9369 C18.905,1.9369 23.377,6.4079 23.377,11.9039 L23.377,239.9189 C23.377,245.4149 18.905,249.8869 13.409,249.8869 L13.409,249.8869 Z" id="Fill-127" fill="#000000"></path>
                    <path d="M65.7007,4 C63.9757,4 62.5727,5.403 62.5727,7.129 L62.5727,22.193 C62.5727,23.919 63.9757,25.322 65.7007,25.322 L84.0397,25.322 C85.7637,25.322 87.1677,23.919 87.1677,22.193 L87.1677,7.129 C87.1677,5.403 85.7637,4 84.0397,4 L65.7007,4 Z M84.0397,28.723 L65.7007,28.723 C62.1007,28.723 59.1727,25.794 59.1727,22.193 L59.1727,7.129 C59.1727,3.528 62.1007,0.6 65.7007,0.6 L84.0397,0.6 C87.6387,0.6 90.5677,3.528 90.5677,7.129 L90.5677,22.193 C90.5677,25.794 87.6387,28.723 84.0397,28.723 L84.0397,28.723 Z" id="Fill-133" fill="#000000"></path>
                    <path d="M201.1031,221.1552 C199.3771,221.1552 197.9741,222.5582 197.9741,224.2842 L197.9741,239.3482 C197.9741,241.0742 199.3771,242.4772 201.1031,242.4772 L219.4411,242.4772 C221.1661,242.4772 222.5701,241.0742 222.5701,239.3482 L222.5701,224.2842 C222.5701,222.5582 221.1661,221.1552 219.4411,221.1552 L201.1031,221.1552 Z M219.4411,245.8782 L201.1031,245.8782 C197.5021,245.8782 194.5741,242.9492 194.5741,239.3482 L194.5741,224.2842 C194.5741,220.6832 197.5021,217.7552 201.1031,217.7552 L219.4411,217.7552 C223.0411,217.7552 225.9701,220.6832 225.9701,224.2842 L225.9701,239.3482 C225.9701,242.9492 223.0411,245.8782 219.4411,245.8782 L219.4411,245.8782 Z" id="Fill-139" fill="#000000"></path>
                    <path d="M276.7701,62.8095 C275.0451,62.8095 273.6421,64.2125 273.6421,65.9375 L273.6421,81.0025 C273.6421,82.7285 275.0451,84.1315 276.7701,84.1315 L295.1091,84.1315 C296.8331,84.1315 298.2371,82.7285 298.2371,81.0025 L298.2371,65.9375 C298.2371,64.2125 296.8331,62.8095 295.1091,62.8095 L276.7701,62.8095 Z M295.1091,87.5325 L276.7701,87.5325 C273.1701,87.5325 270.2421,84.6035 270.2421,81.0025 L270.2421,65.9375 C270.2421,62.3375 273.1701,59.4095 276.7701,59.4095 L295.1091,59.4095 C298.7081,59.4095 301.6371,62.3375 301.6371,65.9375 L301.6371,81.0025 C301.6371,84.6035 298.7081,87.5325 295.1091,87.5325 L295.1091,87.5325 Z" id="Fill-141" fill="#000000"></path>
                    <path d="M240.525,139.7734 C238.8,139.7734 237.397,141.1764 237.397,142.9014 L237.397,157.9664 C237.397,159.6914 238.8,161.0944 240.525,161.0944 L258.863,161.0944 C260.588,161.0944 261.992,159.6914 261.992,157.9664 L261.992,142.9014 C261.992,141.1764 260.588,139.7734 258.863,139.7734 L240.525,139.7734 Z M258.863,164.4954 L240.525,164.4954 C236.925,164.4954 233.997,161.5664 233.997,157.9664 L233.997,142.9014 C233.997,139.3014 236.925,136.3734 240.525,136.3734 L258.863,136.3734 C262.463,136.3734 265.392,139.3014 265.392,142.9014 L265.392,157.9664 C265.392,161.5664 262.463,164.4954 258.863,164.4954 L258.863,164.4954 Z" id="Fill-145" fill="#000000"></path>
                    <path d="M729.321,64.8789 C710.603,64.8789 695.307,71.6939 683.859,85.1379 C669.858,101.5769 664.147,124.9989 661.822,141.7539 C658.919,162.6649 660.078,180.1299 661.096,186.4439 C662.043,192.3169 672.33,243.8139 740.934,243.8139 C764.687,243.8139 783.508,234.0939 796.872,214.9229 C805.8,202.1159 809.185,189.1279 809.846,186.3049 C808.848,184.4929 804.807,178.3429 796.804,180.3459 C793.766,181.1059 792.416,184.3799 790.291,190.1009 C786.918,199.1859 781.82,212.9129 761.7,222.3309 C745.801,229.7739 725.59,229.6119 707.632,221.8999 C693.657,215.8989 683.273,206.1929 679.855,195.9389 C672.444,173.7059 676.937,151.8679 677.132,150.9489 L677.418,149.6019 L807.239,149.6019 C807.943,149.0229 809.856,146.9199 809.398,141.4209 C808.958,136.1449 806.707,117.5719 796.216,100.0979 C782.186,76.7279 759.679,64.8789 729.321,64.8789 M740.934,247.2139 C714.584,247.2139 693.477,239.7759 678.202,225.1079 C662.916,210.4289 658.8,193.5579 657.739,186.9849 C655.683,174.2369 653.407,115.6499 681.27,82.9329 C693.394,68.6969 709.561,61.4789 729.321,61.4789 C760.957,61.4789 784.444,73.8829 799.131,98.3479 C810,116.4519 812.331,135.6769 812.787,141.1379 C813.542,150.1979 808.717,152.7199 808.512,152.8219 L808.153,153.0019 L680.215,153.0019 C679.377,158.0669 676.989,176.5889 683.08,194.8639 C686.196,204.2119 695.876,213.1499 708.973,218.7749 C726.053,226.1099 745.225,226.2879 760.258,219.2509 C779.117,210.4239 783.733,197.9939 787.104,188.9169 C789.311,182.9739 791.054,178.2779 795.98,177.0469 C805.531,174.6689 811.41,181.4529 813.187,185.3749 L813.413,185.8739 L813.305,186.4109 C813.181,187.0319 810.14,201.7889 799.732,216.7659 C790.079,230.6559 772.043,247.2139 740.934,247.2139" id="Fill-153" fill="#000000"></path>
                    <path d="M901.7087,64.8789 C882.9907,64.8789 867.6947,71.6939 856.2467,85.1379 C842.2457,101.5769 836.5347,124.9989 834.2097,141.7539 C831.3067,162.6649 832.4657,180.1299 833.4837,186.4439 C834.4307,192.3169 844.7177,243.8139 913.3217,243.8139 C937.0747,243.8139 955.8957,234.0939 969.2597,214.9229 C978.1877,202.1159 981.5727,189.1279 982.2337,186.3049 C981.2347,184.4929 977.1897,178.3429 969.1917,180.3459 C966.1537,181.1059 964.8037,184.3799 962.6787,190.1009 C959.3057,199.1859 954.2077,212.9129 934.0877,222.3309 C918.1887,229.7739 897.9777,229.6119 880.0197,221.8999 C866.0447,215.8989 855.6607,206.1929 852.2427,195.9389 C844.8307,173.7059 849.3247,151.8679 849.5197,150.9489 L849.8057,149.6019 L979.6267,149.6019 C980.3307,149.0229 982.2437,146.9199 981.7857,141.4209 C981.3457,136.1449 979.0947,117.5719 968.6037,100.0979 C954.5737,76.7279 932.0667,64.8789 901.7087,64.8789 M913.3217,247.2139 C886.9717,247.2139 865.8647,239.7759 850.5897,225.1079 C835.3037,210.4289 831.1877,193.5579 830.1267,186.9849 C828.0707,174.2369 825.7947,115.6499 853.6577,82.9329 C865.7817,68.6969 881.9487,61.4789 901.7087,61.4789 C933.3447,61.4789 956.8317,73.8829 971.5187,98.3479 C982.3877,116.4519 984.7187,135.6769 985.1747,141.1379 C985.9297,150.1979 981.1047,152.7199 980.8997,152.8219 L980.5407,153.0019 L852.6027,153.0019 C851.7647,158.0669 849.3757,176.5889 855.4677,194.8629 C858.5837,204.2119 868.2637,213.1499 881.3607,218.7749 C898.4407,226.1099 917.6127,226.2879 932.6457,219.2509 C951.5047,210.4239 956.1207,197.9939 959.4917,188.9169 C961.6987,182.9739 963.4417,178.2779 968.3677,177.0469 C977.9147,174.6689 983.7967,181.4529 985.5747,185.3749 L985.8007,185.8739 L985.6927,186.4109 C985.5687,187.0319 982.5277,201.7889 972.1197,216.7659 C962.4667,230.6559 944.4307,247.2139 913.3217,247.2139" id="Fill-157" fill="#000000"></path>
                    <path d="M336.2388,132.8974 L444.6558,132.8974 C443.9708,128.9654 441.8748,119.4764 436.4398,110.1114 C427.0848,93.9894 412.7308,85.8154 393.7758,85.8154 C370.6678,85.8154 353.9478,93.9934 344.0798,110.1224 C338.3288,119.5224 336.6868,129.0524 336.2388,132.8974 L336.2388,132.8974 Z M448.5258,136.2974 L332.6108,136.2974 L332.6808,134.5304 C332.7018,133.9974 333.2888,121.3224 341.1028,108.4724 C354.2008,86.9354 376.9758,82.4154 393.7758,82.4154 C419.0568,82.4154 432.5618,96.6034 439.4388,108.5054 C446.8268,121.2904 448.2638,133.8834 448.3218,134.4144 L448.5258,136.2974 Z" id="Fill-151" fill="#000000"></path>
                    <path d="M681.322,132.8974 L789.74,132.8974 C789.055,128.9654 786.959,119.4764 781.524,110.1114 C772.169,93.9894 757.815,85.8154 738.86,85.8154 C715.752,85.8154 699.031,93.9934 689.164,110.1224 C683.412,119.5224 681.77,129.0524 681.322,132.8974 L681.322,132.8974 Z M793.61,136.2974 L677.694,136.2974 L677.764,134.5304 C677.785,133.9974 678.373,121.3224 686.186,108.4724 C699.285,86.9354 722.06,82.4154 738.86,82.4154 C764.141,82.4154 777.646,96.6034 784.523,108.5054 C791.911,121.2904 793.348,133.8834 793.406,134.4144 L793.61,136.2974 Z" id="Fill-155" fill="#000000"></path>
                    <path d="M853.7096,132.8974 L962.1276,132.8974 C961.4426,128.9654 959.3466,119.4764 953.9116,110.1114 C944.5566,93.9894 930.2026,85.8154 911.2476,85.8154 C888.1396,85.8154 871.4186,93.9934 861.5516,110.1224 C855.7996,119.5224 854.1576,129.0524 853.7096,132.8974 L853.7096,132.8974 Z M965.9976,136.2974 L850.0816,136.2974 L850.1516,134.5304 C850.1726,133.9974 850.7606,121.3224 858.5736,108.4724 C871.6726,86.9354 894.4476,82.4154 911.2476,82.4154 C936.5286,82.4154 950.0336,96.6034 956.9106,108.5054 C964.2986,121.2904 965.7356,133.8834 965.7936,134.4144 L965.9976,136.2974 Z" id="Fill-159" fill="#000000"></path>
                    <path d="M565.2067,80.6542 C537.2207,80.6542 514.4517,108.7912 514.4517,143.3762 C514.4517,177.9622 537.2207,206.0982 565.2067,206.0982 C593.1927,206.0982 615.9617,177.9622 615.9617,143.3762 C615.9617,108.7912 593.1927,80.6542 565.2067,80.6542 M565.2067,209.4992 C535.3457,209.4992 511.0517,179.8362 511.0517,143.3762 C511.0517,106.9162 535.3457,77.2542 565.2067,77.2542 C595.0677,77.2542 619.3617,106.9162 619.3617,143.3762 C619.3617,179.8362 595.0677,209.4992 565.2067,209.4992" id="Fill-161" fill="#000000"></path>
                </g>
            </g>
        </g>
    </g>
</svg>