<?xml version="1.0" encoding="UTF-8"?>
<svg width="99px" height="99px" viewBox="0 0 99 99" version="1.1" xmlns="http://www.w3.org/2000/svg" xmlns:xlink="http://www.w3.org/1999/xlink">
    <!-- Generator: Sketch 56.2 (81672) - https://sketch.com -->
    <title>User icon</title>
    <desc>Created with Sketch.</desc>
    <g id="desktop" stroke="none" stroke-width="1" fill="none" fill-rule="evenodd">
        <g id="Desktop-HD" transform="translate(-559.000000, -4898.000000)">
            <g id="Who-is-Livepeer-For" transform="translate(147.000000, 4650.940886)">
                <g id="Users" transform="translate(412.000000, 247.059114)">
                    <g id="User-icon">
                        <circle id="Oval-Copy-3" fill="#9FEFE4" cx="49.5" cy="49.5" r="49.5"></circle>
                        <g id="user-icon" transform="translate(12.000000, 5.000000)" fill="#000000" fill-rule="nonzero">
                            <path d="M54.9449519,33 L53,35.0863979 L61.8453125,43.0441517 C63.9276442,44.9242453 65.1146635,47.5732913 65.1153846,50.3493753 L65.1153846,85 L68,85 L68,50.3493753 C67.9963943,46.7788606 66.4704327,43.3739554 63.7913462,40.9573999 L54.9449519,33 Z" id="Path"></path>
                            <path d="M43.5525792,0 L7.02460955,0 C3.14702508,0.00495833333 0.00491727164,3.17333333 0,7.08333333 L0,77.9166667 C0.00491727164,81.8266667 3.14702508,84.9950416 7.02460955,85 L42.1476573,85 L42.1476573,82.4655833 C42.1409839,76.0838541 44.0144473,69.842375 47.5313181,64.53625 C47.9036224,63.9738333 47.8288103,63.2254792 47.3557028,62.7484167 L37.5212494,52.83175 C36.612265,51.9141041 36.1303768,50.6522083 36.1939494,49.3570208 C36.2578734,48.061125 36.8616387,46.854125 37.8556209,46.03175 C39.7701782,44.5559375 42.4778139,44.7666667 44.1454562,46.5201459 L58.0134404,60.5044167 L60,58.50125 L50.5771888,48.9968333 L50.5771888,7.08333333 C50.5722715,3.17333333 47.4301637,0.00495833333 43.5525792,0 Z M47.7673449,46.1635 L46.1320158,44.5145 C43.4366732,41.7378333 39.1017866,41.4484792 36.0671553,43.8437083 C34.462032,45.1739584 33.4880698,47.1268333 33.3865643,49.2203125 C33.2854099,51.3134375 34.0651415,53.352375 35.5346899,54.8349167 L44.5683377,63.9444375 C41.199335,69.4187917 39.3926054,75.724375 39.3476479,82.1666667 L7.02460955,82.1666667 C4.69735645,82.1666667 2.80984382,80.263375 2.80984382,77.9166667 L2.80984382,73.6666667 L37.9328916,73.6666667 L37.9328916,70.8333333 L2.80984382,70.8333333 L2.80984382,11.3333333 L47.7673449,11.3333333 L47.7673449,46.1635 Z M47.7673449,8.5 L2.80984382,8.5 L2.80984382,7.08333333 C2.80984382,4.73662505 4.69735645,2.83333333 7.02460955,2.83333333 L43.5525792,2.83333333 C45.8798323,2.83333333 47.7673449,4.73662505 47.7673449,7.08333333 L47.7673449,8.5 Z" id="Shape"></path>
                            <path d="M8.75,25 L14.25,25 C15.7690313,25 17,23.7690313 17,22.25 L17,16.75 C17,15.2309687 15.7690313,14 14.25,14 L8.75,14 C7.23096873,14 6,15.2309687 6,16.75 L6,22.25 C6,23.7690313 7.23096873,25 8.75,25 Z M8.75,16.75 L14.25,16.75 L14.25,22.25 L8.75,22.25 L8.75,16.75 Z" id="Shape"></path>
                            <path d="M22.75,25 L28.25,25 C29.7690313,25 31,23.7690313 31,22.25 L31,16.75 C31,15.2309687 29.7690313,14 28.25,14 L22.75,14 C21.2309687,14 20,15.2309687 20,16.75 L20,22.25 C20,23.7690313 21.2309687,25 22.75,25 Z M22.75,16.75 L28.25,16.75 L28.25,22.25 L22.75,22.25 L22.75,16.75 Z" id="Shape"></path>
                            <path d="M36.75,25 L42.25,25 C43.7690313,25 45,23.7690313 45,22.25 L45,16.75 C45,15.2309687 43.7690313,14 42.25,14 L36.75,14 C35.2309687,14 34,15.2309687 34,16.75 L34,22.25 C34,23.7690313 35.2309687,25 36.75,25 Z M36.75,16.75 L42.25,16.75 L42.25,22.25 L36.75,22.25 L36.75,16.75 Z" id="Shape"></path>
                            <path d="M8.75,39 L14.25,39 C15.7690313,39 17,37.7690313 17,36.25 L17,30.75 C17,29.2309687 15.7690313,28 14.25,28 L8.75,28 C7.23096873,28 6,29.2309687 6,30.75 L6,36.25 C6,37.7690313 7.23096873,39 8.75,39 Z M8.75,30.75 L14.25,30.75 L14.25,36.25 L8.75,36.25 L8.75,30.75 Z" id="Shape"></path>
                            <path d="M8.75,54 L14.25,54 C15.7690313,54 17,52.7690313 17,51.25 L17,45.75 C17,44.2309687 15.7690313,43 14.25,43 L8.75,43 C7.23096873,43 6,44.2309687 6,45.75 L6,51.25 C6,52.7690313 7.23096873,54 8.75,54 Z M8.75,45.75 L14.25,45.75 L14.25,51.25 L8.75,51.25 L8.75,45.75 Z" id="Shape"></path>
                            <path d="M22.75,39 L28.25,39 C29.7690313,39 31,37.7690313 31,36.25 L31,30.75 C31,29.2309687 29.7690313,28 28.25,28 L22.75,28 C21.2309687,28 20,29.2309687 20,30.75 L20,36.25 C20,37.7690313 21.2309687,39 22.75,39 Z M22.75,30.75 L28.25,30.75 L28.25,36.25 L22.75,36.25 L22.75,30.75 Z" id="Shape"></path>
                            <path d="M36.75,39 L42.25,39 C43.7690313,39 45,37.7690313 45,36.25 L45,30.75 C45,29.2309687 43.7690313,28 42.25,28 L36.75,28 C35.2309687,28 34,29.2309687 34,30.75 L34,36.25 C34,37.7690313 35.2309687,39 36.75,39 Z M36.75,30.75 L42.25,30.75 L42.25,36.25 L36.75,36.25 L36.75,30.75 Z" id="Shape"></path>
                            <path d="M22.75,54 L28.25,54 C29.7690313,54 31,52.7690313 31,51.25 L31,45.75 C31,44.2309687 29.7690313,43 28.25,43 L22.75,43 C21.2309687,43 20,44.2309687 20,45.75 L20,51.25 C20,52.7690313 21.2309687,54 22.75,54 Z M22.75,45.75 L28.25,45.75 L28.25,51.25 L22.75,51.25 L22.75,45.75 Z" id="Shape"></path>
                            <path d="M8.75,67 L14.25,67 C15.7690313,67 17,65.7690313 17,64.25 L17,58.75 C17,57.2309687 15.7690313,56 14.25,56 L8.75,56 C7.23096873,56 6,57.2309687 6,58.75 L6,64.25 C6,65.7690313 7.23096873,67 8.75,67 Z M8.75,58.75 L14.25,58.75 L14.25,64.25 L8.75,64.25 L8.75,58.75 Z" id="Shape"></path>
                            <path d="M22.75,67 L28.25,67 C29.7690313,67 31,65.7690313 31,64.25 L31,58.75 C31,57.2309687 29.7690313,56 28.25,56 L22.75,56 C21.2309687,56 20,57.2309687 20,58.75 L20,64.25 C20,65.7690313 21.2309687,67 22.75,67 Z M22.75,58.75 L28.25,58.75 L28.25,64.25 L22.75,64.25 L22.75,58.75 Z" id="Shape"></path>
                            <polygon id="Path" points="24 77 27 77 27 80 24 80"></polygon>
                        </g>
                    </g>
                </g>
            </g>
        </g>
    </g>
</svg>