<?xml version="1.0" encoding="UTF-8"?>
<svg width="69px" height="69px" viewBox="0 0 69 69" version="1.1" xmlns="http://www.w3.org/2000/svg" xmlns:xlink="http://www.w3.org/1999/xlink">
    <!-- Generator: Sketch 56.2 (81672) - https://sketch.com -->
    <title>miner icon</title>
    <desc>Created with Sketch.</desc>
    <g id="desktop" stroke="none" stroke-width="1" fill="none" fill-rule="evenodd">
        <g id="Desktop-HD" transform="translate(-929.000000, -16912.000000)">
            <g id="Bottom-CTAs" transform="translate(199.000000, 16912.000000)">
                <g id="miner" transform="translate(730.000000, 0.000000)">
                    <g id="miner-icon">
                        <circle id="Oval-Copy" fill="#FFD184" cx="34.5" cy="34.5" r="34.5"></circle>
                        <g id="pick-icon" transform="translate(6.000000, 6.000000)" fill="#000000" fill-rule="nonzero">
                            <path d="M56.884557,15.1301458 C54.6429177,8.6989125 44.6330443,3.87355417 32.3468987,3.03110417 L32.3468987,2.9 C32.3468987,1.3010125 31.0522532,0 29.4608228,0 L27.5367722,0 C25.9453418,0 24.6506962,1.3010125 24.6506962,2.9 L24.6506962,3.03110417 C12.3206582,3.87669583 2.28300633,8.73383333 0.0892278481,15.1995042 C-0.0343924051,15.5640583 0.0691455696,15.9677625 0.352702532,16.2268292 C0.6365,16.4860167 1.04620253,16.5509042 1.39553797,16.3926125 C7.28433544,13.7218333 15.6053734,12.0501042 24.6506962,11.6789042 L24.6506962,16.4333333 C24.6506962,16.967175 25.081443,17.4 25.6127215,17.4 L25.6127215,34.3535208 C24.4637025,35.0231792 23.6886709,36.2718708 23.6886709,37.7 L23.6886709,54.1333333 C23.6886709,56.2654375 25.4149051,58 27.5367722,58 L29.4608228,58 C31.5826899,58 33.3089241,56.2654375 33.3089241,54.1333333 L33.3089241,37.7 C33.3089241,36.2719917 32.5338924,35.0231792 31.3848734,34.3535208 L31.3848734,17.4 C31.9161519,17.4 32.3468987,16.967175 32.3468987,16.4333333 L32.3468987,11.6789042 C41.3922215,12.0501042 49.7133797,13.7218333 55.602057,16.3924917 C55.7289241,16.4500083 55.8637278,16.4780417 55.9976899,16.4780417 C56.0003354,16.4780417 56.0028608,16.4780417 56.0056266,16.4780417 C56.5343797,16.4751417 56.9623608,16.043525 56.9623608,15.511375 C56.9623608,15.3760417 56.9345823,15.2471125 56.884557,15.1301458 Z M26.5747468,2.9 C26.5747468,2.36700417 27.0063354,1.93333333 27.5367722,1.93333333 L29.4608228,1.93333333 C29.9912595,1.93333333 30.4228481,2.36700417 30.4228481,2.9 L30.4228481,2.93274583 C29.7863481,2.91111667 29.1447975,2.9 28.4987975,2.9 C27.8527975,2.9 27.2112468,2.91111667 26.5747468,2.93274583 L26.5747468,2.9 Z M31.3848734,54.1333333 C31.3848734,55.1994458 30.5216962,56.0666667 29.4608228,56.0666667 L27.5367722,56.0666667 C26.4758987,56.0666667 25.6127215,55.1994458 25.6127215,54.1333333 L25.6127215,37.7 C25.6127215,36.6338875 26.4758987,35.7666667 27.5367722,35.7666667 L29.4608228,35.7666667 C30.5216962,35.7666667 31.3848734,36.6338875 31.3848734,37.7 L31.3848734,54.1333333 Z M29.4608228,33.8333333 L27.5367722,33.8333333 L27.5367722,17.4 L29.4608228,17.4 L29.4608228,33.8333333 Z M30.4228481,15.4666667 L26.5747468,15.4666667 L26.5747468,11.6198167 C27.2134114,11.6067667 27.8548418,11.6 28.4987975,11.6 C29.1427532,11.6 29.7841835,11.6067667 30.4228481,11.6198167 L30.4228481,15.4666667 Z M28.4987975,9.66666667 C18.9469684,9.66666667 9.87110127,11.0889958 3.08810127,13.6105458 C4.62493671,11.5127583 7.27351266,9.6058875 10.7930823,8.098975 C15.712038,5.99309167 22.0000759,4.83333333 28.4987975,4.83333333 C34.997519,4.83333333 41.285557,5.99309167 46.2045127,8.098975 C49.7240823,9.6058875 52.372538,11.5127583 53.9094937,13.6105458 C47.1264937,11.0889958 38.0507468,9.66666667 28.4987975,9.66666667 Z" id="Shape"></path>
                        </g>
                    </g>
                </g>
            </g>
        </g>
    </g>
</svg>