<?xml version="1.0" encoding="UTF-8"?>
<svg width="491px" height="464px" viewBox="0 0 491 464" version="1.1" xmlns="http://www.w3.org/2000/svg" xmlns:xlink="http://www.w3.org/1999/xlink">
    <!-- Generator: Sketch 56.2 (81672) - https://sketch.com -->
    <title>illu/piechart</title>
    <desc>Created with Sketch.</desc>
    <defs>
        <polygon id="path-1" points="0.385114202 0.0653383536 453.268224 0.0653383536 453.268224 399.168 0.385114202 399.168"></polygon>
        <polygon id="path-3" points="0.0552068843 0.468288 11.6815302 0.468288 11.6815302 15.6049092 0.0552068843 15.6049092"></polygon>
    </defs>
    <g id="desktop" stroke="none" stroke-width="1" fill="none" fill-rule="evenodd">
        <g id="Desktop-HD" transform="translate(-197.000000, -752.000000)">
            <g id="Intro" transform="translate(-250.000000, 741.000000)">
                <g id="Pie-Chart-panel" transform="translate(416.000000, 0.000000)">
                    <g id="illu/piechart">
                        <g id="Group-95" transform="translate(31.680000, 10.368000)">
                            <path d="M191.964154,131.551142 L244.938874,253.686758 C245.002234,253.834214 245.127226,253.945382 245.280442,253.992038 C245.332858,254.008742 245.387002,254.01623 245.44057,254.01623 C245.54425,254.01623 245.646202,253.986854 245.736058,253.92983 L413.637178,146.426918 C458.011642,168.48599 484.482874,200.92055 488.185978,237.778214 L488.185978,255.55415 C485.08537,286.68119 465.765754,317.127398 432.389434,342.810662 C392.609722,373.421606 337.65241,393.590246 277.640698,399.60023 C217.629562,405.61079 159.76345,396.742118 114.70297,374.628326 C72.9124416,354.11927 46.8023616,324.500774 40.3286976,290.596262 L39.1870656,282.762662 C32.8856256,219.768422 95.6869056,157.641062 191.964154,131.551142" id="Fill-1" fill="#FFCA71"></path>
                            <path d="M432.389549,403.896211 C392.609261,434.507155 337.651949,454.675219 277.640813,460.685779 C218.853101,466.572499 162.349229,456.141715 118.538093,431.312659 C97.8124608,419.566291 81.0243648,405.262483 68.6409408,388.798675 C56.0449728,372.052051 48.6963648,353.960467 46.7972928,335.002003 L41.8609728,301.116499 C45.7328448,313.347283 52.2520128,324.974419 61.3614528,335.846419 C74.4136128,351.423763 92.1976128,364.803091 114.220973,375.611155 C150.228461,393.281683 194.356397,402.530515 241.230125,402.529363 C253.250669,402.528787 265.460141,401.919955 277.749677,400.689619 C337.961837,394.658899 393.117293,374.411923 433.056557,343.677715 C452.498861,328.716691 467.276717,312.077203 476.980589,294.220051 C482.518253,284.029459 486.257069,273.686803 488.186093,263.280211 L488.187821,298.889683 C491.909933,336.051475 472.093805,373.343443 432.389549,403.896211" id="Fill-3" fill="#FFDC82"></path>
                            <path d="M319.460947,66.9823488 C381.249043,71.1813888 418.743187,92.6667648 424.246291,96.0144768 L256.042771,210.757709 L203.961427,78.6008448 C209.515795,76.8394368 256.504147,62.7009408 319.460947,66.9823488" id="Fill-5" fill="#97F2EF"></path>
                            <path d="M206.321357,91.2919104 L204.904397,83.9772864 L255.276173,211.79687 C255.337229,211.951814 255.465101,212.07047 255.624653,212.11943 C255.677645,212.135558 255.731213,212.143622 255.785357,212.143622 C255.893645,212.143622 256.001933,212.11079 256.093517,212.048006 L424.763021,96.9873984 L428.357837,153.240134 C423.779789,150.48167 418.967885,147.847046 413.925005,145.34663 C413.752781,145.262534 413.561549,145.284422 413.407757,145.37543 C413.312141,145.37831 413.216525,145.396742 413.130125,145.452038 L245.686925,252.661766 L232.060493,221.244998 C232.058765,221.236358 232.061645,221.228294 232.060493,221.219078 L206.321357,91.2919104 Z" id="Fill-7" fill="#B2F2D7"></path>
                            <path d="M432.389549,403.896211 C392.609261,434.507155 337.651949,454.675219 277.640813,460.685779 C218.853101,466.572499 162.349229,456.141715 118.538093,431.312659 C97.8124608,419.566291 81.0243648,405.262483 68.6409408,388.798675 C56.0449728,372.052051 48.6963648,353.960467 46.7972928,335.002003 L41.8609728,301.116499 C45.7328448,313.347283 52.2520128,324.974419 61.3614528,335.846419 C74.4136128,351.423763 92.1976128,364.803091 114.220973,375.611155 C150.228461,393.281683 194.356397,402.530515 241.230125,402.529363 C253.250669,402.528787 265.460141,401.919955 277.749677,400.689619 C337.961837,394.658899 393.117293,374.411923 433.056557,343.677715 C452.498861,328.716691 467.276717,312.077203 476.980589,294.220051 C482.518253,284.029459 486.257069,273.686803 488.186093,263.280211 L488.187821,298.889683 C491.909933,336.051475 472.093805,373.343443 432.389549,403.896211 L432.389549,403.896211 Z M191.964269,131.551315 L244.938413,253.686931 C245.002349,253.834387 245.127341,253.945555 245.280557,253.992211 C245.332973,254.008339 245.387117,254.016403 245.440685,254.016403 C245.543789,254.016403 245.646317,253.987027 245.735597,253.930003 L413.637293,146.427091 C458.011757,168.486163 484.482989,200.920147 488.186093,237.778387 L488.186093,255.554323 C485.085485,286.681363 465.765869,317.126995 432.389549,342.810259 C392.609261,373.421779 337.651949,393.589843 277.640813,399.600403 C217.629101,405.610963 159.762989,396.742291 114.703085,374.627923 C72.9125568,354.119443 46.8024768,324.500947 40.3282368,290.596435 L39.1871808,282.762259 C32.8857408,219.768595 95.6870208,157.641235 191.964269,131.551315 L191.964269,131.551315 Z M206.321645,91.2917952 L204.904109,83.9771712 L255.276461,211.796755 C255.336941,211.951699 255.465389,212.070355 255.624365,212.119315 C255.677357,212.135443 255.731501,212.143507 255.785645,212.143507 C255.893933,212.143507 256.001645,212.110675 256.093805,212.048467 L424.763309,96.9872832 L428.358125,153.240019 C423.780077,150.481555 418.967597,147.846931 413.924717,145.346515 C413.752493,145.262419 413.561837,145.284307 413.407469,145.375315 C413.312429,145.378195 413.216813,145.396627 413.129837,145.452499 L245.686637,252.661651 L232.060205,221.244883 C232.059053,221.236243 232.061933,221.228179 232.060205,221.219539 L206.321645,91.2917952 Z M319.460717,66.9822912 C381.248813,71.1813312 418.743533,92.6667072 424.246061,96.0144192 L256.043117,210.757651 L203.961773,78.6007872 C209.515565,76.8393792 256.504493,62.7008832 319.460717,66.9822912 L319.460717,66.9822912 Z M489.279917,298.835539 L489.279917,255.628051 C489.874925,249.658963 489.876077,243.675475 489.277037,237.694867 C485.994989,204.927379 464.955437,175.644115 429.499181,153.933523 L425.794349,95.9591232 C425.793773,95.9510592 425.789165,95.9452992 425.788589,95.9372352 C425.782253,95.8796352 425.767853,95.8237632 425.744237,95.7713472 C425.740205,95.7615552 425.737901,95.7517632 425.732717,95.7425472 C425.705069,95.6884032 425.666477,95.6405952 425.621549,95.5979712 C425.612909,95.5904832 425.604845,95.5835712 425.596205,95.5766592 C425.579501,95.5628352 425.565677,95.5472832 425.547821,95.5357632 C425.165933,95.2857792 386.557229,70.4452032 319.535021,65.8901952 C252.545645,61.3426752 203.551085,77.5766592 203.063789,77.7408192 C203.040749,77.7483072 203.024045,77.7661632 203.002157,77.7765312 C202.968173,77.7938112 202.935341,77.8099392 202.905389,77.8329792 C202.878893,77.8537152 202.858157,77.8779072 202.836269,77.9026752 C202.810349,77.9314752 202.786733,77.9608512 202.767725,77.9948352 C202.760813,78.0069312 202.748717,78.0155712 202.742957,78.0288192 C202.734317,78.0466752 202.735469,78.0668352 202.729133,78.0852672 C202.717037,78.1215552 202.707821,78.1572672 202.703213,78.1964352 C202.698605,78.2315712 202.699181,78.2655552 202.702061,78.3012672 C202.703789,78.3225792 202.697453,78.3421632 202.701485,78.3634752 L205.247405,91.5020352 L230.016557,216.533779 L192.847853,130.839379 C192.844973,130.807699 192.850157,130.776019 192.841517,130.744339 C192.811565,130.633747 192.743597,130.547923 192.662381,130.478227 C192.512621,130.284115 192.252269,130.201747 192.018989,130.304275 C191.939501,130.338259 191.876141,130.392403 191.824301,130.454611 C145.588781,142.963603 104.876525,164.713363 77.1588288,191.724307 C63.2179008,205.308691 52.7692608,219.906259 46.1003328,235.110355 C39.1935168,250.859923 36.5012928,266.933203 38.0991168,282.882643 C38.3652288,285.543187 38.7523008,288.180115 39.2505408,290.792851 L45.7115328,335.135059 C47.6278848,354.271507 55.0484928,372.547411 67.7665728,389.457043 C80.2404288,406.041235 97.1414208,420.444115 117.998381,432.264787 C153.987437,452.660947 198.478253,463.384339 245.775917,463.384339 C256.312685,463.384339 266.998637,462.851539 277.749677,461.774419 C337.961837,455.744275 393.117293,435.496723 433.056557,404.763667 C452.498861,389.802643 467.276717,373.163155 476.980589,355.306003 C487.042157,336.790483 491.178989,317.772115 489.279917,298.835539 L489.279917,298.835539 Z" id="Fill-9" fill="#000000"></path>
                            <g id="Group-13" transform="translate(36.864000, 64.619712)">
                                <mask id="mask-2" fill="white">
                                    <use xlink:href="#path-1"></use>
                                </mask>
                                <g id="Clip-12"></g>
                                <path d="M167.631494,14.2358976 L219.368966,145.520698 L386.63591,31.4162496 C378.641606,26.6469696 342.160646,6.8147136 282.569414,2.7648576 C220.95239,-1.4249664 174.514118,12.0954816 167.631494,14.2358976 L167.631494,14.2358976 Z M218.988806,146.755642 L166.564166,13.7272896 L166.97543,13.5971136 C172.158854,11.9532096 219.438086,-2.3367744 282.62471,1.9601856 C343.862726,6.1217856 380.807942,26.9228736 387.59207,31.0504896 L388.126022,31.3759296 L387.60935,31.7278656 L218.988806,146.755642 Z M195.592838,156.52633 L209.004422,187.447162 L376.048454,80.4926016 C376.161926,80.4206016 376.287494,80.3768256 376.430918,80.3601216 C376.69127,80.2420416 376.986182,80.2408896 377.237318,80.3647296 C382.003142,82.7269056 386.643398,85.2532416 391.042886,87.8798016 L387.541958,33.0993216 L219.457094,147.761338 C219.219782,147.923194 218.914502,147.96985 218.642054,147.884602 C218.363846,147.799354 218.143238,147.594874 218.037254,147.32473 L169.267334,23.5705536 L169.85255,26.5939776 L195.592838,156.52633 Z M208.640966,188.637178 L194.788742,156.642682 L194.79047,156.626554 L169.061126,26.7489216 L167.644166,19.4342976 L168.41543,19.2102336 L218.787782,147.029242 C218.80391,147.070138 218.836742,147.101242 218.879366,147.113914 C218.952518,147.119674 218.979014,147.11161 219.003206,147.095482 L388.256198,31.6357056 L391.946054,89.3635776 L391.285958,88.9655616 C386.71079,86.2088256 381.864326,83.5586496 376.881926,81.0881856 C376.828358,81.0622656 376.775366,81.0870336 376.747718,81.1031616 L376.65959,81.1550016 L376.557638,81.1584576 C376.52135,81.1601856 376.494854,81.1647936 376.482758,81.1728576 L208.640966,188.637178 Z M154.869062,67.4116416 C59.0019264,93.4952256 -3.5453376,155.427322 2.7244224,218.103034 L3.8631744,225.918778 C7.0720704,242.720698 15.0963264,258.482362 27.7101504,272.749306 C40.3637184,287.060602 57.2894784,299.474554 78.0168384,309.646138 C113.815238,327.21529 157.72199,336.412282 204.359558,336.412282 C216.336902,336.412282 228.488198,335.80633 240.736838,334.57945 C300.674246,328.576378 355.558406,308.43769 395.279942,277.871098 C428.564102,252.258682 447.80423,222.183418 450.920966,190.894522 L450.920966,173.15833 C447.238022,136.546618 420.918278,104.261818 376.79783,82.2701376 L209.08967,189.649786 C208.855238,189.79897 208.55975,189.83929 208.297094,189.757498 C208.032134,189.676858 207.814982,189.483322 207.70439,189.227002 L154.869062,67.4116416 Z M204.363014,337.218106 C157.598726,337.218106 113.57159,327.994618 77.6614464,310.37017 C56.8390464,300.152506 39.8297664,287.674618 27.1059264,273.283258 C14.3953344,258.906874 6.3077184,243.01561 3.0682944,226.051834 L1.9243584,218.200378 C-4.3949376,155.033914 58.5509184,92.6778816 154.99463,66.5424576 L155.33159,66.4508736 L155.470406,66.7711296 L208.44455,188.906746 C208.46183,188.945338 208.49351,188.974138 208.53383,188.98681 C208.606406,188.993146 208.631174,188.986234 208.654214,188.970682 L376.747718,81.3445056 L376.952198,81.4464576 C421.45223,103.567738 448.006406,136.123834 451.725638,173.11801 L451.725638,190.934842 C448.58471,222.48985 429.236294,252.759226 395.77127,278.510458 C355.93223,309.166906 300.901766,329.364346 240.816902,335.381818 C228.545798,336.611002 216.363974,337.218106 204.363014,337.218106 L204.363014,337.218106 Z M6.0202944,240.72313 L10.3322304,270.324346 C12.2249664,289.217146 19.5482304,307.249402 32.0992704,323.936698 C44.4498624,340.356154 61.1959104,354.623098 81.8725824,366.341818 C125.60999,391.129978 182.02919,401.542906 240.736838,395.664826 C300.67367,389.661754 355.558406,369.52249 395.279942,338.95705 L395.525318,339.27673 L395.279942,338.95705 C434.868998,308.49241 454.630406,271.328314 450.922694,234.309946 L450.919238,202.592506 C448.824902,211.741114 445.318214,220.873018 440.471174,229.792378 C430.74023,247.699642 415.92551,264.38233 396.438278,279.377338 C356.440262,310.15705 301.211654,330.432826 240.925766,336.471034 C228.727238,337.69273 216.426758,338.312506 204.365894,338.313082 C157.101062,338.314234 113.120006,328.991098 77.1793344,311.353402 C55.1070144,300.521146 37.2775104,287.107834 24.1884864,271.485562 C16.1031744,261.83641 10.0044864,251.50585 6.0202944,240.72313 L6.0202944,240.72313 Z M208.911686,398.073658 C161.733254,398.073658 117.359366,387.380218 81.4757184,367.043962 C60.7011264,355.269946 43.8721344,340.92985 31.4547264,324.42169 C18.8138304,307.614586 11.4381504,289.44697 9.5321664,270.422266 L4.5981504,236.554618 L5.3809344,236.374906 C9.2332224,248.54233 15.7685184,260.180986 24.8059584,270.968314 C37.8235584,286.50361 55.5637824,299.847226 77.5347264,310.62937 C113.365382,328.214074 157.223174,337.507258 204.365894,337.506106 C216.400262,337.50553 228.67367,336.887482 240.845702,335.668666 C300.984134,329.645434 356.066438,309.427258 395.94695,278.738554 C415.344326,263.81209 430.085318,247.215226 439.762118,229.40761 C445.250822,219.308602 449.006342,208.93945 450.925574,198.587578 L451.725638,198.661306 L451.727366,234.270202 C455.461574,271.535098 435.59015,308.954938 395.77127,339.595834 C355.93223,370.252282 300.901766,390.449146 240.816902,396.467194 C230.08775,397.541434 219.426566,398.073658 208.911686,398.073658 L208.911686,398.073658 Z M155.364422,66.0430656 C155.349446,66.0430656 155.333318,66.0465216 155.31719,66.0534336 C155.301638,66.0603456 155.286086,66.0735936 155.268806,66.0937536 L155.18759,66.1910976 L155.065478,66.2245056 C108.896198,78.7150656 68.2369344,100.438906 40.5762624,127.392826 C26.6739264,140.940922 16.2535104,155.494714 9.6053184,170.65273 C2.7267264,186.337786 0.0460224,202.342522 1.6357824,218.223418 C1.8967104,220.824058 2.2820544,223.473658 2.7825984,226.097338 L9.2458944,270.457402 C11.1576384,289.53625 18.5511744,307.744762 31.2249024,324.59449 C43.6647744,341.13433 60.5237184,355.500922 81.3328704,367.293946 C117.195206,387.618682 161.311622,398.361658 208.911686,398.361658 C219.447302,398.361658 230.19143,397.820794 240.845702,396.754042 C300.983558,390.73081 356.066438,370.512634 395.94695,339.824506 C415.344326,324.898042 430.085318,308.300602 439.762118,290.493562 C449.78567,272.049466 453.907526,253.127866 452.01479,234.255802 L452.012486,234.215482 L452.012486,191.007994 C452.60519,185.040058 452.604614,179.03353 452.01191,173.11513 C450.388166,156.907066 444.416198,141.48697 434.261318,127.28281 C424.13063,113.111482 410.054342,100.45273 392.425286,89.6573376 L392.24615,89.5484736 L392.233478,89.3399616 L388.52231,31.3488576 L388.49351,31.2699456 L388.439942,31.2365376 C388.082246,31.0032576 349.573766,6.2214336 282.643718,1.6721856 C216.592646,-2.8096704 167.972486,12.9600576 166.366022,13.4905536 C166.348742,13.5014976 166.332038,13.5107136 166.314758,13.5193536 L166.25255,13.5763776 L166.247942,13.5936576 L166.250822,13.6264896 L166.242182,13.7117376 L168.779462,26.8059456 L194.278982,155.523514 L155.579846,66.1876416 C155.575814,66.2031936 155.551622,66.1778496 155.53607,66.1651776 L155.47847,66.1046976 C155.451974,66.0707136 155.410502,66.0430656 155.364422,66.0430656 L155.364422,66.0430656 Z M208.911686,399.168058 C161.17223,399.168058 116.918726,388.388794 80.9354304,367.99609 C60.0289344,356.147194 43.0870464,341.708026 30.5797824,325.079482 C17.8167744,308.109946 10.3702464,289.766074 8.4464064,270.555322 L1.9877184,226.23097 C1.4854464,223.600954 1.0960704,220.927738 0.8339904,218.302906 C-0.7707456,202.28377 1.9318464,186.142522 8.8674624,170.328442 C15.5571264,155.075962 26.0362944,140.43577 40.0135104,126.815674 C67.7490624,99.7880256 108.49415,78.0060096 154.748102,65.4745536 C154.823558,65.4065856 154.906502,65.3524416 154.995782,65.3138496 C155.374214,65.1473856 155.819462,65.2568256 156.090758,65.5793856 C156.229574,65.7066816 156.32231,65.8547136 156.366662,66.0200256 C156.378182,66.0626496 156.38279,66.1000896 156.385094,66.1311936 L192.026822,148.304506 L167.988038,26.9608896 L165.431174,13.7653056 L165.435206,13.6742976 C165.43175,13.6524096 165.43175,13.5936576 165.438086,13.5320256 C165.445574,13.4663616 165.46055,13.4030016 165.48359,13.3350336 C165.476678,13.3517376 165.48359,13.3016256 165.513542,13.2382656 L165.571718,13.1455296 C165.605126,13.0913856 165.641414,13.0481856 165.670214,13.0159296 C165.706502,12.9738816 165.746822,12.9324096 165.792902,12.8966976 C165.85223,12.8488896 165.911558,12.8195136 165.954758,12.7982016 C165.958214,12.7930176 166.004294,12.7613376 166.069382,12.7394496 C166.560134,12.5741376 215.700422,-3.6800064 282.699014,0.8680896 C349.836998,5.4311616 388.521734,30.3276096 388.904774,30.5787456 L389.032646,30.6841536 C389.114438,30.7601856 389.179526,30.8460096 389.227334,30.9387456 L389.255558,31.0055616 C389.283206,31.0648896 389.306246,31.1420736 389.318918,31.2244416 L389.332166,31.3108416 L393.024902,89.0796096 C410.66375,99.9072576 424.757318,112.601722 434.917382,126.81337 C445.155206,141.134458 451.17671,156.685306 452.813702,173.035066 C453.412166,179.007034 453.412742,185.06713 452.816582,191.048314 L452.818886,234.195322 C454.723142,253.224634 450.56903,272.295994 440.471174,290.87833 C430.74023,308.785594 415.92551,325.468282 396.438278,340.46329 C356.440262,371.242426 301.211654,391.518202 240.925766,397.555834 C230.245574,398.626042 219.474374,399.168058 208.911686,399.168058 L208.911686,399.168058 Z" id="Fill-11" fill="#000100" mask="url(#mask-2)"></path>
                            </g>
                            <path d="M400.724755,11.9532672 C399.535315,9.8381952 399.369427,7.5226752 398.578579,4.9934592 C398.053267,6.8769792 397.522195,8.4085632 397.218067,9.9839232 C396.951955,11.3622912 396.161683,12.0102912 394.786195,12.3530112 C393.270739,10.5478272 392.572051,8.2449792 391.145299,6.1074432 C390.709843,7.8060672 391.160851,9.1959552 391.406227,10.6002432 C391.491475,11.0892672 391.659091,11.6474112 391.504147,12.0696192 C391.360147,12.4641792 390.838291,12.7204992 390.482323,13.0372992 C390.192019,12.6772992 389.690323,12.3403392 389.647699,11.9526912 C389.444947,10.1066112 389.310739,8.2478592 389.262931,6.3908352 C389.230099,5.1023232 389.376979,3.8086272 389.443795,2.5057152 C390.367699,2.0610432 390.995539,2.2528512 391.458643,3.1007232 C392.322067,4.6829952 393.204499,6.2548992 394.088659,7.8256512 C394.412947,8.4016512 394.764307,8.9620992 395.302867,9.8635392 C395.771731,8.4488832 396.117907,7.3631232 396.491155,6.2871552 C396.987667,4.8529152 397.472659,3.4123392 398.035987,2.0045952 C398.179987,1.6440192 398.713363,1.0910592 398.874643,1.1509632 C399.350995,1.3266432 399.819859,1.7010432 400.119955,2.1203712 C400.363603,2.4602112 400.422931,2.9728512 400.454611,3.4169472 C400.616467,5.6858112 401.132563,7.8671232 401.931475,9.9937152 C402.351379,11.1111552 402.307027,11.1474432 400.724755,11.9532672" id="Fill-14" fill="#000000"></path>
                            <g id="Group-18" transform="translate(362.304000, 0.107712)">
                                <mask id="mask-4" fill="white">
                                    <use xlink:href="#path-3"></use>
                                </mask>
                                <g id="Clip-17"></g>
                                <path d="M10.501344,2.3995008 C10.217952,3.0319488 9.844128,3.3982848 9.282528,2.9933568 C8.138016,2.1679488 6.98544,2.0153088 5.637024,2.4916608 C3.8088,3.1373568 2.713248,4.4270208 2.28816,6.2126208 C1.871712,7.9625088 1.977696,9.7717248 2.246112,11.5532928 C2.287584,11.8263168 2.418912,12.0912768 2.536416,12.3470208 C3.072672,13.5082368 3.88368,13.9557888 4.777056,13.5957888 C6.077088,13.0722048 6.696288,11.8257408 6.238944,10.6368768 C6.157728,10.4277888 6.02352,10.2371328 5.952096,10.0251648 C5.56848,8.8835328 5.84496,8.6214528 7.087968,8.4947328 C8.527392,8.3484288 9.94896,8.0275968 11.39184,7.7810688 C11.839968,8.7925248 11.820384,8.9728128 10.960992,9.4347648 C10.168992,9.8610048 9.337824,10.2140928 8.473248,10.6236288 C8.435808,11.0539008 8.402976,11.4375168 8.368992,11.8211328 C8.150688,14.2432128 5.559264,16.1653248 3.245472,15.4556928 C1.917216,15.0484608 0.876384,14.0537088 0.52848,12.6482688 C-0.268128,9.4272768 -0.114336,6.2425728 1.413792,3.2479488 C1.747296,2.5947648 2.426976,2.0297088 3.07728,1.6437888 C4.827168,0.6075648 6.709536,-0.0179712 8.69904,0.9491328 C9.341856,1.2613248 9.846432,1.8597888 10.501344,2.3995008" id="Fill-16" fill="#000000" mask="url(#mask-4)"></path>
                            </g>
                            <path d="M479.457331,36.821088 C481.337971,35.790624 481.716403,35.026272 481.415731,32.864544 C480.900787,32.776992 480.356467,32.685408 479.837491,32.59728 C479.290867,30.786336 479.633011,30.30192 481.351219,30.112416 C482.745715,29.958048 484.124083,29.655072 485.514547,29.454048 C485.974771,29.387808 486.451699,29.43504 487.115251,29.428128 C486.408499,31.391712 484.726579,31.60656 483.382195,32.22288 C483.390835,33.012 483.410995,33.741792 483.403507,34.471584 C483.383923,36.383328 481.701427,38.407392 479.808115,38.589408 C479.142259,38.65392 478.248307,38.458656 477.771379,38.03184 C474.747379,35.325792 474.187507,32.392224 475.857907,28.918368 C476.402227,27.787104 477.354931,26.82 478.245427,25.897824 C478.953331,25.164 479.037427,25.245216 480.490099,25.542432 C480.524083,25.995168 480.560371,26.481312 480.603571,27.057312 C477.953395,27.705312 477.069811,29.754144 476.689651,32.043744 C476.388403,33.855264 477.445939,35.4888 479.457331,36.821088" id="Fill-19" fill="#000000"></path>
                            <path d="M465.178234,49.8112128 C464.649466,51.2080128 464.22553,52.3283328 463.785466,53.4907008 C464.045818,53.5563648 464.215738,53.6571648 464.356282,53.6254848 C465.107962,53.4555648 465.852154,53.2522368 466.688506,53.0379648 C466.488058,51.9130368 466.29049,50.9061888 465.178234,49.8112128 M467.763322,54.7429248 C466.285882,55.1916288 464.999098,55.5401088 463.750906,55.9957248 C463.476154,56.0959488 463.247482,56.5521408 463.161082,56.8862208 C462.97849,57.5906688 462.973306,58.3429248 462.767674,59.0381568 C462.53209,59.8347648 461.77465,60.2483328 461.22457,59.9563008 C460.552378,59.6003328 460.569082,59.0848128 460.782202,58.3826688 C461.563834,55.8085248 461.934778,53.1099648 463.143802,50.6648448 C463.56889,49.8066048 463.935226,48.9115008 464.439226,48.1010688 C464.992186,47.2117248 465.874042,47.1610368 466.504186,48.0054528 C467.069242,48.7623168 467.51737,49.6188288 467.929786,50.4736128 C468.292666,51.2252928 468.53401,52.0345728 468.876154,52.9440768 C469.650874,52.8277248 470.348986,52.7228928 471.099514,52.6099968 C471.750394,53.8345728 470.392762,53.9134848 469.981498,54.6795648 C470.137018,55.1461248 470.317306,55.7261568 470.523514,56.2969728 C470.712442,56.8194048 470.929594,57.3314688 471.170362,57.9391488 C470.894458,58.1453568 470.666938,58.3890048 470.387002,58.5111168 C469.387642,58.9483008 469.19065,58.8354048 468.820858,57.7559808 C468.498874,56.8159488 468.163642,55.8811008 467.763322,54.7429248" id="Fill-21" fill="#000000"></path>
                            <path d="M428.5224,11.5952256 C428.832864,11.0520576 429.1704,10.4616576 429.532704,9.8286336 C429.094368,9.4749696 428.765472,9.2612736 428.501088,8.9853696 C427.838688,8.2935936 428.083488,7.3748736 428.996448,7.2066816 C430.6536,6.9019776 432.314208,6.6013056 433.986336,6.4037376 C434.577312,6.3340416 435.204,6.5707776 435.805344,6.6663936 C436.194144,7.3524096 435.888864,7.8132096 435.335328,8.0752896 C434.781216,8.3367936 434.174688,8.5470336 433.570464,8.6305536 C432.193824,8.8206336 431.272224,9.4046976 431.113248,10.9034496 C431.026272,11.7202176 430.635168,12.3670656 429.91344,12.8468736 C427.934304,14.1636096 425.898144,13.4580096 425.334816,11.1350016 C424.664352,8.3673216 425.361312,5.7684096 426.665952,3.3353856 C426.955104,2.7968256 427.627872,2.4039936 428.205024,2.0964096 C428.827104,1.7646336 429.404256,1.9898496 429.776928,2.6338176 C430.163424,3.3025536 429.777504,3.6412416 429.283296,4.0242816 C427.279968,5.5771776 426.9672,7.7838336 427.097376,10.0964736 C427.134816,10.7600256 427.508064,11.3907456 428.5224,11.5952256" id="Fill-23" fill="#000000"></path>
                            <path d="M444.501907,31.3595136 C445.193107,30.9574656 445.766227,30.6441216 446.318035,30.2979456 C447.014995,29.8596096 447.679699,29.2720896 447.472915,28.4057856 C447.252307,27.4836096 446.346835,27.1414656 445.493779,27.0654336 C444.875731,27.0101376 444.231763,27.2474496 443.439763,27.3810816 C443.816467,28.7911296 444.128083,29.9592576 444.501907,31.3595136 M452.558995,33.1117056 C451.659859,34.7769216 449.523475,35.2348416 445.178131,35.0004096 C445.086547,35.2665216 444.955219,35.5562496 444.889555,35.8592256 C444.768595,36.4214016 444.364243,36.6581376 443.903443,36.4957056 C443.614291,36.3937536 443.302675,35.9853696 443.243347,35.6685696 C443.058451,34.6801536 443.049235,33.6583296 442.858579,32.6704896 C442.605139,31.3549056 442.322899,30.0347136 441.911059,28.7623296 C441.409939,27.2117376 441.449107,26.9220096 442.850515,25.9877376 C445.008211,24.5488896 448.150867,25.5534336 449.069587,27.9081216 C449.504467,29.0226816 449.271763,29.9195136 448.448659,30.6516096 C447.739603,31.2823296 446.926867,31.7984256 446.142355,32.3392896 C445.958611,32.4660096 445.704595,32.4902016 445.591123,32.7315456 C446.799571,33.3265536 447.881875,33.4889856 448.990099,33.4250496 C450.083923,33.3628416 451.174291,33.2366976 452.558995,33.1117056" id="Fill-25" fill="#000000"></path>
                            <path d="M394.712755,36.1047744 C396.487987,35.4320064 398.004019,34.8565824 399.575347,34.2615744 C399.829939,34.8911424 399.980851,35.3496384 399.361075,35.8029504 C397.920499,36.8547264 396.353203,37.5862464 394.582003,37.8160704 C393.356275,37.9750464 393.199027,37.8316224 392.876467,36.5408064 C392.781427,36.1606464 392.692147,35.7729984 392.660467,35.3836224 C392.491699,33.3054144 392.337907,31.2260544 392.185843,29.1466944 C392.063731,27.4785984 392.285491,27.2602944 393.990451,27.0057024 C395.489203,26.7810624 396.970675,26.4394944 398.469427,26.2137024 C399.105907,26.1180864 399.767155,26.1854784 400.486003,26.1779904 C400.495219,27.3351744 399.825331,27.6404544 399.124339,27.8357184 C397.987315,28.1530944 396.828979,28.3927104 395.683315,28.6784064 C395.250163,28.7866944 394.826227,28.9312704 394.299763,29.0885184 C394.306675,29.7607104 394.313587,30.4110144 394.321075,31.1108544 C395.702323,31.6684224 396.979891,31.3026624 398.247667,30.7854144 C398.783347,30.5665344 399.404275,29.8569024 399.881203,30.5625024 C400.411123,31.3470144 399.393907,31.4668224 399.029875,31.8844224 C398.376115,32.6343744 397.495987,32.7760704 396.619891,32.9828544 C395.914291,33.1498944 395.212723,33.3330624 394.329139,33.5542464 C394.454131,34.3859904 394.565875,35.1267264 394.712755,36.1047744" id="Fill-27" fill="#000000"></path>
                            <path d="M414.331085,7.4726784 C414.433037,8.7444864 414.502157,10.0203264 414.651917,11.2869504 C414.726797,11.9211264 414.897293,12.5541504 414.292493,12.9919104 C414.004493,13.1998464 413.510285,13.4613504 413.290829,13.3478784 C412.953293,13.1727744 412.550669,12.6895104 412.561037,12.3485184 C412.642253,9.7138944 412.817357,7.0821504 412.961933,4.4492544 C412.989581,3.9394944 412.965965,3.3629184 413.611085,3.2315904 C414.311501,3.0887424 414.781517,3.4844544 415.110989,4.0719744 C415.912781,5.4993024 416.708813,6.9295104 417.519821,8.3510784 C417.931661,9.0728064 418.345229,9.8066304 419.345741,10.1234304 C419.449997,9.7824384 419.608973,9.5249664 419.591693,9.2795904 C419.467277,7.4939904 419.852045,5.6496384 418.971917,3.9475584 C418.680461,3.3848064 418.894157,2.9366784 419.467277,2.7275904 C420.043277,2.5173504 420.485069,2.7362304 420.637133,3.3450624 C420.814541,4.0552704 421.033997,4.7746944 421.066829,5.4975744 C421.137677,7.0579584 421.702733,8.5924224 421.325453,10.1764224 C421.273037,10.3953024 421.316813,10.6689024 421.199309,10.8347904 C420.724685,11.5052544 420.467213,12.4389504 419.467853,12.5501184 C418.543373,12.6532224 418.031309,11.9960064 417.564173,11.3480064 C416.618381,10.0353024 415.698509,8.7047424 414.767693,7.3810944 C414.621965,7.4116224 414.476237,7.4421504 414.331085,7.4726784" id="Fill-29" fill="#000000"></path>
                            <path d="M380.580768,5.5998144 C380.451168,6.3514944 380.342304,6.9827904 380.190816,7.8611904 C380.786976,7.6163904 381.153888,7.4660544 381.558816,7.2995904 C381.364128,6.7518144 381.22416,6.3267264 381.056544,5.9137344 C381.023136,5.8313664 380.88144,5.7927744 380.580768,5.5998144 M383.38992,6.5974464 C384.071328,6.6636864 384.551136,6.7097664 385.355808,6.7875264 C384.95088,7.3157184 384.764832,7.7235264 384.447456,7.9377984 C383.84784,8.3433024 383.834592,8.8046784 384.056928,9.4025664 C384.488352,10.5643584 384.91632,11.7284544 385.29648,12.9081024 C385.620768,13.9155264 385.461792,14.3964864 384.794208,14.5364544 C383.848416,14.7340224 383.7096,14.0376384 383.497056,13.3533504 C383.066784,11.9628864 382.56912,10.5931584 382.085856,9.1779264 C381.31344,9.4469184 380.648736,9.5909184 380.07216,9.8996544 C379.175328,10.3811904 379.27152,11.4254784 378.944928,12.2266944 C378.759456,12.6805824 378.766368,13.2525504 378.484128,13.6125504 C378.282528,13.8694464 377.708256,14.0174784 377.36496,13.9379904 C376.886304,13.8262464 376.72272,13.3786944 376.9128,12.8470464 C377.215776,12.0009024 377.616672,11.1564864 377.726112,10.2803904 C377.991648,8.1480384 378.87408,6.1815744 379.259424,4.0878144 C379.269216,4.0330944 379.29744,3.9812544 379.321632,3.9305664 C379.641888,3.2433984 379.705824,2.3027904 380.76624,2.30394134 C381.706272,2.3045184 381.904992,3.0821184 382.186656,3.7623744 C382.573152,4.6983744 382.976928,5.6263104 383.38992,6.5974464" id="Fill-31" fill="#000000"></path>
                            <path d="M424.199578,23.63328 C424.497946,24.424128 424.772698,24.859008 424.815898,25.316352 C425.11369,28.448064 425.658586,31.559616 425.636698,34.719552 C425.635546,34.886016 425.693146,35.05248 425.721946,35.218944 C425.835418,35.873856 425.451802,36.19296 424.895386,36.26496 C424.271578,36.3456 424.000858,35.9424 423.936922,35.356608 C423.79177,34.020864 423.633946,32.686272 423.464602,31.205376 C422.912218,31.324032 422.427802,31.405824 421.956634,31.536 C421.52809,31.65408 421.113946,31.824576 420.601306,32.004288 C420.61225,33.02208 420.608218,34.020288 420.642778,35.017344 C420.651994,35.29152 420.87145,35.578944 420.827098,35.830656 C420.765466,36.17856 420.545434,36.49824 420.39337,36.830016 C420.032218,36.631872 419.528218,36.520704 419.342746,36.216 C419.060506,35.751744 418.90441,35.160768 418.862362,34.610688 C418.748314,33.103296 418.733338,31.588992 418.654426,30.07872 C418.625626,29.519424 418.508122,28.964736 418.468954,28.40544 C418.42633,27.78912 418.414234,27.16992 418.411333,26.551296 C418.40905,26.045568 418.600282,25.654464 419.170522,25.618176 C419.775898,25.579008 420.127258,25.9344 420.26377,26.476992 C420.344986,26.800128 420.32713,27.150336 420.334618,27.489024 C420.349018,28.161216 420.350746,28.833408 420.35881,29.578176 C421.460122,29.817216 422.401882,30.223872 423.351706,29.489472 C423.695002,27.68256 422.128282,25.651008 424.199578,23.63328" id="Fill-33" fill="#000000"></path>
                            <path d="M427.098125,52.0221312 C426.589517,53.7979392 426.844109,55.4009472 427.256525,56.9596032 C427.350413,57.3144192 427.989197,57.6600192 428.432717,57.7556352 C429.167693,57.9140352 430.582349,56.7412992 431.015501,55.8099072 C431.429645,54.9194112 430.975181,54.2460672 430.422221,53.6769792 C429.580685,52.8095232 428.515661,52.2997632 427.098125,52.0221312 M425.754317,60.6995712 C425.523341,59.0476032 425.367821,57.3800832 425.039501,55.7476992 C424.744589,54.2788992 425.112077,52.7404032 424.396685,51.3038592 C424.044173,50.5965312 424.639181,49.8805632 425.402381,49.9784832 C427.571597,50.2566912 429.699341,50.4922752 431.540237,52.0204032 C433.572941,53.7075072 433.257293,56.9140992 431.585165,58.0787712 C431.446349,58.1755392 431.318477,58.2878592 431.183117,58.3892352 C429.666509,59.5228032 427.622285,59.5158912 426.234701,60.9299712 C426.074573,60.8533632 425.914445,60.7761792 425.754317,60.6995712" id="Fill-35" fill="#000000"></path>
                            <path d="M439.646688,51.7200192 C438.990048,52.7729472 438.535584,53.6144832 438.848928,54.6887232 C439.658784,54.6270912 440.35632,54.5746752 441.077472,54.5193792 C441.09072,53.2348992 440.435808,52.5782592 439.646688,51.7200192 M445.064544,58.2777792 C444.975264,58.3993152 444.828384,58.7236032 444.578976,58.9159872 C443.867616,59.4666432 443.38896,59.3353152 442.980576,58.5191232 C442.57968,57.7190592 442.200096,56.9080512 441.769824,56.0164032 C440.99568,56.2174272 440.30736,56.4115392 439.611552,56.5728192 C438.35472,56.8642752 437.497632,57.4903872 437.321952,58.8923712 C437.27472,59.2736832 436.919904,59.7212352 436.578336,59.9274432 C436.313952,60.0858432 435.755808,60.0426432 435.504096,59.8542912 C435.26448,59.6751552 435.073824,59.1302592 435.16944,58.8503232 C436.093344,56.1408192 437.075424,53.4503232 438.06096,50.7615552 C438.175008,50.4510912 438.391008,50.1717312 438.59088,49.9015872 C439.357536,48.8642112 439.919136,48.7841472 440.708832,49.8030912 C441.494496,50.8174272 442.2024,51.9175872 442.774368,53.0644032 C443.597472,54.7140672 444.266784,56.4397632 445.064544,58.2777792" id="Fill-37" fill="#000000"></path>
                            <path d="M431.757331,31.2936768 C432.904147,31.0817088 433.623571,30.9480768 434.639635,30.7603008 C433.958803,29.9014848 433.466323,29.2811328 432.817747,28.4632128 C432.443923,29.4608448 432.177235,30.1727808 431.757331,31.2936768 M435.213331,32.4364608 C433.846483,32.7284928 432.755539,32.9617728 431.479699,33.2342208 C431.361619,33.9352128 431.213011,34.7473728 431.090899,35.5635648 C430.982035,36.2899008 430.579411,36.7495488 429.850771,36.6095808 C429.129043,36.4713408 429.174547,35.8550208 429.258643,35.2519488 C429.624403,32.6236608 430.055827,30.0080448 431.441683,27.6879168 C431.763667,27.1482048 432.321235,26.4443328 432.830995,26.3901888 C433.659859,26.3026368 434.410963,26.8463808 434.815315,27.7103808 C435.100435,28.3203648 435.429331,28.9188288 435.810067,29.4735168 C436.174675,30.0051648 436.632019,30.4728768 436.946515,30.8467008 C437.021395,31.6323648 437.018515,32.3333568 437.169427,32.9992128 C437.354899,33.8177088 437.702227,34.5970368 437.918227,35.4097728 C438.202195,36.4794048 438.176275,36.4863168 436.637779,37.0496448 C436.168915,35.5307328 435.700627,34.0158528 435.213331,32.4364608" id="Fill-39" fill="#000000"></path>
                            <path d="M366.093331,30.0680064 C366.098515,30.5783424 366.103699,31.0587264 366.110611,31.7130624 C366.717139,31.5679104 367.182547,31.3881984 367.657171,31.3582464 C368.547091,31.3017984 369.443923,31.2989184 370.332691,31.3536384 C370.507795,31.3645824 370.780819,31.7314944 370.790035,31.9434624 C370.799251,32.1577344 370.584403,32.4889344 370.382227,32.5810944 C369.980179,32.7648384 369.504403,32.7803904 369.086227,32.9364864 C368.210131,33.2642304 367.351315,33.6380544 366.456787,34.0049664 C366.651475,35.2473984 366.814483,36.2945664 366.980371,37.3405824 C367.014355,37.5583104 367.134163,37.7950464 367.082323,37.9868544 C366.936595,38.5282944 366.781651,39.1192704 366.048979,39.1359744 C365.300755,39.1532544 365.112403,38.6360064 365.058259,38.0248704 C364.948819,36.7939584 364.907923,35.5526784 364.728211,34.3321344 C364.507603,32.8316544 364.185619,31.3461504 363.886099,29.8583424 C363.632659,28.5974784 363.822163,28.2432384 365.006995,28.2098304 C367.333459,28.1435904 369.587347,27.7041024 371.800339,27.0249984 C372.413203,26.8366464 372.974803,26.7842304 373.134931,27.5301504 C373.296211,28.2783744 372.722515,28.4350464 372.122323,28.5755904 C370.159891,29.0369664 368.206675,29.5409664 366.093331,30.0680064" id="Fill-41" fill="#000000"></path>
                            <path d="M469.211962,31.4084736 C469.637626,29.5502976 469.92793,28.0169856 469.455034,26.4404736 C469.390522,26.2250496 469.70041,25.6738176 469.868602,25.6599936 C470.19865,25.6317696 470.75737,25.7855616 470.856442,26.0194176 C471.13753,26.6806656 471.377146,27.4208256 471.374291,28.1293056 C471.368506,29.5335936 471.199162,30.9384576 471.07705,32.3410176 C471.011962,33.0880896 470.592058,33.5022336 469.876666,33.7919616 C469.117498,34.0995456 468.703354,33.7320576 468.252922,33.2845056 C467.652154,32.6889216 467.081338,32.0593536 466.449466,31.4994816 C465.968506,31.0732416 465.41209,30.7322496 464.652922,30.1815936 C464.661562,31.0104576 464.66905,31.4942976 464.670778,31.9787136 C464.672506,32.4867456 464.731258,33.0045696 464.652922,33.4999296 C464.527354,34.2907776 463.844794,34.8080256 463.226746,34.5995136 C462.44857,34.3362816 462.438778,33.6905856 462.677818,33.0702336 C463.27801,31.5144576 462.782074,29.9471616 462.740026,28.3931136 C462.723898,27.7837056 462.657082,27.2186496 463.19737,26.9260416 C463.76473,26.6184576 464.218618,26.9905536 464.673658,27.4098816 C466.109626,28.7335296 467.60089,29.9978496 469.211962,31.4084736" id="Fill-43" fill="#000000"></path>
                            <path d="M413.566906,35.4736512 C413.09977,35.0203392 412.681018,34.4973312 412.154554,34.1298432 C411.18745,33.4547712 410.163898,32.8586112 409.150714,32.2515072 C407.30233,31.1444352 406.998778,29.5823232 408.35353,27.9562752 C409.435258,26.6579712 410.699002,25.6493952 412.512826,25.7692032 C413.693626,25.8475392 414.100858,26.8445952 413.49145,28.0369152 C411.60505,27.1711872 410.952442,27.4275072 409.279738,29.7205632 C409.642042,31.1092992 410.863738,31.6294272 411.947194,32.3235072 C412.88377,32.9231232 413.830714,33.5521152 414.616954,34.3262592 C415.270138,34.9702272 415.596154,35.8889472 415.055866,36.8053632 C414.561658,37.6445952 413.725882,38.0368512 412.786426,38.0115072 C411.274426,37.9700352 409.959418,37.2765312 408.742906,36.4540032 C408.469306,36.2679552 408.270586,35.6228352 408.375418,35.2996992 C408.576442,34.6833792 409.196218,34.8158592 409.674874,34.9978752 C410.411578,35.2783872 411.103354,35.6884992 411.85273,35.9188992 C412.323322,36.0634752 412.864186,35.9811072 413.37337,36.0012672 C413.437882,35.8250112 413.502394,35.6493312 413.566906,35.4736512" id="Fill-45" fill="#000000"></path>
                            <path d="M456.18192,48.3762816 C456.200352,49.1890176 455.685408,49.4695296 455.046624,49.6457856 C454.28688,49.8548736 453.531168,50.0806656 452.770272,50.2857216 C451.53072,50.6198016 451.442016,50.6612736 451.54224,51.8564736 C451.702368,53.7595776 451.940256,55.6557696 452.151072,57.5542656 C452.17584,57.7766016 452.248992,57.9931776 452.2824,58.2155136 C452.382048,58.8721536 452.10384,59.3888256 451.480608,59.5046016 C450.755424,59.6399616 450.491616,59.0040576 450.41328,58.4528256 C450.216288,57.0635136 450.122976,55.6592256 449.963424,54.2630016 C449.844768,53.2215936 449.686368,52.1842176 449.53488,51.0685056 C448.55568,51.0782976 447.77808,51.0967296 447.00048,51.0915456 C446.464224,51.0880896 445.95216,50.9821056 445.887072,50.3225856 C445.820832,49.6463616 446.216544,49.2846336 446.838048,49.1429376 C447.001056,49.1060736 447.17616,49.1026176 447.343776,49.1147136 C449.741088,49.2846336 452.031264,48.6890496 454.323168,48.1274496 C454.99536,47.9627136 455.633568,47.7933696 456.18192,48.3762816" id="Fill-47" fill="#000000"></path>
                            <path d="M385.419686,35.3861568 C386.69783,35.5157568 387.73175,34.9910208 388.64759,34.2422208 C389.140646,33.8390208 389.56055,33.6149568 390.15383,34.0279488 C390.155558,34.1915328 390.229862,34.4259648 390.14807,34.5106368 C388.773734,35.9379648 387.52439,37.5409728 385.226726,37.5121728 C383.926118,37.4960448 383.382374,37.1711808 383.40887,35.8930368 C383.460134,33.3937728 383.101286,30.9665088 382.512038,28.5444288 C382.374374,27.9805248 382.725734,27.2703168 382.949798,26.6637888 C383.013158,26.4938688 383.490086,26.3066688 383.658278,26.3844288 C383.91287,26.5019328 384.195686,26.8250688 384.236582,27.0957888 C384.649574,29.7949248 385.015334,32.5009728 385.419686,35.3861568" id="Fill-49" fill="#000000"></path>
                            <path d="M406.040371,2.4610752 C406.558195,2.9921472 407.058163,3.3095232 407.262643,3.7611072 C407.534515,4.3601472 407.645683,5.0582592 407.702131,5.7241152 C407.826547,7.1773632 407.832307,8.6409792 407.972275,10.0924992 C408.022963,10.6178112 408.274675,11.1413952 408.516595,11.6252352 C408.804019,12.2018112 408.860467,12.7081152 408.293683,13.1095872 C407.825395,13.4419392 406.951603,13.2622272 406.680883,12.6666432 C406.362931,11.9656512 406.163059,11.1851712 406.059379,10.4190912 C405.931507,9.4750272 406.006387,8.5050432 405.900403,7.5563712 C405.796147,6.6203712 405.566899,5.6987712 405.410227,4.7679552 C405.335923,4.3278912 405.209203,3.8647872 405.282931,3.4425792 C405.334195,3.1459392 405.683827,2.9017152 406.040371,2.4610752" id="Fill-51" fill="#000000"></path>
                            <path d="M378.175795,29.8514304 C378.125107,31.3680384 378.051955,32.8852224 378.032947,34.4024064 C378.024307,35.0659584 378.218419,35.7404544 378.148147,36.3913344 C378.093427,36.8941824 377.880307,37.4724864 377.539891,37.8290304 C377.101555,38.2881024 376.445491,37.9989504 376.274995,37.3555584 C376.189171,37.0318464 376.130995,36.6885504 376.135603,36.3550464 C376.172467,33.7636224 376.226611,31.1727744 376.277875,28.5819264 C376.288819,28.0335744 376.137331,27.3803904 376.890739,27.1926144 C377.413171,27.0624384 378.062899,27.7530624 378.187315,28.4984064 C378.205747,28.6084224 378.199411,28.7236224 378.200563,28.8365184 C378.205747,29.1752064 378.208627,29.5138944 378.212083,29.8520064 L378.175795,29.8514304 Z" id="Fill-53" fill="#000000"></path>
                            <path d="M473.619686,62.620992 C473.910566,62.006976 474.196838,61.303104 474.568358,60.647616 C474.982502,59.916672 475.552166,59.266368 475.903526,58.511232 C476.143142,57.995712 476.241638,57.348864 476.18807,56.780928 C476.125862,56.120832 476.084966,55.499904 476.644262,55.09728 C476.963942,54.867456 477.500774,54.67104 477.823334,54.785664 C478.15511,54.90432 478.560614,55.422144 478.556045,55.75968 C478.544486,56.585664 478.524326,57.529728 478.131494,58.208256 C477.237542,59.750208 476.14487,61.182144 475.071206,62.611776 C474.778022,63.001728 474.271142,63.281088 473.619686,62.620992" id="Fill-55" fill="#000000"></path>
                            <path d="M458.032838,35.0379648 C457.728134,35.3323008 457.40903,35.7619968 456.981062,35.9751168 C456.862406,36.0344448 456.28007,35.5004928 456.16199,35.1537408 C455.930438,34.4706048 455.850374,33.7304448 455.75303,33.0087168 C455.542214,31.4506368 455.359622,29.8896768 455.16551,28.3304448 C455.117126,27.9381888 454.97543,27.5280768 455.046278,27.1594368 C455.120582,26.7694848 455.397638,26.4187008 455.586566,26.0506368 C455.967302,26.3299968 456.564614,26.5390848 456.683846,26.9036928 C456.941318,27.6910848 456.973574,28.5573888 457.061702,29.3948928 C457.180358,30.5134848 457.216646,31.6418688 457.382534,32.7523968 C457.485062,33.4435968 457.760966,34.1094528 458.032838,35.0379648" id="Fill-57" fill="#000000"></path>
                            <path d="M485.287373,40.0597056 C485.797709,39.6749376 486.250445,39.4168896 486.596045,39.0568896 C487.403021,38.2147776 487.860365,37.2090816 487.776269,36.0086976 C487.764749,35.8405056 487.722701,35.6711616 487.734221,35.5052736 C487.781453,34.8169536 488.388557,34.0497216 488.884493,34.0307136 C489.395981,34.0111296 489.995021,34.7138496 490.101581,35.4591936 C490.323917,37.0201536 488.902925,39.8943936 487.516493,40.6875456 C486.817805,41.0878656 486.449165,41.0216256 485.287373,40.0597056" id="Fill-59" fill="#000000"></path>
                            <path d="M436.539974,15.7192128 C437.054342,15.3396288 437.509958,15.0867648 437.859014,14.7302208 C438.675206,13.8967488 439.142342,12.8956608 439.071494,11.6947008 C439.061126,11.5265088 439.020806,11.3565888 439.034054,11.1907008 C439.088774,10.5029568 439.703942,9.7420608 440.199878,9.7282368 C440.711942,9.7138368 441.303494,10.4234688 441.40199,11.1693888 C441.608198,12.7320768 440.157254,15.5919168 438.762758,16.3706688 C438.059462,16.7629248 437.691398,16.6932288 436.539974,15.7192128" id="Fill-61" fill="#000000"></path>
                            <path d="M254.304576,313.020979 C254.359296,313.908019 254.3616,314.463283 254.435904,315.008179 C254.519424,315.618739 254.669184,316.220083 254.84832,317.116339 C255.973248,316.762675 256.965696,316.505779 257.914368,316.137715 C258.789312,315.797875 259.618176,315.338803 260.701056,314.820403 C260.817408,316.226419 260.367552,317.100211 259.577856,317.638771 C257.9472,318.750451 256.182912,319.564915 254.112192,319.530355 C253.062144,319.512499 252.539136,319.054579 252.421056,318.073075 C252.13248,315.661363 251.9136,313.239859 251.559936,310.837939 C251.44128,310.029235 250.982208,309.273523 250.712064,308.482675 C250.251264,307.132531 250.384896,306.445363 251.74656,305.983411 C253.7136,305.316403 255.780864,304.915507 257.82912,304.530163 C258.974784,304.314739 260.169984,304.359667 261.436032,304.281331 C261.965952,305.244403 261.94464,305.561779 260.919936,305.928691 C259.8768,306.302515 258.757056,306.456307 257.688,306.765619 C256.353984,307.150963 255.037248,307.596787 253.791936,307.991923 C253.58976,310.423219 253.69056,310.458931 255.7296,310.355827 C257.527872,310.265395 259.336512,310.375987 261.142272,310.397875 C261.324864,311.845939 261.150336,312.181171 259.922304,312.374131 C258.815232,312.548083 257.691456,312.621811 256.575744,312.745651 C255.897216,312.821683 255.21984,312.909811 254.304576,313.020979" id="Fill-63" fill="#000000"></path>
                            <path d="M266.494234,313.474349 L266.276506,313.587245 C266.730394,314.646509 267.02185,315.822125 267.675034,316.739693 C268.750426,318.251117 269.68873,318.303533 271.260634,317.293229 C273.27721,315.997805 274.338202,312.078701 273.195994,310.010861 C272.969626,309.601325 272.635546,309.177965 272.242138,308.945837 C269.859802,307.539821 267.061594,308.853677 266.573146,311.597741 C266.464282,312.208877 266.516122,312.847661 266.494234,313.474349 M264.143578,314.183981 C264.014554,310.662893 265.441306,306.581357 269.549914,305.398253 C270.018778,305.264045 270.45481,304.949549 270.92425,304.905197 C271.423066,304.857965 272.155738,304.844141 272.420698,305.141357 C274.661338,307.655021 276.357658,310.350125 275.415898,314.010605 C275.033434,315.497261 274.899226,316.972973 273.742618,318.182573 C270.913306,321.142061 266.557594,320.832173 265.02313,316.645805 C264.66601,315.671213 264.324442,314.691437 264.143578,314.183981" id="Fill-65" fill="#000000"></path>
                            <path d="M239.632934,309.293856 C239.018342,311.835744 240.248678,316.301472 241.929446,317.628 C243.72887,316.687968 244.937894,314.680032 244.496102,313.190496 C243.91319,311.22576 242.635622,308.991456 239.632934,309.293856 M246.858278,313.53264 C247.66295,317.713824 243.789926,319.733856 240.969254,320.267232 C239.632358,320.51952 238.615718,319.567968 238.243046,317.926368 C237.93431,316.567008 237.77303,315.17424 237.51959,313.801056 C237.266726,312.4296 236.994854,311.0616 236.70455,309.697632 C236.286374,307.739808 237.163622,306.545184 239.145062,306.459936 C242.999078,306.2952 246.781094,308.97072 246.858278,313.53264" id="Fill-67" fill="#000000"></path>
                            <path d="M216.095386,320.552294 C212.197594,317.07095 208.37929,310.540262 208.807834,308.03639 C210.12745,307.596326 210.656218,308.511014 211.194202,309.440102 C212.243674,311.254502 213.264922,313.08791 214.388122,314.85623 C214.855258,315.592934 215.551642,316.183334 216.410458,317.136038 C216.825754,315.123494 217.254874,313.53431 217.458778,311.916902 C217.65289,310.381286 217.611418,308.816294 217.689178,306.878054 C218.912026,307.397606 219.800794,307.774886 220.942426,308.259878 C218.85961,310.364582 219.915418,312.813734 219.348634,314.959334 C219.244954,315.353318 219.36361,315.801446 219.29161,316.209254 C218.953498,318.121574 218.39881,319.897958 216.095386,320.552294" id="Fill-69" fill="#000000"></path>
                            <path d="M227.013523,306.812102 C228.537619,307.016582 229.095763,307.721606 229.210387,308.92487 C229.408531,311.009414 229.610707,313.09511 229.907923,315.166982 C229.989715,315.734342 230.375635,316.276358 230.688979,316.788998 C231.301267,317.79239 231.114067,318.807302 230.179795,319.283654 C229.134355,319.816454 228.340627,319.564166 228.075091,318.431174 C227.724883,316.936454 227.526163,315.404294 227.309587,313.880774 C227.112595,312.501254 226.917331,311.115974 226.839571,309.726662 C226.787155,308.799302 226.942675,307.860422 227.013523,306.812102" id="Fill-71" fill="#000000"></path>
                            <path d="M20.4151104,90.7046784 C20.5815744,89.1489024 20.7543744,87.5942784 20.9127744,86.0373504 C21.0348864,84.8381184 21.2180544,83.6371584 21.2197824,82.4367744 C21.2209344,81.7017984 21.2405184,81.1234944 22.1143104,81.1073664 C22.9518144,81.0918144 23.6873664,81.9869184 23.5381824,82.7869824 C23.3550144,83.7725184 23.0503104,84.7425024 22.9506624,85.7349504 C22.7548224,87.6887424 22.6643904,89.6529024 22.5313344,91.6130304 C22.5100224,91.9304064 22.5514944,92.2627584 22.4720064,92.5640064 C22.2358464,93.4608384 22.2295104,94.5581184 21.0273984,94.7965824 C20.0337984,94.9935744 19.7722944,94.0541184 19.3425984,93.4925184 C18.4186944,92.2840704 17.6099904,90.9869184 16.7120064,89.7571584 C16.0576704,88.8609024 15.3365184,88.0141824 14.3279424,87.3310464 C14.5134144,89.1967104 14.7201984,91.0606464 14.8774464,92.9291904 C15.0093504,94.5022464 14.5900224,95.3426304 13.7409984,95.3645184 C12.8199744,95.3875584 12.4605504,94.6047744 12.4951104,93.0190464 C12.5613504,90.0388224 12.9259584,87.0413184 11.9853504,84.1048704 C11.8666944,83.7345024 12.1114944,82.9010304 12.3407424,82.8376704 C12.8049984,82.7103744 13.5647424,82.7800704 13.8659904,83.0928384 C15.0986304,84.3715584 16.2396864,85.7435904 17.3450304,87.1369344 C18.2873664,88.3240704 19.1340864,89.5860864 20.0228544,90.8152704 L20.4151104,90.7046784 Z" id="Fill-73" fill="#000000"></path>
                            <path d="M62.6242752,86.0170752 C61.5488832,84.2395392 61.1635392,84.0022272 60.0869952,84.3501312 C58.8117312,84.7619712 58.3313472,85.6242432 58.5755712,87.1863552 C58.6694592,87.7853952 58.8745152,88.3677312 59.0594112,89.0733312 C60.6693312,88.4299392 61.5218112,87.1598592 62.6242752,86.0170752 M67.2541632,92.6957952 C65.8521792,94.2492672 65.2686912,94.3592832 63.6973632,93.7435392 C62.2325952,93.1692672 60.7246272,92.7044352 59.2068672,92.1814272 C58.5070272,93.5448192 60.3617472,95.3016192 58.2956352,96.1932672 C57.2864832,95.7307392 57.1165632,94.8356352 57.0526272,93.8368512 C56.8948032,91.3744512 56.7076032,88.9137792 56.4927552,86.4565632 C56.4495552,85.9594752 56.2162752,85.4813952 56.0999232,84.9883392 C55.9593792,84.3967872 55.8499392,83.7971712 55.6696512,82.9233792 C56.4812352,83.1002112 56.9967552,83.2125312 57.5854272,83.3409792 C57.6194112,83.3271552 57.7490112,83.2966272 57.8503872,83.2257792 C60.4815552,81.4021632 63.3085632,82.2989952 64.3983552,85.3062912 C64.7986752,86.4104832 64.5705792,87.1299072 63.6167232,88.0198272 C62.8938432,88.6937472 62.2141632,89.4148992 61.4803392,90.1498752 C63.2037312,91.7540352 65.5900992,91.3928832 67.2541632,92.6957952" id="Fill-75" fill="#000000"></path>
                            <path d="M81.1322496,83.3632128 C82.9552896,84.2848128 83.0589696,84.4432128 82.6586496,85.8607488 C82.0567296,87.9913728 82.2203136,90.1577088 82.4161536,92.3033088 C82.5111936,93.3429888 82.2479616,93.9644928 81.3782016,94.5099648 C80.4750336,95.0761728 79.6646016,95.0018688 78.9255936,94.3711488 C78.1543296,93.7133568 77.4925056,92.9294208 76.7581056,92.2261248 C75.5801856,91.0983168 74.3821056,89.9918208 73.0607616,88.7522688 C72.8643456,90.3529728 73.0434816,91.8148608 73.4893056,93.2594688 C73.6949376,93.9264768 73.9719936,94.5790848 74.1021696,95.2599168 C74.2548096,96.0542208 73.6494336,96.9078528 72.9806976,96.9982848 C72.2480256,97.0979328 71.6599296,96.5144448 71.5804416,95.5554048 C71.3212416,92.4081408 71.0741376,89.2597248 70.8299136,86.1113088 C70.7959296,85.6677888 70.7366016,85.2092928 70.8126336,84.7790208 C70.9445376,84.0336768 71.6633856,83.7318528 72.2301696,84.2243328 C72.7986816,84.7179648 73.2306816,85.3659648 73.7398656,85.9315968 C75.6930816,88.1031168 77.6497536,90.2717568 79.6185216,92.4288768 C79.7216256,92.5417728 79.9462656,92.5435008 80.3719296,92.6794368 C80.2665216,89.5154688 80.0631936,86.4436608 81.1322496,83.3632128" id="Fill-77" fill="#000000"></path>
                            <path d="M92.1538368,91.4024448 C92.7379008,93.4524288 92.9947968,93.6770688 94.6997568,93.4547328 C95.7526848,93.3176448 96.7860288,93.0284928 97.8585408,92.8003968 C98.4737088,93.7421568 98.3947968,94.5854208 97.2641088,94.8446208 C95.5090368,95.2460928 93.6606528,95.3250048 91.8491328,95.3527732 C91.1412288,95.3635968 90.7737408,94.6268928 90.5565888,93.8838528 C90.2063808,92.6875008 90.2697408,91.3511808 89.3654208,90.3212928 C89.2185408,90.1536768 89.2271808,89.6214528 89.3792448,89.4567168 C90.2812608,88.4809728 89.8296768,87.3462528 89.3204928,86.6481408 C88.4576448,85.4661888 88.5284928,84.6540288 89.5284288,83.7289728 C89.7432768,83.5302528 89.8388928,83.2025088 90.0226368,82.8753408 C91.2189888,83.0043648 92.0979648,84.2093568 93.4233408,83.6667648 C94.5056448,83.2232448 95.6657088,82.9698048 96.8148288,82.6253568 C97.4081088,83.1259008 97.2491328,83.6425728 96.7238208,84.0279168 C95.7089088,84.7721088 94.7302848,85.5283968 93.3576768,85.6637568 C91.8854208,85.8083328 91.6308288,86.3077248 91.8883008,87.7212288 C92.1019968,88.8968448 92.5057728,89.2631808 93.7291968,89.0489088 C94.6916928,88.8807168 95.6138688,88.4832768 96.5959488,88.1745408 C97.3971648,89.2579968 97.1362368,90.1317888 95.7359808,90.5280768 C94.5926208,90.8523648 93.4262208,91.0954368 92.1538368,91.4024448" id="Fill-79" fill="#000000"></path>
                            <path d="M50.5620288,82.5284736 C49.3950528,84.7403136 47.1526848,83.2144896 45.4707648,84.1044096 C45.6447168,84.8814336 45.8313408,85.7137536 46.0099008,86.5097856 C47.6900928,86.5334016 49.1767488,86.8340736 50.6276928,86.0478336 C50.9802048,85.8571776 51.7140288,86.3698176 52.6903488,86.7010176 C50.3771328,88.3766016 48.0431808,88.5442176 45.6879168,89.0470656 C45.6879168,89.6973696 45.7161408,90.3142656 45.6815808,90.9277056 C45.6095808,92.2006656 45.9672768,92.7398016 47.1693888,92.8250496 C48.4878528,92.9195136 49.8282048,93.0744576 50.9387328,91.9979136 C51.3799488,91.5699456 51.4698048,91.6626816 52.7514048,92.3510016 C52.4305728,92.7467136 52.1926848,93.2006016 51.8211648,93.4713216 C50.2095168,94.6457856 48.3738048,95.0633856 46.4021568,94.8807936 C44.4979008,94.7045376 43.5659328,93.6769536 43.5446208,91.7629056 C43.5181248,89.3448576 43.4996928,86.9273856 43.4778048,84.5099136 C43.4611008,82.6096896 44.1263808,81.8741376 46.0075968,81.7140096 C47.4193728,81.5936256 48.6865728,81.8119296 50.5620288,82.5284736" id="Fill-81" fill="#000000"></path>
                            <path d="M109.063987,84.1712256 C109.255795,86.2344576 109.398067,87.9152256 109.572019,89.5919616 C109.735603,91.1638656 109.934899,92.7323136 110.113459,94.3024896 C110.142259,94.5559296 110.237875,94.8617856 110.135923,95.0564736 C109.923379,95.4637056 109.599667,95.8127616 109.321459,96.1860096 C108.966643,95.9037696 108.489139,95.6883456 108.289267,95.3214336 C108.057715,94.8974976 108.024307,94.3433856 107.983987,93.8399616 C107.772019,91.1874816 107.572147,88.5344256 107.398195,85.8796416 C107.360179,85.3001856 107.212147,84.8877696 106.579699,84.7950336 C106.141363,84.7305216 105.705331,84.6475776 105.265267,84.5991936 C103.579891,84.4148736 103.459507,84.2265216 103.928947,82.1287296 C104.547571,82.1287296 105.228979,82.0711296 105.897715,82.1390976 C108.546163,82.4080896 111.100723,82.0060416 113.605171,81.1645056 C114.124147,80.9899776 114.760051,80.5245696 115.143091,81.1766016 C115.390771,81.5976576 115.444339,82.3049856 115.266931,82.7594496 C115.044019,83.3302656 114.509491,83.5531776 113.735347,83.5739136 C112.121395,83.6176896 110.515507,83.9684736 109.063987,84.1712256" id="Fill-83" fill="#000000"></path>
                            <path d="M33.817824,84.5360064 C33.95088,86.8434624 34.0632,88.8669504 34.185888,90.8892864 C34.2504,91.9658304 34.358112,93.0412224 34.40016,94.1183424 C34.42896,94.8533184 34.010208,95.3337024 33.309216,95.4753984 C32.730912,95.5923264 32.06736,94.8561984 32.056416,94.0659264 C32.042016,93.0521664 32.181408,92.0326464 32.120352,91.0234944 C31.994784,88.9452864 31.780512,86.8716864 31.611744,84.9040704 C30.547296,84.4041024 29.674656,84.0561984 28.874016,83.5850304 C28.594656,83.4202944 28.49328,82.9525824 28.329696,82.6570944 C28.511136,81.9094464 28.96848,81.6922944 29.623392,81.7700544 C30.505824,81.8748864 31.38768,82.0528704 32.270112,82.0580544 C33.457824,82.0649664 34.646112,81.9088704 35.835552,81.8817984 C36.317664,81.8708544 36.889632,81.8823744 37.262304,82.1260224 C37.617696,82.3593024 37.999008,82.9462464 37.939104,83.3062464 C37.883808,83.6420544 37.299168,84.0383424 36.883872,84.1356864 C35.973216,84.3499584 35.02224,84.3914304 33.817824,84.5360064" id="Fill-85" fill="#000000"></path>
                            <path d="M5.76e-05,80.6482944 C0.9844416,80.7842304 1.5955776,80.8504704 2.1992256,80.9576064 C2.9670336,81.0929664 3.2452416,81.5981184 3.1536576,82.3388544 C2.8046016,85.1583744 3.4353216,87.8736384 3.9974976,90.6021504 C4.2405696,91.7817984 4.2849216,92.9758464 3.8419776,94.1030784 C2.1076416,94.2171264 1.5022656,93.9164544 1.4769216,92.6555904 C1.3985856,88.7266944 0.9688896,84.8433024 5.76e-05,80.6482944" id="Fill-87" fill="#000000"></path>
                            <path d="M395.033126,53.6277312 C393.378854,67.5986112 385.254374,79.9157952 375.643238,89.8085952 C367.156454,98.5442112 357.081062,106.121491 346.018406,111.284179 C344.809958,111.848083 345.861734,113.635987 347.064998,113.074387 C358.75319,107.619667 369.432806,99.4600512 378.246758,90.0844992 C387.753638,79.9722432 395.448422,67.6354752 397.106726,53.6277312 C397.263398,52.3052352 395.188646,52.3167552 395.033126,53.6277312" id="Fill-89" fill="#000000"></path>
                            <path d="M347.252083,112.416595 C347.369011,109.242259 347.485363,106.067923 347.602291,102.893587 C347.651251,101.558995 345.577651,101.560723 345.528691,102.893587 C345.411763,106.067923 345.295411,109.242259 345.178483,112.416595 C345.129523,113.751187 347.203123,113.748883 347.252083,112.416595" id="Fill-91" fill="#000000"></path>
                            <path d="M345.879014,113.575622 C348.51191,114.265094 351.28535,114.65447 353.975846,115.055942 C355.281638,115.251206 355.84439,113.253062 354.527078,113.056646 C351.836582,112.654598 349.063142,112.265798 346.430246,111.576326 C345.138278,111.237638 344.587046,113.23751 345.879014,113.575622" id="Fill-93" fill="#000000"></path>
                        </g>
                    </g>
                </g>
            </g>
        </g>
    </g>
</svg>