<?xml version="1.0" encoding="UTF-8"?>
<svg width="471px" height="198px" viewBox="0 0 471 198" version="1.1" xmlns="http://www.w3.org/2000/svg" xmlns:xlink="http://www.w3.org/1999/xlink">
    <!-- Generator: Sketch 56.2 (81672) - https://sketch.com -->
    <title>Group 73</title>
    <desc>Created with Sketch.</desc>
    <defs>
        <polygon id="path-1" points="0.159369653 0.20373913 67.5183797 0.20373913 67.5183797 155.068773 0.159369653 155.068773"></polygon>
        <polygon id="path-3" points="0.0217337851 0.114017391 11.5649206 0.114017391 11.5649206 13.0122866 0.0217337851 13.0122866"></polygon>
    </defs>
    <g id="desktop" stroke="none" stroke-width="1" fill="none" fill-rule="evenodd">
        <g id="Rounds-Illu-Mobile" transform="translate(-20.000000, -20.000000)">
            <g id="Group-73" transform="translate(20.000000, 20.000000)">
                <path d="M334.023391,84.4980304 C334.755312,86.6459 336.416522,87.0825522 338.08181,87.2685957 C339.816164,87.4625304 341.583853,87.4321609 343.334755,87.3939 C348.112623,87.2901174 352.888812,87.104313 357.66668,87.0036391 C360.291234,86.9481609 362.922023,86.9101391 365.54322,87.0213348 C369.676221,87.1963783 373.803227,87.5062913 377.93335,87.7542696 C381.591274,87.9740304 385.262868,88.3657261 388.862037,87.3178565 C390.299498,86.8991391 391.682041,86.3206826 392.237457,84.7106174 C387.530814,82.2985087 382.628001,81.8343565 377.532136,82.1854 C371.894286,82.5735087 366.243724,82.8164652 360.594602,82.9905522 C356.628514,83.112987 352.65547,83.0147043 348.685785,83.013987 C348.28673,83.013987 347.886955,83.0192478 347.48838,83.0010739 C345.34274,82.9027913 343.195421,82.8262696 341.052419,82.687813 C338.568637,82.5275957 336.410047,83.4953565 334.023391,84.4980304" id="Fill-1" fill="#EDF864"></path>
                <path d="M387.836484,69.0755283 C386.33739,67.2846804 385.790129,67.1113109 383.854568,67.542463 C382.947102,67.7445283 382.013495,67.9382239 381.09116,67.9410935 C379.759938,67.9451587 378.429914,67.7342457 377.097013,67.6828326 C374.471979,67.580963 371.845267,67.51855 369.219274,67.4547022 C367.943929,67.4233761 366.637168,67.2402022 365.396836,67.4432239 C359.580082,68.394963 353.767405,67.76055 348.006288,67.2115065 C342.070345,66.645963 336.168456,66.3621152 330.226518,66.7545283 C328.737256,66.8525717 328.199347,67.2715283 328.11733,68.4523543 C328.03795,69.5944413 328.600081,70.3976804 329.876145,70.6050065 C332.458971,71.0242022 335.049471,71.4835717 337.6546,71.656463 C341.385189,71.903963 345.131365,71.9391152 348.871786,72.0087022 C351.659895,72.0603543 354.450402,71.9785717 357.238272,72.0347674 C366.311257,72.2177022 375.393595,72.6328326 384.359862,70.7001804 C385.579809,70.4373761 386.910312,70.3797457 387.836484,69.0755283" id="Fill-3" fill="#EDF864"></path>
                <path d="M415.639298,22.73535 C418.787372,23.2167196 421.185059,22.423763 423.323025,20.7103935 C425.064574,19.3148283 426.750965,17.8496761 428.518174,16.4883065 C431.32355,14.3270457 434.517189,13.5823935 437.984219,14.2787413 C439.877092,14.6589587 441.110709,15.8443283 441.350046,17.8343717 C441.511443,19.1744587 441.700419,20.5288935 441.664446,21.8713717 C441.586026,24.8102848 441.43686,27.7506326 441.196804,30.6806978 C440.917897,34.0828065 440.50757,37.4746326 440.159596,40.8714804 C439.601303,46.3195891 438.97706,51.7626761 438.511096,57.2186761 C438.043694,62.68735 437.915152,68.1897413 437.304099,73.6400022 C436.774344,78.3668935 435.491324,83.0029152 435.513627,87.8082413 C435.518424,88.8400891 435.411705,89.8733717 435.335683,90.904263 C435.009293,95.3363065 434.526062,99.7626109 434.379534,104.200154 C434.179767,110.242502 434.230608,116.29322 434.182884,122.34035 C434.168975,124.093415 434.18936,125.84672 434.186002,127.599785 C434.178808,131.720002 434.190559,135.840459 434.124849,139.95972 C434.117175,140.443959 433.737545,140.970285 433.419308,141.394263 C431.38854,144.099785 428.722738,145.589807 425.271296,145.600328 C418.997211,145.61922 412.955989,147.117133 406.933232,148.632502 C405.290967,149.045959 403.553495,149.611502 402.674088,151.330372 C403.714652,152.490633 403.92641,152.684328 405.057626,152.725698 C407.368739,152.810111 409.689446,152.938046 411.993844,152.813937 C415.010499,152.651089 418.013963,152.254611 421.024382,151.972198 C426.496759,151.459263 431.971774,150.969046 437.442953,150.443915 C440.77017,150.124676 444.094988,149.777698 447.417169,149.407285 C450.975569,149.010807 454.555793,148.720741 458.074144,148.092785 C459.995555,147.749633 461.842144,146.878959 463.648923,146.080741 C464.176999,145.84735 464.753758,145.055589 464.774622,144.500089 C464.809156,143.576567 464.131674,142.89648 463.120127,142.768307 C462.015051,142.628415 460.907098,142.453372 459.796987,142.424676 C456.216523,142.331893 452.625988,142.431372 449.056316,142.196307 C446.778058,142.046372 444.527618,141.449741 442.269504,141.028393 C439.968942,140.598915 440.111873,140.572372 439.90587,138.316415 C439.40921,132.868307 440.404449,127.552915 441.04404,122.192567 C441.447652,118.811024 441.586745,115.393133 441.729676,111.986241 C441.929444,107.219654 442.013379,102.448285 442.163744,97.6793065 C442.26135,94.579937 442.630907,91.466937 442.440013,88.386937 C442.216024,84.7741543 442.752494,81.2613283 443.084641,77.7083283 C443.676988,71.3775891 444.206743,65.0411109 444.725466,58.7039152 C445.094544,54.1941543 445.332682,49.672437 445.760755,45.1688935 C446.113526,41.4530457 446.612104,37.7489152 447.132027,34.0519587 C447.706388,29.9704804 448.310726,25.8906761 449.035452,21.8335891 C449.410526,19.7325891 450.264992,17.7114587 449.540506,15.5128935 C449.409566,15.1161761 449.722527,14.5912848 449.753943,14.1209152 C449.938842,11.3395891 450.154197,8.5594587 449.002597,5.89004565 C447.702311,2.87604565 444.767914,1.54863261 441.732314,2.72993696 C440.852427,3.07213261 440.027457,3.59989348 439.245895,4.14056739 C436.457546,6.06939348 433.694618,8.02930652 430.487069,9.2469587 C430.051562,9.41219783 429.677448,9.75271957 429.293502,10.0368065 C426.15622,12.3582848 423.016539,14.6761761 419.892207,17.0151109 C418.014443,18.4207196 416.663315,20.2256761 415.639298,22.73535" id="Fill-5" fill="#EDF864"></path>
                <path d="M6.10424633,147.368076 C7.04312872,147.094989 8.53670713,146.799663 9.91757169,146.232446 C13.6711827,144.690293 17.3343828,142.924554 21.1119755,141.446967 C26.7443105,139.24362 32.5140605,137.378641 38.093396,135.054054 C42.6408003,133.159424 47.0287265,130.86975 51.4243268,128.63125 C55.7064938,126.450141 59.7560386,123.897185 62.9247367,120.194728 C64.270588,118.621967 65.5883808,117.017163 66.8112061,115.34875 C70.6593049,110.098163 72.7365971,104.143815 73.6210411,97.7509022 C73.8162519,96.3409891 73.906423,94.9038152 73.8922738,93.4805109 C73.8663736,90.855337 73.5735574,88.2253804 73.6692443,85.6073804 C73.8361567,81.0500326 72.694869,76.7798804 71.1708339,72.5728587 C69.5278497,68.0365543 66.1411582,64.7269891 63.1412911,61.1075109 C60.0203166,57.3419239 55.7942667,55.5723587 51.4662947,53.9878804 C46.5761924,52.19775 41.366894,51.7656413 36.2324184,51.1587283 C29.83267,50.4023587 23.4084602,49.8549891 16.9964811,49.2028804 C15.4714867,49.0476848 14.5978344,48.2353587 14.2277973,46.7109022 C13.647201,44.3179239 13.0857901,41.9204022 12.4900854,39.5310109 C11.8277117,36.8740326 11.8257932,34.2012717 12.2699337,31.5201413 C12.3301277,31.1569022 12.4932031,30.6690761 12.7677932,30.5067065 C14.1947025,29.6611413 15.5930737,28.485337 17.148285,28.1873804 C23.1703222,27.03525 29.2228161,25.9476848 35.3124816,25.2632935 C41.6544342,24.5504457 47.9599347,23.8024457 54.078618,21.9204891 C58.1322397,20.673663 62.0426908,19.0939674 65.5833446,16.7289674 C66.2258135,16.2997283 66.7939393,15.6763152 67.2222519,15.0280326 C68.3165355,13.3703804 67.8863044,12.43275 65.9572188,11.8935109 C63.1439291,11.1070109 60.7819744,12.258663 58.5276975,13.6568587 C55.1685849,15.7399239 51.5847642,17.1084674 47.6601638,17.683337 C42.8604724,18.3861413 38.0535865,19.0870326 33.2961027,20.02275 C28.4225478,20.9811848 23.5123008,21.2499674 18.5766333,21.5275978 C15.4913914,21.7007283 12.412145,22.1813804 9.49045815,23.407163 C6.89732016,24.4952065 5.25817301,26.151663 5.14905642,29.0850761 C5.1257942,29.7056196 4.78309613,30.3087065 4.7080335,30.9340326 C4.58812515,31.9343152 4.46222138,32.9537283 4.52769134,33.9528152 C4.68836853,36.4060543 4.92962413,38.8552283 5.18886599,41.3005761 C5.45674124,43.8272283 5.67113737,46.3675109 6.11216029,48.8659457 C6.75223106,52.4933152 8.74750601,54.1889891 12.4440406,54.4682935 C16.9701012,54.8104891 21.4976007,55.1335543 26.0267789,55.4322283 C27.5213166,55.5305109 29.0252071,55.4819674 30.5197448,55.5790543 C35.0647509,55.8748587 39.5721058,56.5224239 43.9276567,57.8340543 C49.2098594,59.42475 54.4098049,61.2409457 58.021924,65.8434891 C60.138786,68.5406413 62.421841,71.1237283 63.4019719,74.5035978 C65.7838314,82.7184457 66.6411761,90.99475 64.5984174,99.4437065 C63.6079744,103.54025 61.9824968,107.267337 59.2725681,110.514967 C57.5880956,112.533946 55.9350391,114.579707 54.2738288,116.618054 C51.1012937,120.511576 47.0896399,123.544946 42.7786949,125.852076 C36.1163471,129.41775 29.094754,132.326533 22.1731644,135.39625 C18.1718227,137.170837 13.9843833,138.542489 10.0403578,140.426837 C7.62660275,141.580163 5.43012159,143.253598 3.30126874,144.904793 C2.15974124,145.790054 2.65256456,146.975663 4.10441487,147.242533 C4.57133798,147.328141 5.05816589,147.307098 6.10424633,147.368076" id="Fill-7" fill="#EDF864"></path>
                <path d="M89.8478305,135.411554 C90.6003753,135.107859 91.198718,134.962467 91.6915413,134.65112 C93.8870632,133.264641 95.0031701,131.054598 96.0492506,128.805098 C97.588634,125.495293 99.0136248,122.12738 100.676754,118.880707 C103.722186,112.93688 106.958992,107.090141 110.011379,101.149902 C111.680983,97.900837 113.054653,94.5008804 114.711307,91.2448804 C116.621926,87.4900543 118.852701,83.8925761 120.663557,80.09375 C123.125515,74.9287717 125.357729,69.6537935 127.620879,64.39675 C130.44592,57.8347717 134.027343,51.61475 136.031251,44.6759022 C138.327496,36.7240978 140.905046,28.8524022 140.286319,20.4213804 C139.843377,14.3821413 137.17062,12.0116413 132.078113,11.32725 C130.295315,11.0878804 128.454003,11.2562283 126.640029,11.2806196 C124.086461,11.3152935 121.515146,11.2189239 118.983881,11.4860326 C115.030023,11.902837 111.086237,12.4791413 107.169551,13.1668804 C101.995745,14.0750978 96.8020352,14.9543804 91.7126452,16.2272717 C87.6942765,17.2325761 83.9874298,18.9614891 83.1821253,23.80675 C83.0120953,24.8295109 82.4346166,26.0299457 83.3850102,26.6359022 C83.9996604,27.0280761 85.2258432,26.73825 86.0728758,26.448663 C89.162914,25.3929022 92.2651828,24.3390543 95.2595342,23.0460761 C101.873199,20.1910978 108.730758,18.187663 115.791681,16.840163 C119.399723,16.1514674 123.002489,15.7942065 126.709576,16.317663 C128.778235,16.6094022 129.760524,17.6089674 130.426255,19.3986196 C132.994452,26.3020761 132.848644,33.1156196 129.694574,39.7744457 C126.527555,46.4605326 123.78645,53.3132935 121.110096,60.2045543 C118.379063,67.2378587 115.483277,74.2118587 112.491084,81.1394674 C109.749259,87.4874239 106.788722,93.741163 103.91332,100.031489 C102.0286,104.155293 100.13237,108.274076 98.2265464,112.388076 C95.9197495,117.367728 93.5031166,122.299315 91.3301375,127.33588 C90.4912587,129.280489 90.1562348,131.447967 89.6698865,133.531989 C89.5557338,134.02125 89.7586187,134.584163 89.8478305,135.411554" id="Fill-9" fill="#EDF864"></path>
                <path d="M204.690509,126.491104 C203.99552,131.084083 201.512937,134.796104 198.514509,138.127909 C195.42567,141.560148 191.961997,144.629865 188.087039,147.200278 C186.047878,148.552561 183.766502,149.194148 181.385362,149.548539 C178.784789,149.935213 176.203402,150.232213 173.574771,149.532039 C170.322617,148.66567 167.12634,147.661561 164.427683,145.619148 C161.111258,143.108757 158.184295,140.180843 155.758069,136.776583 C153.151502,133.118365 152.262981,129.089496 153.576936,124.810257 C154.144103,122.963213 155.177953,121.131474 156.421402,119.643126 C159.736149,115.675952 163.299105,111.915865 166.726805,108.041235 C169.985435,104.35743 173.953442,101.877409 178.736826,100.648278 C181.66163,99.8966913 184.504178,98.6446043 187.467113,98.2646261 C191.686448,97.723713 195.690428,98.4229304 199.511427,100.879039 C203.346336,103.343996 204.946873,106.613865 205.261512,110.874691 C205.418832,113.012996 205.680712,115.143648 205.952184,117.839843 C205.582867,120.37917 205.152396,123.437409 204.690509,126.491104 M213.711933,112.947952 C212.868738,106.795604 211.356214,100.943843 206.917686,96.256887 C205.993433,95.2807565 205.19892,94.1578 204.174423,93.3060174 C201.847721,91.3709739 198.939944,90.6526261 196.094039,89.9228 C194.651542,89.5528652 193.076665,89.3044087 191.615702,89.4713217 C187.51028,89.9409739 183.386872,90.4450609 179.356992,91.3274522 C174.778411,92.3301261 170.121651,93.3174957 166.135657,96.0091478 C163.168405,98.0128217 159.923685,99.7945826 157.470121,102.320278 C154.345549,105.535865 151.215701,108.920517 149.56816,113.285604 C149.354244,113.853061 148.91394,114.434387 148.415122,114.764148 C148.039809,115.012365 147.201889,115.097257 146.923222,114.853343 C146.227754,114.244996 145.327002,113.454909 145.234193,112.6543 C144.934902,110.076474 144.652877,107.427387 144.936341,104.868452 C145.398228,100.700648 146.321282,96.5844957 147.032099,92.4429957 C147.929973,87.2139304 149.906542,82.3167783 152.340681,77.692713 C156.63412,69.5354957 161.27769,61.5585826 165.889366,53.5721043 C167.395654,50.9631913 169.18037,48.5018217 170.974199,46.073213 C175.749909,39.6080826 180.653681,33.2366913 185.392938,26.7457348 C187.231613,24.2274522 188.469307,21.3382783 189.070048,18.2680826 C189.30243,17.0791261 189.266458,15.7163217 188.913687,14.5663435 C188.487053,13.1765174 186.943353,12.7759739 185.785998,13.6392348 C184.845197,14.3413217 183.919505,15.1818652 183.289266,16.1558435 C181.561867,18.8245391 179.772594,21.4908435 178.406838,24.3474957 C175.305529,30.8358217 171.06413,36.6177565 167.373351,42.7390174 C161.707682,52.1346913 155.633844,61.2828652 150.644698,71.088887 C148.039329,76.2096261 145.684089,81.4040174 143.736298,86.7930609 C142.925717,89.035387 142.068613,91.2703 141.429501,93.5630826 C139.750065,99.5863 139.636392,105.803691 139.188654,112.486909 C139.420077,114.853822 139.59922,117.712865 140.002592,120.540343 C140.472872,123.837235 140.92109,127.164017 141.77052,130.375061 C143.107019,135.425974 145.652193,139.982126 148.668128,144.207322 C150.499848,146.77343 152.403034,149.40243 155.198097,151.094757 C157.449496,152.457561 159.665882,153.946865 162.074841,154.963409 C165.071351,156.22793 168.213189,157.165083 171.550958,157.232517 C175.488509,157.312387 179.34692,156.647126 183.177032,155.953648 C189.324973,154.840257 194.435707,151.605061 198.961527,147.445387 C204.566763,142.294039 208.523499,136.069474 211.358132,128.993604 C213.452931,123.764539 214.478387,118.540017 213.711933,112.947952" id="Fill-11" fill="#EDF864"></path>
                <path d="M280.983611,68.3688739 C280.660099,73.2669826 280.561054,78.0503087 279.970626,82.7726565 C279.390989,87.4091565 278.330279,91.9868304 277.439121,96.5824391 C277.228082,97.6702435 276.784421,98.7128522 276.564269,99.7997 C275.635459,104.391722 273.655533,108.520787 271.067671,112.384417 C268.767828,115.81833 266.549284,119.312983 264.100516,122.638809 C260.254096,127.863091 255.639783,132.094743 249.054656,133.738287 C246.948825,134.263896 244.924053,134.191917 242.934294,133.695004 C242.028266,133.468309 241.222722,132.581852 240.520778,131.852026 C238.082082,129.31533 237.229534,126.031113 236.754697,122.729439 C235.862819,116.524004 234.794435,110.342722 234.728486,104.024657 C234.669251,98.3909826 234.168754,92.7601783 233.810228,87.131287 C233.552904,83.0897435 233.154569,79.0568087 232.919069,75.0143087 C232.690044,71.0844391 233.380476,67.2593087 234.56565,63.5207435 C235.650821,60.0978304 237.071735,56.8353739 238.996983,53.7780913 C239.74689,52.5877 240.006372,51.0945696 240.730378,49.8824174 C242.55946,46.8215478 244.307484,43.6707652 246.504925,40.8829826 C248.310505,38.5923522 250.643441,36.689113 252.870619,34.7612435 C256.526625,31.5970696 260.881696,30.4420696 265.558841,31.4655478 C268.587966,32.1284174 271.093571,34.0964609 272.591466,36.8357 C274.87596,41.013787 276.923035,45.3303304 278.270325,49.9254609 C279.752153,54.9813957 280.388147,60.1908522 280.967304,65.4041348 C281.080977,66.4268957 280.983611,67.472613 280.983611,68.3688739 M290.698586,67.8566565 C290.445579,64.8644174 290.336223,61.8492217 289.880571,58.8873522 C289.471204,56.2260696 288.721057,53.612613 288.044535,50.9977217 C286.764153,46.0474826 284.870321,41.3208304 282.244807,36.938287 C279.565335,32.4658304 276.117491,28.611287 271.885685,25.5171783 C267.729182,22.4778304 263.317754,20.3113087 257.927394,21.8238087 C250.687568,23.8557 243.926895,26.6607 239.339441,33.0550478 C237.075092,36.2108522 234.607138,39.2415913 232.59076,42.5470913 C231.162172,44.889613 230.389242,47.6221565 229.230208,50.1380478 C226.601338,55.8434609 225.232464,61.8774391 224.902476,68.0905261 C224.56985,74.3516783 224.644913,80.634113 224.529081,87.6597652 C224.852354,90.8048087 225.077302,94.6997652 225.686197,98.5342217 C226.756979,105.27483 227.871407,112.001091 228.575269,118.7967 C229.048667,123.372222 229.732624,127.937222 230.574381,132.460135 C231.377047,136.774287 233.324599,140.603483 237.651132,142.295091 C240.650519,143.467548 243.889723,144.231091 247.090797,144.641439 C251.575609,145.216309 255.779596,143.702852 259.759594,141.771157 C261.165879,141.088917 262.530915,140.094613 263.576756,138.938896 C268.706195,133.26983 273.692224,127.470917 277.875347,121.050504 C279.133186,119.119526 280.255768,117.091461 281.314319,115.043309 C283.545094,110.727243 285.523821,106.30333 286.71667,101.567352 C288.445988,94.7004826 289.823495,87.7712 290.354929,80.7003522 C290.605297,77.3714174 290.751346,74.034113 290.88924,70.6982435 C290.927851,69.755113 290.778925,68.8031348 290.698586,67.8566565" id="Fill-13" fill="#EDF864"></path>
                <path d="M6.10424633,147.368076 C7.04312872,147.094989 8.53670713,146.799663 9.91757169,146.232446 C13.6711827,144.690293 17.3343828,142.924554 21.1119755,141.446967 C26.7443105,139.24362 32.5140605,137.378641 38.093396,135.054054 C42.6408003,133.159424 47.0287265,130.86975 51.4243268,128.63125 C55.7064938,126.450141 59.7560386,123.897185 62.9247367,120.194728 C64.270588,118.621967 65.5883808,117.017163 66.8112061,115.34875 C70.6593049,110.098163 72.7365971,104.143815 73.6210411,97.7509022 C73.8162519,96.3409891 73.906423,94.9038152 73.8922738,93.4805109 C73.8663736,90.855337 73.5735574,88.2253804 73.6692443,85.6073804 C73.8361567,81.0500326 72.694869,76.7798804 71.1708339,72.5728587 C69.5278497,68.0365543 66.1411582,64.7269891 63.1412911,61.1075109 C60.0203166,57.3419239 55.7942667,55.5723587 51.4662947,53.9878804 C46.5761924,52.19775 41.366894,51.7656413 36.2324184,51.1587283 C29.83267,50.4023587 23.4084602,49.8549891 16.9964811,49.2028804 C15.4714867,49.0476848 14.5978344,48.2353587 14.2277973,46.7109022 C13.647201,44.3179239 13.0857901,41.9204022 12.4900854,39.5310109 C11.8277117,36.8740326 11.8257932,34.2012717 12.2699337,31.5201413 C12.3301277,31.1569022 12.4932031,30.6690761 12.7677932,30.5067065 C14.1947025,29.6611413 15.5930737,28.485337 17.148285,28.1873804 C23.1703222,27.03525 29.2228161,25.9476848 35.3124816,25.2632935 C41.6544342,24.5504457 47.9599347,23.8024457 54.078618,21.9204891 C58.1322397,20.673663 62.0426908,19.0939674 65.5833446,16.7289674 C66.2258135,16.2997283 66.7939393,15.6763152 67.2222519,15.0280326 C68.3165355,13.3703804 67.8863044,12.43275 65.9572188,11.8935109 C63.1439291,11.1070109 60.7819744,12.258663 58.5276975,13.6568587 C55.1685849,15.7399239 51.5847642,17.1084674 47.6601638,17.683337 C42.8604724,18.3861413 38.0535865,19.0870326 33.2961027,20.02275 C28.4225478,20.9811848 23.5123008,21.2499674 18.5766333,21.5275978 C15.4913914,21.7007283 12.412145,22.1813804 9.49045815,23.407163 C6.89732016,24.4952065 5.25817301,26.151663 5.14905642,29.0850761 C5.1257942,29.7056196 4.78309613,30.3087065 4.7080335,30.9340326 C4.58812515,31.9343152 4.46222138,32.9537283 4.52769134,33.9528152 C4.68836853,36.4060543 4.92962413,38.8552283 5.18886599,41.3005761 C5.45674124,43.8272283 5.67113737,46.3675109 6.11216029,48.8659457 C6.75223106,52.4933152 8.74750601,54.1889891 12.4440406,54.4682935 C16.9701012,54.8104891 21.4976007,55.1335543 26.0267789,55.4322283 C27.5213166,55.5305109 29.0252071,55.4819674 30.5197448,55.5790543 C35.0647509,55.8748587 39.5721058,56.5224239 43.9276567,57.8340543 C49.2098594,59.42475 54.4098049,61.2409457 58.021924,65.8434891 C60.138786,68.5406413 62.421841,71.1237283 63.4019719,74.5035978 C65.7838314,82.7184457 66.6411761,90.99475 64.5984174,99.4437065 C63.6079744,103.54025 61.9824968,107.267337 59.2725681,110.514967 C57.5880956,112.533946 55.9350391,114.579707 54.2738288,116.618054 C51.1012937,120.511576 47.0896399,123.544946 42.7786949,125.852076 C36.1163471,129.41775 29.094754,132.326533 22.1731644,135.39625 C18.1718227,137.170837 13.9843833,138.542489 10.0403578,140.426837 C7.62660275,141.580163 5.43012159,143.253598 3.30126874,144.904793 C2.15974124,145.790054 2.65256456,146.975663 4.10441487,147.242533 C4.57133798,147.328141 5.05816589,147.307098 6.10424633,147.368076 M75.526145,89.4679022 C76.1630982,97.6315761 74.7851114,104.830359 71.347339,111.57838 C67.3860467,119.353707 61.8748191,125.778185 53.9246557,129.701359 C48.6424531,132.30812 43.6101394,135.45125 37.9531033,137.290163 C34.4666481,138.42388 31.01017,139.650141 27.5517733,140.866837 C26.2737901,141.316163 25.0089968,141.814511 23.7708232,142.363793 C19.1833696,144.399033 14.6628247,146.597837 10.0051048,148.455641 C8.05491538,149.233293 5.83852943,149.452098 3.7171109,149.665163 C1.92783849,149.844989 1.0477112,148.446554 0.439775866,147.012011 C-0.307253157,145.24938 -0.156648269,144.842141 1.31150957,143.488424 C3.92695051,141.077033 7.04049073,139.44425 10.2655457,138.076424 C14.2253991,136.396054 18.3473685,135.090163 22.2868375,133.367707 C28.5623609,130.624402 34.779369,127.740967 40.9457759,124.761402 C42.7156231,123.906511 44.3051282,122.613054 45.8380366,121.352359 C48.8345462,118.887641 52.1185961,116.716337 54.2774261,113.352967 C54.8755289,112.421315 55.6285534,111.571446 56.401003,110.771315 C61.3635299,105.631446 63.5461017,99.2617283 63.8429948,92.371663 C64.0746577,86.9972065 63.7578599,81.527337 61.9839357,76.3410761 C59.6658675,69.5634022 55.413198,64.4436196 48.7081628,61.4951413 C44.9521537,59.8434674 41.0474581,58.7066413 36.9991124,58.2561196 C32.3349174,57.7367283 27.6340304,57.5459022 22.9501705,57.1977283 C19.3728247,56.9318152 15.7803706,56.7725543 12.2279658,56.3100761 C10.4494851,56.0785978 8.70505845,55.3757935 7.02154521,54.6976196 C5.78481049,54.1995109 5.04617505,53.0858804 4.74136802,51.7819022 C4.38044389,50.2354457 4.02959206,48.6806196 3.79481151,47.1114457 C3.19622902,43.1112717 2.66551466,39.1008152 2.1045834,35.0949022 C2.08252026,34.9380326 2.01968829,34.7871413 1.9940279,34.6305109 C1.72615265,32.99725 3.18423819,25.7982283 4.23439552,24.5557065 C6.2085666,22.2205978 8.87772648,20.8592283 11.832508,20.4259239 C16.3974189,19.756837 21.0146099,19.4495543 25.602783,18.9268152 C27.8896751,18.666163 30.2075035,18.4509457 32.4274867,17.8861196 C35.3769923,17.1359674 38.3476017,16.7710543 41.35898,16.4125978 C44.5020177,16.038837 47.5675946,15.0395109 50.6794561,14.372337 C53.5445462,13.75825 55.9755681,12.2445543 58.426255,10.77175 C61.0992519,9.16551087 63.8350809,8.74201087 66.872839,9.74755435 C68.4290096,10.2626413 69.3925931,11.065163 69.6652647,12.63075 C69.963117,14.3426848 69.9693522,16.1179891 68.3160559,17.1393152 C65.5466526,18.8502935 62.7762901,20.6526196 59.7893731,21.8994457 C54.3457738,24.1721413 48.5628339,25.4261413 42.7830116,26.5584239 C40.2138553,27.0615543 37.5646002,27.1421413 34.9688242,27.5300109 C29.5331389,28.3425761 24.1089648,29.231663 18.6802341,30.089663 C18.6015742,30.1020978 18.5226745,30.1176413 18.446173,30.1394022 C14.4383563,31.2838804 13.5153018,32.9025543 14.471451,37.0447717 C15.0424546,39.52025 15.5371964,42.0139022 16.146091,44.4798152 C16.6715294,46.6090326 17.0559556,46.8323804 19.1982382,47.1647717 C21.4776959,47.5182065 23.7398869,47.9835543 26.0126297,48.384337 C26.5582127,48.4807065 27.1145875,48.5703804 27.6664057,48.5710978 C32.4565045,48.5763587 37.1681832,49.3729022 41.9134363,49.8301196 C45.7833584,50.203163 49.4782143,51.0817283 53.0534016,52.3259239 C57.2377234,53.7824674 61.4395518,55.4193152 64.1717835,59.3494239 C65.347365,61.0407935 66.8730788,62.4880109 68.2110162,64.070337 C70.8175839,67.1534457 72.5039749,70.6643587 73.7474245,74.5270326 C75.3920875,79.6346196 75.7086455,84.803663 75.526145,89.4679022" id="Fill-15" fill="#000000"></path>
                <g id="Group-19" transform="translate(400.014257, 0.035391)">
                    <mask id="mask-2" fill="white">
                        <use xlink:href="#path-1"></use>
                    </mask>
                    <g id="Clip-18"></g>
                    <path d="M15.6250413,22.6999587 C18.7731151,23.1813283 21.1708025,22.3883717 23.3087684,20.6750022 C25.0503173,19.279437 26.7367083,17.8142848 28.5039176,16.4529152 C31.3092933,14.2916543 34.5029323,13.5470022 37.9699624,14.24335 C39.8628356,14.6235674 41.0964527,15.808937 41.3357898,17.7989804 C41.4971864,19.1390674 41.686162,20.4935022 41.6501895,21.8359804 C41.5717694,24.7748935 41.4226034,27.7152413 41.1825469,30.6453065 C40.9036401,34.0474152 40.4933137,37.4392413 40.1453397,40.8360891 C39.5870464,46.2841978 38.9628035,51.7272848 38.4968397,57.1832848 C38.0294369,62.6519587 37.9008952,68.15435 37.2898422,73.6046109 C36.7600871,78.3315022 35.4770678,82.9675239 35.4993707,87.77285 C35.5041671,88.8046978 35.3974486,89.8379804 35.3214267,90.8688717 C34.9950362,95.3009152 34.5118055,99.7272196 34.3652775,104.164763 C34.1655102,110.207111 34.2163514,116.257828 34.1686279,122.304959 C34.1547185,124.058024 34.1751029,125.811328 34.1717455,127.564393 C34.164551,131.684611 34.176302,135.805067 34.1105922,139.924328 C34.1029181,140.408567 33.7232882,140.934893 33.4050515,141.358872 C31.3742837,144.064393 28.7084812,145.554415 25.2570393,145.564937 C18.9829547,145.583828 12.9417322,147.081741 6.91897561,148.597111 C5.27671085,149.010567 3.53923885,149.576111 2.65983101,151.29498 C3.70039567,152.455241 3.91215382,152.648937 5.0433692,152.690307 C7.35448274,152.77472 9.67518895,152.902654 11.9795876,152.778546 C14.9962419,152.615698 17.9997063,152.21922 21.0101253,151.936807 C26.4825026,151.423872 31.9575179,150.933654 37.4286961,150.408524 C40.755913,150.089285 44.0807317,149.742307 47.4029125,149.371893 C50.9613127,148.975415 54.5415362,148.68535 58.059887,148.057393 C59.9812984,147.714241 61.827887,146.843567 63.634666,146.04535 C64.1627424,145.811959 64.7395016,145.020198 64.7603656,144.464698 C64.7948992,143.541176 64.1174171,142.861089 63.1058702,142.732915 C62.0007949,142.593024 60.8928417,142.41798 59.7827302,142.389285 C56.2022669,142.296502 52.6117312,142.39598 49.0420596,142.160915 C46.763801,142.01098 44.513361,141.41435 42.255247,140.993002 C39.9546854,140.563524 40.0976161,140.53698 39.8916136,138.281024 C39.3949532,132.832915 40.3901925,127.517524 41.0297837,122.157176 C41.4333952,118.775633 41.5724888,115.357741 41.7154196,111.95085 C41.9151869,107.184263 41.9991228,102.412893 42.1494878,97.6439152 C42.2470932,94.5445457 42.6166508,91.4315457 42.4257567,88.3515457 C42.2017679,84.738763 42.7382378,81.225937 43.070384,77.672937 C43.6627312,71.3421978 44.1924863,65.0057196 44.7112098,58.6685239 C45.0802877,54.158763 45.3184257,49.6370457 45.7464985,45.1335022 C46.0992689,41.4176543 46.5978478,37.7135239 47.1177704,34.0165674 C47.6921314,29.9350891 48.2964695,25.8552848 49.0211956,21.7981978 C49.3962689,19.6971978 50.2507358,17.6760674 49.5262495,15.4775022 C49.3953096,15.0807848 49.7082704,14.5558935 49.7396864,14.0855239 C49.9245851,11.3041978 50.1399405,8.52406739 48.9883407,5.85465435 C47.6880545,2.84065435 44.7536574,1.5132413 41.7180576,2.69454565 C40.8381701,3.0367413 40.0132007,3.56450217 39.231638,4.10517609 C36.4432893,6.03400217 33.680361,7.99391522 30.4728127,9.21156739 C30.0373055,9.37680652 29.6631915,9.71732826 29.279245,10.0014152 C26.1419629,12.3228935 23.0022826,14.6407848 19.8779507,16.9797196 C18.0001859,18.3853283 16.6490586,20.1902848 15.6250413,22.6999587 M43.9898412,109.557393 C43.6409079,113.594393 43.3231508,117.634741 42.9339283,121.667915 C42.59147,125.218046 42.0657918,128.753589 41.8266946,132.30922 C41.7108631,134.026654 42.0480454,135.777328 42.2178356,137.50935 C42.3353458,138.710024 43.0502394,139.368828 44.2474043,139.482176 C47.488527,139.78922 50.7260525,140.174937 53.9750892,140.355241 C56.4404048,140.491785 58.9215484,140.323915 61.3947781,140.359307 C63.8991839,140.395415 65.8110026,141.406937 66.974833,143.749937 C67.6806136,145.170611 67.8599965,145.728502 66.5227786,146.588176 C64.5370963,147.865133 62.4190352,149.03998 60.2048076,149.83748 C56.8080438,151.060393 53.1585133,151.076176 49.5893213,151.267959 C46.0829614,151.456633 42.6120942,151.712024 39.1301956,152.272067 C34.6612114,152.991133 30.1166849,153.243415 25.6045337,153.69585 C24.0193453,153.854633 22.4351161,154.032546 20.8472898,154.162633 C16.9639379,154.480437 13.0825046,154.862807 9.19243793,155.044546 C7.13600973,155.140676 5.05679893,154.932154 2.99845219,154.745154 C1.70895779,154.62798 0.854730703,153.870893 0.420902291,152.582459 C-0.00309363544,151.323915 -0.00141491853,150.171307 1.10797714,149.350611 C2.24207032,148.511024 3.41285545,147.534415 4.72441298,147.150611 C11.3016258,145.224654 17.9574985,143.657154 24.8519888,143.283393 C26.3239838,143.203763 27.851856,142.759698 29.1996258,142.146089 C30.7644298,141.433241 31.6973168,140.207698 31.8234603,138.240372 C32.0728697,134.34948 32.1764705,130.493741 31.8272974,126.595915 C31.6025892,124.089589 31.9635133,121.53472 32.0033229,119.000654 C32.065915,115.027024 32.0040423,111.050046 32.1328239,107.078807 C32.2743157,102.712046 32.5287613,98.347437 32.8158218,93.9868935 C33.0187068,90.8985239 33.3532511,87.818763 33.6369542,84.7361326 C33.8045861,82.9161109 33.8443957,81.0705022 34.1902114,79.2841978 C35.3739466,73.1763283 35.5998539,66.9826109 36.1195367,60.8085022 C36.7919827,52.8172413 37.040193,44.7843717 38.6675892,36.87585 C39.303583,33.7846109 39.3090988,30.5491761 39.4338035,27.3728065 C39.5457979,24.5259587 39.4496314,21.6693065 39.4009486,18.8179152 C39.376967,17.4292848 38.5570337,16.8061109 37.2413992,16.3653935 C34.4705571,15.4373283 32.2388229,16.725763 30.0008534,17.8903283 C28.9648453,18.4293283 28.1357989,19.3707848 27.2304909,20.15035 C24.917219,22.1425457 22.4605367,23.9245457 19.4803346,24.7598283 C18.2752557,25.0977196 16.9682546,25.2916543 15.7243254,25.2280457 C13.3232806,25.1051326 12.3292404,23.2875022 13.5266452,21.2216543 C14.8444379,18.9484804 16.4622414,16.9488717 18.6671161,15.3567413 C22.8622297,12.3271978 26.8765214,9.04991522 31.0147984,5.94002391 C31.94169,5.24343696 33.0649914,4.80319783 34.1067551,4.26204565 C36.0087414,3.27467609 37.8831487,2.22465435 39.8359761,1.34848043 C40.9729471,0.838176087 42.2187949,0.483784783 43.4519323,0.287936957 C46.4441253,-0.187215217 48.4278891,1.39965435 49.9514446,3.74265435 C51.7730922,6.54430652 52.0270581,9.68121957 51.8838875,12.9023065 C51.7323234,16.3123065 51.3255942,19.6622848 50.7294099,23.0486109 C49.5049059,30.0010891 48.8279033,37.0544804 48.0652862,44.0815674 C47.4496767,49.7563717 47.020165,55.4517413 46.545328,61.1408935 C46.316303,63.8832413 46.1731324,66.6325239 45.9901523,69.3784587 C45.9637725,69.774937 45.9695281,70.1781109 45.8971034,70.5664587 C44.7020968,76.9887848 44.1181431,83.4496109 44.1881696,89.9970022 C44.2404496,94.919263 43.8747292,99.8455891 43.7234048,104.771198 C43.6744822,106.358785 43.7157307,107.948763 43.7157307,109.538024 C43.8071009,109.544241 43.898471,109.550698 43.9898412,109.557393" id="Fill-17" fill="#000000" mask="url(#mask-2)"></path>
                </g>
                <path d="M139.188702,112.487028 C139.420365,114.853702 139.599268,117.712985 140.00264,120.540463 C140.47268,123.837593 140.921138,127.164137 141.770568,130.37518 C143.107067,135.426093 145.652241,139.982007 148.668176,144.207202 C150.500136,146.77355 152.403082,149.402311 155.198145,151.094637 C157.449544,152.457441 159.66617,153.946985 162.074889,154.963528 C165.071399,156.22805 168.212998,157.164963 171.550766,157.232637 C175.488557,157.312267 179.346968,156.647246 183.17708,155.953528 C189.325021,154.840137 194.435755,151.60518 198.961575,147.445267 C204.566811,142.29392 208.523547,136.069354 211.35818,128.993485 C213.452979,123.76418 214.478435,118.540137 213.711981,112.948072 C212.868786,106.795485 211.356262,100.943963 206.917734,96.2570065 C205.993241,95.2811152 205.198968,94.1579196 204.174231,93.3058978 C201.84753,91.3708543 198.939752,90.6525065 196.094087,89.9229196 C194.65135,89.5527457 193.076713,89.3045283 191.61575,89.4714413 C187.510328,89.9410935 183.38692,90.4449413 179.35704,91.3275717 C174.778699,92.3302457 170.121459,93.3176152 166.135705,96.0092674 C163.168693,98.0129413 159.923733,99.7947022 157.469929,102.31992 C154.345597,105.535985 151.215509,108.920637 149.568448,113.285724 C149.354292,113.85318 148.913749,114.434507 148.41517,114.764028 C148.039857,115.012485 147.201937,115.097137 146.92327,114.853463 C146.228041,114.245354 145.32729,113.455028 145.234241,112.65418 C144.93495,110.076833 144.652925,107.427267 144.936389,104.868811 C145.398036,100.700767 146.32109,96.5843761 147.032147,92.4433543 C147.93002,87.2138109 149.90659,82.3168978 152.340729,77.6928326 C156.634168,69.5356152 161.277499,61.558463 165.889174,53.5722239 C167.395702,50.9633109 169.180418,48.5019413 170.974247,46.0733326 C175.749957,39.607963 180.653729,33.2368109 185.392986,26.7456152 C187.231421,24.2273326 188.469355,21.3383978 189.070096,18.267963 C189.302718,17.0790065 189.266266,15.7162022 188.913735,14.5667022 C188.486862,13.1761587 186.943401,12.7758543 185.786046,13.6393543 C184.845245,14.340963 183.919553,15.1822239 183.289314,16.1557239 C181.561675,18.8244196 179.772642,21.4907239 178.406886,24.3476152 C175.305576,30.8359413 171.064418,36.6178761 167.373159,42.7388978 C161.70749,52.1345717 155.633892,61.2827457 150.644985,71.0892457 C148.039617,76.2097457 145.684137,81.404137 143.736346,86.7931804 C142.925765,89.0355065 142.06866,91.2701804 141.429549,93.562963 C139.750113,99.5864196 139.63644,105.803811 139.188702,112.487028 M147.836492,110.454659 C149.713297,108.05618 151.42391,106.09555 152.875041,103.960115 C154.847054,101.058507 157.503263,98.9412457 160.343652,97.0238978 C162.514713,95.5580283 164.754121,94.1775283 167.051086,92.9182674 C168.346336,92.20805 169.810417,91.7950717 171.215982,91.2972022 C171.963731,91.0322457 172.793257,90.9698326 173.509829,90.6477239 C177.574003,88.8212457 181.936748,88.3463326 186.279589,87.8173761 C188.17558,87.5866152 190.09819,87.564137 192.010488,87.4818761 C197.079494,87.2637891 201.547279,88.9487022 205.635674,91.8091804 C205.895636,91.9913978 206.180778,92.1650065 206.378626,92.4043761 C211.957482,99.1514413 215.502932,106.746224 215.731238,115.608398 C215.862897,120.719811 214.863341,125.628441 212.765665,130.362746 C210.958406,134.441115 209.302951,138.571854 206.458006,142.073202 C202.934379,146.409833 199.168777,150.475767 194.379877,153.51918 C189.83655,156.406441 184.900403,158.01268 179.59182,158.581093 C177.138016,158.84342 174.676777,159.060311 172.21386,159.205463 C167.603623,159.477115 163.50036,157.831659 159.373834,155.99155 C151.369232,152.421333 146.841253,145.729028 142.771084,138.49055 C139.813184,133.230398 138.734249,127.473333 137.938777,121.632093 C137.531808,118.645593 137.232037,115.62992 137.144504,112.619746 C137.077835,110.334376 137.415017,108.036811 137.588165,105.745941 C137.677857,104.560572 137.918872,103.374724 137.887936,102.194137 C137.781697,98.122463 139.079825,94.3410935 140.372197,90.5998978 C142.10847,85.5733761 143.915009,80.5506804 146.078636,75.6977674 C148.050648,71.27505 150.399173,67.0001152 152.835711,62.806963 C155.795289,57.713963 159.034253,52.7833326 162.12621,47.7666152 C164.129399,44.5170717 166.104289,41.2500717 168.059035,37.9711152 C170.784312,33.3991804 173.480092,28.8093109 176.185944,24.2256587 C178.085292,21.0081587 179.874085,17.7184413 181.926916,14.6013761 C182.818554,13.2476587 184.090782,11.9934196 185.468289,11.1397239 C187.992599,9.57485435 191.432051,12.0900283 191.78578,15.5107891 C192.033751,17.9099848 191.226048,20.1044848 190.388368,22.2136152 C189.546372,24.3330283 188.387338,26.3802239 187.065708,28.2468761 C183.664627,33.0498109 180.038359,37.6937239 176.611858,42.4792022 C173.237637,47.1915065 169.365557,51.5551587 166.556344,56.665137 C165.905481,57.8490717 165.286994,59.0509413 164.62534,60.229137 C162.485455,64.040637 160.403367,67.88705 158.167316,71.6418761 C154.938184,77.0636804 152.099234,82.6796587 150.340178,88.7298978 C149.281627,92.3713761 148.718298,96.1749848 148.180149,99.94105 C147.766465,102.837637 147.726896,105.788507 147.553029,108.717376 C147.528088,109.138963 147.685647,109.571311 147.836492,110.454659" id="Fill-20" fill="#000000"></path>
                <path d="M89.8478305,135.411554 C90.6003753,135.107859 91.198718,134.962467 91.6915413,134.65112 C93.8870632,133.264641 95.0031701,131.054598 96.0492506,128.805098 C97.588634,125.495293 99.0136248,122.12738 100.676754,118.880707 C103.722186,112.93688 106.958992,107.090141 110.011379,101.149902 C111.680983,97.900837 113.054653,94.5008804 114.711307,91.2448804 C116.621926,87.4900543 118.852701,83.8925761 120.663557,80.09375 C123.125515,74.9287717 125.357729,69.6537935 127.620879,64.39675 C130.44592,57.8347717 134.027343,51.61475 136.031251,44.6759022 C138.327496,36.7240978 140.905046,28.8524022 140.286319,20.4213804 C139.843377,14.3821413 137.17062,12.0116413 132.078113,11.32725 C130.295315,11.0878804 128.454003,11.2562283 126.640029,11.2806196 C124.086461,11.3152935 121.515146,11.2189239 118.983881,11.4860326 C115.030023,11.902837 111.086237,12.4791413 107.169551,13.1668804 C101.995745,14.0750978 96.8020352,14.9543804 91.7126452,16.2272717 C87.6942765,17.2325761 83.9874298,18.9614891 83.1821253,23.80675 C83.0120953,24.8295109 82.4346166,26.0299457 83.3850102,26.6359022 C83.9996604,27.0280761 85.2258432,26.73825 86.0728758,26.448663 C89.162914,25.3929022 92.2651828,24.3390543 95.2595342,23.0460761 C101.873199,20.1910978 108.730758,18.187663 115.791681,16.840163 C119.399723,16.1514674 123.002489,15.7942065 126.709576,16.317663 C128.778235,16.6094022 129.760524,17.6089674 130.426255,19.3986196 C132.994452,26.3020761 132.848644,33.1156196 129.694574,39.7744457 C126.527555,46.4605326 123.78645,53.3132935 121.110096,60.2045543 C118.379063,67.2378587 115.483277,74.2118587 112.491084,81.1394674 C109.749259,87.4874239 106.788722,93.741163 103.91332,100.031489 C102.0286,104.155293 100.13237,108.274076 98.2265464,112.388076 C95.9197495,117.367728 93.5031166,122.299315 91.3301375,127.33588 C90.4912587,129.280489 90.1562348,131.447967 89.6698865,133.531989 C89.5557338,134.02125 89.7586187,134.584163 89.8478305,135.411554 L89.8478305,135.411554 Z M119.74362,9.40583696 C122.845889,9.22720652 125.94576,8.97109783 129.050667,8.88931522 C132.904761,8.78744565 136.331262,9.88601087 139.522982,12.2175326 C141.42305,13.6054457 141.938656,15.3941413 142.205812,17.325837 C142.562419,19.9039022 142.793363,22.5482065 142.627409,25.1355978 C142.45594,27.8093152 141.6974,30.4414239 141.277721,33.1046196 C140.029715,41.0200761 137.280696,48.4484239 134.027343,55.7242065 C131.300867,61.8213152 128.759049,68.0035543 125.897557,74.0360978 C122.487363,81.224837 118.836633,88.3004674 115.264804,95.4126848 C112.267095,101.382098 109.260513,107.347446 106.205008,113.287207 C104.349067,116.895207 102.318299,120.414967 100.506004,124.043772 C99.1596732,126.739728 98.0380505,129.547598 96.8171436,132.305728 C95.6895255,134.85175 93.7072007,136.492663 91.1761752,137.508967 C88.9235769,138.414076 87.9904502,137.855228 87.4446273,135.509359 C86.9702699,133.472207 87.3925871,131.487185 88.0863768,129.668598 C89.5845118,125.741837 91.3083142,121.89662 93.0467455,118.066707 C95.1842317,113.357272 97.4677663,108.714076 99.6196416,104.011098 C101.668635,99.5331413 103.574219,94.989663 105.644796,90.52175 C107.61513,86.2704891 109.854779,82.1392717 111.725589,77.8466413 C113.914635,72.8237065 115.827893,67.6812065 117.870172,62.5939457 C120.150829,56.9122065 122.422133,51.2268804 124.735884,45.5585326 C126.118668,42.1714891 127.630232,38.8360978 128.985197,35.4385326 C130.938743,30.5392283 130.719791,25.6578587 128.686625,20.812837 C128.111784,19.4426196 127.220146,18.7352717 125.720572,18.3957065 C122.744926,17.7220761 119.832592,18.2833152 116.933688,18.6329239 C114.255655,18.9559891 111.57954,19.5447283 108.993357,20.3183152 C104.880261,21.5491196 100.82496,22.9815109 96.7782933,24.4205978 C93.3244532,25.6490109 89.9238524,27.0266413 86.483442,28.2945109 C85.5927628,28.622837 84.6534008,28.8684239 83.714998,29.0092717 C81.4679155,29.3462065 80.0793768,27.9566196 80.4024099,25.6659891 C80.6568554,23.8622283 80.8945138,22.0300109 81.4336217,20.3015761 C81.7427455,19.3101413 82.499607,18.3447717 83.2972373,17.6398152 C85.2419109,15.9202283 87.6602226,15.0096196 90.1214614,14.3144674 C97.9567526,12.1017935 106.035937,11.1541196 114.047734,9.86855435 C115.924779,9.56725 117.836118,9.47590217 119.731629,9.28818478 L119.74362,9.40583696 Z" id="Fill-22" fill="#000000"></path>
                <path d="M224.529009,87.6597413 C224.852522,90.8047848 225.07723,94.6999804 225.686125,98.534437 C226.756907,105.274807 227.871575,112.001067 228.575197,118.796676 C229.048835,123.372198 229.732552,127.937198 230.574069,132.460111 C231.376975,136.774502 233.325006,140.603459 237.6513,142.295067 C240.650687,143.467524 243.889652,144.230828 247.090725,144.641415 C251.575537,145.216285 255.779764,143.702828 259.759522,141.771372 C261.166047,141.088893 262.530843,140.094589 263.576684,138.938633 C268.706124,133.269807 273.692153,127.470893 277.875275,121.05048 C279.133114,119.119741 280.255696,117.091437 281.314487,115.043285 C283.545022,110.72722 285.523749,106.303546 286.716598,101.567328 C288.446156,94.7004587 289.823423,87.770937 290.354857,80.7000891 C290.605225,77.3716326 290.751753,74.0343283 290.888929,70.6982196 C290.927779,69.7553283 290.778853,68.80335 290.698754,67.8566326 C290.445268,64.8643935 290.336151,61.8491978 289.880499,58.8873283 C289.471132,56.2262848 288.720986,53.6125891 288.044702,50.997937 C286.764081,46.0472196 284.870249,41.3208065 282.244736,36.9385022 C279.565264,32.4658065 276.117419,28.611263 271.885853,25.5171543 C267.72935,22.4778065 263.317682,20.3112848 257.927562,21.8240239 C250.687496,23.8556761 243.927063,26.6609152 239.339369,33.0547848 C237.07502,36.2108283 234.606827,39.2413283 232.590927,42.5470674 C231.1621,44.8898283 230.38941,47.6221326 229.230376,50.1377848 C226.601505,55.8431978 225.232632,61.8771761 224.902404,68.0905022 C224.569778,74.3516543 224.644841,80.6340891 224.529009,87.6597413 M222.478337,79.266263 C222.381931,72.8998935 222.755325,66.5729804 223.928269,60.298437 C225.062602,54.2326543 227.372996,48.5545022 230.10163,43.1080674 C231.897857,39.523263 234.552628,36.3583717 236.896117,33.056937 C237.995197,31.5088065 239.149435,29.9654587 240.485214,28.6246543 C243.925144,25.1711326 248.423146,23.3762196 252.746082,21.4091326 C254.651186,20.5422848 256.911459,20.4495022 259.012972,20.0173935 C259.713717,19.873437 260.445397,19.840437 261.1224,19.6283283 C262.867306,19.0819152 264.527318,19.1235239 266.186849,19.9662196 C269.297272,21.5456761 272.336948,23.1045674 274.971814,25.5582848 C276.882914,27.3376543 278.842456,29.0306978 280.458101,31.087937 C281.033661,31.8208717 281.587398,32.5719804 282.124587,33.3333717 C286.159264,39.05385 288.72818,45.3747848 290.296581,52.1902413 C291.293979,56.5242413 292.388502,60.8314587 292.723526,65.2670891 C292.890199,67.468763 292.669088,69.7008065 292.60098,71.9185022 C292.532872,74.1196978 292.446538,76.3204152 292.351571,78.5206543 C291.999759,86.6477413 290.530163,94.6031326 288.619303,102.48822 C287.543965,106.926241 285.522071,110.996002 283.550058,115.074372 C279.882301,122.660546 274.864377,129.310046 269.166811,135.48535 C268.040632,136.706111 267.175853,138.169111 266.032407,139.370741 C262.407338,143.179611 257.960657,145.46498 252.746802,146.307915 C250.154623,146.727111 247.552852,147.334741 244.963551,146.602285 C241.69317,145.677807 238.26619,145.253589 235.23011,143.541654 C233.112769,142.348154 231.666674,140.490828 230.649371,138.464676 C229.523432,136.22235 228.704458,133.753089 228.200124,131.291241 C227.404412,127.409198 226.925258,123.458046 226.420684,119.522437 C225.986376,116.137307 225.749676,112.727307 225.338391,109.338828 C225.05133,106.974785 224.689207,104.614328 224.234275,102.277067 C222.831107,95.0675239 222.497522,87.7781109 222.478337,80.4609587 C222.477378,80.0628065 222.478337,79.6646543 222.478337,79.266263" id="Fill-24" fill="#000000"></path>
                <path d="M387.836484,69.0755283 C386.33739,67.2846804 385.790129,67.1113109 383.854568,67.542463 C382.947102,67.7445283 382.013495,67.9382239 381.09116,67.9410935 C379.759938,67.9451587 378.429914,67.7342457 377.097013,67.6828326 C374.471979,67.580963 371.845267,67.51855 369.219274,67.4547022 C367.943929,67.4233761 366.637168,67.2402022 365.396836,67.4432239 C359.580082,68.394963 353.767405,67.76055 348.006288,67.2115065 C342.070345,66.645963 336.168456,66.3621152 330.226518,66.7545283 C328.737256,66.8525717 328.199347,67.2715283 328.11733,68.4523543 C328.03795,69.5944413 328.600081,70.3976804 329.876145,70.6050065 C332.458971,71.0242022 335.049471,71.4835717 337.6546,71.656463 C341.385189,71.903963 345.131365,71.9391152 348.871786,72.0087022 C351.659895,72.0603543 354.450402,71.9785717 357.238272,72.0347674 C366.311257,72.2177022 375.393595,72.6328326 384.359862,70.7001804 C385.579809,70.4373761 386.910312,70.3797457 387.836484,69.0755283 M361.32187,74.0860283 C354.189482,73.9415935 345.898059,73.8550283 337.614071,73.5618543 C334.686149,73.4580717 331.765182,72.9169196 328.8622,72.4467891 C327.004101,72.145963 326.044834,71.0564848 325.791108,69.26755 C325.534983,67.4590065 326.303836,66.0208761 327.56743,64.7982022 C327.676547,64.6925065 327.837943,64.5856152 327.980874,64.5772457 C330.417412,64.4407022 332.856108,64.21305 335.292166,64.2319413 C336.949059,64.2450935 338.59732,64.6944196 340.25877,64.7998761 C346.85253,65.2190717 353.44629,65.6762891 360.047245,65.9194848 C363.139441,66.0330717 366.247226,65.661463 369.349734,65.5739413 C370.372313,65.5450065 371.400887,65.712637 372.425623,65.800637 C376.266768,66.1299196 380.064505,65.7492239 383.837781,65.0727239 C385.986299,64.6874848 387.766458,65.2300717 389.183295,66.9125935 C390.748099,68.770637 390.402763,70.6341804 388.2612,71.7628761 C387.910588,71.947963 387.548465,72.1662891 387.167876,72.2318109 C383.489087,72.8667022 379.825168,73.7596152 376.118081,74.0126152 C371.591061,74.3213326 367.02687,74.0860283 361.32187,74.0860283" id="Fill-26" fill="#000000"></path>
                <path d="M334.023391,84.4980304 C334.755312,86.6459 336.416522,87.0825522 338.08181,87.2685957 C339.816164,87.4625304 341.583853,87.4321609 343.334755,87.3939 C348.112623,87.2901174 352.888812,87.104313 357.66668,87.0036391 C360.291234,86.9481609 362.922023,86.9101391 365.54322,87.0213348 C369.676221,87.1963783 373.803227,87.5062913 377.93335,87.7542696 C381.591274,87.9740304 385.262868,88.3657261 388.862037,87.3178565 C390.299498,86.8991391 391.682041,86.3206826 392.237457,84.7106174 C387.530814,82.2985087 382.628001,81.8343565 377.532136,82.1854 C371.894286,82.5735087 366.243724,82.8164652 360.594602,82.9905522 C356.628514,83.112987 352.65547,83.0147043 348.685785,83.013987 C348.28673,83.013987 347.886955,83.0192478 347.48838,83.0010739 C345.34274,82.9027913 343.195421,82.8262696 341.052419,82.687813 C338.568637,82.5275957 336.410047,83.4953565 334.023391,84.4980304 M381.226752,89.6283348 C372.932932,89.3600304 363.873616,88.9597261 354.810463,88.8248565 C351.006011,88.7679435 347.177098,89.1326174 343.389673,89.5678348 C340.54089,89.8952043 337.831441,89.3899217 335.125829,88.7947261 C333.301783,88.3932261 331.441525,85.7252478 331.59237,84.2204 C331.689735,83.2509652 332.069845,82.6792043 333.082111,82.3525522 C336.591109,81.2207478 340.106102,80.357487 343.855876,80.6025957 C346.780921,80.7939 349.722752,80.7212043 352.65667,80.7860087 C357.040998,80.8823783 361.426287,81.1052478 365.808937,81.065313 C368.824632,81.0373348 371.833852,80.5595522 374.852185,80.456487 C378.430969,80.333813 382.017908,80.4634217 385.597652,80.3582043 C388.335639,80.2778565 390.520129,81.9328783 393.047318,82.4924435 C394.174936,82.7420957 394.517874,83.6357261 394.309233,84.7149217 C393.990037,86.3682696 393.159792,87.6045739 391.557816,88.3561609 C388.497275,89.7926174 385.305795,90.1486826 381.226752,89.6283348" id="Fill-28" fill="#000000"></path>
                <path d="M149.045312,179.513137 C152.062686,181.637811 151.803684,185.133659 153.353379,188.007289 C156.03501,184.983246 155.978173,180.883115 157.974647,177.607507 C159.403955,178.156311 159.65792,179.297202 159.804688,180.470137 C160.139952,183.146963 160.421497,185.830724 160.763236,188.506833 C160.892737,189.520507 161.127997,190.52055 161.334239,191.630115 C160.769711,191.922093 160.226046,192.203072 159.55408,192.550767 C157.958819,189.157746 158.823119,185.483746 158.119017,182.077572 C157.955941,182.062507 157.793106,182.04768 157.63027,182.032615 C157.417553,182.660093 157.199559,183.28542 156.993797,183.91505 C156.351807,185.876398 155.677443,187.82842 155.089412,189.806267 C154.736162,190.993789 154.08506,191.74418 152.535125,191.885985 C151.587609,189.089115 150.61779,186.225528 149.482738,182.876028 C149.059701,183.773963 148.709569,184.207746 148.662085,184.672137 C148.488458,186.383354 148.428503,188.105811 148.298283,189.821572 C148.228257,190.744854 147.978847,191.548572 146.520522,191.500746 C146.520522,190.56192 146.39222,189.650833 146.543304,188.788528 C147.080734,185.723115 146.731321,182.411159 149.045312,179.513137" id="Fill-30" fill="#000000"></path>
                <path d="M183.274446,186.747311 L183.308979,186.747311 C183.308979,187.383398 183.180198,188.052724 183.334879,188.648876 C183.688849,190.012637 183.867273,191.586833 184.688165,192.627767 C186.046966,194.350463 190.397721,194.096028 191.954851,192.506767 C192.768069,191.676746 192.920113,190.752746 192.508108,189.672354 C192.084112,188.560876 191.309025,187.98505 190.135841,188.085963 C188.951147,188.187833 187.774846,188.39205 186.597106,188.568528 C185.951519,188.665376 185.28339,188.814354 184.990574,188.004659 C184.671378,187.121789 185.200893,186.723159 185.928737,186.379767 C186.691834,186.019398 187.539106,185.678876 188.102196,185.093246 C188.853302,184.311767 188.553531,183.380833 187.559251,183.025724 C186.267358,182.564202 185.042614,182.896115 183.88382,183.525507 C182.767233,184.13218 183.048059,185.087507 183.266771,186.034224 C183.319291,186.260441 183.274446,186.508898 183.274446,186.747311 M190.117136,185.850572 C193.293508,186.791789 194.773177,188.653659 194.42832,191.313028 C194.331914,192.054093 194.007442,192.889615 193.513659,193.435311 C190.642814,196.608093 184.828218,196.437354 182.22237,193.111767 C181.815641,192.592615 181.630982,191.808267 181.572227,191.126746 C181.354473,188.596746 181.220895,186.058854 181.079643,183.522876 C181.022567,182.500593 181.111779,181.590224 182.534371,181.586398 C183.056212,181.584963 183.567741,181.231767 184.100374,181.11292 C185.68964,180.759246 187.244131,180.749441 188.757375,181.517767 C190.630103,182.468072 190.221935,184.130985 190.117136,185.850572" id="Fill-32" fill="#000000"></path>
                <path d="M403.965549,186.381848 C405.76921,185.799326 407.429941,185.340435 409.024961,184.713435 C409.767674,184.421696 410.444916,183.707652 409.973197,182.8365 C409.691172,182.315913 408.998342,181.887391 408.401438,181.702543 C407.834751,181.526783 407.145518,181.673609 406.521995,181.762804 C403.213963,182.236522 403.04801,182.504587 403.965549,186.381848 M407.646495,187.812565 C409.719471,188.560326 411.792446,189.308326 414.15488,190.160587 C414.069266,190.581935 414.122985,191.449739 413.807626,191.6145 C413.272835,191.893804 412.434196,191.926326 411.847604,191.716609 C409.755683,190.968609 407.721078,190.062783 405.653139,189.245913 C405.164872,189.053174 404.63104,188.975696 403.695035,188.737761 C403.962191,189.861913 404.152366,190.665152 404.344219,191.468152 C404.471082,191.999261 404.7356,192.544 404.68284,193.056457 C404.645909,193.416587 404.22551,193.931913 403.889766,194.011065 C403.563856,194.087587 403.00844,193.788435 402.770542,193.484978 C402.495712,193.134891 402.398826,192.609043 402.326881,192.143935 C401.829741,188.934804 401.349628,185.722565 400.892777,182.507696 C400.839298,182.129152 400.961125,181.725739 401.022998,181.125761 C403.682085,180.118304 406.420312,179.463565 409.328569,179.818435 C410.851645,180.004239 411.854559,180.926804 412.188623,182.295826 C412.553864,183.792304 412.019553,185.062087 410.607032,185.945913 C410.137471,186.239804 409.620187,186.460761 409.115852,186.695587 C408.636219,186.918696 408.144594,187.116217 407.658006,187.324978 C407.654409,187.487587 407.650332,187.650196 407.646495,187.812565" id="Fill-34" fill="#000000"></path>
                <path d="M35.7836734,190.723093 C38.0007788,189.105376 37.7475324,187.245898 37.4758201,185.357007 C37.3014733,184.145093 37.6271444,183.088854 38.9303084,182.694289 C41.7277702,181.847528 44.5789509,181.293463 47.5627503,181.242289 C47.7824224,182.568028 46.8303501,182.587159 46.1425558,182.807637 C44.0290512,183.485333 41.9054743,184.132659 39.70012,184.818485 C39.8166709,186.234376 39.918593,187.471159 40.0260309,188.775137 C41.2538924,189.211311 42.3865466,189.08792 43.542703,188.689528 C44.5165986,188.354267 45.5070415,188.032398 46.5166699,187.851854 C46.8931821,187.784659 47.5476419,188.027615 47.7054412,188.324615 C47.8641999,188.623289 47.7080792,189.356702 47.4346882,189.561637 C46.8229158,190.02005 46.0833211,190.420593 45.3408486,190.567898 C44.1002768,190.813246 42.8177371,190.856289 41.5505456,190.957202 C40.4610584,191.044007 40.0269901,191.539007 40.1550522,192.67655 C40.5071032,195.809398 41.294901,196.43568 44.3417722,195.614267 C46.0308012,195.158963 47.6577177,194.476246 49.3287605,193.947767 C49.7700232,193.808115 50.2721994,193.860724 50.7854071,194.032659 C48.0306327,196.006202 45.1317284,197.520854 41.7299285,197.775767 C39.9934158,197.905854 39.2200069,197.434289 38.5705833,195.846463 C38.3355629,195.271115 38.1422707,194.619485 38.1631347,194.010659 C38.2134962,192.540724 37.7386592,191.435702 35.7836734,190.723093" id="Fill-36" fill="#000000"></path>
                <path d="M106.440844,184.958496 C105.274615,182.884757 103.809815,182.295539 102.367078,183.132496 C101.283586,183.760691 101.187899,185.637865 102.218871,187.703235 C103.644821,186.776365 105.051586,185.861452 106.440844,184.958496 M102.490823,190.206691 C106.115413,190.849713 109.657026,189.725561 112.677517,191.740952 C112.246087,192.829952 111.576279,192.7398 110.835725,192.585561 C108.31645,192.060909 105.797416,192.171865 103.172382,192.6078 C103.019619,193.134843 102.96638,193.708996 102.694188,194.1478 C102.42943,194.57417 101.940444,194.862083 101.436349,195.312604 C100.030304,193.689865 100.107045,191.828474 99.9096759,190.074452 C99.732931,188.502648 99.7477996,186.909322 99.5688964,185.337996 C99.2353114,182.412713 100.488114,180.996822 103.438579,180.932496 C105.567432,180.886104 107.118086,181.651561 108.124357,183.584213 C108.701116,184.692583 108.625814,185.581909 107.628896,186.306713 C106.469142,187.149648 105.243679,187.902191 104.07793,188.737713 C103.601654,189.078952 103.208115,189.535452 102.490823,190.206691" id="Fill-38" fill="#000000"></path>
                <path d="M126.977475,179.85385 C124.441893,182.551002 120.609382,181.761872 117.710718,183.845415 C117.94406,184.889698 118.193709,186.007393 118.469258,187.241067 C121.238182,186.784328 123.630114,185.347154 126.396159,185.503067 C124.531105,187.939328 121.613495,188.250437 119.004529,189.278698 C118.654876,191.44498 119.007167,191.811089 121.07007,191.346698 C123.672561,190.76035 126.276731,190.182372 129.048532,189.563502 C128.934379,189.959502 128.926945,190.28998 128.815191,190.329915 C125.836187,191.390698 122.893876,192.601176 119.843168,193.398437 C117.61719,193.980002 117.509512,193.618915 117.0011,191.293372 C116.361509,188.365937 116.433454,185.272067 114.98664,182.524937 C114.901745,182.363763 115.046594,182.082067 115.115662,181.672915 C119.137627,181.558611 122.853108,179.477937 126.977475,179.85385" id="Fill-40" fill="#000000"></path>
                <g id="Group-44" transform="translate(459.248982, 180.339739)">
                    <mask id="mask-4" fill="white">
                        <use xlink:href="#path-3"></use>
                    </mask>
                    <g id="Clip-43"></g>
                    <path d="M2.87072581,10.2784957 C4.83914129,9.43006087 6.25190148,8.93936522 7.54427368,8.23082174 C8.82417541,7.52921304 9.4472192,6.27808261 9.18557918,4.83636522 C8.91218814,3.32984348 7.51861329,2.9898 6.29171105,2.79921304 C5.08615249,2.61173478 3.82855372,2.75832174 2.29684445,2.75832174 C2.49061634,5.29597391 2.66064638,7.5241913 2.87072581,10.2784957 M3.28249109,0.114017391 C4.89501858,0.488734783 6.55622887,0.724517391 8.11072072,1.2659087 C11.724039,2.52421304 12.6494916,5.64558261 10.1868139,8.5448 C9.30932459,9.57736522 7.95076298,10.2593652 6.71330881,10.9176913 C5.32021359,11.6589957 3.83358987,12.2398435 2.35080321,12.7931913 C1.82176757,12.9904739 1.08265249,13.1162565 0.621245163,12.8960174 C-0.145209012,12.530387 0.0368118635,11.7572783 0.240176426,11.0133435 C0.440903004,10.2794522 0.55169832,9.4884087 0.520522149,8.72964783 C0.437065937,6.6779087 0.320994654,4.6233 0.096526222,2.5828 C-0.118589358,0.629582609 0.0183459776,0.396430435 2.03568406,0.338082609 C2.43353997,0.326365217 2.83211533,0.336408696 3.23045087,0.336408696 C3.24771767,0.26203913 3.26522429,0.188147826 3.28249109,0.114017391" id="Fill-42" fill="#000000" mask="url(#mask-4)"></path>
                </g>
                <path d="M77.3445791,182.615065 C77.7707334,183.447478 78.1666708,183.894174 78.2189508,184.377696 C78.4897039,186.879 78.6760414,189.389391 78.8842023,191.897152 C78.9494325,192.685565 78.9184961,193.489522 79.0645445,194.261196 C79.2089142,195.026652 79.0220969,195.659152 78.2654753,195.637152 C77.8023892,195.623522 77.0815002,195.080457 76.9635104,194.644043 C76.7426392,193.82813 76.8901265,192.916087 76.854154,192.045652 C76.8414437,191.739087 76.7400012,191.436348 76.635681,190.916717 C75.5291667,191.201522 74.4924391,191.46863 73.1250043,191.82087 C73.3619432,192.737457 73.4739376,193.573457 73.7921743,194.322652 C74.5418413,196.089109 74.5715786,196.098674 72.4233006,197.197 C70.9323602,192.781696 71.0688159,188.171261 70.3428907,183.71937 C70.2344936,183.054826 70.6836703,182.299652 70.8831978,181.555 C72.3911652,181.885239 72.5139513,182.823826 72.5602359,183.788478 C72.6132354,184.894935 72.5815796,186.007848 72.681823,187.109283 C72.7506504,187.867565 72.9813541,188.611022 73.1473072,189.397522 C74.2881153,189.216022 75.2150068,189.068239 76.1399798,188.920935 C77.3994971,187.09087 74.6756591,184.597935 77.3445791,182.615065" id="Fill-45" fill="#000000"></path>
                <path d="M86.1030208,182.991743 C88.1378655,184.032678 90.0842178,182.973091 92.0833298,182.685178 C93.0783293,182.5417 94.0853197,182.158135 95.0405096,183.310504 C92.4948553,184.179265 90.0719872,185.006178 87.6196216,185.843135 L87.6196216,187.879091 C89.7177779,189.008983 91.7854775,187.29633 93.8594123,187.779374 C93.8313538,189.0097 92.958421,189.236157 92.1183431,189.499439 C90.9832906,189.854548 89.8372066,190.179765 88.7172626,190.577678 C87.5193782,191.00333 87.0833914,191.86707 87.4846048,192.922113 C87.9028451,194.022352 88.855397,193.997243 89.6798869,193.698091 C91.2727494,193.120352 92.8567387,192.773613 94.917004,193.0742 C94.4707051,193.640461 94.2404811,194.247374 93.8685254,194.351635 C91.9725345,194.882265 90.0592769,195.454743 88.113644,195.675222 C86.5203018,195.855526 85.7384994,195.095809 85.5773426,193.490048 C85.4276969,192.000265 85.5816593,190.482265 85.5454469,188.978135 C85.5188273,187.881483 85.5233838,186.759961 85.2886033,185.699178 C85.0523838,184.632896 85.367503,183.862896 86.1030208,182.991743" id="Fill-47" fill="#000000"></path>
                <path d="M442.467832,180.979676 C445.562427,183.016111 447.508779,185.756307 450.089447,188.232024 C450.851104,186.316111 451.06622,184.671372 450.730956,182.957285 C450.671961,182.655502 450.311757,182.339611 450.37291,182.102872 C450.495936,181.626524 450.704816,180.981828 451.073654,180.799372 C451.784471,180.44785 452.380655,180.946437 452.425261,181.664067 C452.529102,183.327937 452.527423,185.000893 452.498645,186.669307 C452.484016,187.536633 452.24324,188.401328 452.242281,189.267459 C452.240602,190.769676 451.536501,191.458611 450.034768,191.41222 C448.049806,189.207676 446.052132,186.989502 443.931673,184.634546 C442.86305,186.127437 442.988954,187.457241 443.112699,188.784654 C443.200232,189.72085 443.045071,190.59248 442.092999,190.985372 C441.721283,191.138654 441.144284,191.068111 440.781201,190.874893 C440.544742,190.749111 440.322672,190.115654 440.440182,189.884654 C441.563004,187.676524 441.579311,185.286654 441.750061,182.909459 C441.787232,182.393415 442.115062,181.897937 442.467832,180.979676" id="Fill-49" fill="#000000"></path>
                <path d="M233.47741,179.052643 C235.548227,179.796817 234.239308,181.851426 235.280592,183.1511 C235.987811,182.692687 236.697908,182.255317 237.383065,181.781839 C238.038484,181.329165 238.651935,180.815513 239.313349,180.372165 C239.900421,179.978317 240.635459,179.40823 241.132839,180.283926 C241.304547,180.585948 240.836665,181.414774 240.461112,181.818187 C239.984836,182.330404 239.24668,182.591535 238.725798,183.072904 C237.580913,184.130817 236.501738,185.259274 235.477961,186.277491 C236.278229,188.490404 238.102035,188.042274 239.437095,188.492078 C240.809806,188.954557 242.247507,189.226448 243.792885,189.615752 C243.997689,190.378339 243.777777,191.080426 242.695484,191.065122 C241.836221,191.053165 240.976238,190.826948 240.124409,190.656926 C238.895109,190.411578 237.673243,190.130839 236.250171,189.822361 C236.156882,190.699252 236.225709,191.361643 235.986132,191.883187 C235.798836,192.291861 235.229271,192.763904 234.829496,192.763904 C234.499749,192.763904 233.932102,192.143839 233.880782,191.745926 C233.626096,189.782665 233.531369,187.799557 233.334239,185.828165 C233.200422,184.488557 232.979071,183.158035 232.819353,181.820578 C232.700404,180.827709 232.434927,179.779839 233.47741,179.052643" id="Fill-51" fill="#000000"></path>
                <path d="M65.7200161,180.712304 C64.7629077,180.968891 63.8031613,181.215674 62.8494102,181.484457 C61.6148339,181.83263 61.1196124,182.598087 61.1052234,183.933152 C61.0642147,187.676261 61.1989917,191.391391 62.1803216,195.025457 C62.3805686,195.767 62.6640319,196.447804 61.6563221,196.750783 C60.6903405,197.041326 60.3430859,196.422457 60.2301322,195.634522 C59.8819184,193.206152 59.5149988,190.778739 59.2543181,188.340087 C59.0706185,186.620022 59.0485553,184.882739 58.9444749,182.977587 C57.9626653,183.133739 57.2132381,183.323848 56.4573359,183.355174 C55.5920772,183.390804 54.684371,183.414 53.8685146,183.183717 C53.5023145,183.080174 53.1735258,182.367804 53.106617,181.892891 C53.0749612,181.666913 53.7179097,181.091326 54.021038,181.115 C56.7208945,181.323761 59.2101918,180.439935 61.7556063,179.803609 C62.595924,179.593652 63.4964357,179.493217 64.3573776,179.543674 C64.8621918,179.573087 65.3435039,179.998739 65.8351282,180.246 C65.7967575,180.401196 65.7583868,180.55687 65.7200161,180.712304" id="Fill-53" fill="#000000"></path>
                <path d="M418.52036,186.743102 C418.51988,188.07745 419.220385,189.04282 420.518273,189.32595 C422.132719,189.67795 423.543321,189.138711 424.57813,187.929667 C426.038374,186.223472 425.470248,184.66458 423.257459,184.049537 C422.728903,183.902711 422.176845,183.78482 421.631262,183.763537 C419.721122,183.689167 418.521079,184.860428 418.52036,186.743102 M426.816579,186.334907 C427.132897,188.33332 425.894244,189.660733 424.06804,190.631363 C422.155741,191.647428 420.203873,191.653407 418.370714,190.553646 C416.174952,189.236276 415.903,185.286559 417.898275,183.151363 C418.69039,182.304363 419.795225,181.735472 420.79598,181.099146 C421.500562,180.651493 422.113294,180.88345 422.722188,181.443493 C423.163211,181.84882 423.741649,182.142233 424.305698,182.371559 C426.597866,183.303928 426.823773,183.609537 426.816579,186.334907" id="Fill-55" fill="#000000"></path>
                <path d="M253.316175,187.618822 C252.518304,187.007604 251.748253,186.355974 250.916089,185.795213 C249.793267,185.039083 248.588188,184.402039 247.479995,183.626778 C245.126914,181.980365 245.298143,180.213191 247.960828,179.070387 C248.970216,178.637083 250.0904,178.350843 251.182525,178.257822 C251.898138,178.197083 252.861002,178.38743 253.344713,178.849191 C254.150017,179.617517 253.33488,180.419561 252.941581,181.395452 C251.33337,180.07593 249.807656,179.903517 247.991764,181.531039 C249.079333,182.307017 250.013179,182.966778 250.939831,183.635865 C252.420459,184.7043 254.024593,185.643843 255.340707,186.886365 C256.882249,188.341235 256.585596,189.306604 254.575212,189.897974 C253.206818,190.300909 251.79094,190.581887 250.376262,190.763387 C249.983202,190.814083 249.284376,190.411865 249.136649,190.0503 C248.828005,189.295843 249.414597,188.893387 250.118219,188.757561 C251.121132,188.563626 252.13124,188.406517 253.138231,188.233626 C253.197465,188.028691 253.2567,187.823757 253.316175,187.618822" id="Fill-57" fill="#000000"></path>
                <path d="M212.761612,182.816843 C211.347892,182.858691 210.475199,183.570583 209.988611,185.27367 C209.61042,186.596778 209.482838,187.9658 210.603741,189.044757 C211.18074,189.600017 212.027533,189.715757 212.525872,189.0768 C213.382977,187.977039 214.318022,186.814148 214.727869,185.522365 C215.234601,183.927365 214.207706,182.7738 212.761612,182.816843 M212.169504,180.600104 C214.192838,180.6178 215.48545,181.540365 215.989065,183.054778 C217.137307,186.508061 215.201267,190.514691 212.002112,191.299517 C210.84116,191.584083 209.821459,191.47193 209.011358,190.434104 C207.05997,187.933278 207.851365,182.950517 210.545705,181.253887 C211.130378,180.885626 211.847191,180.725887 212.169504,180.600104" id="Fill-59" fill="#000000"></path>
                <path d="M138.441145,192.852143 C134.993061,189.998361 133.799733,186.238991 133.287724,182.058752 C134.964762,181.725883 135.11129,182.651317 135.388758,183.496404 C135.907721,185.076339 136.399586,186.672296 137.050448,188.198904 C137.407055,189.034904 138.065832,189.74273 138.741156,190.73273 C139.210477,190.1691 139.593704,189.879991 139.745268,189.499296 C140.849864,186.728013 141.585382,183.903165 140.77672,180.895143 C140.579111,180.159578 140.538102,179.450557 141.853977,179.189904 C142.106983,179.722687 142.63386,180.319796 142.629333,180.9126 C142.610598,183.292665 142.545128,185.685404 142.270059,188.047057 C142.016812,190.220035 140.897588,191.922883 138.441145,192.852143" id="Fill-61" fill="#000000"></path>
                <path d="M429.548187,180.680309 C430.916821,181.146613 430.793315,182.072287 431.019942,182.9047 C431.410124,184.339004 431.84683,185.8142 432.586185,187.086135 C433.400842,188.488157 434.625826,188.337504 435.20858,186.825243 C435.722028,185.49257 436.63477,184.152004 435.381488,182.612004 C434.834227,181.940048 435.535211,181.280287 436.250824,180.990461 C436.999292,180.687243 437.614182,181.09257 437.712267,181.770265 C438.0871,184.360526 437.717783,186.9087 436.233317,189.06757 C435.087473,190.73383 432.594578,190.594178 431.260238,189.049874 C429.62229,187.154048 429.149372,184.801483 428.81123,182.4427 C428.73329,181.898439 429.288465,181.263548 429.548187,180.680309" id="Fill-63" fill="#000000"></path>
                <path d="M228.967273,187.532663 C228.748081,188.040576 228.595557,188.591772 228.297705,189.048511 C227.280163,190.609315 224.95538,191.374293 223.016941,190.841989 C221.267958,190.361576 220.00988,188.733815 219.894768,186.801641 C219.69476,183.445207 221.485951,181.059163 224.56184,180.727489 C225.110061,180.668424 225.806009,180.905163 226.253747,181.243054 C226.846334,181.690228 226.618748,182.502076 225.891624,182.712033 C225.288725,182.88588 224.632586,182.871054 224.022253,183.026011 C221.758383,183.601837 221.424558,186.562033 222.27279,187.91838 C223.010946,189.09825 224.465674,189.540163 225.836946,188.869163 C226.740575,188.42725 227.55859,187.811011 228.414735,187.272489 C228.598915,187.359293 228.783094,187.446098 228.967273,187.532663" id="Fill-65" fill="#000000"></path>
                <path d="M205.487012,189.156359 C204.901619,191.12225 203.274703,191.496967 202.073461,192.074467 C198.313855,193.881576 197.365379,193.158685 197.350271,189.05138 C197.342597,186.93962 197.051939,184.83025 196.968243,182.716576 C196.942583,182.075946 197.180241,181.424793 197.311421,180.700707 C199.044816,181.069685 199.154652,182.197663 199.197339,183.307946 C199.264488,185.045467 199.252737,186.78562 199.296384,188.524098 C199.313411,189.20538 199.389432,189.885228 199.459939,190.858967 C200.691397,190.533033 201.658338,190.289598 202.617605,190.019141 C203.492696,189.772598 204.359394,189.49688 205.487012,189.156359" id="Fill-67" fill="#000000"></path>
                <path d="M205.952112,117.840154 C205.68088,115.14348 205.419,113.012828 205.2612,110.874763 C204.947041,106.613937 203.346024,103.344067 199.511355,100.878872 C195.690596,98.4230022 191.686616,97.7237848 187.467041,98.2646978 C184.504106,98.644437 181.661798,99.8965239 178.736754,100.648111 C173.95337,101.87748 169.985123,104.357502 166.726973,108.041067 C163.299273,111.915937 159.736077,115.675785 156.42157,119.643198 C155.177881,121.131546 154.144271,122.963285 153.577104,124.810089 C152.262669,129.089567 153.15143,133.118437 155.757997,136.776415 C158.183983,140.180915 161.111426,143.109067 164.427851,145.61898 C167.126748,147.661633 170.323025,148.665741 173.57446,149.531872 C176.20357,150.232285 178.784477,149.935524 181.385529,149.548611 C183.76643,149.19422 186.047806,148.552633 188.086967,147.200111 C191.961926,144.629698 195.425598,141.55998 198.514437,138.12798 C201.512865,134.796176 203.995448,131.084154 204.690437,126.491176 C205.152324,123.43748 205.582795,120.37948 205.952112,117.840154 M150.918017,127.914241 C150.80938,124.381567 152.184968,121.407024 154.218134,118.648893 C156.39591,115.694198 158.723091,112.890872 161.459879,110.412763 C163.403594,108.653002 165.181355,106.706002 166.980699,104.793437 C169.220348,102.412893 172.066492,100.976437 175.019115,99.81235 C177.90459,98.6745674 180.906376,97.8203935 183.880822,96.9181543 C187.635872,95.778937 191.420419,96.0666109 195.190818,96.8813283 C198.57583,97.6128283 201.756759,98.7666326 203.947724,101.648393 C204.706025,102.645567 205.522361,103.704676 205.892638,104.868285 C206.804181,107.732589 207.687906,110.627263 207.6174,113.703198 C207.559364,116.229133 207.697019,118.762959 207.55097,121.282198 C207.334416,125.020524 206.462442,128.630915 205.105799,132.137763 C203.87506,135.319633 201.84741,137.992154 199.521907,140.352372 C196.847471,143.066263 193.80132,145.41548 190.921361,147.928741 C188.045719,150.437937 184.55111,151.434393 180.88767,152.000893 C179.787871,152.170676 178.657135,152.160872 177.567887,152.373698 C174.903284,152.894046 172.503918,151.905241 170.122538,151.056807 C165.242028,149.318567 161.009983,146.576459 157.613699,142.599959 C155.549597,140.183546 153.283089,137.965372 152.082567,134.892546 C151.18853,132.603828 151.006749,130.272546 150.918017,127.914241" id="Fill-69" fill="#000000"></path>
                <path d="M280.983611,68.3686348 C280.983611,67.472613 281.080977,66.4268957 280.967304,65.4043739 C280.388147,60.1908522 279.751913,54.9813957 278.270085,49.9254609 C276.923035,45.3303304 274.87596,41.013787 272.591466,36.8357 C271.093571,34.0964609 268.588206,32.1284174 265.558841,31.4655478 C260.881696,30.4420696 256.526625,31.5970696 252.870619,34.7612435 C250.643441,36.6888739 248.310505,38.592113 246.504925,40.8829826 C244.307244,43.6707652 242.55946,46.8215478 240.730138,49.8826565 C240.006132,51.0945696 239.74665,52.5877 238.996983,53.7780913 C237.071735,56.8353739 235.651061,60.0978304 234.56565,63.5207435 C233.380476,67.2593087 232.690044,71.0844391 232.918829,75.0143087 C233.154569,79.0568087 233.552904,83.0897435 233.810228,87.1310478 C234.168754,92.7599391 234.669251,98.3907435 234.728246,104.024657 C234.794675,110.342961 235.862579,116.524004 236.754697,122.7292 C237.229534,126.031352 238.081843,129.31533 240.520778,131.852026 C241.222482,132.581852 242.028266,133.468309 242.934294,133.695004 C244.924053,134.192157 246.948825,134.263896 249.054896,133.738287 C255.639783,132.094743 260.254096,127.863091 264.100516,122.638809 C266.549044,119.312983 268.767828,115.81833 271.067671,112.384417 C273.655772,108.520787 275.635459,104.391722 276.564269,99.7997 C276.784181,98.7130913 277.228082,97.6702435 277.439121,96.5822 C278.33004,91.9870696 279.390989,87.4091565 279.970626,82.7728957 C280.561054,78.0505478 280.660099,73.2669826 280.983611,68.3686348 M282.945792,65.3637217 C282.678876,72.2975478 282.500932,77.6155696 282.250803,82.9304826 C282.187731,84.2717652 281.981249,85.6214174 281.689152,86.9342435 C280.690316,91.4227217 279.364609,95.8559609 278.655231,100.387004 C277.919234,105.090461 275.769277,109.087526 273.330101,112.980809 C270.758067,117.0862 268.144305,121.188243 265.227894,125.050678 C260.725575,131.013157 254.898509,135.202004 247.364667,136.472026 C244.070305,137.027048 241.159171,136.154461 238.782107,133.439613 C236.505527,130.839787 235.593265,127.772222 234.973099,124.584135 C234.275712,121.002439 233.692717,117.378178 233.393666,113.74507 C232.924105,108.04157 232.797961,102.31057 232.406101,96.5998957 C232.074914,91.7704174 231.589765,86.9514609 231.142746,82.1305913 C230.19571,71.9137435 231.475612,62.1536348 236.811534,53.141287 C238.510155,50.2726783 239.940662,47.245287 241.47405,44.2800696 C243.37076,40.6115696 246.204674,37.701113 249.162573,34.9109391 C250.374367,33.7674174 251.694078,32.6798522 253.124105,31.8345261 C257.013453,29.535287 261.221996,28.9298087 265.741342,29.3667 C270.480359,29.8248739 273.056231,32.8085043 274.963972,36.5559174 C277.539364,41.6140043 279.596991,46.8830043 280.925096,52.4425478 C282.07094,57.2392652 282.864494,62.0515261 282.945792,65.3637217" id="Fill-71" fill="#000000"></path>
            </g>
        </g>
    </g>
</svg>