<?xml version="1.0" encoding="UTF-8"?>
<svg width="749px" height="534px" viewBox="0 0 749 534" version="1.1" xmlns="http://www.w3.org/2000/svg" xmlns:xlink="http://www.w3.org/1999/xlink">
    <!-- Generator: Sketch 56.2 (81672) - https://sketch.com -->
    <title>illu/temp</title>
    <desc>Created with Sketch.</desc>
    <defs>
        <polygon id="path-1" points="0 0.591392015 320.8477 0.591392015 320.8477 342.504596 0 342.504596"></polygon>
    </defs>
    <g id="desktop" stroke="none" stroke-width="1" fill="none" fill-rule="evenodd">
        <g id="Desktop-HD" transform="translate(-184.000000, -2687.000000)">
            <g id="Intro" transform="translate(-9.000000, 741.000000)">
                <g id="Cord-Cutting" transform="translate(96.000000, 1739.000000)">
                    <g id="Group">
                        <g id="illu/temp" transform="translate(441.500000, 454.000000) scale(-1, 1) rotate(62.000000) translate(-441.500000, -454.000000) translate(96.000000, 138.000000)">
                            <g id="Group-37">
                                <path d="M222.840289,280.706754 C220.98152,281.678201 218.849011,281.565518 218.274228,280.467392 C217.933979,279.817895 218.242024,279.055716 218.454854,278.658878 C218.888917,277.851906 219.701735,277.095326 220.683277,276.581607 C221.5332,276.137177 222.441931,275.920212 223.231646,275.920212 C224.167681,275.920212 224.937793,276.225363 225.249338,276.820969 C225.824121,277.919795 224.697658,279.735308 222.840289,280.706754" id="Fill-1" fill="#59C94E"></path>
                                <path d="M449.588333,55.1127796 C431.620933,69.9973245 410.577988,82.962773 387.045482,93.6486822 C357.606922,107.015167 324.168683,116.831814 287.656999,122.824266 C239.456424,130.735114 209.685315,148.423415 199.171894,175.396447 C189.999166,198.931623 197.566561,225.207566 205.530214,243.105834 C211.903936,257.431867 219.542042,268.823265 223.108358,273.809976 C222.024601,273.829573 220.849131,274.126326 219.709366,274.721231 C218.345568,275.434419 217.242909,276.479353 216.605817,277.663566 C216.565211,277.739854 216.533706,277.816142 216.497301,277.89313 C213.086407,272.89592 204.582977,259.724704 197.635171,243.040744 C189.483192,223.464142 181.879391,194.933156 191.954549,170.186472 C202.746611,143.676766 231.434663,126.425196 277.219889,118.909785 C313.911499,112.887938 347.667584,103.0181 377.548608,89.5760266 C401.47037,78.8145293 422.976782,65.7517962 441.472759,50.7503699 C465.617153,31.1681683 479.808907,11.8225293 484.559094,3.32727353 L491.140747,7.76317165 C489.351988,11.1303389 477.665897,31.8519601 449.588333,55.1127796" id="Fill-3" fill="#95F58C"></path>
                                <path d="M522.745491,588.7066 C510.708649,612.057006 497.169389,617.251584 497.03637,617.300576 C496.841742,617.371265 496.671617,617.497945 496.548399,617.664518 C492.322588,623.398711 479.589145,627.872403 464.110605,629.062215 C439.8885,630.921121 421.062075,624.700505 411.995763,620.825918 C394.874785,613.507876 382.12174,602.23126 374.091578,587.308921 C364.523293,569.528235 362.036533,546.983402 366.700608,520.301524 C373.532197,481.223207 367.75146,449.879367 349.518722,427.140664 C323.832004,395.103234 281.285447,390.998383 276.034687,390.610645 C275.657333,389.987043 274.997837,388.625759 275.273677,387.088802 C275.535515,385.623234 276.585667,384.287145 278.395429,383.112031 C280.611249,383.229612 294.108503,384.138769 310.091816,389.448128 C339.085812,399.080704 353.874052,415.556797 361.174708,427.682379 C384.917244,467.119739 380.770544,494.230649 378.026147,512.17091 C377.800714,513.646977 377.585783,515.051654 377.400257,516.383544 C371.038436,561.961032 390.173605,586.995371 407.34569,599.970618 C446.777497,629.764904 487.01862,611.07926 491.477566,608.851513 C497.512439,605.83429 508.994101,597.245949 518.084216,573.621187 C528.75236,545.890875 533.022978,505.990188 530.777053,455.028452 C530.462707,447.907779 529.935531,441.148248 529.202525,434.824049 C529.247332,434.608483 529.224928,434.376819 529.124114,434.163353 C528.741858,430.943863 528.305695,427.840554 527.816324,424.859725 C527.848529,424.647659 527.816324,424.422994 527.709909,424.218627 C522.586568,393.669161 511.800807,375.003814 495.649469,368.739105 C478.772827,362.193041 461.678453,371.568757 458.026025,374.438303 C454.396699,377.288952 444.17592,390.078029 445.125958,403.91204 C445.772851,413.336049 451.36106,421.187406 461.736561,427.249147 C481.179775,438.60905 502.7695,438.299699 525.926751,426.335792 C526.318808,428.8148 526.673059,431.377794 526.991605,434.021276 C492.906472,450.674441 462.662095,446.639579 443.930885,422.899336 C433.497975,409.675628 432.076769,394.287163 440.03132,380.679916 C449.400776,364.651052 468.851691,355.468505 487.335766,358.351349 C501.014346,360.484611 525.545896,371.163522 536.151731,418.720297 C538.105713,427.480111 539.487013,437.186875 540.256425,447.570432 C545.994455,525.013178 533.901605,567.066024 522.745491,588.7066" id="Fill-5" fill="#95F58C"></path>
                                <path d="M683.210253,260.500882 C682.029882,260.657657 668.092965,262.692235 651.602078,273.422937 C636.060529,283.535637 615.352933,303.618259 604.957128,341.866507 C596.087544,374.493945 571.208744,406.900217 539.865908,426.786171 C539.402441,424.081798 538.893467,421.443916 538.334087,418.88792 C546.531573,413.295105 554.897083,406.257019 563.202385,397.954233 C580.609004,380.552186 587.988772,359.192966 595.126305,338.537134 C602.334549,317.671336 609.144434,297.963154 625.460295,282.242241 C642.385245,265.932722 658.963644,258.527194 669.891525,255.186622 C675.254301,253.546782 679.813361,252.700616 683.210253,252.263185 L683.210253,260.500882 Z" id="Fill-7" fill="#95F58C"></path>
                                <path d="M97.9720383,541.463725 L97.9349329,541.895557 C97.458864,547.524766 96.6607485,556.945976 82.5474061,562.832744 C76.4880292,565.360044 70.9663301,565.528718 66.1335307,563.331765 C62.1653564,561.52885 60.0804547,558.717395 59.8557222,558.402445 C58.5675358,556.59953 54.4929461,550.036669 56.1409846,541.248859 C57.7911234,532.445652 61.9868306,530.164013 62.0652419,530.12202 C62.2332663,530.038733 62.3753868,529.911353 62.4776016,529.753878 C62.5378103,529.660093 68.6433939,520.468447 81.4013402,522.340651 C94.1151801,524.210055 98.46771,535.718334 97.9720383,541.463725 M196.558205,366.415823 L137.746894,428.984523 C137.343636,432.677838 134.112668,461.29421 129.710431,470.861697 C125.668046,479.646707 117.254929,497.927814 105.426017,506.586144 C97.541476,512.357431 89.4462045,515.040106 81.3922389,514.568381 C81.2718215,514.561382 81.1297009,514.557883 80.9686776,514.557883 C76.9886016,514.557883 60.8568671,516.869617 53.8390515,529.977843 C50.5205712,536.176762 47.1103777,545.556678 49.7070535,555.041577 L49.7350575,555.145161 C49.8575753,555.595189 50.1397161,556.290179 50.4666634,557.094352 C51.6554355,560.024089 53.4525955,564.450188 51.845863,567.484908 C51.2640788,568.583034 50.0984101,570.564421 48.7486148,572.858658 C45.9503098,577.617205 42.1179552,584.134574 41.335942,586.479903 C40.2283818,589.799477 39.7943189,594.940164 41.3205398,598.942831 C42.5737212,602.23301 45.1822987,609.077227 46.9668569,611.45685 C47.4695297,612.126645 48.9992511,614.164722 50.1327151,614.248066 C50.3483463,614.261307 50.6864952,614.224213 51.1723656,613.739189 C52.3478357,612.564075 51.4391042,609.634339 50.988939,608.597803 C50.4547617,607.760735 46.5194922,601.208372 48.915939,593.421404 C51.403399,585.338383 57.3549603,576.225125 59.6323899,574.36202 C62.1023473,572.34214 65.1953949,571.932004 71.6419279,571.730436 C79.3430424,571.489674 90.2464203,570.31876 95.9949522,562.955925 L96.1762784,562.723561 C102.391078,554.763021 106.143621,549.957581 105.951093,537.679424 C105.738962,524.065178 108.965029,517.519814 112.28771,511.98299 C114.138778,508.899278 118.620827,503.676004 122.956554,498.624904 C126.884122,494.046228 130.94681,489.312877 131.577602,487.780819 C131.741425,487.381883 131.967558,486.789076 132.2553,486.035996 C134.382207,480.462078 140.032025,465.65802 149.113039,454.97771 C158.317271,444.151123 186.185504,409.681577 191.073612,403.629635 C188.971207,402.183663 184.389044,398.512044 184.389044,394.004058 C184.389044,389.75223 186.335326,387.66726 188.217198,385.650879 C188.85009,384.974086 189.446576,384.335087 189.980754,383.606503 C192.071956,380.755854 228.501028,337.512496 232.979576,332.822538 C236.049521,329.607947 249.51737,314.722702 257.564334,305.829209 C257.821971,305.543654 258.074708,305.265798 258.319043,304.994941 C234.029028,329.162817 197.077681,365.900004 196.558205,366.415823" id="Fill-9" fill="#FFA3A3"></path>
                                <path d="M123.266629,440.987903 C123.569773,433.872829 122.423007,429.56851 121.840522,427.893675 C131.630039,422.734092 144.607817,415.047908 152.339036,410.394344 L135.974868,427.80339 C135.818045,427.969963 135.720031,428.183429 135.696228,428.410893 C135.681526,428.543872 135.078738,434.152785 134.05449,441.339248 C132.297936,441.270659 128.069324,441.113883 123.266629,440.987903" id="Fill-11" fill="#FFA3A3"></path>
                                <g id="Group-15" transform="translate(0.000000, 273.842870)">
                                    <mask id="mask-2" fill="white">
                                        <use xlink:href="#path-1"></use>
                                    </mask>
                                    <g id="Clip-14"></g>
                                    <path d="M316.774213,38.2410392 L316.41086,38.6994667 C314.837033,40.587068 272.368887,75.6424213 263.632322,82.4194489 C257.337711,87.3018764 204.11881,126.40189 185.385499,140.157513 C190.098581,134.338634 193.33935,130.324069 193.441564,130.198089 C193.634092,129.959427 193.713204,129.649376 193.657896,129.348423 C193.601888,129.048171 193.418461,128.785713 193.153823,128.631737 C193.028505,128.558948 192.889184,128.472862 192.739363,128.377677 L221.654247,94.1572917 L254.442092,74.569491 L318.450956,35.8257214 C318.098805,36.5753028 317.462412,37.3745763 316.774213,38.2410392 M149.113249,181.135329 C140.032235,191.81494 134.382418,206.619697 132.25481,212.192915 C131.967068,212.946696 131.741635,213.538802 131.577812,213.938439 C130.94632,215.469797 126.884332,220.203848 122.956064,224.781823 C118.621037,229.832924 114.138988,235.056198 112.28792,238.13991 C108.965239,243.676734 105.738472,250.222098 105.951303,263.837044 C106.143831,276.115201 102.391288,280.919941 96.1757883,288.880481 L95.9944621,289.112844 C90.2466303,296.475679 79.3425523,297.647294 71.6414378,297.887356 C65.1949049,298.089624 62.1018572,298.499059 59.6325999,300.51894 C57.3551703,302.382045 51.403609,311.495303 48.9154489,319.579024 C46.5197022,327.365992 50.4549717,333.917655 50.9884489,334.754722 C51.4393142,335.791258 52.3480457,338.720995 51.1725756,339.896109 C50.6867053,340.381832 50.3478562,340.418226 50.1329251,340.405506 C48.9994611,340.322342 47.4697397,338.284264 46.967067,337.61447 C45.1818086,335.234147 42.5739312,328.38993 41.3207498,325.10045 C39.794529,321.097083 40.2285918,315.956397 41.335452,312.637522 C42.1174651,310.291493 45.9505199,303.774824 48.7488248,299.016277 C50.0986202,296.72134 51.2642889,294.739954 51.846073,293.641828 C53.4528056,290.607108 51.6549454,286.181008 50.4661734,283.251972 C50.139226,282.447099 49.8577853,281.752109 49.7345675,281.30208 L49.7065634,281.199196 C47.1098876,271.713597 50.5200812,262.333682 53.8392615,256.135462 C60.8570771,243.026536 76.9888117,240.714802 80.9688876,240.714802 C81.1299109,240.714802 81.2720315,240.718302 81.3924489,240.726 C89.4464145,241.197026 97.5409859,238.51435 105.426227,232.743064 C117.255139,224.085433 125.667556,205.804326 129.710641,197.018616 C134.112879,187.45113 137.343846,158.835458 137.746404,155.141442 L196.558416,92.5727424 C197.077191,92.056924 234.029238,55.3197369 258.319253,31.1518609 C258.074218,31.4227181 257.822181,31.701274 257.564544,31.9861289 C249.51758,40.8796217 236.04903,55.7655663 232.979786,58.9794578 C228.501238,63.6694157 192.072166,106.912773 189.980964,109.763422 C189.446786,110.492007 188.8496,111.131706 188.217408,111.808499 C186.335536,113.82418 184.388554,115.90915 184.388554,120.160977 C184.388554,124.668964 188.971418,128.340583 191.073822,129.787254 C186.185714,135.838497 158.317481,170.308742 149.113249,181.135329 M123.266909,167.145243 C123.569353,160.030169 122.423287,155.72585 121.840102,154.050315 C131.630319,148.891431 144.608097,141.205247 152.339316,136.550984 L135.975148,153.960029 C135.817625,154.127303 135.720311,154.340769 135.695808,154.568233 C135.681806,154.701212 135.079018,160.310124 134.05477,167.496587 C132.298216,167.427998 128.069604,167.271223 123.266909,167.145243 M107.976696,166.998266 C98.4987245,167.204034 76.8382899,170.459219 69.887684,175.158975 C64.4051906,178.866988 59.3147539,185.354962 56.5801582,188.84041 C55.8555533,189.763564 55.2842706,190.492849 54.9265188,190.889686 C54.229918,191.663763 52.3053395,192.839577 50.2680447,194.083981 C47.457838,195.800809 44.2737772,197.746501 42.1916759,199.827972 C38.7198735,203.298722 38.951607,208.11536 39.0636232,210.429894 C39.0776252,210.716849 39.089527,210.95901 39.089527,211.145181 C39.089527,213.715874 37.9434611,215.32142 35.6807336,215.916326 C33.147067,216.58402 30.9004418,213.601792 28.9205553,210.968809 C28.5319991,210.45299 28.1546445,209.95117 27.7870913,209.492043 C25.4179484,206.532211 8.21295856,190.786102 6.78755228,189.482909 C6.13295755,188.609447 -1.1768003,178.380565 3.93253911,164.758621 C8.93266272,151.42993 19.4922909,147.57144 33.8093628,145.878408 C44.3164834,144.634705 52.7464033,152.865402 55.9241632,155.963112 C56.3547255,156.383046 56.6984753,156.716193 56.9449109,156.932459 C59.0039089,158.733274 65.2670153,164.212007 73.6668309,164.771918 C82.1968653,165.340229 101.257824,163.318249 113.398281,158.172663 C115.201742,157.409083 117.442066,156.324955 119.951229,155.034359 C120.484706,156.707794 121.441745,160.709761 121.167305,167.093451 C116.50393,166.984268 111.571716,166.918479 107.976696,166.998266 M264.65097,27.2919717 C266.65676,25.1055176 286.326106,5.59820421 289.206323,2.74265604 C289.351944,2.80284651 289.477263,2.90992957 289.498266,2.93022636 C289.697094,3.12199601 289.857418,3.43694618 289.781106,3.66301041 C288.210079,6.06992957 247.597202,58.1458897 226.251113,85.4646671 L220.279248,92.5321488 L220.127326,92.6231344 C219.87389,92.7743105 219.708666,93.0157723 219.645657,93.2824301 L191.033216,127.143772 C188.952515,125.473137 186.488858,122.853451 186.488858,120.160977 C186.488858,116.737119 188.001077,115.116875 189.752731,113.241172 C190.398924,112.548982 191.066121,111.833695 191.675209,111.005026 C193.75661,108.167675 230.03726,65.1013891 234.498306,60.4296283 C237.587853,57.1947402 251.067604,42.2961976 259.12157,33.3943061 C261.970282,30.2469041 264.069186,27.9274711 264.65097,27.2919717 M320.663276,33.5496815 C320.565962,33.2424301 320.332828,32.996769 320.031084,32.8833869 C319.730741,32.769305 319.392592,32.8008 319.117452,32.9673736 L253.359036,72.7700757 L225.828251,89.2174733 L227.880248,86.7881577 C242.694392,67.832357 291.072093,5.88235925 291.674881,4.57636589 C292.146049,3.55592735 291.856907,2.28702813 290.955876,1.41846556 C290.383894,0.866252935 289.66979,0.591392015 288.97459,0.609393577 C288.956387,0.607293909 288.939585,0.598195349 288.920682,0.59679557 C288.115565,0.514208638 285.308159,1.2791876 276.706714,9.87872691 C267.632001,18.9506915 195.802306,90.3638919 195.053198,91.109274 L157.714694,130.832889 C155.756511,132.031799 124.291157,151.275954 112.578462,156.240268 C100.734848,161.259174 82.1352564,163.229363 73.8061511,162.67715 C66.1155381,162.164831 60.25499,157.036742 58.3283111,155.352109 C58.1014783,155.15334 57.7864327,154.845389 57.3908755,154.45975 C54.0163871,151.170971 45.0501896,142.434253 33.5636273,143.792738 C20.5144388,145.335994 7.65567791,148.854337 1.96665461,164.020937 C-3.76507487,179.29882 4.81886738,190.382966 5.18642057,190.846993 C5.22142563,190.891086 5.25993121,190.932379 5.30193728,190.970173 C5.48606393,191.138847 23.8294185,207.908193 26.147454,210.803635 C26.5024054,211.247365 26.8664581,211.731688 27.2417124,212.231409 C29.2412017,214.888189 31.6719535,218.120277 34.9071217,218.120277 C35.3292828,218.120277 35.7647458,218.065686 36.215611,217.946705 C39.4234753,217.103338 41.1898309,214.68732 41.1898309,211.145181 C41.1898309,210.932415 41.1772291,210.656658 41.1611267,210.32841 C41.0645128,208.315529 40.8614834,204.126691 43.6765908,201.312437 C45.5822666,199.407338 48.6529109,197.530935 51.3630031,195.875697 C53.7230447,194.433925 55.5867144,193.295905 56.4884449,192.293664 C56.8931034,191.844335 57.4846891,191.090554 58.2330974,190.136605 C60.8969829,186.741442 65.8551004,180.421442 71.0652544,176.8982 C77.592299,172.483998 99.0027975,169.293203 108.021503,169.097234 C115.770924,168.93066 129.779951,169.433881 133.750926,169.586457 C132.32482,179.224632 130.221715,190.884087 127.802865,196.140955 C123.833291,204.76569 115.574896,222.712951 104.186348,231.048632 C96.7050649,236.524565 89.0774611,239.077761 81.5156668,238.629132 C77.5250893,238.396069 59.7740204,240.59932 51.9874935,255.144419 C48.4883871,261.679985 44.901068,271.600915 47.6811703,281.752809 L47.7084743,281.854293 C47.8638968,282.426102 48.1684408,283.174284 48.5205918,284.041447 C49.5630427,286.60934 51.1382706,290.490226 49.9901045,292.659183 C49.4300234,293.716016 48.2748562,295.679205 46.9383628,297.951746 C43.9342281,303.060237 40.1949869,309.418031 39.3436637,311.973327 C38.1184864,315.646346 37.6480183,321.360942 39.3583659,325.847932 C41.4180639,331.254576 43.5617742,336.574435 45.2868238,338.874271 C46.5764104,340.592499 48.1425371,342.366718 49.9838035,342.496897 C50.0580143,342.504596 50.132225,342.504596 50.2057357,342.504596 C51.0864631,342.504596 51.9104824,342.127356 52.6574905,341.380574 C55.0980437,338.94146 53.1062554,334.336189 52.8710214,333.818971 C52.847918,333.767879 52.8206141,333.718186 52.7891095,333.671294 C52.7478035,333.609004 48.7005178,327.417783 50.9233395,320.195626 C53.2609778,312.599028 58.9114955,303.821717 60.9627924,302.144082 C62.956681,300.512641 65.7633871,300.172494 71.7072473,299.986324 C79.831223,299.732964 91.3590913,298.463365 97.6509018,290.40484 L97.8322281,290.172477 C104.107936,282.134249 108.254636,276.822789 108.051607,263.804149 C107.847177,250.742116 110.922022,244.497004 114.088581,239.220539 C115.847935,236.288703 120.470704,230.901655 124.550195,226.148707 C128.955932,221.015019 132.760283,216.581221 133.519193,214.737713 C133.688617,214.326878 133.921051,213.717274 134.217194,212.941097 C136.309096,207.460264 141.865801,192.900468 150.712981,182.494514 C156.565128,175.611803 169.932162,159.207799 180.169744,146.590895 C181.716968,145.455675 257.319509,89.9733537 264.920509,84.0781865 C271.391545,79.0585807 316.343651,42.1842153 318.059599,40.0012607 L318.419451,39.5470326 C319.874962,37.7154224 321.380179,35.8208221 320.663276,33.5496815" id="Fill-13" fill="#000000" mask="url(#mask-2)"></path>
                                </g>
                                <path d="M97.9720383,541.463725 L97.9349329,541.895557 C97.458864,547.524766 96.6607485,556.945976 82.5474061,562.832744 C76.4880292,565.360044 70.9663301,565.528718 66.1335307,563.331765 C62.1653564,561.52885 60.0804547,558.717395 59.8557222,558.402445 C58.5675358,556.59953 54.4929461,550.036669 56.1409846,541.248859 C57.7911234,532.445652 61.9868306,530.164013 62.0652419,530.12202 C62.2332663,530.038733 62.3753868,529.911353 62.4776016,529.753878 C62.5378103,529.660093 68.6433939,520.468447 81.4013402,522.340651 C94.1151801,524.210055 98.46771,535.718334 97.9720383,541.463725 M81.7065844,520.26338 C68.6076888,518.335185 61.9511254,526.852837 60.8638681,528.392594 C59.7703098,529.063087 55.722324,532.08311 54.0763858,540.861821 C52.2757252,550.465701 56.7367708,557.649364 58.1460748,559.622352 C58.5675358,560.212359 60.8904719,563.255477 65.264705,565.243163 C67.794171,566.392381 70.4776594,566.96699 73.2983676,566.96699 C76.4845287,566.96699 79.845015,566.234906 83.355323,564.770038 C98.6455358,558.392647 99.510861,548.176363 100.028236,542.072629 L100.063941,541.644297 C100.619121,535.211615 95.8038245,522.335752 81.7065844,520.26338" id="Fill-16" fill="#000000"></path>
                                <path d="M172.365994,415.966163 C169.074818,415.966163 166.397631,413.289086 166.397631,409.999607 C166.397631,406.709427 169.074818,404.032351 172.365994,404.032351 C175.657171,404.032351 178.334358,406.709427 178.334358,409.999607 C178.334358,413.289086 175.657171,415.966163 172.365994,415.966163 M172.365994,401.932683 C167.916851,401.932683 164.297327,405.55181 164.297327,409.999607 C164.297327,414.447403 167.916851,418.06583 172.365994,418.06583 C176.815138,418.06583 180.434662,414.447403 180.434662,409.999607 C180.434662,405.55181 176.815138,401.932683 172.365994,401.932683" id="Fill-18" fill="#000000"></path>
                                <path d="M37.9376503,466.200994 C33.9659755,466.995368 21.275939,467.699457 15.2872723,460.758655 C10.7926219,455.54728 7.76048308,446.511709 11.7293574,438.9879 C14.7334922,433.291501 21.5650809,427.273153 31.7872602,427.273153 C31.9363818,427.273153 32.0876036,427.274553 32.2381254,427.277353 L32.2507273,427.277353 C32.3053352,427.277353 37.756324,427.333344 43.2101133,429.5058 C50.325243,432.340352 54.1099907,437.296967 54.4593412,444.237769 C55.3778742,462.49928 38.1119755,466.166 37.9376503,466.200994 M119.951719,428.8773 C117.442556,430.167895 115.201532,431.251324 113.398071,432.015603 C101.257614,437.161189 82.1973554,439.183169 73.6666209,438.614859 C65.2668053,438.054948 59.0036989,432.576214 56.9447009,430.775399 C56.6982652,430.559134 56.3552156,430.225986 55.9239532,429.806053 C52.7461933,426.708343 44.3162734,418.477645 33.8098529,419.721348 C19.4920809,421.414381 8.93245268,425.27287 3.93302918,438.600861 C-1.17701033,452.223506 6.13274752,462.452387 6.78734225,463.325849 C8.21274853,464.628343 25.4177384,480.375151 27.7868813,483.334283 C28.1544344,483.79411 28.5317891,484.295931 28.9203453,484.811749 C30.9002318,487.444733 33.1468569,490.426961 35.6805236,489.759266 C37.9432511,489.164361 39.090017,487.558815 39.090017,484.988121 C39.090017,484.801951 39.0774152,484.559789 39.0634132,484.272835 C38.951397,481.958301 38.7196634,477.141663 42.1914659,473.670912 C44.2735672,471.589441 47.4583281,469.643749 50.2678347,467.926921 C52.3051295,466.681818 54.229708,465.506704 54.9270089,464.731926 C55.2840606,464.335089 55.8560434,463.606505 56.5799481,462.683351 C59.3145439,459.197902 64.4056806,452.709929 69.8881741,449.001915 C76.8380798,444.301459 98.4985145,441.046974 107.976486,440.841207 C111.572206,440.761419 116.50442,440.827209 121.167095,440.935692 C121.441535,434.552702 120.484496,430.550035 119.951719,428.8773" id="Fill-20" fill="#FFA3A3"></path>
                                <path d="M37.9376503,466.200994 C33.9659755,466.995368 21.275939,467.699457 15.2872723,460.758655 C10.7926219,455.54728 7.76048308,446.511709 11.7293574,438.9879 C14.7334922,433.291501 21.5650809,427.273153 31.7872602,427.273153 C31.9363818,427.273153 32.0876036,427.274553 32.2381254,427.277353 L32.2507273,427.277353 C32.3053352,427.277353 37.756324,427.333344 43.2101133,429.5058 C50.325243,432.340352 54.1099907,437.296967 54.4593412,444.237769 C55.3778742,462.49928 38.1119755,466.166 37.9376503,466.200994 M32.2717303,425.177685 C20.8789816,424.996414 13.212172,431.676857 9.87128855,438.008755 C6.66412442,444.090093 6.6032156,453.906739 13.6973422,462.129738 C18.4608316,467.650465 26.3572744,468.758389 31.9286806,468.758389 C35.6154142,468.758389 38.2835003,468.272666 38.3493098,468.259368 C38.5418377,468.221574 57.5649907,464.182513 56.5568448,444.132086 C55.6278103,425.656409 32.8878195,425.185384 32.2717303,425.177685" id="Fill-22" fill="#000000"></path>
                                <path d="M97.9720383,541.463725 L97.9349329,541.895557 C97.458864,547.524766 96.6607485,556.945976 82.5474061,562.832744 C76.4880292,565.360044 70.9663301,565.528718 66.1335307,563.331765 C62.1653564,561.52885 60.0804547,558.717395 59.8557222,558.402445 C58.5675358,556.59953 54.4929461,550.036669 56.1409846,541.248859 C57.7911234,532.445652 61.9868306,530.164013 62.0652419,530.12202 C62.2332663,530.038733 62.3753868,529.911353 62.4776016,529.753878 C62.5378103,529.660093 68.6433939,520.468447 81.4013402,522.340651 C94.1151801,524.210055 98.46771,535.718334 97.9720383,541.463725 M81.7065844,520.26338 C68.6076888,518.335185 61.9511254,526.852837 60.8638681,528.392594 C59.7703098,529.063087 55.722324,532.08311 54.0763858,540.861821 C52.2757252,550.465701 56.7367708,557.649364 58.1460748,559.622352 C58.5675358,560.212359 60.8904719,563.255477 65.264705,565.243163 C67.794171,566.392381 70.4776594,566.96699 73.2983676,566.96699 C76.4845287,566.96699 79.845015,566.234906 83.355323,564.770038 C98.6455358,558.392647 99.510861,548.176363 100.028236,542.072629 L100.063941,541.644297 C100.619121,535.211615 95.8038245,522.335752 81.7065844,520.26338" id="Fill-24" fill="#000000"></path>
                                <path d="M264.65083,301.135122 C266.65662,298.947968 286.325966,279.441355 289.206183,276.585806 C289.351804,276.645997 289.477122,276.75308 289.498126,276.772677 C289.696954,276.965146 289.857278,277.280097 289.781667,277.505461 C288.209939,279.91238 247.597762,331.98834 226.250973,359.307118 L220.279108,366.375299 L220.127186,366.465585 C219.87375,366.617461 219.709226,366.858923 219.645517,367.124881 L191.033776,400.986223 C188.952375,399.315587 186.488718,396.696602 186.488718,394.003428 C186.488718,390.579569 188.001637,388.959326 189.753291,387.083623 C190.398784,386.392132 191.066681,385.676845 191.675069,384.848176 C193.75647,382.010125 230.037821,338.94384 234.498866,334.272079 C237.587713,331.037191 251.068164,316.138648 259.12213,307.237456 C261.970142,304.090054 264.069045,301.769922 264.65083,301.135122" id="Fill-26" fill="#FFC4BE"></path>
                                <path d="M316.774213,312.08391 L316.41086,312.542337 C314.837033,314.429938 272.368887,349.485292 263.632322,356.262319 C257.337711,361.144747 204.11881,400.24476 185.385499,414.000384 C190.098581,408.181504 193.33935,404.16694 193.441564,404.040959 C193.634092,403.802297 193.713204,403.492246 193.657896,403.191294 C193.601888,402.891041 193.418461,402.628583 193.153823,402.474607 C193.028505,402.401819 192.889184,402.315732 192.739363,402.220548 L221.654247,368.000162 L254.442092,348.412361 L318.450956,309.668592 C318.098805,310.418173 317.462412,311.217447 316.774213,312.08391" id="Fill-28" fill="#FFA3A3"></path>
                                <path d="M172.365994,415.966163 C169.074818,415.966163 166.397631,413.289086 166.397631,409.999607 C166.397631,406.709427 169.074818,404.032351 172.365994,404.032351 C175.657171,404.032351 178.334358,406.709427 178.334358,409.999607 C178.334358,413.289086 175.657171,415.966163 172.365994,415.966163" id="Fill-30" fill="#FFC4BE"></path>
                                <path d="M683.210253,260.500882 C682.029882,260.657657 668.092965,262.692235 651.602078,273.422937 C636.060529,283.535637 615.352933,303.618259 604.957128,341.866507 C596.087544,374.493945 571.208744,406.900217 539.865908,426.786171 C539.402441,424.081798 538.893467,421.443916 538.334087,418.88792 C546.531573,413.295105 554.897083,406.257019 563.202385,397.954233 C580.609004,380.552186 587.988772,359.192966 595.126305,338.537134 C602.334549,317.671336 609.144434,297.963154 625.460295,282.242241 C642.385245,265.932722 658.963644,258.527194 669.891525,255.186622 C675.254301,253.546782 679.813361,252.700616 683.210253,252.263185 L683.210253,260.500882 Z M525.569139,424.154587 C502.861353,436.073701 481.744197,436.506932 462.796655,425.436784 C453.058246,419.746684 447.817287,412.456638 447.221501,403.768913 C446.321171,390.654388 456.393528,378.390228 459.323452,376.088992 C461.769606,374.167796 471.764953,368.595978 483.306823,368.595978 C487.072668,368.595978 491.003737,369.189484 494.889999,370.697045 C510.23132,376.646804 520.551513,394.631158 525.569139,424.154587 L525.569139,424.154587 Z M522.745631,588.70625 C510.708089,612.057355 497.169529,617.251934 497.03651,617.300226 C496.841882,617.370915 496.671757,617.497595 496.548539,617.664868 C492.322728,623.398361 479.589285,627.872053 464.110745,629.061865 C439.88864,630.921471 421.062215,624.700855 411.995203,620.825568 C394.874225,613.507526 382.12188,602.23091 374.091718,587.308571 C364.523433,569.527885 362.036673,546.983052 366.700748,520.301174 C373.532337,481.222857 367.7516,449.879017 349.518862,427.140315 C323.832144,395.102884 281.285587,390.998033 276.034827,390.610994 C275.657473,389.986693 274.997977,388.626109 275.273117,387.089152 C275.534955,385.623584 276.585107,384.286795 278.394869,383.112381 C280.610689,383.229262 294.108643,384.138419 310.091956,389.448478 C339.085952,399.080354 353.874192,415.556447 361.174848,427.682029 C384.917384,467.120089 380.770684,494.230999 378.026287,512.17056 C377.800855,513.647327 377.585923,515.051305 377.399696,516.383194 C371.037876,561.961382 390.173745,586.995721 407.34583,599.970968 C446.777637,629.764554 487.01876,611.07961 491.477706,608.851163 C497.512579,605.83464 508.994241,597.246299 518.084356,573.621537 C528.7525,545.890525 533.023118,505.989838 530.777193,455.028102 C530.462847,447.908128 529.934971,441.147898 529.202665,434.824399 C529.247472,434.608133 529.225068,434.377169 529.124254,434.163003 C528.741998,430.943513 528.305835,427.840204 527.816464,424.860075 C527.848669,424.647309 527.816464,424.423344 527.710049,424.218277 C522.586708,393.668811 511.800947,375.003464 495.649609,368.739455 C478.772967,362.193391 461.678593,371.569107 458.025464,374.437953 C454.396839,377.288602 444.17606,390.078379 445.126098,403.91239 C445.772991,413.335699 451.3612,421.187056 461.736702,427.249497 C481.179915,438.6087 502.76964,438.300049 525.926891,426.336142 C526.318248,428.81515 526.673199,431.378144 526.991745,434.020926 C492.906612,450.674791 462.662235,446.639929 443.931025,422.899685 C433.498115,409.675978 432.076909,394.287513 440.03076,380.679566 C449.400916,364.650702 468.851131,355.468855 487.335906,358.350999 C501.014486,360.484261 525.546036,371.163872 536.151871,418.719947 C538.105853,427.480461 539.487153,437.186525 540.256565,447.570082 C545.994595,525.012828 533.901045,567.065674 522.745631,588.70625 L522.745631,588.70625 Z M689.836012,249.709989 C689.496462,249.698091 681.53421,249.446831 669.381851,253.146445 C658.208935,256.547907 641.267183,264.094813 624.002684,280.730481 C607.323471,296.801338 600.113827,317.669936 593.140818,337.851243 C586.081696,358.28241 578.78174,379.409967 561.717471,396.469068 C553.735615,404.448505 545.707554,411.231132 537.835614,416.674171 C526.764912,369.256673 501.710386,358.46788 487.659353,356.276527 C468.353359,353.264204 448.012615,362.863185 438.218198,379.620633 C429.80438,394.013156 431.285095,410.261785 442.281586,424.19938 C452.493264,437.142432 465.790988,444.449276 481.804406,445.917643 C495.718919,447.193542 511.40749,443.846671 527.247982,436.230476 C527.907478,442.167637 528.385647,448.485537 528.678289,455.120487 C530.912312,505.79247 526.687901,545.408301 516.123372,572.867756 C507.288794,595.831123 496.301404,604.092616 490.53817,606.97336 C486.199642,609.142317 447.034574,627.32544 408.611613,598.295433 C378.313329,575.402755 376.046401,541.273355 379.479697,516.674348 C379.665224,515.350157 379.878055,513.955278 380.102788,512.48761 C382.722567,495.357821 387.108001,466.687557 362.974109,426.5993 C349.405445,404.061466 327.054711,392.862538 310.694743,387.436297 C293.008784,381.570525 278.296855,381.003615 278.150533,380.998715 C277.943303,380.993816 277.739574,381.044908 277.563848,381.154091 C275.044884,382.703646 273.576771,384.585648 273.200117,386.749006 C272.672241,389.787225 274.552713,392.180146 274.633224,392.28093 C274.821552,392.516093 275.102292,392.65957 275.404036,392.673568 C275.859102,392.694565 321.224967,395.193169 347.893226,428.468704 C365.721306,450.715384 371.353621,481.490915 364.631949,519.940031 C359.884562,547.097134 362.444832,570.097595 372.24205,588.303814 C380.503246,603.655185 393.600041,615.246751 411.169784,622.755863 C425.646479,628.943584 441.336449,631.486281 455.448391,631.486281 C475.574904,631.486281 492.487252,626.3106 498.053057,619.155632 C500.21287,618.261174 512.907107,612.223929 524.472781,589.939455 C545.041757,550.307526 545.54793,490.55938 542.351268,447.414707 C541.876599,441.014919 541.168797,434.870591 540.241863,429.036315 C572.364611,408.923597 597.912009,375.79014 606.983221,342.41732 C617.191399,304.862662 637.454431,285.15938 652.654331,275.243349 C669.135416,264.49235 683.39858,262.59355 683.540701,262.575353 C684.116184,262.502565 684.523643,261.977648 684.451532,261.403039 C684.402525,261.0146 684.146288,260.707349 683.808839,260.568071 L683.808839,252.188997 C687.54458,251.742467 689.716294,251.806857 689.7583,251.808257 C689.770202,251.808957 689.783504,251.808957 689.796106,251.808957 C690.358287,251.808957 690.824555,251.363827 690.845655,250.797617 C690.867261,250.218808 690.414995,249.731685 689.836012,249.709989 L689.836012,249.709989 Z" id="Fill-32" fill="#000000"></path>
                                <g id="Group-36" transform="translate(184.826748, 0.186171)" fill="#000000">
                                    <path d="M264.761586,54.9266091 C246.794186,69.8111539 225.75124,82.7766024 202.218735,93.4625116 C172.780174,106.828997 139.341935,116.645643 102.830251,122.638095 C54.6296759,130.548944 24.8585675,148.237245 14.345146,175.210277 C5.17241854,198.745453 12.7398137,225.021395 20.7034662,242.919663 C27.0771886,257.245697 34.7152939,268.637094 38.28161,273.623805 C37.1978532,273.643402 36.0223831,273.940155 34.8826181,274.535061 C33.5188208,275.248248 32.4161612,276.293183 31.779069,277.477395 C31.7384631,277.553683 31.7069586,277.629971 31.6705533,277.706959 C28.2596597,272.70975 19.7562291,259.538534 12.8084236,242.854574 C4.65644387,223.277971 -2.94735653,194.746986 7.12780152,170.000301 C17.9198633,143.490596 46.607915,126.239025 92.3931409,118.723615 C129.084751,112.701767 162.840836,102.831929 192.72186,89.389856 C216.643622,78.6283588 238.150035,65.5656257 256.646011,50.5641993 C280.790405,30.9819978 294.982159,11.6363588 299.732347,3.14110299 L306.313999,7.57700111 C304.52524,10.9441683 292.839149,31.6657896 264.761586,54.9266091 L264.761586,54.9266091 Z M38.0134712,280.520514 C36.1547022,281.49196 34.0221936,281.379278 33.4474104,280.281152 C33.1071612,279.632354 33.4152058,278.869475 33.6280366,278.472638 C34.0627995,277.666365 34.874917,276.909085 35.8564591,276.396066 C36.7063821,275.950937 37.6151136,275.733971 38.4048279,275.733971 C39.3408633,275.733971 40.1109748,276.039123 40.42322,276.634729 C40.997303,277.733555 39.87084,279.549068 38.0134712,280.520514 L38.0134712,280.520514 Z M308.959682,7.11437431 L300.419846,1.35778516 C300.358937,1.05753267 300.17271,0.784575858 299.879368,0.632 C299.364793,0.365342193 298.731202,0.564110742 298.463063,1.07852935 C294.438881,8.8025072 280.219823,28.7626489 255.217104,49.0195437 C236.862548,63.8893909 215.515759,76.8415415 191.770423,87.5155526 C162.077726,100.862441 128.52747,110.66509 92.0528917,116.651942 C45.4968542,124.293333 16.2697245,141.976035 5.18221996,169.208726 C-5.1624771,194.617506 2.56524124,223.721001 10.8698431,243.662246 C19.8332402,265.18594 31.3856121,280.967743 31.5011288,281.124518 C31.5172311,281.145515 31.5368339,281.160213 31.5536364,281.17981 C31.5655381,281.204306 31.5732392,281.230202 31.585841,281.254698 C32.2845421,282.588687 33.7547549,283.295575 35.4728035,283.295575 C36.5880649,283.295575 37.8069413,282.998122 38.9873122,282.380819 C41.9858461,280.813068 43.4336556,277.861635 42.2840893,275.661883 L42.2840893,275.661883 C42.2385827,275.575796 42.185375,275.496709 42.1335675,275.416221 C42.0971622,275.292341 42.0390538,275.17266 41.9550416,275.065577 C41.5258795,274.518264 -0.785443668,219.815619 16.3026293,175.972456 C26.5269089,149.739207 55.7540386,132.492536 103.170501,124.709767 C139.864211,118.68722 173.480276,108.817382 203.08686,95.3739092 C226.790191,84.6117121 247.991359,71.5468793 266.10158,56.5433533 C296.987249,30.9561019 308.343593,8.23769657 308.454209,8.01163234 C308.499015,7.92204651 308.523519,7.82896124 308.540321,7.73517608 L308.959682,7.11437431 Z" id="Fill-34"></path>
                                </g>
                            </g>
                        </g>
                    </g>
                </g>
            </g>
        </g>
    </g>
</svg>