<?xml version="1.0" encoding="UTF-8"?>
<svg width="1493px" height="869px" viewBox="0 0 1493 869" version="1.1" xmlns="http://www.w3.org/2000/svg" xmlns:xlink="http://www.w3.org/1999/xlink">
    <!-- Generator: Sketch 56.2 (81672) - https://sketch.com -->
    <title>Token icons</title>
    <desc>Created with Sketch.</desc>
    <defs>
        <polygon id="path-1" points="0.000109677419 0.162432 101.605161 0.162432 101.605161 95.4514286 0.000109677419 95.4514286"></polygon>
        <polygon id="path-3" points="0.000109677419 0.162432 101.605161 0.162432 101.605161 95.4514286 0.000109677419 95.4514286"></polygon>
        <polygon id="path-5" points="0.000109677419 0.162432 101.605161 0.162432 101.605161 95.4514286 0.000109677419 95.4514286"></polygon>
        <polygon id="path-7" points="0.000109677419 0.162432 101.605161 0.162432 101.605161 95.4514286 0.000109677419 95.4514286"></polygon>
        <polygon id="path-9" points="0.000109677419 0.162432 101.605161 0.162432 101.605161 95.4514286 0.000109677419 95.4514286"></polygon>
        <polygon id="path-11" points="0.000109677419 0.162432 101.605161 0.162432 101.605161 95.4514286 0.000109677419 95.4514286"></polygon>
        <polygon id="path-13" points="0.000109677419 0.162432 101.605161 0.162432 101.605161 95.4514286 0.000109677419 95.4514286"></polygon>
    </defs>
    <g id="desktop" stroke="none" stroke-width="1" fill="none" fill-rule="evenodd">
        <g id="Desktop-HD" transform="translate(-44.000000, -10080.000000)">
            <g id="Livepeer-Tokens" transform="translate(25.000000, 10079.940886)">
                <g id="Token-icons" transform="translate(0.000000, 0.059114)">
                    <g id="Group-4" transform="translate(0.000000, -0.000000)">
                        <g id="illu/token" transform="translate(176.000000, 161.000000)">
                            <g id="Group-22">
                                <polygon id="Fill-1" fill="#75F2BC" points="56.7869645 1.80315429 24.4781903 15.7390629 9.65802903 45.0936686 20.6252226 80.9713371 49.0804806 94.6115657 85.242771 81.2681143 100.35961 48.0586971 86.1322548 17.5175314"></polygon>
                                <g id="Group-21" transform="translate(0.000000, 0.386194)">
                                    <path d="M46.8121323,38.0625405 L37.8460032,38.0016274 C37.3870032,37.998336 37.0151968,37.6203703 37.0184654,37.161216 L37.0678419,29.8717989 C37.0705839,29.4131931 37.448971,29.0407131 37.9074226,29.0439829 L46.8730032,29.1054446 C47.3314548,29.108736 47.7043581,29.4861531 47.7010894,29.9447589 L47.6511645,37.234176 C47.6478742,37.6927817 47.2705839,38.0658103 46.8121323,38.0625405" id="Fill-2" fill="#549680"></path>
                                    <path d="M46.7194548,51.5748422 L37.7533258,51.5139291 C37.2948742,51.5106377 36.9225194,51.132672 36.925788,50.6735177 L36.9751645,43.3841006 C36.9784548,42.9254949 37.3562935,42.5530149 37.8152935,42.5562846 L46.7803258,42.6177463 C47.2393258,42.6210377 47.612229,42.9984549 47.6089603,43.4570606 L47.5590355,50.7464777 C47.5557452,51.2050834 47.1779065,51.578112 46.7194548,51.5748422" id="Fill-4" fill="#549680"></path>
                                    <path d="M75.9494742,51.7751739 L66.9833452,51.7137189 C66.5248935,51.7104274 66.1525387,51.3324617 66.1558074,50.873856 L66.2051839,43.5844389 C66.2084742,43.1252846 66.5863129,42.7533531 67.0453129,42.7566229 L76.0103452,42.817536 C76.4693452,42.8208274 76.8417,43.1982446 76.8389731,43.6573989 L76.7890548,50.9462674 C76.7857645,51.4054217 76.4079258,51.7779017 75.9494742,51.7751739" id="Fill-6" fill="#549680"></path>
                                    <path d="M46.6273806,65.0871439 L37.6612516,65.0262309 C37.2022516,65.0229394 36.8304452,64.6449737 36.8337138,64.1858194 L36.8830903,56.8964023 C36.8858323,56.4377966 37.2642194,56.0653166 37.722671,56.0685864 L46.6882516,56.130048 C47.1467032,56.1333394 47.5196065,56.5107566 47.5163377,56.9693623 L47.4664129,64.2587794 C47.4631226,64.7173851 47.0858323,65.0904137 46.6273806,65.0871439" id="Fill-8" fill="#549680"></path>
                                    <path d="M61.6823065,44.2677062 L52.7161774,44.2067931 C52.2577258,44.2035017 51.885371,43.825536 51.8886397,43.3663817 L51.9380161,36.0775131 C51.9413065,35.6183589 52.3191452,35.2464274 52.7781452,35.2491552 L61.7437258,35.3106103 C62.2021774,35.3139017 62.5750806,35.6913189 62.5718119,36.1499246 L62.5218871,43.4393417 C62.5185968,43.898496 62.1413065,44.270976 61.6823065,44.2677062" id="Fill-10" fill="#549680"></path>
                                    <path d="M61.5661032,61.2766022 L52.5999742,61.2156891 C52.1415226,61.2123977 51.7691677,60.834432 51.7724364,60.3752777 L51.8218129,53.0864091 C51.8251032,52.6272549 52.2029419,52.2547749 52.6619419,52.2580446 L61.6269742,52.3195063 C62.0859742,52.3227977 62.4588774,52.7002149 62.4556087,53.1588206 L62.4056839,60.4482377 C62.4023935,60.9068434 62.0245548,61.279872 61.5661032,61.2766022" id="Fill-12" fill="#549680"></path>
                                    <path d="M84.6969065,80.2939063 L49.1175516,93.4212206 L21.2381,80.057472 L10.452971,44.7750034 L25.0181323,15.9272777 L56.7516484,2.23877486 L85.5644548,17.6684434 L99.5439387,47.6769463 L84.6969065,80.2939063 Z M39.6326484,93.0459977 L12.9377129,80.1326263 L2.00287419,44.909952 L16.2143258,14.5070263 L43.6079065,2.15758629 L53.1981,2.15758629 L24.1851323,14.6726949 L23.9383581,14.7780206 L8.99645484,44.3729006 L8.86155161,44.6389577 L20.0119065,81.113472 L45.470229,93.3158949 L39.6326484,93.0459977 Z M86.6985194,16.5943406 L56.8218419,0.594706286 L56.6348419,0.675346286 L43.2892935,0.675346286 L15.1054871,13.3808091 L0.538680645,44.5418606 L0.41693871,44.8018834 L11.7126161,81.1869806 L39.2608419,94.5134263 L48.8971,94.9577691 L49.042971,95.0279863 L85.4997452,81.5775634 L85.7887452,81.470592 L101.17539,47.6687177 L86.6985194,16.5943406 Z" id="Fill-14" fill="#000000"></path>
                                    <g id="Group-18">
                                        <mask id="mask-2" fill="white">
                                            <use xlink:href="#path-1"></use>
                                        </mask>
                                        <g id="Clip-17"></g>
                                        <path d="M39.7302065,92.660352 L43.5700129,92.8375406 L19.6894,81.3921463 L19.6389484,81.2281234 L8.44307742,44.602752 L23.6547871,14.4763063 L24.031529,14.3139291 L51.3094,2.54816914 L43.6917548,2.54816914 L16.5060129,14.8038034 L2.42014194,44.9384777 L13.2595613,79.8555977 L39.7302065,92.660352 Z M47.3703355,93.7942491 L39.4631419,93.397632 L12.6157548,80.4102034 L1.58549677,44.8819749 L15.922529,14.2107977 L43.6078516,1.76864914 L55.0866903,1.76864914 L24.2229161,15.080832 L9.2810129,44.6751634 L20.3354,80.8358949 L47.3703355,93.7942491 Z M21.5610452,79.7804434 L49.1372387,92.998272 L84.4100452,79.9850606 L99.1150452,47.678592 L85.265529,17.9515063 L56.7340452,2.67159771 L25.3021419,16.2300891 L10.8724323,44.8112091 L21.5610452,79.7804434 Z M49.0977548,93.8441691 L48.9496903,93.7728549 L20.9150452,80.3361463 L20.8651419,80.1721234 L10.0350452,44.7398949 L24.7340129,15.6250149 L24.8639806,15.5696091 L56.7702387,1.80650057 L85.8627226,17.3859291 L85.9181097,17.5044206 L99.9738194,47.6753006 L99.8992387,47.8387749 L84.9836581,80.6033006 L84.8317548,80.6598034 L49.0977548,93.8441691 Z M39.3584,94.1277806 L49.0632065,94.6061349 L85.5013355,81.1611977 L100.746497,47.670912 L86.4001419,16.8774034 L56.8036903,1.02752914 L56.6347871,1.06592914 L43.3736903,1.06592914 L15.3971742,13.6775863 L0.834754839,44.8309577 L12.0350129,80.909952 L39.3584,94.1277806 Z M49.0231742,95.4514834 L48.7999806,95.3450606 L39.0913355,94.8650606 L11.3906581,81.4645577 L0.000109677419,44.7728091 L0.186012903,44.3767406 L14.8136903,13.0851291 L43.2897871,0.285312 L56.5541742,0.285312 L56.8404323,0.162432 L86.9973355,16.3118263 L87.0521742,16.4303177 L101.605271,47.6676206 L101.530142,47.8305463 L86.0771419,81.7794377 L85.6351419,81.9434606 L49.0231742,95.4514834 Z" id="Fill-16" fill="#000000" mask="url(#mask-2)"></path>
                                    </g>
                                    <polygon id="Fill-19" fill="#549680" points="39.6327581 93.0460526 12.9372742 80.1326811 2.00298387 44.9100069 16.2144355 14.5070811 43.6080161 2.15764114 53.1976613 2.15764114 24.1852419 14.6727497 23.9384677 14.7780754 8.99656452 44.3724069 8.86166129 44.6390126 20.0120161 81.1135269 45.4703387 93.3159497"></polygon>
                                </g>
                            </g>
                        </g>
                        <g id="illu/token" transform="translate(1239.000000, 668.940886) rotate(-17.000000) translate(-1239.000000, -668.940886) translate(1188.000000, 620.940886)">
                            <g id="Group-22">
                                <polygon id="Fill-1" fill="#75F2BC" points="56.7869645 1.80315429 24.4781903 15.7390629 9.65802903 45.0936686 20.6252226 80.9713371 49.0804806 94.6115657 85.242771 81.2681143 100.35961 48.0586971 86.1322548 17.5175314"></polygon>
                                <g id="Group-21" transform="translate(0.000000, 0.386194)">
                                    <path d="M46.8121323,38.0625405 L37.8460032,38.0016274 C37.3870032,37.998336 37.0151968,37.6203703 37.0184654,37.161216 L37.0678419,29.8717989 C37.0705839,29.4131931 37.448971,29.0407131 37.9074226,29.0439829 L46.8730032,29.1054446 C47.3314548,29.108736 47.7043581,29.4861531 47.7010894,29.9447589 L47.6511645,37.234176 C47.6478742,37.6927817 47.2705839,38.0658103 46.8121323,38.0625405" id="Fill-2" fill="#549680"></path>
                                    <path d="M46.7194548,51.5748422 L37.7533258,51.5139291 C37.2948742,51.5106377 36.9225194,51.132672 36.925788,50.6735177 L36.9751645,43.3841006 C36.9784548,42.9254949 37.3562935,42.5530149 37.8152935,42.5562846 L46.7803258,42.6177463 C47.2393258,42.6210377 47.612229,42.9984549 47.6089603,43.4570606 L47.5590355,50.7464777 C47.5557452,51.2050834 47.1779065,51.578112 46.7194548,51.5748422" id="Fill-4" fill="#549680"></path>
                                    <path d="M75.9494742,51.7751739 L66.9833452,51.7137189 C66.5248935,51.7104274 66.1525387,51.3324617 66.1558074,50.873856 L66.2051839,43.5844389 C66.2084742,43.1252846 66.5863129,42.7533531 67.0453129,42.7566229 L76.0103452,42.817536 C76.4693452,42.8208274 76.8417,43.1982446 76.8389731,43.6573989 L76.7890548,50.9462674 C76.7857645,51.4054217 76.4079258,51.7779017 75.9494742,51.7751739" id="Fill-6" fill="#549680"></path>
                                    <path d="M46.6273806,65.0871439 L37.6612516,65.0262309 C37.2022516,65.0229394 36.8304452,64.6449737 36.8337138,64.1858194 L36.8830903,56.8964023 C36.8858323,56.4377966 37.2642194,56.0653166 37.722671,56.0685864 L46.6882516,56.130048 C47.1467032,56.1333394 47.5196065,56.5107566 47.5163377,56.9693623 L47.4664129,64.2587794 C47.4631226,64.7173851 47.0858323,65.0904137 46.6273806,65.0871439" id="Fill-8" fill="#549680"></path>
                                    <path d="M61.6823065,44.2677062 L52.7161774,44.2067931 C52.2577258,44.2035017 51.885371,43.825536 51.8886397,43.3663817 L51.9380161,36.0775131 C51.9413065,35.6183589 52.3191452,35.2464274 52.7781452,35.2491552 L61.7437258,35.3106103 C62.2021774,35.3139017 62.5750806,35.6913189 62.5718119,36.1499246 L62.5218871,43.4393417 C62.5185968,43.898496 62.1413065,44.270976 61.6823065,44.2677062" id="Fill-10" fill="#549680"></path>
                                    <path d="M61.5661032,61.2766022 L52.5999742,61.2156891 C52.1415226,61.2123977 51.7691677,60.834432 51.7724364,60.3752777 L51.8218129,53.0864091 C51.8251032,52.6272549 52.2029419,52.2547749 52.6619419,52.2580446 L61.6269742,52.3195063 C62.0859742,52.3227977 62.4588774,52.7002149 62.4556087,53.1588206 L62.4056839,60.4482377 C62.4023935,60.9068434 62.0245548,61.279872 61.5661032,61.2766022" id="Fill-12" fill="#549680"></path>
                                    <path d="M84.6969065,80.2939063 L49.1175516,93.4212206 L21.2381,80.057472 L10.452971,44.7750034 L25.0181323,15.9272777 L56.7516484,2.23877486 L85.5644548,17.6684434 L99.5439387,47.6769463 L84.6969065,80.2939063 Z M39.6326484,93.0459977 L12.9377129,80.1326263 L2.00287419,44.909952 L16.2143258,14.5070263 L43.6079065,2.15758629 L53.1981,2.15758629 L24.1851323,14.6726949 L23.9383581,14.7780206 L8.99645484,44.3729006 L8.86155161,44.6389577 L20.0119065,81.113472 L45.470229,93.3158949 L39.6326484,93.0459977 Z M86.6985194,16.5943406 L56.8218419,0.594706286 L56.6348419,0.675346286 L43.2892935,0.675346286 L15.1054871,13.3808091 L0.538680645,44.5418606 L0.41693871,44.8018834 L11.7126161,81.1869806 L39.2608419,94.5134263 L48.8971,94.9577691 L49.042971,95.0279863 L85.4997452,81.5775634 L85.7887452,81.470592 L101.17539,47.6687177 L86.6985194,16.5943406 Z" id="Fill-14" fill="#000000"></path>
                                    <g id="Group-18">
                                        <mask id="mask-4" fill="white">
                                            <use xlink:href="#path-3"></use>
                                        </mask>
                                        <g id="Clip-17"></g>
                                        <path d="M39.7302065,92.660352 L43.5700129,92.8375406 L19.6894,81.3921463 L19.6389484,81.2281234 L8.44307742,44.602752 L23.6547871,14.4763063 L24.031529,14.3139291 L51.3094,2.54816914 L43.6917548,2.54816914 L16.5060129,14.8038034 L2.42014194,44.9384777 L13.2595613,79.8555977 L39.7302065,92.660352 Z M47.3703355,93.7942491 L39.4631419,93.397632 L12.6157548,80.4102034 L1.58549677,44.8819749 L15.922529,14.2107977 L43.6078516,1.76864914 L55.0866903,1.76864914 L24.2229161,15.080832 L9.2810129,44.6751634 L20.3354,80.8358949 L47.3703355,93.7942491 Z M21.5610452,79.7804434 L49.1372387,92.998272 L84.4100452,79.9850606 L99.1150452,47.678592 L85.265529,17.9515063 L56.7340452,2.67159771 L25.3021419,16.2300891 L10.8724323,44.8112091 L21.5610452,79.7804434 Z M49.0977548,93.8441691 L48.9496903,93.7728549 L20.9150452,80.3361463 L20.8651419,80.1721234 L10.0350452,44.7398949 L24.7340129,15.6250149 L24.8639806,15.5696091 L56.7702387,1.80650057 L85.8627226,17.3859291 L85.9181097,17.5044206 L99.9738194,47.6753006 L99.8992387,47.8387749 L84.9836581,80.6033006 L84.8317548,80.6598034 L49.0977548,93.8441691 Z M39.3584,94.1277806 L49.0632065,94.6061349 L85.5013355,81.1611977 L100.746497,47.670912 L86.4001419,16.8774034 L56.8036903,1.02752914 L56.6347871,1.06592914 L43.3736903,1.06592914 L15.3971742,13.6775863 L0.834754839,44.8309577 L12.0350129,80.909952 L39.3584,94.1277806 Z M49.0231742,95.4514834 L48.7999806,95.3450606 L39.0913355,94.8650606 L11.3906581,81.4645577 L0.000109677419,44.7728091 L0.186012903,44.3767406 L14.8136903,13.0851291 L43.2897871,0.285312 L56.5541742,0.285312 L56.8404323,0.162432 L86.9973355,16.3118263 L87.0521742,16.4303177 L101.605271,47.6676206 L101.530142,47.8305463 L86.0771419,81.7794377 L85.6351419,81.9434606 L49.0231742,95.4514834 Z" id="Fill-16" fill="#000000" mask="url(#mask-4)"></path>
                                    </g>
                                    <polygon id="Fill-19" fill="#549680" points="39.6327581 93.0460526 12.9372742 80.1326811 2.00298387 44.9100069 16.2144355 14.5070811 43.6080161 2.15764114 53.1976613 2.15764114 24.1852419 14.6727497 23.9384677 14.7780754 8.99656452 44.3724069 8.86166129 44.6390126 20.0120161 81.1135269 45.4703387 93.3159497"></polygon>
                                </g>
                            </g>
                        </g>
                        <g id="illu/token" transform="translate(1334.000000, 0.000000)">
                            <g id="Group-22">
                                <polygon id="Fill-1" fill="#75F2BC" points="56.7869645 1.80315429 24.4781903 15.7390629 9.65802903 45.0936686 20.6252226 80.9713371 49.0804806 94.6115657 85.242771 81.2681143 100.35961 48.0586971 86.1322548 17.5175314"></polygon>
                                <g id="Group-21" transform="translate(0.000000, 0.386194)">
                                    <path d="M46.8121323,38.0625405 L37.8460032,38.0016274 C37.3870032,37.998336 37.0151968,37.6203703 37.0184654,37.161216 L37.0678419,29.8717989 C37.0705839,29.4131931 37.448971,29.0407131 37.9074226,29.0439829 L46.8730032,29.1054446 C47.3314548,29.108736 47.7043581,29.4861531 47.7010894,29.9447589 L47.6511645,37.234176 C47.6478742,37.6927817 47.2705839,38.0658103 46.8121323,38.0625405" id="Fill-2" fill="#549680"></path>
                                    <path d="M46.7194548,51.5748422 L37.7533258,51.5139291 C37.2948742,51.5106377 36.9225194,51.132672 36.925788,50.6735177 L36.9751645,43.3841006 C36.9784548,42.9254949 37.3562935,42.5530149 37.8152935,42.5562846 L46.7803258,42.6177463 C47.2393258,42.6210377 47.612229,42.9984549 47.6089603,43.4570606 L47.5590355,50.7464777 C47.5557452,51.2050834 47.1779065,51.578112 46.7194548,51.5748422" id="Fill-4" fill="#549680"></path>
                                    <path d="M75.9494742,51.7751739 L66.9833452,51.7137189 C66.5248935,51.7104274 66.1525387,51.3324617 66.1558074,50.873856 L66.2051839,43.5844389 C66.2084742,43.1252846 66.5863129,42.7533531 67.0453129,42.7566229 L76.0103452,42.817536 C76.4693452,42.8208274 76.8417,43.1982446 76.8389731,43.6573989 L76.7890548,50.9462674 C76.7857645,51.4054217 76.4079258,51.7779017 75.9494742,51.7751739" id="Fill-6" fill="#549680"></path>
                                    <path d="M46.6273806,65.0871439 L37.6612516,65.0262309 C37.2022516,65.0229394 36.8304452,64.6449737 36.8337138,64.1858194 L36.8830903,56.8964023 C36.8858323,56.4377966 37.2642194,56.0653166 37.722671,56.0685864 L46.6882516,56.130048 C47.1467032,56.1333394 47.5196065,56.5107566 47.5163377,56.9693623 L47.4664129,64.2587794 C47.4631226,64.7173851 47.0858323,65.0904137 46.6273806,65.0871439" id="Fill-8" fill="#549680"></path>
                                    <path d="M61.6823065,44.2677062 L52.7161774,44.2067931 C52.2577258,44.2035017 51.885371,43.825536 51.8886397,43.3663817 L51.9380161,36.0775131 C51.9413065,35.6183589 52.3191452,35.2464274 52.7781452,35.2491552 L61.7437258,35.3106103 C62.2021774,35.3139017 62.5750806,35.6913189 62.5718119,36.1499246 L62.5218871,43.4393417 C62.5185968,43.898496 62.1413065,44.270976 61.6823065,44.2677062" id="Fill-10" fill="#549680"></path>
                                    <path d="M61.5661032,61.2766022 L52.5999742,61.2156891 C52.1415226,61.2123977 51.7691677,60.834432 51.7724364,60.3752777 L51.8218129,53.0864091 C51.8251032,52.6272549 52.2029419,52.2547749 52.6619419,52.2580446 L61.6269742,52.3195063 C62.0859742,52.3227977 62.4588774,52.7002149 62.4556087,53.1588206 L62.4056839,60.4482377 C62.4023935,60.9068434 62.0245548,61.279872 61.5661032,61.2766022" id="Fill-12" fill="#549680"></path>
                                    <path d="M84.6969065,80.2939063 L49.1175516,93.4212206 L21.2381,80.057472 L10.452971,44.7750034 L25.0181323,15.9272777 L56.7516484,2.23877486 L85.5644548,17.6684434 L99.5439387,47.6769463 L84.6969065,80.2939063 Z M39.6326484,93.0459977 L12.9377129,80.1326263 L2.00287419,44.909952 L16.2143258,14.5070263 L43.6079065,2.15758629 L53.1981,2.15758629 L24.1851323,14.6726949 L23.9383581,14.7780206 L8.99645484,44.3729006 L8.86155161,44.6389577 L20.0119065,81.113472 L45.470229,93.3158949 L39.6326484,93.0459977 Z M86.6985194,16.5943406 L56.8218419,0.594706286 L56.6348419,0.675346286 L43.2892935,0.675346286 L15.1054871,13.3808091 L0.538680645,44.5418606 L0.41693871,44.8018834 L11.7126161,81.1869806 L39.2608419,94.5134263 L48.8971,94.9577691 L49.042971,95.0279863 L85.4997452,81.5775634 L85.7887452,81.470592 L101.17539,47.6687177 L86.6985194,16.5943406 Z" id="Fill-14" fill="#000000"></path>
                                    <g id="Group-18">
                                        <mask id="mask-6" fill="white">
                                            <use xlink:href="#path-5"></use>
                                        </mask>
                                        <g id="Clip-17"></g>
                                        <path d="M39.7302065,92.660352 L43.5700129,92.8375406 L19.6894,81.3921463 L19.6389484,81.2281234 L8.44307742,44.602752 L23.6547871,14.4763063 L24.031529,14.3139291 L51.3094,2.54816914 L43.6917548,2.54816914 L16.5060129,14.8038034 L2.42014194,44.9384777 L13.2595613,79.8555977 L39.7302065,92.660352 Z M47.3703355,93.7942491 L39.4631419,93.397632 L12.6157548,80.4102034 L1.58549677,44.8819749 L15.922529,14.2107977 L43.6078516,1.76864914 L55.0866903,1.76864914 L24.2229161,15.080832 L9.2810129,44.6751634 L20.3354,80.8358949 L47.3703355,93.7942491 Z M21.5610452,79.7804434 L49.1372387,92.998272 L84.4100452,79.9850606 L99.1150452,47.678592 L85.265529,17.9515063 L56.7340452,2.67159771 L25.3021419,16.2300891 L10.8724323,44.8112091 L21.5610452,79.7804434 Z M49.0977548,93.8441691 L48.9496903,93.7728549 L20.9150452,80.3361463 L20.8651419,80.1721234 L10.0350452,44.7398949 L24.7340129,15.6250149 L24.8639806,15.5696091 L56.7702387,1.80650057 L85.8627226,17.3859291 L85.9181097,17.5044206 L99.9738194,47.6753006 L99.8992387,47.8387749 L84.9836581,80.6033006 L84.8317548,80.6598034 L49.0977548,93.8441691 Z M39.3584,94.1277806 L49.0632065,94.6061349 L85.5013355,81.1611977 L100.746497,47.670912 L86.4001419,16.8774034 L56.8036903,1.02752914 L56.6347871,1.06592914 L43.3736903,1.06592914 L15.3971742,13.6775863 L0.834754839,44.8309577 L12.0350129,80.909952 L39.3584,94.1277806 Z M49.0231742,95.4514834 L48.7999806,95.3450606 L39.0913355,94.8650606 L11.3906581,81.4645577 L0.000109677419,44.7728091 L0.186012903,44.3767406 L14.8136903,13.0851291 L43.2897871,0.285312 L56.5541742,0.285312 L56.8404323,0.162432 L86.9973355,16.3118263 L87.0521742,16.4303177 L101.605271,47.6676206 L101.530142,47.8305463 L86.0771419,81.7794377 L85.6351419,81.9434606 L49.0231742,95.4514834 Z" id="Fill-16" fill="#000000" mask="url(#mask-6)"></path>
                                    </g>
                                    <polygon id="Fill-19" fill="#549680" points="39.6327581 93.0460526 12.9372742 80.1326811 2.00298387 44.9100069 16.2144355 14.5070811 43.6080161 2.15764114 53.1976613 2.15764114 24.1852419 14.6727497 23.9384677 14.7780754 8.99656452 44.3724069 8.86166129 44.6390126 20.0120161 81.1135269 45.4703387 93.3159497"></polygon>
                                </g>
                            </g>
                        </g>
                        <g id="illu/token" transform="translate(1410.000000, 773.000000)">
                            <g id="Group-22">
                                <polygon id="Fill-1" fill="#75F2BC" points="56.7869645 1.80315429 24.4781903 15.7390629 9.65802903 45.0936686 20.6252226 80.9713371 49.0804806 94.6115657 85.242771 81.2681143 100.35961 48.0586971 86.1322548 17.5175314"></polygon>
                                <g id="Group-21" transform="translate(0.000000, 0.386194)">
                                    <path d="M46.8121323,38.0625405 L37.8460032,38.0016274 C37.3870032,37.998336 37.0151968,37.6203703 37.0184654,37.161216 L37.0678419,29.8717989 C37.0705839,29.4131931 37.448971,29.0407131 37.9074226,29.0439829 L46.8730032,29.1054446 C47.3314548,29.108736 47.7043581,29.4861531 47.7010894,29.9447589 L47.6511645,37.234176 C47.6478742,37.6927817 47.2705839,38.0658103 46.8121323,38.0625405" id="Fill-2" fill="#549680"></path>
                                    <path d="M46.7194548,51.5748422 L37.7533258,51.5139291 C37.2948742,51.5106377 36.9225194,51.132672 36.925788,50.6735177 L36.9751645,43.3841006 C36.9784548,42.9254949 37.3562935,42.5530149 37.8152935,42.5562846 L46.7803258,42.6177463 C47.2393258,42.6210377 47.612229,42.9984549 47.6089603,43.4570606 L47.5590355,50.7464777 C47.5557452,51.2050834 47.1779065,51.578112 46.7194548,51.5748422" id="Fill-4" fill="#549680"></path>
                                    <path d="M75.9494742,51.7751739 L66.9833452,51.7137189 C66.5248935,51.7104274 66.1525387,51.3324617 66.1558074,50.873856 L66.2051839,43.5844389 C66.2084742,43.1252846 66.5863129,42.7533531 67.0453129,42.7566229 L76.0103452,42.817536 C76.4693452,42.8208274 76.8417,43.1982446 76.8389731,43.6573989 L76.7890548,50.9462674 C76.7857645,51.4054217 76.4079258,51.7779017 75.9494742,51.7751739" id="Fill-6" fill="#549680"></path>
                                    <path d="M46.6273806,65.0871439 L37.6612516,65.0262309 C37.2022516,65.0229394 36.8304452,64.6449737 36.8337138,64.1858194 L36.8830903,56.8964023 C36.8858323,56.4377966 37.2642194,56.0653166 37.722671,56.0685864 L46.6882516,56.130048 C47.1467032,56.1333394 47.5196065,56.5107566 47.5163377,56.9693623 L47.4664129,64.2587794 C47.4631226,64.7173851 47.0858323,65.0904137 46.6273806,65.0871439" id="Fill-8" fill="#549680"></path>
                                    <path d="M61.6823065,44.2677062 L52.7161774,44.2067931 C52.2577258,44.2035017 51.885371,43.825536 51.8886397,43.3663817 L51.9380161,36.0775131 C51.9413065,35.6183589 52.3191452,35.2464274 52.7781452,35.2491552 L61.7437258,35.3106103 C62.2021774,35.3139017 62.5750806,35.6913189 62.5718119,36.1499246 L62.5218871,43.4393417 C62.5185968,43.898496 62.1413065,44.270976 61.6823065,44.2677062" id="Fill-10" fill="#549680"></path>
                                    <path d="M61.5661032,61.2766022 L52.5999742,61.2156891 C52.1415226,61.2123977 51.7691677,60.834432 51.7724364,60.3752777 L51.8218129,53.0864091 C51.8251032,52.6272549 52.2029419,52.2547749 52.6619419,52.2580446 L61.6269742,52.3195063 C62.0859742,52.3227977 62.4588774,52.7002149 62.4556087,53.1588206 L62.4056839,60.4482377 C62.4023935,60.9068434 62.0245548,61.279872 61.5661032,61.2766022" id="Fill-12" fill="#549680"></path>
                                    <path d="M84.6969065,80.2939063 L49.1175516,93.4212206 L21.2381,80.057472 L10.452971,44.7750034 L25.0181323,15.9272777 L56.7516484,2.23877486 L85.5644548,17.6684434 L99.5439387,47.6769463 L84.6969065,80.2939063 Z M39.6326484,93.0459977 L12.9377129,80.1326263 L2.00287419,44.909952 L16.2143258,14.5070263 L43.6079065,2.15758629 L53.1981,2.15758629 L24.1851323,14.6726949 L23.9383581,14.7780206 L8.99645484,44.3729006 L8.86155161,44.6389577 L20.0119065,81.113472 L45.470229,93.3158949 L39.6326484,93.0459977 Z M86.6985194,16.5943406 L56.8218419,0.594706286 L56.6348419,0.675346286 L43.2892935,0.675346286 L15.1054871,13.3808091 L0.538680645,44.5418606 L0.41693871,44.8018834 L11.7126161,81.1869806 L39.2608419,94.5134263 L48.8971,94.9577691 L49.042971,95.0279863 L85.4997452,81.5775634 L85.7887452,81.470592 L101.17539,47.6687177 L86.6985194,16.5943406 Z" id="Fill-14" fill="#000000"></path>
                                    <g id="Group-18">
                                        <mask id="mask-8" fill="white">
                                            <use xlink:href="#path-7"></use>
                                        </mask>
                                        <g id="Clip-17"></g>
                                        <path d="M39.7302065,92.660352 L43.5700129,92.8375406 L19.6894,81.3921463 L19.6389484,81.2281234 L8.44307742,44.602752 L23.6547871,14.4763063 L24.031529,14.3139291 L51.3094,2.54816914 L43.6917548,2.54816914 L16.5060129,14.8038034 L2.42014194,44.9384777 L13.2595613,79.8555977 L39.7302065,92.660352 Z M47.3703355,93.7942491 L39.4631419,93.397632 L12.6157548,80.4102034 L1.58549677,44.8819749 L15.922529,14.2107977 L43.6078516,1.76864914 L55.0866903,1.76864914 L24.2229161,15.080832 L9.2810129,44.6751634 L20.3354,80.8358949 L47.3703355,93.7942491 Z M21.5610452,79.7804434 L49.1372387,92.998272 L84.4100452,79.9850606 L99.1150452,47.678592 L85.265529,17.9515063 L56.7340452,2.67159771 L25.3021419,16.2300891 L10.8724323,44.8112091 L21.5610452,79.7804434 Z M49.0977548,93.8441691 L48.9496903,93.7728549 L20.9150452,80.3361463 L20.8651419,80.1721234 L10.0350452,44.7398949 L24.7340129,15.6250149 L24.8639806,15.5696091 L56.7702387,1.80650057 L85.8627226,17.3859291 L85.9181097,17.5044206 L99.9738194,47.6753006 L99.8992387,47.8387749 L84.9836581,80.6033006 L84.8317548,80.6598034 L49.0977548,93.8441691 Z M39.3584,94.1277806 L49.0632065,94.6061349 L85.5013355,81.1611977 L100.746497,47.670912 L86.4001419,16.8774034 L56.8036903,1.02752914 L56.6347871,1.06592914 L43.3736903,1.06592914 L15.3971742,13.6775863 L0.834754839,44.8309577 L12.0350129,80.909952 L39.3584,94.1277806 Z M49.0231742,95.4514834 L48.7999806,95.3450606 L39.0913355,94.8650606 L11.3906581,81.4645577 L0.000109677419,44.7728091 L0.186012903,44.3767406 L14.8136903,13.0851291 L43.2897871,0.285312 L56.5541742,0.285312 L56.8404323,0.162432 L86.9973355,16.3118263 L87.0521742,16.4303177 L101.605271,47.6676206 L101.530142,47.8305463 L86.0771419,81.7794377 L85.6351419,81.9434606 L49.0231742,95.4514834 Z" id="Fill-16" fill="#000000" mask="url(#mask-8)"></path>
                                    </g>
                                    <polygon id="Fill-19" fill="#549680" points="39.6327581 93.0460526 12.9372742 80.1326811 2.00298387 44.9100069 16.2144355 14.5070811 43.6080161 2.15764114 53.1976613 2.15764114 24.1852419 14.6727497 23.9384677 14.7780754 8.99656452 44.3724069 8.86166129 44.6390126 20.0120161 81.1135269 45.4703387 93.3159497"></polygon>
                                </g>
                            </g>
                        </g>
                        <g id="illu/token" transform="translate(170.000000, 601.940886) rotate(30.000000) translate(-170.000000, -601.940886) translate(119.000000, 553.940886)">
                            <g id="Group-22">
                                <polygon id="Fill-1" fill="#75F2BC" points="56.7869645 1.80315429 24.4781903 15.7390629 9.65802903 45.0936686 20.6252226 80.9713371 49.0804806 94.6115657 85.242771 81.2681143 100.35961 48.0586971 86.1322548 17.5175314"></polygon>
                                <g id="Group-21" transform="translate(0.000000, 0.386194)">
                                    <path d="M46.8121323,38.0625405 L37.8460032,38.0016274 C37.3870032,37.998336 37.0151968,37.6203703 37.0184654,37.161216 L37.0678419,29.8717989 C37.0705839,29.4131931 37.448971,29.0407131 37.9074226,29.0439829 L46.8730032,29.1054446 C47.3314548,29.108736 47.7043581,29.4861531 47.7010894,29.9447589 L47.6511645,37.234176 C47.6478742,37.6927817 47.2705839,38.0658103 46.8121323,38.0625405" id="Fill-2" fill="#549680"></path>
                                    <path d="M46.7194548,51.5748422 L37.7533258,51.5139291 C37.2948742,51.5106377 36.9225194,51.132672 36.925788,50.6735177 L36.9751645,43.3841006 C36.9784548,42.9254949 37.3562935,42.5530149 37.8152935,42.5562846 L46.7803258,42.6177463 C47.2393258,42.6210377 47.612229,42.9984549 47.6089603,43.4570606 L47.5590355,50.7464777 C47.5557452,51.2050834 47.1779065,51.578112 46.7194548,51.5748422" id="Fill-4" fill="#549680"></path>
                                    <path d="M75.9494742,51.7751739 L66.9833452,51.7137189 C66.5248935,51.7104274 66.1525387,51.3324617 66.1558074,50.873856 L66.2051839,43.5844389 C66.2084742,43.1252846 66.5863129,42.7533531 67.0453129,42.7566229 L76.0103452,42.817536 C76.4693452,42.8208274 76.8417,43.1982446 76.8389731,43.6573989 L76.7890548,50.9462674 C76.7857645,51.4054217 76.4079258,51.7779017 75.9494742,51.7751739" id="Fill-6" fill="#549680"></path>
                                    <path d="M46.6273806,65.0871439 L37.6612516,65.0262309 C37.2022516,65.0229394 36.8304452,64.6449737 36.8337138,64.1858194 L36.8830903,56.8964023 C36.8858323,56.4377966 37.2642194,56.0653166 37.722671,56.0685864 L46.6882516,56.130048 C47.1467032,56.1333394 47.5196065,56.5107566 47.5163377,56.9693623 L47.4664129,64.2587794 C47.4631226,64.7173851 47.0858323,65.0904137 46.6273806,65.0871439" id="Fill-8" fill="#549680"></path>
                                    <path d="M61.6823065,44.2677062 L52.7161774,44.2067931 C52.2577258,44.2035017 51.885371,43.825536 51.8886397,43.3663817 L51.9380161,36.0775131 C51.9413065,35.6183589 52.3191452,35.2464274 52.7781452,35.2491552 L61.7437258,35.3106103 C62.2021774,35.3139017 62.5750806,35.6913189 62.5718119,36.1499246 L62.5218871,43.4393417 C62.5185968,43.898496 62.1413065,44.270976 61.6823065,44.2677062" id="Fill-10" fill="#549680"></path>
                                    <path d="M61.5661032,61.2766022 L52.5999742,61.2156891 C52.1415226,61.2123977 51.7691677,60.834432 51.7724364,60.3752777 L51.8218129,53.0864091 C51.8251032,52.6272549 52.2029419,52.2547749 52.6619419,52.2580446 L61.6269742,52.3195063 C62.0859742,52.3227977 62.4588774,52.7002149 62.4556087,53.1588206 L62.4056839,60.4482377 C62.4023935,60.9068434 62.0245548,61.279872 61.5661032,61.2766022" id="Fill-12" fill="#549680"></path>
                                    <path d="M84.6969065,80.2939063 L49.1175516,93.4212206 L21.2381,80.057472 L10.452971,44.7750034 L25.0181323,15.9272777 L56.7516484,2.23877486 L85.5644548,17.6684434 L99.5439387,47.6769463 L84.6969065,80.2939063 Z M39.6326484,93.0459977 L12.9377129,80.1326263 L2.00287419,44.909952 L16.2143258,14.5070263 L43.6079065,2.15758629 L53.1981,2.15758629 L24.1851323,14.6726949 L23.9383581,14.7780206 L8.99645484,44.3729006 L8.86155161,44.6389577 L20.0119065,81.113472 L45.470229,93.3158949 L39.6326484,93.0459977 Z M86.6985194,16.5943406 L56.8218419,0.594706286 L56.6348419,0.675346286 L43.2892935,0.675346286 L15.1054871,13.3808091 L0.538680645,44.5418606 L0.41693871,44.8018834 L11.7126161,81.1869806 L39.2608419,94.5134263 L48.8971,94.9577691 L49.042971,95.0279863 L85.4997452,81.5775634 L85.7887452,81.470592 L101.17539,47.6687177 L86.6985194,16.5943406 Z" id="Fill-14" fill="#000000"></path>
                                    <g id="Group-18">
                                        <mask id="mask-10" fill="white">
                                            <use xlink:href="#path-9"></use>
                                        </mask>
                                        <g id="Clip-17"></g>
                                        <path d="M39.7302065,92.660352 L43.5700129,92.8375406 L19.6894,81.3921463 L19.6389484,81.2281234 L8.44307742,44.602752 L23.6547871,14.4763063 L24.031529,14.3139291 L51.3094,2.54816914 L43.6917548,2.54816914 L16.5060129,14.8038034 L2.42014194,44.9384777 L13.2595613,79.8555977 L39.7302065,92.660352 Z M47.3703355,93.7942491 L39.4631419,93.397632 L12.6157548,80.4102034 L1.58549677,44.8819749 L15.922529,14.2107977 L43.6078516,1.76864914 L55.0866903,1.76864914 L24.2229161,15.080832 L9.2810129,44.6751634 L20.3354,80.8358949 L47.3703355,93.7942491 Z M21.5610452,79.7804434 L49.1372387,92.998272 L84.4100452,79.9850606 L99.1150452,47.678592 L85.265529,17.9515063 L56.7340452,2.67159771 L25.3021419,16.2300891 L10.8724323,44.8112091 L21.5610452,79.7804434 Z M49.0977548,93.8441691 L48.9496903,93.7728549 L20.9150452,80.3361463 L20.8651419,80.1721234 L10.0350452,44.7398949 L24.7340129,15.6250149 L24.8639806,15.5696091 L56.7702387,1.80650057 L85.8627226,17.3859291 L85.9181097,17.5044206 L99.9738194,47.6753006 L99.8992387,47.8387749 L84.9836581,80.6033006 L84.8317548,80.6598034 L49.0977548,93.8441691 Z M39.3584,94.1277806 L49.0632065,94.6061349 L85.5013355,81.1611977 L100.746497,47.670912 L86.4001419,16.8774034 L56.8036903,1.02752914 L56.6347871,1.06592914 L43.3736903,1.06592914 L15.3971742,13.6775863 L0.834754839,44.8309577 L12.0350129,80.909952 L39.3584,94.1277806 Z M49.0231742,95.4514834 L48.7999806,95.3450606 L39.0913355,94.8650606 L11.3906581,81.4645577 L0.000109677419,44.7728091 L0.186012903,44.3767406 L14.8136903,13.0851291 L43.2897871,0.285312 L56.5541742,0.285312 L56.8404323,0.162432 L86.9973355,16.3118263 L87.0521742,16.4303177 L101.605271,47.6676206 L101.530142,47.8305463 L86.0771419,81.7794377 L85.6351419,81.9434606 L49.0231742,95.4514834 Z" id="Fill-16" fill="#000000" mask="url(#mask-10)"></path>
                                    </g>
                                    <polygon id="Fill-19" fill="#549680" points="39.6327581 93.0460526 12.9372742 80.1326811 2.00298387 44.9100069 16.2144355 14.5070811 43.6080161 2.15764114 53.1976613 2.15764114 24.1852419 14.6727497 23.9384677 14.7780754 8.99656452 44.3724069 8.86166129 44.6390126 20.0120161 81.1135269 45.4703387 93.3159497"></polygon>
                                </g>
                            </g>
                        </g>
                        <g id="illu/token" transform="translate(1461.000000, 255.940886) rotate(30.000000) translate(-1461.000000, -255.940886) translate(1410.000000, 207.940886)">
                            <g id="Group-22">
                                <polygon id="Fill-1" fill="#75F2BC" points="56.7869645 1.80315429 24.4781903 15.7390629 9.65802903 45.0936686 20.6252226 80.9713371 49.0804806 94.6115657 85.242771 81.2681143 100.35961 48.0586971 86.1322548 17.5175314"></polygon>
                                <g id="Group-21" transform="translate(0.000000, 0.386194)">
                                    <path d="M46.8121323,38.0625405 L37.8460032,38.0016274 C37.3870032,37.998336 37.0151968,37.6203703 37.0184654,37.161216 L37.0678419,29.8717989 C37.0705839,29.4131931 37.448971,29.0407131 37.9074226,29.0439829 L46.8730032,29.1054446 C47.3314548,29.108736 47.7043581,29.4861531 47.7010894,29.9447589 L47.6511645,37.234176 C47.6478742,37.6927817 47.2705839,38.0658103 46.8121323,38.0625405" id="Fill-2" fill="#549680"></path>
                                    <path d="M46.7194548,51.5748422 L37.7533258,51.5139291 C37.2948742,51.5106377 36.9225194,51.132672 36.925788,50.6735177 L36.9751645,43.3841006 C36.9784548,42.9254949 37.3562935,42.5530149 37.8152935,42.5562846 L46.7803258,42.6177463 C47.2393258,42.6210377 47.612229,42.9984549 47.6089603,43.4570606 L47.5590355,50.7464777 C47.5557452,51.2050834 47.1779065,51.578112 46.7194548,51.5748422" id="Fill-4" fill="#549680"></path>
                                    <path d="M75.9494742,51.7751739 L66.9833452,51.7137189 C66.5248935,51.7104274 66.1525387,51.3324617 66.1558074,50.873856 L66.2051839,43.5844389 C66.2084742,43.1252846 66.5863129,42.7533531 67.0453129,42.7566229 L76.0103452,42.817536 C76.4693452,42.8208274 76.8417,43.1982446 76.8389731,43.6573989 L76.7890548,50.9462674 C76.7857645,51.4054217 76.4079258,51.7779017 75.9494742,51.7751739" id="Fill-6" fill="#549680"></path>
                                    <path d="M46.6273806,65.0871439 L37.6612516,65.0262309 C37.2022516,65.0229394 36.8304452,64.6449737 36.8337138,64.1858194 L36.8830903,56.8964023 C36.8858323,56.4377966 37.2642194,56.0653166 37.722671,56.0685864 L46.6882516,56.130048 C47.1467032,56.1333394 47.5196065,56.5107566 47.5163377,56.9693623 L47.4664129,64.2587794 C47.4631226,64.7173851 47.0858323,65.0904137 46.6273806,65.0871439" id="Fill-8" fill="#549680"></path>
                                    <path d="M61.6823065,44.2677062 L52.7161774,44.2067931 C52.2577258,44.2035017 51.885371,43.825536 51.8886397,43.3663817 L51.9380161,36.0775131 C51.9413065,35.6183589 52.3191452,35.2464274 52.7781452,35.2491552 L61.7437258,35.3106103 C62.2021774,35.3139017 62.5750806,35.6913189 62.5718119,36.1499246 L62.5218871,43.4393417 C62.5185968,43.898496 62.1413065,44.270976 61.6823065,44.2677062" id="Fill-10" fill="#549680"></path>
                                    <path d="M61.5661032,61.2766022 L52.5999742,61.2156891 C52.1415226,61.2123977 51.7691677,60.834432 51.7724364,60.3752777 L51.8218129,53.0864091 C51.8251032,52.6272549 52.2029419,52.2547749 52.6619419,52.2580446 L61.6269742,52.3195063 C62.0859742,52.3227977 62.4588774,52.7002149 62.4556087,53.1588206 L62.4056839,60.4482377 C62.4023935,60.9068434 62.0245548,61.279872 61.5661032,61.2766022" id="Fill-12" fill="#549680"></path>
                                    <path d="M84.6969065,80.2939063 L49.1175516,93.4212206 L21.2381,80.057472 L10.452971,44.7750034 L25.0181323,15.9272777 L56.7516484,2.23877486 L85.5644548,17.6684434 L99.5439387,47.6769463 L84.6969065,80.2939063 Z M39.6326484,93.0459977 L12.9377129,80.1326263 L2.00287419,44.909952 L16.2143258,14.5070263 L43.6079065,2.15758629 L53.1981,2.15758629 L24.1851323,14.6726949 L23.9383581,14.7780206 L8.99645484,44.3729006 L8.86155161,44.6389577 L20.0119065,81.113472 L45.470229,93.3158949 L39.6326484,93.0459977 Z M86.6985194,16.5943406 L56.8218419,0.594706286 L56.6348419,0.675346286 L43.2892935,0.675346286 L15.1054871,13.3808091 L0.538680645,44.5418606 L0.41693871,44.8018834 L11.7126161,81.1869806 L39.2608419,94.5134263 L48.8971,94.9577691 L49.042971,95.0279863 L85.4997452,81.5775634 L85.7887452,81.470592 L101.17539,47.6687177 L86.6985194,16.5943406 Z" id="Fill-14" fill="#000000"></path>
                                    <g id="Group-18">
                                        <mask id="mask-12" fill="white">
                                            <use xlink:href="#path-11"></use>
                                        </mask>
                                        <g id="Clip-17"></g>
                                        <path d="M39.7302065,92.660352 L43.5700129,92.8375406 L19.6894,81.3921463 L19.6389484,81.2281234 L8.44307742,44.602752 L23.6547871,14.4763063 L24.031529,14.3139291 L51.3094,2.54816914 L43.6917548,2.54816914 L16.5060129,14.8038034 L2.42014194,44.9384777 L13.2595613,79.8555977 L39.7302065,92.660352 Z M47.3703355,93.7942491 L39.4631419,93.397632 L12.6157548,80.4102034 L1.58549677,44.8819749 L15.922529,14.2107977 L43.6078516,1.76864914 L55.0866903,1.76864914 L24.2229161,15.080832 L9.2810129,44.6751634 L20.3354,80.8358949 L47.3703355,93.7942491 Z M21.5610452,79.7804434 L49.1372387,92.998272 L84.4100452,79.9850606 L99.1150452,47.678592 L85.265529,17.9515063 L56.7340452,2.67159771 L25.3021419,16.2300891 L10.8724323,44.8112091 L21.5610452,79.7804434 Z M49.0977548,93.8441691 L48.9496903,93.7728549 L20.9150452,80.3361463 L20.8651419,80.1721234 L10.0350452,44.7398949 L24.7340129,15.6250149 L24.8639806,15.5696091 L56.7702387,1.80650057 L85.8627226,17.3859291 L85.9181097,17.5044206 L99.9738194,47.6753006 L99.8992387,47.8387749 L84.9836581,80.6033006 L84.8317548,80.6598034 L49.0977548,93.8441691 Z M39.3584,94.1277806 L49.0632065,94.6061349 L85.5013355,81.1611977 L100.746497,47.670912 L86.4001419,16.8774034 L56.8036903,1.02752914 L56.6347871,1.06592914 L43.3736903,1.06592914 L15.3971742,13.6775863 L0.834754839,44.8309577 L12.0350129,80.909952 L39.3584,94.1277806 Z M49.0231742,95.4514834 L48.7999806,95.3450606 L39.0913355,94.8650606 L11.3906581,81.4645577 L0.000109677419,44.7728091 L0.186012903,44.3767406 L14.8136903,13.0851291 L43.2897871,0.285312 L56.5541742,0.285312 L56.8404323,0.162432 L86.9973355,16.3118263 L87.0521742,16.4303177 L101.605271,47.6676206 L101.530142,47.8305463 L86.0771419,81.7794377 L85.6351419,81.9434606 L49.0231742,95.4514834 Z" id="Fill-16" fill="#000000" mask="url(#mask-12)"></path>
                                    </g>
                                    <polygon id="Fill-19" fill="#549680" points="39.6327581 93.0460526 12.9372742 80.1326811 2.00298387 44.9100069 16.2144355 14.5070811 43.6080161 2.15764114 53.1976613 2.15764114 24.1852419 14.6727497 23.9384677 14.7780754 8.99656452 44.3724069 8.86166129 44.6390126 20.0120161 81.1135269 45.4703387 93.3159497"></polygon>
                                </g>
                            </g>
                        </g>
                        <g id="illu/token" transform="translate(67.000000, 318.940886) rotate(-25.000000) translate(-67.000000, -318.940886) translate(16.000000, 270.940886)">
                            <g id="Group-22">
                                <polygon id="Fill-1" fill="#75F2BC" points="56.7869645 1.80315429 24.4781903 15.7390629 9.65802903 45.0936686 20.6252226 80.9713371 49.0804806 94.6115657 85.242771 81.2681143 100.35961 48.0586971 86.1322548 17.5175314"></polygon>
                                <g id="Group-21" transform="translate(0.000000, 0.386194)">
                                    <path d="M46.8121323,38.0625405 L37.8460032,38.0016274 C37.3870032,37.998336 37.0151968,37.6203703 37.0184654,37.161216 L37.0678419,29.8717989 C37.0705839,29.4131931 37.448971,29.0407131 37.9074226,29.0439829 L46.8730032,29.1054446 C47.3314548,29.108736 47.7043581,29.4861531 47.7010894,29.9447589 L47.6511645,37.234176 C47.6478742,37.6927817 47.2705839,38.0658103 46.8121323,38.0625405" id="Fill-2" fill="#549680"></path>
                                    <path d="M46.7194548,51.5748422 L37.7533258,51.5139291 C37.2948742,51.5106377 36.9225194,51.132672 36.925788,50.6735177 L36.9751645,43.3841006 C36.9784548,42.9254949 37.3562935,42.5530149 37.8152935,42.5562846 L46.7803258,42.6177463 C47.2393258,42.6210377 47.612229,42.9984549 47.6089603,43.4570606 L47.5590355,50.7464777 C47.5557452,51.2050834 47.1779065,51.578112 46.7194548,51.5748422" id="Fill-4" fill="#549680"></path>
                                    <path d="M75.9494742,51.7751739 L66.9833452,51.7137189 C66.5248935,51.7104274 66.1525387,51.3324617 66.1558074,50.873856 L66.2051839,43.5844389 C66.2084742,43.1252846 66.5863129,42.7533531 67.0453129,42.7566229 L76.0103452,42.817536 C76.4693452,42.8208274 76.8417,43.1982446 76.8389731,43.6573989 L76.7890548,50.9462674 C76.7857645,51.4054217 76.4079258,51.7779017 75.9494742,51.7751739" id="Fill-6" fill="#549680"></path>
                                    <path d="M46.6273806,65.0871439 L37.6612516,65.0262309 C37.2022516,65.0229394 36.8304452,64.6449737 36.8337138,64.1858194 L36.8830903,56.8964023 C36.8858323,56.4377966 37.2642194,56.0653166 37.722671,56.0685864 L46.6882516,56.130048 C47.1467032,56.1333394 47.5196065,56.5107566 47.5163377,56.9693623 L47.4664129,64.2587794 C47.4631226,64.7173851 47.0858323,65.0904137 46.6273806,65.0871439" id="Fill-8" fill="#549680"></path>
                                    <path d="M61.6823065,44.2677062 L52.7161774,44.2067931 C52.2577258,44.2035017 51.885371,43.825536 51.8886397,43.3663817 L51.9380161,36.0775131 C51.9413065,35.6183589 52.3191452,35.2464274 52.7781452,35.2491552 L61.7437258,35.3106103 C62.2021774,35.3139017 62.5750806,35.6913189 62.5718119,36.1499246 L62.5218871,43.4393417 C62.5185968,43.898496 62.1413065,44.270976 61.6823065,44.2677062" id="Fill-10" fill="#549680"></path>
                                    <path d="M61.5661032,61.2766022 L52.5999742,61.2156891 C52.1415226,61.2123977 51.7691677,60.834432 51.7724364,60.3752777 L51.8218129,53.0864091 C51.8251032,52.6272549 52.2029419,52.2547749 52.6619419,52.2580446 L61.6269742,52.3195063 C62.0859742,52.3227977 62.4588774,52.7002149 62.4556087,53.1588206 L62.4056839,60.4482377 C62.4023935,60.9068434 62.0245548,61.279872 61.5661032,61.2766022" id="Fill-12" fill="#549680"></path>
                                    <path d="M84.6969065,80.2939063 L49.1175516,93.4212206 L21.2381,80.057472 L10.452971,44.7750034 L25.0181323,15.9272777 L56.7516484,2.23877486 L85.5644548,17.6684434 L99.5439387,47.6769463 L84.6969065,80.2939063 Z M39.6326484,93.0459977 L12.9377129,80.1326263 L2.00287419,44.909952 L16.2143258,14.5070263 L43.6079065,2.15758629 L53.1981,2.15758629 L24.1851323,14.6726949 L23.9383581,14.7780206 L8.99645484,44.3729006 L8.86155161,44.6389577 L20.0119065,81.113472 L45.470229,93.3158949 L39.6326484,93.0459977 Z M86.6985194,16.5943406 L56.8218419,0.594706286 L56.6348419,0.675346286 L43.2892935,0.675346286 L15.1054871,13.3808091 L0.538680645,44.5418606 L0.41693871,44.8018834 L11.7126161,81.1869806 L39.2608419,94.5134263 L48.8971,94.9577691 L49.042971,95.0279863 L85.4997452,81.5775634 L85.7887452,81.470592 L101.17539,47.6687177 L86.6985194,16.5943406 Z" id="Fill-14" fill="#000000"></path>
                                    <g id="Group-18">
                                        <mask id="mask-14" fill="white">
                                            <use xlink:href="#path-13"></use>
                                        </mask>
                                        <g id="Clip-17"></g>
                                        <path d="M39.7302065,92.660352 L43.5700129,92.8375406 L19.6894,81.3921463 L19.6389484,81.2281234 L8.44307742,44.602752 L23.6547871,14.4763063 L24.031529,14.3139291 L51.3094,2.54816914 L43.6917548,2.54816914 L16.5060129,14.8038034 L2.42014194,44.9384777 L13.2595613,79.8555977 L39.7302065,92.660352 Z M47.3703355,93.7942491 L39.4631419,93.397632 L12.6157548,80.4102034 L1.58549677,44.8819749 L15.922529,14.2107977 L43.6078516,1.76864914 L55.0866903,1.76864914 L24.2229161,15.080832 L9.2810129,44.6751634 L20.3354,80.8358949 L47.3703355,93.7942491 Z M21.5610452,79.7804434 L49.1372387,92.998272 L84.4100452,79.9850606 L99.1150452,47.678592 L85.265529,17.9515063 L56.7340452,2.67159771 L25.3021419,16.2300891 L10.8724323,44.8112091 L21.5610452,79.7804434 Z M49.0977548,93.8441691 L48.9496903,93.7728549 L20.9150452,80.3361463 L20.8651419,80.1721234 L10.0350452,44.7398949 L24.7340129,15.6250149 L24.8639806,15.5696091 L56.7702387,1.80650057 L85.8627226,17.3859291 L85.9181097,17.5044206 L99.9738194,47.6753006 L99.8992387,47.8387749 L84.9836581,80.6033006 L84.8317548,80.6598034 L49.0977548,93.8441691 Z M39.3584,94.1277806 L49.0632065,94.6061349 L85.5013355,81.1611977 L100.746497,47.670912 L86.4001419,16.8774034 L56.8036903,1.02752914 L56.6347871,1.06592914 L43.3736903,1.06592914 L15.3971742,13.6775863 L0.834754839,44.8309577 L12.0350129,80.909952 L39.3584,94.1277806 Z M49.0231742,95.4514834 L48.7999806,95.3450606 L39.0913355,94.8650606 L11.3906581,81.4645577 L0.000109677419,44.7728091 L0.186012903,44.3767406 L14.8136903,13.0851291 L43.2897871,0.285312 L56.5541742,0.285312 L56.8404323,0.162432 L86.9973355,16.3118263 L87.0521742,16.4303177 L101.605271,47.6676206 L101.530142,47.8305463 L86.0771419,81.7794377 L85.6351419,81.9434606 L49.0231742,95.4514834 Z" id="Fill-16" fill="#000000" mask="url(#mask-14)"></path>
                                    </g>
                                    <polygon id="Fill-19" fill="#549680" points="39.6327581 93.0460526 12.9372742 80.1326811 2.00298387 44.9100069 16.2144355 14.5070811 43.6080161 2.15764114 53.1976613 2.15764114 24.1852419 14.6727497 23.9384677 14.7780754 8.99656452 44.3724069 8.86166129 44.6390126 20.0120161 81.1135269 45.4703387 93.3159497"></polygon>
                                </g>
                            </g>
                        </g>
                    </g>
                </g>
            </g>
        </g>
    </g>
</svg>