<?xml version="1.0" encoding="UTF-8"?>
<svg width="99px" height="99px" viewBox="0 0 99 99" version="1.1" xmlns="http://www.w3.org/2000/svg" xmlns:xlink="http://www.w3.org/1999/xlink">
    <!-- Generator: Sketch 56.2 (81672) - https://sketch.com -->
    <title>Broadcaster icon</title>
    <desc>Created with Sketch.</desc>
    <g id="desktop" stroke="none" stroke-width="1" fill="none" fill-rule="evenodd">
        <g id="Desktop-HD" transform="translate(-923.000000, -4898.000000)">
            <g id="Who-is-Livepeer-For" transform="translate(147.000000, 4650.940886)">
                <g id="Broadcasters" transform="translate(776.000000, 247.059114)">
                    <g id="Broadcaster-icon">
                        <circle id="Oval-Copy-4" fill="#9FEFE4" cx="49.5" cy="49.5" r="49.5"></circle>
                        <g id="twitch-icon" transform="translate(12.000000, 13.000000)" fill="#000000" fill-rule="nonzero">
                            <path d="M12.4864865,55.1578947 L27.3513514,55.1578947 L27.3513514,62.5263158 C27.3513514,63.1216842 27.7140541,63.6610526 28.2685135,63.888 C28.4528378,63.9646316 28.6460811,64 28.8378378,64 C29.2243243,64 29.6048649,63.8496842 29.8887838,63.5682105 L38.3721622,55.1578947 L54.8513514,55.1578947 C55.2452703,55.1578947 55.6243243,55.0031579 55.9022973,54.7261053 L65.5644595,45.1471579 C65.8439189,44.8715789 66,44.4972632 66,44.1052632 L66,9.47368421 C66,8.65873684 65.3340541,8 64.5135135,8 L12.4864865,8 C11.6659459,8 11,8.65873684 11,9.47368421 L11,53.6842105 C11,54.4991579 11.6659459,55.1578947 12.4864865,55.1578947 Z M13.972973,10.9473684 L63.027027,10.9473684 L63.027027,43.4951579 L54.2359459,52.2105263 L37.7567568,52.2105263 C37.3628378,52.2105263 36.9837838,52.3652632 36.7058108,52.6423158 L30.3243243,58.9688421 L30.3243243,53.6842105 C30.3243243,52.8692632 29.6583784,52.2105263 28.8378378,52.2105263 L13.972973,52.2105263 L13.972973,10.9473684 Z" id="Shape"></path>
                            <path d="M73.5294118,0 L6.61764706,0 C6.09411765,0 5.61029412,0.276230769 5.34705882,0.724923077 L0.2,9.49415385 C0.0691176471,9.71776923 0,9.97207692 0,10.2307692 L0,64.3076923 C0,65.1159231 0.658823529,65.7692308 1.47058824,65.7692308 L17.6470588,65.7692308 L17.6470588,74.5384615 C17.6470588,75.3466923 18.3058824,76 19.1176471,76 L29.4117647,76 C29.775,76 30.125,75.8655385 30.3955882,75.6243846 L41.4147059,65.7692308 L55.1470588,65.7692308 C55.5161765,65.7692308 55.8720588,65.6303846 56.1426471,65.3833846 L74.525,48.5756923 C74.8279412,48.2994615 75,47.9077692 75,47.5 L75,1.46153846 C75,0.653307692 74.3411765,0 73.5294118,0 Z M72.0588235,46.8598462 L54.5735294,62.8461538 L40.85,62.8461538 C40.4867647,62.8461538 40.1367647,62.9806154 39.8661765,63.2217692 L28.8470588,73.0769231 L20.5882353,73.0769231 L20.5882353,64.3076923 C20.5882353,63.4994615 19.9294118,62.8461538 19.1176471,62.8461538 L2.94117647,62.8461538 L2.94117647,10.6268462 L7.46176471,2.92307692 L72.0588235,2.92307692 L72.0588235,46.8598462 Z" id="Shape"></path>
                            <path d="M31.5,41 L37.5,41 C38.328,41 39,40.3444 39,39.5333333 L39,20.4666667 C39,19.6556 38.328,19 37.5,19 L31.5,19 C30.672,19 30,19.6556 30,20.4666667 L30,39.5333333 C30,40.3444 30.672,41 31.5,41 Z M33,21.9333333 L36,21.9333333 L36,38.0666667 L33,38.0666667 L33,21.9333333 Z" id="Shape"></path>
                            <path d="M45.5,41 L51.5,41 C52.328,41 53,40.3444 53,39.5333333 L53,20.4666667 C53,19.6556 52.328,19 51.5,19 L45.5,19 C44.672,19 44,19.6556 44,20.4666667 L44,39.5333333 C44,40.3444 44.672,41 45.5,41 Z M47,21.9333333 L50,21.9333333 L50,38.0666667 L47,38.0666667 L47,21.9333333 Z" id="Shape"></path>
                        </g>
                    </g>
                </g>
            </g>
        </g>
    </g>
</svg>