<?xml version="1.0" encoding="UTF-8"?>
<svg width="69px" height="69px" viewBox="0 0 69 69" version="1.1" xmlns="http://www.w3.org/2000/svg" xmlns:xlink="http://www.w3.org/1999/xlink">
    <!-- Generator: Sketch 56.2 (81672) - https://sketch.com -->
    <title>Group 2</title>
    <desc>Created with Sketch.</desc>
    <g id="desktop" stroke="none" stroke-width="1" fill="none" fill-rule="evenodd">
        <g id="Desktop-HD" transform="translate(-199.000000, -16913.000000)">
            <g id="Bottom-CTAs" transform="translate(199.000000, 16912.000000)">
                <g id="Participating" transform="translate(0.000000, 1.000000)">
                    <g id="participating-icon">
                        <g id="Group-2">
                            <circle id="Oval-Copy-2" fill="#FFD184" cx="34.5" cy="34.5" r="34.5"></circle>
                            <g id="wallet-icon" transform="translate(12.000000, 14.000000)" fill="#000000" fill-rule="nonzero">
                                <path d="M46.2186475,18.255 L45.0538934,18.255 L45.0538934,11.285 C45.0538934,8.435 42.7243852,6.125 39.8727459,6.125 L38.7983607,6.125 L38.8084016,3.535 C38.8084016,1.615 37.2420082,0.055 35.3141393,0.055 L4.24733607,0.055 C1.92786885,0.055 0.0301229508,1.915 0,4.225 C0,4.245 0,4.265 0,4.285 L0,38.425 C0,40.345 1.56639344,41.905 3.4942623,41.905 L39.8827869,41.905 C42.7444672,41.905 45.0639344,39.585 45.0639344,36.745 L45.0639344,29.765 L46.2286885,29.765 C47.7348361,29.765 48.9598361,28.545 48.9598361,27.045 L48.9598361,20.975 C48.9497951,19.475 47.7247951,18.255 46.2186475,18.255 Z M4.24733607,2.455 L35.3141393,2.455 C35.9065574,2.455 36.3985656,2.935 36.3985656,3.525 L36.3885246,6.125 L4.24733607,6.125 C3.23319672,6.125 2.40983607,5.305 2.40983607,4.295 C2.40983607,3.285 3.23319672,2.455 4.24733607,2.455 Z M42.6440574,36.735 C42.6440574,38.255 41.3989754,39.495 39.8727459,39.495 L3.48422131,39.495 C2.89180328,39.495 2.39979508,39.015 2.39979508,38.415 L2.39979508,8.105 C2.96209016,8.375 3.58463115,8.525 4.24733607,8.525 L39.8727459,8.525 C41.3989754,8.525 42.6440574,9.765 42.6440574,11.285 L42.6440574,18.255 L34.4204918,18.255 C32.9143443,18.255 31.6893443,19.475 31.6893443,20.975 L31.6893443,27.045 C31.6893443,28.545 32.9143443,29.765 34.4204918,29.765 L42.6440574,29.765 L42.6440574,36.735 Z M46.539959,27.045 C46.539959,27.225 46.3993852,27.365 46.2186475,27.365 L34.4305328,27.365 C34.2497951,27.365 34.1092213,27.225 34.1092213,27.045 L34.1092213,20.975 C34.1092213,20.805 34.2497951,20.655 34.4305328,20.655 L46.2186475,20.655 C46.3893443,20.655 46.539959,20.795 46.539959,20.975 L46.539959,27.045 L46.539959,27.045 Z" id="Shape"></path>
                            </g>
                        </g>
                    </g>
                </g>
            </g>
        </g>
    </g>
</svg>